<?xml version="1.0" encoding="utf-8"?>
<!-- Generator: Adobe Illustrator 15.0.0, SVG Export Plug-In . SVG Version: 6.00 Build 0)  -->
<!DOCTYPE svg PUBLIC "-//W3C//DTD SVG 1.1//EN" "http://www.w3.org/Graphics/SVG/1.1/DTD/svg11.dtd">
<svg version="1.1" id="Layer_1" xmlns="http://www.w3.org/2000/svg" xmlns:xlink="http://www.w3.org/1999/xlink" x="0px" y="0px"
   width="119.269px" height="119.266px" viewBox="0 0 119.269 119.266" enable-background="new 0 0 119.269 119.266"
   xml:space="preserve">
<line fill="none" stroke="#FFFFFF" stroke-width="2" stroke-miterlimit="10" x1="54.22" y1="61.704" x2="54.22" y2="87.034"/>
<path fill="none" stroke="#FFFFFF" stroke-width="2" stroke-miterlimit="10" d="M48.546,80.965c1.506,1.597,3.398,2.571,5.615,2.721
  h0.563c2.955,0,5.052-1.982,5.052-4.732c0-2.511-1.564-3.754-5.052-4.966l-0.563-0.235c-3.547-1.213-5.349-2.572-5.349-5.351v-0.03
  c0-2.69,2.127-4.789,5.349-4.908h0.563c2.217,0.09,3.873,0.947,5.172,2.101"/>
<path fill="none" stroke="#FFFFFF" stroke-width="2" stroke-miterlimit="10" d="M64.921,92.922c0.178-0.254,0.355-0.504,0.531-0.75
  c1.77-2.457,1.521-1.793,5.699-5.139c1.414-1.132,2.826-2.268,4.254-3.388c0.326-0.257,0.654-0.515,0.982-0.769
  c2.086-1.353,2.426-2.933,2.426-2.933c1.352-2.594,3.889-5.583,3.889-5.583l-0.01-0.008l9.158-6.706
  c1.635-1.198,1.99-3.492,0.793-5.123c-1.197-1.634-3.49-1.99-5.123-0.792l-11.908,8.721c-3.201,1.955-4.469,1.032-4.469,1.032
  c-4.34-1.354-2.705-11.448-2.705-11.448l-0.021-0.021l4.129-29.435c0.281-2.004-1.117-3.857-3.123-4.138
  c-2.002-0.282-3.855,1.116-4.139,3.12l-3.256,23.232c-0.563,2.59-1.768,2.394-1.768,2.394c-1.578,0-1.467-1.918-1.467-1.918
  c-0.008-0.002,0.137-27.387,0.137-27.387c0.011-2.025-1.621-3.674-3.646-3.685c-2.023-0.011-3.672,1.621-3.683,3.647l-0.143,26.856
  c-0.293,2.527-1.574,2.091-1.574,2.091c-0.838,0-1.266-0.823-1.481-1.56l-3.318-23.671c-0.281-2.004-2.135-3.402-4.141-3.12
  c-2.003,0.281-3.402,2.134-3.119,4.138l3.694,26.35c0.304,2.669-0.713,2.431-0.713,2.431c-0.588,0.034-0.983-0.438-1.203-0.81
  l-6.574-18.138c-0.691-1.902-2.793-2.887-4.694-2.198c-1.905,0.691-2.888,2.794-2.199,4.696l7.465,20.591
  c0.176,1.057,2.148,12.937,2.937,18.752c0.41,3.289,1.094,6.635,3.084,9.35c2.022,2.759,5.651,4.441,8.965,4.754
  c1.861,0.175,3.807-0.216,5.637,0.005c2.314,0.28,4.455,1.239,6.777,0.293C62.703,95.969,63.865,94.407,64.921,92.922z"/>
</svg>
