<?xml version="1.0" encoding="utf-8"?>
<!-- Generator: Adobe Illustrator 15.0.0, SVG Export Plug-In . SVG Version: 6.00 Build 0)  -->
<!DOCTYPE svg PUBLIC "-//W3C//DTD SVG 1.1//EN" "http://www.w3.org/Graphics/SVG/1.1/DTD/svg11.dtd">
<svg version="1.1" id="Layer_1" xmlns="http://www.w3.org/2000/svg" xmlns:xlink="http://www.w3.org/1999/xlink" x="0px" y="0px"
   width="119.27px" height="119.267px" viewBox="0 0 119.27 119.267" enable-background="new 0 0 119.27 119.267"
   xml:space="preserve">
<path fill="none" stroke="#FFFFFF" stroke-width="2" stroke-miterlimit="10" d="M1,59.635c0-7.932,1.543-15.607,4.594-22.807
  c2.951-6.979,7.181-13.257,12.581-18.65c5.399-5.398,11.673-9.635,18.651-12.586C44.027,2.547,51.701,1,59.635,1
  c7.929,0.004,15.607,1.547,22.811,4.596c6.977,2.945,13.252,7.184,18.65,12.582c5.396,5.396,9.631,11.672,12.582,18.65
  c3.043,7.199,4.59,14.875,4.592,22.807c0,7.937-1.547,15.612-4.592,22.815c-2.951,6.973-7.182,13.244-12.584,18.646
  c-5.396,5.398-11.67,9.631-18.646,12.586c-7.203,3.041-14.879,4.588-22.811,4.584c-7.938,0.004-15.609-1.543-22.813-4.588
  c-6.977-2.951-13.254-7.184-18.649-12.582c-5.4-5.396-9.632-11.674-12.583-18.65C2.543,75.247,1,67.571,1,59.635"/>
<path fill="none" stroke="#FFFFFF" stroke-width="2" stroke-miterlimit="10" d="M53.415,91.331c0,1.095,1.064,1.979,2.379,1.979
  h0.009h0.009c1.315,0,2.379-0.884,2.379-1.979V66.696h2.889v24.635c0,1.095,1.064,1.979,2.38,1.979h0.007h0.011
  c1.313,0,2.378-0.884,2.378-1.979V61.705H53.415V91.331z"/>
</svg>
