<?xml version="1.0" encoding="utf-8"?>
<!-- Generator: Adobe Illustrator 15.0.0, SVG Export Plug-In . SVG Version: 6.00 Build 0)  -->
<!DOCTYPE svg PUBLIC "-//W3C//DTD SVG 1.1//EN" "http://www.w3.org/Graphics/SVG/1.1/DTD/svg11.dtd">
<svg version="1.1" id="Layer_1" xmlns="http://www.w3.org/2000/svg" xmlns:xlink="http://www.w3.org/1999/xlink" x="0px" y="0px"
	 width="119.308px" height="119.308px" viewBox="0 0 119.308 119.308" enable-background="new 0 0 119.308 119.308"
	 xml:space="preserve">
<path fill="#FFFFFF" d="M78.084,58.753c0-0.025,0.004-0.051,0.004-0.076c-0.002-2.494-0.488-4.907-1.445-7.17
	c-0.72-1.703-1.693-3.271-2.885-4.685l9.965-9.967l-1.271-1.272l-9.918,9.92c-1.664-1.628-3.58-2.916-5.709-3.812
	c-1.986-0.842-4.121-1.292-6.271-1.395V26.513h-0.898h-0.901v13.783c-2.148,0.102-4.283,0.551-6.273,1.391
	c-2.127,0.903-4.043,2.191-5.707,3.816l-9.919-9.92l-0.636,0.636l-0.635,0.636l9.965,9.967c-1.191,1.413-2.164,2.98-2.887,4.685
	c-0.958,2.266-1.445,4.679-1.445,7.17c0,0.025,0.004,0.051,0.004,0.076H26.513v0.901v0.898h14.798
	c0.184,1.83,0.635,3.605,1.351,5.299c0.899,2.127,2.187,4.042,3.815,5.707L35.584,82.45l1.271,1.271l10.94-10.939
	c1.41,1.191,2.979,2.163,4.688,2.885c1.989,0.844,4.097,1.297,6.271,1.401v15.728h0.901h0.898V77.068
	c2.172-0.103,4.281-0.558,6.271-1.399c1.711-0.724,3.278-1.697,4.688-2.887l10.939,10.942l0.637-0.636l0.635-0.637L72.826,71.559
	c1.629-1.665,2.918-3.58,3.816-5.707c0.717-1.694,1.168-3.47,1.352-5.299h14.801v-0.898v-0.901H78.084z M76.178,60.552
	c-0.176,1.587-0.568,3.128-1.191,4.599c-0.809,1.912-1.966,3.635-3.43,5.135c-0.049,0.051-0.092,0.106-0.143,0.157
	c-0.162,0.162-0.34,0.306-0.508,0.463c-0.221,0.205-0.436,0.416-0.666,0.604c-1.242,1.029-2.619,1.869-4.115,2.502
	c-1.766,0.746-3.661,1.148-5.572,1.252c-0.301,0.016-0.6,0.044-0.898,0.044c-0.301,0-0.6-0.028-0.901-0.044
	c-1.912-0.104-3.806-0.506-5.572-1.252c-1.493-0.633-2.873-1.472-4.116-2.502c-0.407-0.336-0.8-0.691-1.176-1.068
	c-0.05-0.05-0.093-0.105-0.142-0.156c-1.463-1.5-2.621-3.223-3.428-5.136c-0.622-1.47-1.016-3.011-1.193-4.598
	c-0.032-0.298-0.047-0.598-0.063-0.898c-0.017-0.3-0.043-0.598-0.045-0.901c0-0.025-0.004-0.051-0.004-0.076
	c0-2.249,0.438-4.427,1.305-6.47c0.631-1.492,1.469-2.87,2.501-4.115c0.191-0.23,0.402-0.445,0.605-0.665
	c0.154-0.17,0.3-0.348,0.463-0.512c0.051-0.049,0.105-0.092,0.156-0.141c1.499-1.459,3.224-2.618,5.137-3.431
	c1.769-0.746,3.642-1.154,5.572-1.256c0.301-0.015,0.597-0.043,0.901-0.043c0.3,0,0.598,0.028,0.898,0.043
	c1.932,0.102,3.805,0.511,5.572,1.26c1.914,0.808,3.637,1.965,5.135,3.428c0.051,0.049,0.105,0.091,0.156,0.14
	c0.377,0.377,0.732,0.771,1.068,1.178c1.033,1.246,1.873,2.623,2.502,4.114c0.863,2.041,1.301,4.218,1.303,6.47
	c0,0.025-0.004,0.051-0.004,0.076c0,0.303-0.025,0.601-0.043,0.901S76.211,60.254,76.178,60.552"/>
<path fill="none" stroke="#FFFFFF" stroke-width="2" stroke-miterlimit="10" d="M9.01,30.102C5.012,36.953,2.477,44.36,1.483,52.116
	c-0.969,7.514-0.479,15.068,1.466,22.45c1.942,7.384,5.225,14.204,9.766,20.27c4.685,6.259,10.533,11.463,17.384,15.461
	c6.85,3.993,14.26,6.531,22.017,7.528c7.511,0.972,15.067,0.474,22.451-1.467c7.381-1.942,14.202-5.227,20.267-9.768
	c6.257-4.684,11.462-10.533,15.461-17.384c4-6.853,6.532-14.262,7.532-22.019c0.969-7.509,0.474-15.06-1.47-22.447
	c-1.94-7.383-5.224-14.2-9.761-20.269c-4.689-6.257-10.539-11.462-17.393-15.456c-6.852-4.004-14.258-6.534-22.014-7.535
	C59.677,0.514,52.122,1.005,44.742,2.95c-7.384,1.938-14.204,5.227-20.269,9.765C18.211,17.397,13.01,23.248,9.01,30.102"/>
</svg>
