<?xml version="1.0" encoding="utf-8"?>
<!-- Generator: Adobe Illustrator 15.0.0, SVG Export Plug-In . SVG Version: 6.00 Build 0)  -->
<!DOCTYPE svg PUBLIC "-//W3C//DTD SVG 1.1//EN" "http://www.w3.org/Graphics/SVG/1.1/DTD/svg11.dtd">
<svg version="1.1" id="Layer_1" xmlns="http://www.w3.org/2000/svg" xmlns:xlink="http://www.w3.org/1999/xlink" x="0px" y="0px"
	 width="45.547px" height="45.547px" viewBox="0 0 45.547 45.547" enable-background="new 0 0 45.547 45.547" xml:space="preserve">
<path fill="none" stroke="#FFFFFF" stroke-width="1.5" stroke-miterlimit="10" d="M7.199,38.346
	c-2.107-2.104-3.732-4.555-4.836-7.276c-1.072-2.638-1.613-5.429-1.613-8.295c0-2.867,0.541-5.658,1.613-8.297
	c1.104-2.72,2.729-5.168,4.836-7.277c2.105-2.105,4.557-3.733,7.279-4.838c2.635-1.07,5.428-1.612,8.295-1.612
	c2.869,0.002,5.658,0.542,8.295,1.612c2.719,1.105,5.17,2.732,7.277,4.838c2.107,2.109,3.734,4.557,4.838,7.281
	c1.07,2.635,1.615,5.424,1.613,8.293c0.002,2.868-0.543,5.657-1.613,8.295c-1.104,2.72-2.73,5.172-4.838,7.276
	c-2.107,2.109-4.555,3.735-7.277,4.84c-2.639,1.068-5.426,1.613-8.295,1.611c-2.867,0.002-5.656-0.543-8.295-1.611
	C11.756,42.082,9.305,40.453,7.199,38.346"/>
<path fill="none" stroke="#FFFFFF" stroke-miterlimit="10" d="M10.535,22.86l7.643,7.645l4.559,4.558l0.072,0.073l12.205-12.202
	l-0.008-0.006c2.668-2.916,2.59-7.443-0.232-10.265c-2.902-2.903-7.605-2.903-10.51,0c-0.625,0.627-1.119,1.338-1.475,2.099
	c-0.355-0.787-0.859-1.527-1.508-2.173c-2.902-2.903-7.607-2.903-10.51,0c-2.822,2.822-2.898,7.349-0.23,10.264L10.535,22.86z"/>
</svg>
