<?xml version="1.0" encoding="utf-8"?>
<!-- Generator: Adobe Illustrator 15.0.0, SVG Export Plug-In . SVG Version: 6.00 Build 0)  -->
<!DOCTYPE svg PUBLIC "-//W3C//DTD SVG 1.1//EN" "http://www.w3.org/Graphics/SVG/1.1/DTD/svg11.dtd">
<svg version="1.1" id="Layer_1" xmlns="http://www.w3.org/2000/svg" xmlns:xlink="http://www.w3.org/1999/xlink" x="0px" y="0px"
	 width="119.269px" height="119.266px" viewBox="0 0 119.269 119.266" enable-background="new 0 0 119.269 119.266"
	 xml:space="preserve">
<path fill="#FFFFFF" d="M93.745,59.229h-7.399l4.07-4.066l-1.238-1.238l-5.303,5.304h-8.023l9.316-9.313l-1.238-1.239L73.378,59.229
	h-6.543c-0.08-0.671-0.246-1.325-0.513-1.948c-0.251-0.596-0.582-1.145-0.979-1.649l12.771-12.771l-1.237-1.236l-12.77,12.767
	c-0.505-0.397-1.055-0.726-1.648-0.98c-0.599-0.252-1.234-0.412-1.877-0.496v-6.081l10.754-10.753l-1.238-1.236l-9.516,9.515v-8.021
	l5.506-5.506l-1.237-1.237l-4.269,4.27v-7.511h-1.749v7.657l-4.216-4.216l-1.236,1.238l5.452,5.452v8.021l-9.464-9.463l-1.235,1.237
	l10.699,10.701v5.91c-0.693,0.074-1.377,0.246-2.024,0.518c-0.593,0.254-1.143,0.584-1.648,0.98L42.59,41.826l-1.235,1.235
	l12.568,12.57c-0.396,0.504-0.728,1.051-0.981,1.651c-0.265,0.621-0.431,1.275-0.512,1.948h-6.541L35.538,48.877l-1.237,1.238
	l9.115,9.114h-8.022l-5.104-5.104l-1.237,1.238l3.867,3.866h-7.396v1.75h7.947l-4.026,4.025l1.237,1.235l5.262-5.261h8.022
	l-9.273,9.271l1.237,1.237L46.44,60.98h5.99c0.081,0.672,0.247,1.324,0.512,1.947c0.252,0.598,0.581,1.148,0.98,1.652L41.471,77.032
	l1.236,1.233L55.16,65.816c0.505,0.396,1.055,0.729,1.648,0.979c0.646,0.274,1.326,0.448,2.024,0.524v6.456L48.526,84.083
	l1.236,1.237l9.07-9.072v8.022l-5.06,5.06l1.236,1.238l3.824-3.824v6.147l1.749,0.017v-6.017l3.877,3.875l1.236-1.235l-5.114-5.114
	v-8.021l9.125,9.123l1.236-1.235L60.581,73.922v-6.626c0.646-0.085,1.275-0.246,1.877-0.502c0.594-0.25,1.145-0.583,1.648-0.979
	l12.65,12.65l1.239-1.236L65.343,64.578c0.397-0.503,0.729-1.053,0.979-1.648c0.267-0.625,0.433-1.281,0.513-1.949h5.993
	l10.709,10.707l1.236-1.234l-9.472-9.473h8.021l5.463,5.461l1.236-1.235l-4.226-4.226h7.948V59.229z M65.07,60.98
	c-0.07,0.434-0.184,0.86-0.357,1.269c-0.164,0.384-0.379,0.74-0.623,1.075c-0.172,0.236-0.351,0.469-0.561,0.678
	c-0.209,0.209-0.439,0.387-0.677,0.559c-0.337,0.244-0.69,0.461-1.076,0.625c-0.383,0.162-0.785,0.273-1.195,0.345
	c-0.309,0.054-0.624,0.087-0.945,0.087h-0.005c-0.27,0-0.537-0.027-0.799-0.066c-0.461-0.068-0.911-0.183-1.341-0.367
	c-0.385-0.162-0.74-0.379-1.077-0.623c-0.236-0.172-0.467-0.35-0.678-0.56c-0.209-0.208-0.387-0.44-0.56-0.676
	c-0.244-0.336-0.46-0.692-0.623-1.076c-0.172-0.407-0.286-0.834-0.357-1.269c-0.044-0.289-0.074-0.578-0.074-0.875
	c0-0.297,0.03-0.59,0.074-0.876c0.071-0.436,0.185-0.86,0.357-1.267c0.164-0.387,0.381-0.742,0.624-1.078
	c0.174-0.237,0.351-0.467,0.56-0.677c0.21-0.209,0.441-0.388,0.677-0.559c0.339-0.244,0.692-0.461,1.077-0.624
	c0.432-0.183,0.88-0.3,1.341-0.367c0.263-0.038,0.531-0.066,0.801-0.066c0.322,0,0.637,0.034,0.948,0.088
	c0.41,0.071,0.812,0.184,1.196,0.346c0.385,0.162,0.738,0.379,1.075,0.623c0.235,0.171,0.468,0.35,0.677,0.559
	c0.209,0.21,0.389,0.442,0.561,0.677c0.244,0.337,0.459,0.692,0.623,1.076c0.174,0.41,0.287,0.834,0.357,1.269
	c0.046,0.287,0.074,0.579,0.074,0.876C65.144,60.4,65.116,60.691,65.07,60.98"/>
<path fill="none" stroke="#FFFFFF" stroke-width="2" stroke-miterlimit="10" d="M1,59.635c0-7.932,1.543-15.607,4.594-22.807
	c2.951-6.978,7.181-13.256,12.582-18.65c5.398-5.398,11.672-9.635,18.65-12.586C44.027,2.547,51.701,1,59.634,1
	c7.929,0.004,15.608,1.547,22.811,4.596c6.977,2.945,13.252,7.184,18.65,12.582c5.396,5.396,9.633,11.672,12.582,18.65
	c3.043,7.2,4.59,14.875,4.592,22.807c0,7.936-1.547,15.611-4.592,22.814c-2.949,6.973-7.182,13.245-12.584,18.646
	c-5.396,5.398-11.668,9.632-18.646,12.587c-7.203,3.04-14.88,4.588-22.811,4.584c-7.937,0.004-15.609-1.544-22.812-4.589
	c-6.976-2.95-13.254-7.184-18.648-12.582c-5.401-5.396-9.633-11.674-12.584-18.649C2.543,75.246,1,67.571,1,59.635"/>
</svg>
