<?xml version="1.0" encoding="utf-8"?>
<!-- Generator: Adobe Illustrator 15.0.0, SVG Export Plug-In . SVG Version: 6.00 Build 0)  -->
<!DOCTYPE svg PUBLIC "-//W3C//DTD SVG 1.1//EN" "http://www.w3.org/Graphics/SVG/1.1/DTD/svg11.dtd">
<svg version="1.1" id="Layer_1" xmlns="http://www.w3.org/2000/svg" xmlns:xlink="http://www.w3.org/1999/xlink" x="0px" y="0px"
	 width="119.271px" height="119.266px" viewBox="0 0 119.271 119.266" enable-background="new 0 0 119.271 119.266"
	 xml:space="preserve">
<path fill="#FFFFFF" d="M92.775,60.532v-1.797H67.093l1.292-1.26l-0.9-0.131l12.607-5.241L79.4,50.443l-15.387,6.396l-0.274-0.041
	l19.965-19.964l-1.272-1.272l-20.247,20.25l-0.105,0.256l-0.052-0.101l0.157-0.155l6.592-15.971l-1.662-0.685L61.02,53.922
	l-0.485-0.983V26.493h-1.799v26.447l-0.494,1.002l-6.137-14.766l-1.66,0.69l6.618,15.924L36.836,35.563l-1.271,1.272L55.53,56.798
	l-0.3,0.044l-15.387-6.351l-0.685,1.661l12.587,5.196l-0.859,0.126l1.292,1.26H26.494v1.797h27.529l0.331,0.323l-15.177,6.308
	l0.691,1.659l15.266-6.346l-0.079,0.465L35.565,82.43l1.271,1.271l17.691-17.692l-0.3,1.75l1.379-0.725l-5.113,12.388l1.661,0.687
	l5.937-14.381l0.645-0.34v27.385h1.799V65.388l0.664,0.352l5.967,14.352l1.66-0.689L63.69,67.048l1.352,0.711l-0.299-1.749
	l17.688,17.693l1.272-1.272l-19.488-19.49l-0.082-0.478l15.291,6.312l0.685-1.662l-15.184-6.269l0.321-0.313H92.775z M64.518,58.734
	l-1.401,1.364l-0.445,0.434l-0.438,0.428l-0.155,0.151l0.094,0.541l0.369,2.156l0.114,0.664l-0.045-0.022l-2.075-1.093l-0.416-0.219
	l-0.483-0.254l-0.474,0.25l-0.426,0.223l-2.057,1.082l-0.063,0.033l0.114-0.664l0.369-2.147l0.094-0.55l-0.156-0.151l-0.438-0.428
	l-0.44-0.428l-1.405-1.369l-0.004-0.005L55,58.693l2.117-0.308l0.966-0.141l0.041-0.006l0.082-0.166l0.377-0.764l0.152-0.307
	l0.422-0.856l0.477-0.966l0.471,0.955l0.429,0.869l0.151,0.307l0.373,0.756l0.086,0.172l0.036,0.006l0.972,0.141l2.093,0.304
	l0.274,0.04L64.518,58.734z"/>
<path fill="#231F20" d="M30.049,70.669c-0.486,0-0.881,0.395-0.881,0.879c0,0.483,0.395,0.879,0.881,0.879
	c0.484,0,0.878-0.396,0.878-0.879C30.927,71.064,30.533,70.669,30.049,70.669"/>
<circle fill="none" stroke="#FFFFFF" stroke-miterlimit="10" cx="30.049" cy="71.548" r="0.879"/>
<path fill="#231F20" d="M71.646,88.386c-0.482,0-0.878,0.396-0.878,0.881c0,0.483,0.396,0.88,0.878,0.88
	c0.486,0,0.881-0.396,0.881-0.88C72.526,88.783,72.132,88.386,71.646,88.386"/>
<path fill="none" stroke="#FFFFFF" stroke-miterlimit="10" d="M71.646,88.386c-0.482,0-0.878,0.396-0.878,0.881
	c0,0.483,0.396,0.88,0.878,0.88c0.486,0,0.881-0.396,0.881-0.88C72.526,88.783,72.132,88.386,71.646,88.386z"/>
<path fill="#231F20" d="M89.365,70.669c-0.483,0-0.879,0.395-0.879,0.879c0,0.483,0.396,0.879,0.879,0.879s0.879-0.396,0.879-0.879
	C90.244,71.064,89.849,70.669,89.365,70.669"/>
<circle fill="none" stroke="#FFFFFF" stroke-miterlimit="10" cx="89.365" cy="71.548" r="0.879"/>
<path fill="#231F20" d="M30.049,48.547c0.484,0,0.878-0.394,0.878-0.879c0-0.484-0.394-0.879-0.878-0.879
	c-0.486,0-0.881,0.395-0.881,0.879C29.168,48.153,29.563,48.547,30.049,48.547"/>
<circle fill="none" stroke="#FFFFFF" stroke-miterlimit="10" cx="30.049" cy="47.668" r="0.879"/>
<path fill="#231F20" d="M47.768,88.386c-0.484,0-0.879,0.396-0.879,0.881c0,0.483,0.395,0.88,0.879,0.88
	c0.485,0,0.88-0.396,0.88-0.88C48.647,88.783,48.252,88.386,47.768,88.386"/>
<path fill="none" stroke="#FFFFFF" stroke-miterlimit="10" d="M47.768,88.386c-0.484,0-0.879,0.396-0.879,0.881
	c0,0.483,0.395,0.88,0.879,0.88c0.485,0,0.88-0.396,0.88-0.88C48.647,88.783,48.252,88.386,47.768,88.386z"/>
<path fill="#231F20" d="M89.365,48.547c0.483,0,0.879-0.394,0.879-0.879c0-0.484-0.396-0.879-0.879-0.879s-0.879,0.395-0.879,0.879
	C88.486,48.153,88.882,48.547,89.365,48.547"/>
<circle fill="none" stroke="#FFFFFF" stroke-miterlimit="10" cx="89.365" cy="47.668" r="0.879"/>
<path fill="#231F20" d="M71.646,30.828c0.486,0,0.881-0.395,0.881-0.879s-0.395-0.879-0.881-0.879c-0.482,0-0.878,0.395-0.878,0.879
	S71.163,30.828,71.646,30.828"/>
<path fill="none" stroke="#FFFFFF" stroke-miterlimit="10" d="M71.646,30.828c0.486,0,0.881-0.395,0.881-0.879
	s-0.395-0.879-0.881-0.879c-0.482,0-0.878,0.395-0.878,0.879S71.163,30.828,71.646,30.828z"/>
<path fill="#231F20" d="M47.768,30.828c0.485,0,0.88-0.395,0.88-0.879s-0.395-0.879-0.88-0.879c-0.484,0-0.879,0.395-0.879,0.879
	S47.284,30.828,47.768,30.828"/>
<circle fill="none" stroke="#FFFFFF" stroke-miterlimit="10" cx="47.768" cy="29.949" r="0.879"/>
<path fill="#FFFFFF" d="M47.768,32.626c1.477,0,2.677-1.202,2.677-2.677c0-1.477-1.2-2.678-2.677-2.678s-2.677,1.201-2.677,2.678
	C45.091,31.424,46.291,32.626,47.768,32.626 M47.768,29.07c0.485,0,0.88,0.395,0.88,0.879s-0.395,0.879-0.88,0.879
	c-0.484,0-0.879-0.396-0.879-0.879S47.284,29.07,47.768,29.07"/>
<path fill="#FFFFFF" d="M71.646,32.626c1.479,0,2.678-1.202,2.678-2.677c0-1.477-1.199-2.678-2.678-2.678
	c-1.477,0-2.675,1.201-2.675,2.678C68.971,31.424,70.169,32.626,71.646,32.626 M71.646,29.07c0.486,0,0.881,0.395,0.881,0.879
	s-0.395,0.879-0.881,0.879c-0.482,0-0.878-0.396-0.878-0.879S71.163,29.07,71.646,29.07"/>
<path fill="#FFFFFF" d="M47.768,86.589c-1.477,0-2.677,1.202-2.677,2.678c0,1.477,1.2,2.678,2.677,2.678s2.677-1.201,2.677-2.678
	C50.444,87.792,49.245,86.589,47.768,86.589 M47.768,90.146c-0.484,0-0.879-0.396-0.879-0.879c0-0.484,0.395-0.881,0.879-0.881
	c0.485,0,0.88,0.396,0.88,0.881C48.647,89.75,48.252,90.146,47.768,90.146"/>
<path fill="#FFFFFF" d="M71.646,86.589c-1.477,0-2.675,1.202-2.675,2.678c0,1.477,1.198,2.678,2.675,2.678
	c1.479,0,2.678-1.201,2.678-2.678C74.323,87.792,73.124,86.589,71.646,86.589 M71.646,90.146c-0.482,0-0.878-0.396-0.878-0.879
	c0-0.484,0.396-0.881,0.878-0.881c0.486,0,0.881,0.396,0.881,0.881C72.526,89.75,72.132,90.146,71.646,90.146"/>
<path fill="#FFFFFF" d="M30.049,68.871c-1.477,0-2.679,1.202-2.679,2.678c0,1.477,1.202,2.678,2.679,2.678
	c1.475,0,2.676-1.201,2.676-2.678C32.725,70.073,31.524,68.871,30.049,68.871 M30.049,72.427c-0.486,0-0.881-0.396-0.881-0.879
	c0-0.484,0.395-0.879,0.881-0.879c0.484,0,0.878,0.395,0.878,0.879C30.927,72.032,30.533,72.427,30.049,72.427"/>
<path fill="#FFFFFF" d="M30.049,50.345c1.475,0,2.676-1.201,2.676-2.677c0-1.477-1.201-2.678-2.676-2.678
	c-1.477,0-2.679,1.201-2.679,2.678C27.37,49.144,28.572,50.345,30.049,50.345 M30.049,46.789c0.484,0,0.878,0.395,0.878,0.879
	c0,0.485-0.394,0.879-0.878,0.879c-0.486,0-0.881-0.395-0.881-0.879C29.168,47.184,29.563,46.789,30.049,46.789"/>
<path fill="#FFFFFF" d="M89.365,68.871c-1.478,0-2.679,1.202-2.679,2.678c0,1.477,1.201,2.678,2.679,2.678s2.678-1.201,2.678-2.678
	C92.043,70.073,90.843,68.871,89.365,68.871 M89.365,72.427c-0.483,0-0.879-0.396-0.879-0.879c0-0.484,0.396-0.879,0.879-0.879
	s0.879,0.395,0.879,0.879C90.244,72.032,89.849,72.427,89.365,72.427"/>
<path fill="#FFFFFF" d="M89.365,50.345c1.478,0,2.678-1.201,2.678-2.677c0-1.477-1.2-2.678-2.678-2.678s-2.679,1.201-2.679,2.678
	C86.687,49.144,87.888,50.345,89.365,50.345 M89.365,46.789c0.483,0,0.879,0.395,0.879,0.879c0,0.485-0.396,0.879-0.879,0.879
	s-0.879-0.395-0.879-0.879C88.486,47.184,88.882,46.789,89.365,46.789"/>
<path fill="none" stroke="#FFFFFF" stroke-width="2" stroke-miterlimit="10" d="M1,59.635c0-7.932,1.543-15.607,4.593-22.807
	c2.951-6.978,7.182-13.256,12.581-18.65c5.399-5.398,11.673-9.635,18.651-12.586C44.027,2.547,51.7,1,59.635,1
	c7.929,0.004,15.607,1.547,22.81,4.596c6.978,2.945,13.252,7.184,18.651,12.582c5.396,5.396,9.632,11.672,12.582,18.65
	c3.043,7.2,4.591,14.875,4.593,22.807c0,7.936-1.547,15.611-4.593,22.814c-2.95,6.973-7.182,13.245-12.584,18.646
	c-5.397,5.398-11.67,9.632-18.647,12.587c-7.202,3.04-14.879,4.588-22.81,4.584c-7.938,0.004-15.61-1.544-22.813-4.589
	c-6.976-2.95-13.253-7.184-18.649-12.582c-5.399-5.396-9.631-11.674-12.583-18.649C2.543,75.246,1,67.571,1,59.635"/>
</svg>
