<?xml version="1.0" encoding="utf-8"?>
<!-- Generator: Adobe Illustrator 15.0.0, SVG Export Plug-In . SVG Version: 6.00 Build 0)  -->
<!DOCTYPE svg PUBLIC "-//W3C//DTD SVG 1.1//EN" "http://www.w3.org/Graphics/SVG/1.1/DTD/svg11.dtd">
<svg version="1.1" id="Layer_1" xmlns="http://www.w3.org/2000/svg" xmlns:xlink="http://www.w3.org/1999/xlink" x="0px" y="0px"
	 width="119.31px" height="119.309px" viewBox="0 0 119.31 119.309" enable-background="new 0 0 119.31 119.309"
	 xml:space="preserve">
<path fill="none" stroke="#FFFFFF" stroke-width="2" stroke-miterlimit="10" d="M41.82,45.772c-3.558-3.254-9.081-3.16-12.526,0.283
	c-3.541,3.541-3.541,9.283,0,12.824c0.791,0.789,1.691,1.403,2.652,1.84c-0.927,0.437-1.796,1.035-2.562,1.8
	c-3.54,3.543-3.54,9.282,0.001,12.823c3.443,3.444,8.967,3.537,12.526,0.284l0.008,0.005l14.886-14.886l-0.089-0.09l-5.561-5.562
	l-9.328-9.328L41.82,45.772z"/>
<path fill="none" stroke="#FFFFFF" stroke-width="2" stroke-miterlimit="10" d="M77.488,75.745c3.558,3.256,9.082,3.16,12.526-0.281
	c3.541-3.543,3.541-9.283,0-12.824c-0.791-0.791-1.691-1.404-2.652-1.84c0.927-0.436,1.796-1.035,2.563-1.801
	c3.541-3.541,3.541-9.283,0-12.824c-3.445-3.444-8.969-3.535-12.527-0.282l-0.008-0.007L62.503,60.773l0.09,0.091l5.561,5.561
	l9.326,9.326L77.488,75.745z"/>
<path fill="none" stroke="#FFFFFF" stroke-width="2" stroke-miterlimit="10" d="M44.722,41.409l9.327,9.326l5.56,5.563l0.092,0.09
	l14.888-14.891l-0.008-0.006c3.254-3.557,3.16-9.082-0.283-12.525c-3.541-3.541-9.282-3.541-12.824,0
	c-0.764,0.765-1.364,1.632-1.799,2.56c-0.437-0.959-1.051-1.861-1.841-2.652c-3.541-3.541-9.282-3.541-12.823,0.002
	c-3.443,3.441-3.537,8.967-0.283,12.525L44.722,41.409z"/>
<line fill="none" stroke="#FFFFFF" stroke-width="2" stroke-miterlimit="10" x1="59.714" y1="56.573" x2="59.714" y2="93.093"/>
<path fill="none" stroke="#FFFFFF" stroke-width="2" stroke-miterlimit="10" d="M89.207,110.298
	c-6.853,3.998-14.258,6.533-22.015,7.528c-7.512,0.968-15.068,0.479-22.449-1.467c-7.384-1.94-14.203-5.226-20.268-9.765
	c-6.26-4.687-11.465-10.533-15.464-17.385c-3.994-6.852-6.529-14.261-7.53-22.018c-0.969-7.51-0.472-15.067,1.468-22.452
	c1.944-7.381,5.229-14.203,9.768-20.265c4.685-6.258,10.534-11.463,17.385-15.463c6.852-3.998,14.26-6.531,22.018-7.531
	c7.51-0.969,15.059-0.473,22.447,1.468c7.382,1.942,14.201,5.225,20.268,9.764c6.26,4.688,11.464,10.537,15.458,17.391
	c4.004,6.853,6.535,14.257,7.536,22.013c0.967,7.514,0.473,15.069-1.469,22.45c-1.938,7.384-5.229,14.201-9.766,20.268
	C101.911,101.097,96.06,106.298,89.207,110.298z"/>
</svg>
