<?xml version="1.0" encoding="utf-8"?>
<!-- Generator: Adobe Illustrator 15.0.0, SVG Export Plug-In . SVG Version: 6.00 Build 0)  -->
<!DOCTYPE svg PUBLIC "-//W3C//DTD SVG 1.1//EN" "http://www.w3.org/Graphics/SVG/1.1/DTD/svg11.dtd">
<svg version="1.1" id="Layer_1" xmlns="http://www.w3.org/2000/svg" xmlns:xlink="http://www.w3.org/1999/xlink" x="0px" y="0px"
	 width="45.547px" height="45.547px" viewBox="0 0 45.547 45.547" enable-background="new 0 0 45.547 45.547" xml:space="preserve">
<path fill="none" stroke="#FFFFFF" stroke-miterlimit="10" d="M19.766,22.815h0.094c-0.012,0-0.025-0.002-0.039-0.002
	C19.801,22.813,19.783,22.815,19.766,22.815z"/>
<path fill="none" stroke="#FFFFFF" stroke-miterlimit="10" d="M25.693,22.815h-0.297v0.015
	C25.494,22.825,25.596,22.817,25.693,22.815z"/>
<polygon fill="none" stroke="#FFFFFF" stroke-miterlimit="10" points="25.727,22.815 25.693,22.815 25.775,22.815 "/>
<path fill="none" stroke="#FFFFFF" stroke-miterlimit="10" d="M19.859,22.815c0.098,0.002,0.193,0.01,0.293,0.015
	c0-0.005-0.004-0.009-0.004-0.015H19.859z"/>
<path fill="none" stroke="#FFFFFF" stroke-miterlimit="10" d="M32.627,12.965c-0.002-0.014-0.004-0.025-0.01-0.036
	c-0.795-0.284-1.623-0.437-2.477-0.437c-0.953-0.001-1.883,0.18-2.758,0.536c-0.189,0.077-0.367,0.165-0.545,0.254
	c-0.689,0.348-1.322,0.8-1.879,1.356c-0.699,0.701-1.24,1.515-1.609,2.422c-0.355,0.877-0.536,1.804-0.536,2.759
	c-0.001,0.112,0.013,0.221,0.019,0.331c0.32,0.007,0.635,0.069,0.932,0.19c0.32,0.131,0.611,0.323,0.861,0.573l0.008,0.007
	c0.006,0.006,0.012,0.013,0.018,0.021"/>
<path fill="none" stroke="#FFFFFF" stroke-miterlimit="10" d="M24.65,20.942c0.24,0.244,0.426,0.529,0.555,0.843
	c0.121,0.296,0.184,0.609,0.189,0.931c0.109,0.007,0.219,0.017,0.332,0.016c0.955,0.001,1.883-0.18,2.76-0.536
	c0.904-0.367,1.719-0.909,2.422-1.609c0.554-0.557,1.008-1.188,1.355-1.876c0.092-0.18,0.174-0.359,0.254-0.546
	c0.355-0.877,0.535-1.807,0.535-2.76c0-0.84-0.148-1.657-0.426-2.44"/>
<path fill="none" stroke="#FFFFFF" stroke-miterlimit="10" d="M23.35,28.486c-0.355-0.879-0.537-1.807-0.535-2.76
	c0-0.111,0.012-0.22,0.014-0.332c-0.016,0-0.035,0.002-0.051,0.002v11.438V25.396h-0.006c-0.018,0-0.035-0.002-0.055-0.002
	c0.006,0.112,0.016,0.219,0.016,0.33c0,0.955-0.18,1.883-0.537,2.762c-0.365,0.904-0.909,1.721-1.611,2.42
	c-0.555,0.558-1.186,1.009-1.877,1.355c0.07,0.217,0.141,0.43,0.227,0.641c0.369,0.905,0.91,1.721,1.609,2.422
	c0.65,0.649,1.404,1.154,2.229,1.519c0.826-0.364,1.582-0.869,2.229-1.519c0.705-0.701,1.246-1.518,1.613-2.422
	c0.084-0.211,0.154-0.424,0.225-0.641c-0.689-0.346-1.322-0.798-1.879-1.355C24.26,30.206,23.719,29.391,23.35,28.486z"/>
<path fill="none" stroke="#FFFFFF" stroke-miterlimit="10" d="M12.965,32.627c0.783,0.277,1.602,0.427,2.439,0.427
	c0.955,0,1.883-0.183,2.758-0.536c0.188-0.077,0.369-0.164,0.545-0.255c0.691-0.349,1.322-0.8,1.877-1.356
	c0.703-0.699,1.246-1.515,1.611-2.421c0.357-0.878,0.537-1.805,0.537-2.76c0-0.112-0.01-0.22-0.016-0.33
	c-0.324-0.007-0.637-0.069-0.934-0.188c-0.314-0.129-0.598-0.316-0.84-0.556"/>
<path fill="none" stroke="#FFFFFF" stroke-miterlimit="10" d="M20.943,24.652c-0.006-0.01-0.014-0.016-0.021-0.021l-0.01-0.006
	c-0.25-0.251-0.439-0.541-0.572-0.864c-0.121-0.297-0.18-0.611-0.188-0.932c-0.1-0.005-0.195-0.013-0.293-0.015h-0.094
	c-0.934,0.008-1.846,0.188-2.705,0.535c-0.906,0.366-1.719,0.908-2.42,1.61c-0.559,0.558-1.012,1.187-1.355,1.877
	c-0.094,0.177-0.178,0.358-0.256,0.546c-0.355,0.875-0.537,1.803-0.537,2.758c0,0.854,0.152,1.685,0.436,2.477
	c0.014,0.004,0.023,0.007,0.037,0.011"/>
<path fill="none" stroke="#FFFFFF" stroke-miterlimit="10" d="M36.797,22.815H25.775c0.936,0.006,1.848,0.186,2.711,0.535
	c0.902,0.366,1.719,0.908,2.422,1.611c0.555,0.555,1.008,1.186,1.355,1.875c0.213-0.064,0.428-0.139,0.639-0.223
	c0.902-0.368,1.719-0.91,2.422-1.61c0.648-0.651,1.154-1.403,1.518-2.229c-0.363-0.828-0.869-1.58-1.518-2.229
	c-0.703-0.703-1.52-1.245-2.422-1.61c-0.211-0.087-0.426-0.161-0.639-0.224c-0.348,0.688-0.801,1.319-1.355,1.875
	c-0.703,0.701-1.518,1.243-2.422,1.61c-0.878,0.355-1.805,0.537-2.76,0.536c-0.113,0.001-0.223-0.009-0.332-0.016
	c0.002,0.021,0.002,0.038,0.002,0.058v0.041h0.297h0.033h0.049"/>
<path fill="none" stroke="#FFFFFF" stroke-miterlimit="10" d="M32.59,32.625c0.008-0.004,0.02-0.004,0.027-0.008
	c0.006-0.012,0.008-0.021,0.01-0.031c0.277-0.784,0.426-1.604,0.426-2.444c0-0.955-0.18-1.881-0.535-2.76
	c-0.08-0.188-0.162-0.367-0.254-0.546c-0.348-0.689-0.801-1.319-1.355-1.875c-0.703-0.702-1.52-1.244-2.422-1.61
	c-0.863-0.35-1.775-0.53-2.711-0.536h-0.082c-0.098,0.002-0.199,0.01-0.297,0.015c-0.008,0.321-0.07,0.636-0.191,0.933
	c-0.129,0.313-0.314,0.598-0.555,0.843l-0.025,0.027c-0.006,0.005-0.01,0.009-0.014,0.014"/>
<path fill="none" stroke="#FFFFFF" stroke-miterlimit="10" d="M24.611,24.646c-0.25,0.242-0.533,0.431-0.848,0.56
	c-0.297,0.121-0.611,0.183-0.936,0.188c-0.002,0.111-0.014,0.221-0.014,0.332c-0.002,0.953,0.18,1.881,0.535,2.76
	c0.369,0.904,0.91,1.72,1.609,2.421c0.557,0.556,1.189,1.009,1.879,1.354c0.178,0.092,0.355,0.178,0.545,0.254
	c0.875,0.358,1.805,0.539,2.758,0.537c0.844,0,1.664-0.149,2.449-0.428"/>
<path fill="none" stroke="#FFFFFF" stroke-miterlimit="10" d="M17.061,23.35c0.859-0.348,1.771-0.527,2.705-0.535H8.76h11.006
	c0.018,0,0.035-0.002,0.055-0.002c0.014,0,0.027,0.002,0.039,0.002h0.289v-0.041c0-0.021,0-0.037,0.004-0.058
	c-0.113,0.007-0.219,0.017-0.332,0.017c-0.953,0-1.885-0.181-2.76-0.537c-0.906-0.367-1.719-0.909-2.42-1.61
	c-0.559-0.556-1.012-1.187-1.355-1.876c-0.219,0.066-0.43,0.138-0.641,0.224c-0.906,0.366-1.719,0.908-2.424,1.611
	c-0.648,0.649-1.154,1.401-1.516,2.229c0.361,0.827,0.867,1.577,1.516,2.228c0.705,0.702,1.518,1.244,2.424,1.61
	c0.207,0.085,0.422,0.16,0.641,0.224c0.344-0.688,0.797-1.318,1.355-1.877C15.342,24.258,16.154,23.717,17.061,23.35z"/>
<path fill="none" stroke="#FFFFFF" stroke-miterlimit="10" d="M22.195,17.061c0.357,0.877,0.535,1.805,0.537,2.76
	c0,0.111-0.01,0.22-0.016,0.33c0.02,0,0.037-0.002,0.055-0.002h0.006V8.796v11.353c0.016,0,0.035,0.002,0.055,0.002
	c-0.006-0.11-0.02-0.219-0.018-0.33c0-0.955,0.18-1.883,0.535-2.76c0.369-0.906,0.91-1.721,1.609-2.422
	c0.557-0.556,1.189-1.008,1.879-1.355c-0.066-0.216-0.141-0.428-0.225-0.639c-0.367-0.905-0.908-1.721-1.613-2.422
	c-0.646-0.65-1.402-1.156-2.229-1.519c-0.824,0.363-1.578,0.869-2.229,1.519c-0.699,0.701-1.24,1.516-1.609,2.422
	c-0.086,0.211-0.156,0.423-0.227,0.637c0.691,0.349,1.322,0.8,1.877,1.357C21.287,15.34,21.83,16.155,22.195,17.061z"/>
<path fill="none" stroke="#FFFFFF" stroke-miterlimit="10" d="M20.9,20.936c0.004-0.004,0.008-0.01,0.012-0.015l0.027-0.024
	c0.246-0.241,0.529-0.43,0.844-0.556c0.297-0.121,0.609-0.182,0.934-0.189c0.006-0.11,0.016-0.219,0.016-0.33
	c-0.002-0.955-0.18-1.883-0.537-2.76c-0.365-0.906-0.908-1.721-1.611-2.422c-0.555-0.557-1.186-1.008-1.877-1.357
	c-0.176-0.089-0.357-0.176-0.545-0.252c-0.875-0.357-1.805-0.537-2.758-0.536c-0.852-0.001-1.682,0.151-2.477,0.435
	c-0.002,0.01-0.004,0.019-0.008,0.028"/>
<path fill="none" stroke="#FFFFFF" stroke-miterlimit="10" d="M12.92,12.957c-0.279,0.786-0.428,1.605-0.428,2.448
	c0,0.953,0.182,1.883,0.537,2.759c0.077,0.189,0.162,0.367,0.256,0.547c0.344,0.688,0.797,1.319,1.355,1.876
	c0.701,0.7,1.514,1.242,2.42,1.609c0.875,0.357,1.807,0.537,2.76,0.537c0.113,0,0.219-0.009,0.332-0.016
	c0.008-0.322,0.066-0.636,0.188-0.932c0.129-0.315,0.318-0.6,0.561-0.849"/>
<path fill="none" stroke="#FFFFFF" stroke-width="1.5" stroke-miterlimit="10" d="M7.199,38.346
	c-2.107-2.105-3.732-4.555-4.836-7.276c-1.072-2.638-1.613-5.429-1.613-8.295c0-2.867,0.541-5.658,1.613-8.297
	c1.104-2.72,2.729-5.169,4.836-7.277c2.105-2.106,4.557-3.735,7.279-4.838c2.635-1.07,5.428-1.612,8.295-1.612
	c2.869,0.002,5.658,0.542,8.295,1.612c2.719,1.104,5.17,2.732,7.277,4.838c2.107,2.108,3.734,4.557,4.838,7.279
	c1.07,2.636,1.615,5.425,1.613,8.295c0.002,2.868-0.543,5.657-1.613,8.295c-1.104,2.72-2.73,5.171-4.838,7.276
	c-2.107,2.107-4.555,3.735-7.277,4.838c-2.639,1.07-5.426,1.615-8.295,1.613c-2.867,0.002-5.656-0.543-8.295-1.613
	C11.756,42.082,9.305,40.452,7.199,38.346"/>
</svg>
