<?xml version="1.0" encoding="utf-8"?>
<!-- Generator: Adobe Illustrator 15.0.0, SVG Export Plug-In . SVG Version: 6.00 Build 0)  -->
<!DOCTYPE svg PUBLIC "-//W3C//DTD SVG 1.1//EN" "http://www.w3.org/Graphics/SVG/1.1/DTD/svg11.dtd">
<svg version="1.1" id="Layer_1" xmlns="http://www.w3.org/2000/svg" xmlns:xlink="http://www.w3.org/1999/xlink" x="0px" y="0px"
	 width="31.901px" height="30.117px" viewBox="0 0 31.901 30.117" enable-background="new 0 0 31.901 30.117" xml:space="preserve">
<path fill="none" stroke="#5d5d5c" stroke-miterlimit="10" d="M14.786,29.366c0.365,0.164,0.74,0.25,1.125,0.25
	c0.014,0,0.027,0,0.039-0.002c-0.385-0.004-0.76-0.096-1.117-0.264C14.817,29.355,14.8,29.362,14.786,29.366z"/>
<path fill="none" stroke="#5d5d5c" stroke-miterlimit="10" d="M15.95,4.848c-0.012,0-0.025-0.002-0.039-0.002
	c-0.385,0-0.76,0.087-1.125,0.251c0.014,0.005,0.031,0.011,0.047,0.015C15.19,4.945,15.565,4.853,15.95,4.848z"/>
<path fill="none" stroke="#5d5d5c" stroke-miterlimit="10" d="M20.856,4.846c-0.377,0-0.754,0.024-1.123,0.071
	c4.272,0.659,7.604,5.921,7.604,12.315c0,6.394-3.332,11.655-7.604,12.313c0.369,0.047,0.746,0.071,1.123,0.071
	c5.824,0,10.545-5.544,10.545-12.385C31.401,10.392,26.681,4.846,20.856,4.846z"/>
<path fill="none" stroke="#5d5d5c" stroke-miterlimit="10" d="M19.733,4.917c-0.299-0.047-0.604-0.071-0.906-0.071
	c-0.588,0-1.162,0.087-1.713,0.251c0.191,0.086,0.379,0.196,0.563,0.323c2.266,1.585,3.908,6.272,3.908,11.811
	s-1.643,10.227-3.908,11.811c-0.184,0.129-0.371,0.238-0.563,0.324c0.551,0.164,1.125,0.25,1.713,0.25
	c0.302,0,0.607-0.022,0.906-0.07c4.272-0.658,7.604-5.92,7.604-12.314C27.338,10.838,24.006,5.577,19.733,4.917z"/>
<path fill="none" stroke="#5d5d5c" stroke-miterlimit="10" d="M17.114,5.097c-0.363-0.164-0.74-0.251-1.125-0.251
	c-0.017,0-0.025,0.002-0.039,0.002c0.383,0.005,0.756,0.097,1.115,0.264C17.083,5.108,17.096,5.102,17.114,5.097z"/>
<path fill="none" stroke="#5d5d5c" stroke-miterlimit="10" d="M15.95,29.614c0.014,0.002,0.022,0.002,0.039,0.002
	c0.385,0,0.762-0.086,1.125-0.25c-0.019-0.004-0.031-0.01-0.049-0.016C16.706,29.519,16.333,29.61,15.95,29.614z"/>
<path fill="none" stroke="#5d5d5c" stroke-miterlimit="10" d="M17.628,29.022c-0.185,0.131-0.369,0.24-0.562,0.328
	c0.017,0.006,0.03,0.012,0.048,0.017c0.191-0.086,0.379-0.196,0.563-0.324C17.659,29.037,17.644,29.029,17.628,29.022z"/>
<path fill="none" stroke="#5d5d5c" stroke-miterlimit="10" d="M14.272,29.022c-0.019,0.007-0.033,0.015-0.051,0.021
	c0.186,0.128,0.373,0.238,0.564,0.324c0.014-0.005,0.031-0.011,0.047-0.017C14.642,29.263,14.452,29.153,14.272,29.022z"/>
<path fill="none" stroke="#5d5d5c" stroke-miterlimit="10" d="M14.272,5.441c0.18-0.13,0.369-0.239,0.561-0.329
	c-0.016-0.004-0.033-0.01-0.047-0.015c-0.191,0.086-0.379,0.197-0.564,0.323C14.239,5.428,14.254,5.435,14.272,5.441z"/>
<path fill="none" stroke="#5d5d5c" stroke-miterlimit="10" d="M4.562,17.231c0-6.394,3.33-11.654,7.604-12.313
	c-0.371-0.047-0.743-0.072-1.126-0.072c-5.822,0-10.54,5.546-10.54,12.386c0,6.842,4.718,12.386,10.54,12.386
	c0.383,0,0.755-0.024,1.126-0.071C7.892,28.887,4.562,23.627,4.562,17.231z"/>
<path fill="none" stroke="#5d5d5c" stroke-miterlimit="10" d="M10.313,17.231c0-5.539,1.643-10.227,3.908-11.812
	c0.186-0.126,0.373-0.237,0.564-0.323c-0.555-0.164-1.127-0.251-1.711-0.251c-0.309,0-0.612,0.025-0.908,0.072
	c-4.275,0.659-7.605,5.92-7.605,12.313c0,6.396,3.33,11.655,7.605,12.314c0.296,0.047,0.6,0.071,0.908,0.071
	c0.584,0,1.156-0.086,1.711-0.25c-0.191-0.086-0.379-0.196-0.564-0.324C11.956,27.458,10.313,22.771,10.313,17.231z"/>
<rect x="15.242" y="0.5" fill="#231F20" width="1.056" height="4.318"/>
<rect x="15.242" y="0.5" fill="none" stroke="#5d5d5c" stroke-miterlimit="10" width="1.056" height="4.318"/>
</svg>
