<?xml version="1.0" encoding="utf-8"?>
<!-- Generator: Adobe Illustrator 15.0.0, SVG Export Plug-In . SVG Version: 6.00 Build 0)  -->
<!DOCTYPE svg PUBLIC "-//W3C//DTD SVG 1.1//EN" "http://www.w3.org/Graphics/SVG/1.1/DTD/svg11.dtd">
<svg version="1.1" id="Layer_1" xmlns="http://www.w3.org/2000/svg" xmlns:xlink="http://www.w3.org/1999/xlink" x="0px" y="0px"
	 width="119.308px" height="119.309px" viewBox="0 0 119.308 119.309" enable-background="new 0 0 119.308 119.309"
	 xml:space="preserve">
<path fill="none" stroke="#FFFFFF" stroke-width="2" stroke-miterlimit="10" d="M82.877,58.367
	c-4.25-2.55-13.053-4.304-23.224-4.304c-10.172,0-18.975,1.754-23.225,4.304c-0.382,2.121-0.503,4.382-0.331,6.714
	c0.132,1.774,0.429,3.591,0.912,5.417c1.505,5.702,4.508,10.459,8.199,13.612c0.561,0.479,1.138,0.922,1.73,1.324
	c0.841,0.602,1.72,1.157,2.624,1.655c1.329,0.731,2.781,1.198,4.155,1.838c1.508,0.703,3.092,1.423,4.421,2.447
	c0.292,0.226,0.712,0.519,0.772,0.919h0.006c0.033,0.379,0.348,0.678,0.737,0.678c0.389,0,0.703-0.299,0.737-0.678h0.005
	c0.061-0.4,0.481-0.693,0.773-0.919c1.328-1.024,2.912-1.744,4.422-2.447c1.373-0.64,2.824-1.106,4.154-1.838
	c0.903-0.496,1.778-1.052,2.618-1.651c4.473-3.053,8.199-8.367,9.934-14.94c0.482-1.824,0.781-3.643,0.913-5.417
	C83.379,62.75,83.259,60.488,82.877,58.367z"/>
<path fill="none" stroke="#FFFFFF" stroke-width="2" stroke-miterlimit="10" d="M35.078,43.631
	c-0.045,0.038-0.091,0.074-0.135,0.112l-0.006,0.011C34.982,43.713,35.03,43.671,35.078,43.631z"/>
<path fill="none" stroke="#FFFFFF" stroke-width="2" stroke-miterlimit="10" d="M63.996,26.347
	c-5.627,0.259-9.745,4.349-9.745,9.671c0,0.409,0.029,0.811,0.082,1.209c-8.761,0.778-15.966,3.402-19.387,6.512l-0.003,0.004
	c0.044-0.038,0,0,0,0c-0.002,0.001-0.003,0.003-0.005,0.004c-0.017,0.017-0.189,0.185-0.256,0.254
	c-0.058,0.058-0.113,0.113-0.167,0.171c-0.066,0.072-0.128,0.15-0.191,0.225c-0.05,0.063-0.102,0.121-0.151,0.185
	c-0.061,0.08-0.118,0.162-0.176,0.245c-0.046,0.066-0.092,0.13-0.135,0.197c-0.056,0.087-0.109,0.177-0.161,0.268
	c-0.04,0.066-0.082,0.133-0.118,0.202c-0.053,0.096-0.097,0.194-0.144,0.293c-0.035,0.07-0.069,0.137-0.102,0.208
	c-0.045,0.106-0.085,0.212-0.126,0.32c-0.027,0.07-0.056,0.136-0.081,0.207c-0.042,0.12-0.078,0.245-0.115,0.369
	c-0.018,0.06-0.038,0.117-0.054,0.18c-0.049,0.184-0.093,0.375-0.129,0.569c-0.084,0.458-0.13,0.934-0.13,1.423
	c0,2.067,0.801,3.914,2.061,5.15c1.4-0.771,3.131-1.498,5.274-2.138c1.233-0.37,2.558-0.698,3.955-0.989
	c4.611-0.955,10.021-1.47,15.662-1.47c5.64,0,11.051,0.515,15.66,1.47c1.399,0.291,2.726,0.619,3.955,0.989
	c1.74,0.519,3.597,1.218,5.27,2.142c1.264-1.235,2.066-3.086,2.066-5.154c0-0.489-0.047-0.965-0.131-1.423
	c-0.289-1.579-1.062-2.947-2.121-3.901l-0.014-0.024c-2.154-1.963-5.787-3.722-10.367-4.949c-1.395-0.373-2.875-0.699-4.431-0.964
	c-1.964-0.336-4.048-0.575-6.215-0.704c-0.672-0.684-1.076-1.564-1.076-2.524c0-1.743,1.327-3.218,3.169-3.741
	c0.131-0.019,0.256-0.05,0.38-0.091c0.907-0.303,1.56-1.136,1.56-2.12c0-1.016-0.695-1.874-1.649-2.148
	C65.709,26.474,65.29,26.287,63.996,26.347z"/>
<path fill="none" stroke="#FFFFFF" stroke-width="2" stroke-miterlimit="10" d="M9.01,89.207
	c-3.997-6.851-6.533-14.258-7.528-22.015C0.514,59.68,1.004,52.123,2.948,44.743c1.942-7.384,5.227-14.203,9.766-20.269
	C17.4,18.214,23.247,13.011,30.1,9.012c6.85-3.995,14.259-6.531,22.016-7.53c7.511-0.97,15.067-0.474,22.45,1.467
	c7.383,1.944,14.203,5.229,20.268,9.768c6.258,4.685,11.463,10.535,15.462,17.384c3.999,6.854,6.53,14.261,7.532,22.019
	c0.967,7.51,0.473,15.059-1.471,22.447c-1.939,7.382-5.224,14.2-9.763,20.267c-4.687,6.26-10.537,11.465-17.39,15.459
	c-6.854,4.004-14.258,6.533-22.016,7.535c-7.513,0.968-15.067,0.476-22.449-1.469c-7.382-1.938-14.201-5.227-20.267-9.766
	C18.21,101.91,13.01,96.06,9.01,89.207"/>
</svg>
