<?xml version="1.0" encoding="utf-8"?>
<!-- Generator: Adobe Illustrator 15.0.0, SVG Export Plug-In . SVG Version: 6.00 Build 0)  -->
<!DOCTYPE svg PUBLIC "-//W3C//DTD SVG 1.1//EN" "http://www.w3.org/Graphics/SVG/1.1/DTD/svg11.dtd">
<svg version="1.1" id="Layer_1" xmlns="http://www.w3.org/2000/svg" xmlns:xlink="http://www.w3.org/1999/xlink" x="0px" y="0px"
	 width="45.547px" height="45.547px" viewBox="0 0 45.547 45.547" enable-background="new 0 0 45.547 45.547" xml:space="preserve">
<path fill="none" stroke="#FFFFFF" stroke-miterlimit="10" d="M32.48,22.235c-1.777-1.064-5.457-1.799-9.709-1.799
	s-7.93,0.735-9.707,1.799c-0.162,0.888-0.211,1.832-0.141,2.808c0.057,0.742,0.182,1.501,0.383,2.264
	c0.627,2.385,1.885,4.373,3.426,5.691c0.236,0.201,0.477,0.385,0.725,0.554c0.352,0.251,0.719,0.484,1.098,0.692
	c0.555,0.305,1.162,0.501,1.734,0.768c0.632,0.293,1.295,0.596,1.85,1.024c0.125,0.094,0.297,0.216,0.323,0.383
	c0.015,0.159,0.149,0.285,0.31,0.285c0.166,0,0.297-0.126,0.311-0.285h0.002c0.025-0.167,0.199-0.289,0.32-0.383
	c0.556-0.429,1.219-0.731,1.851-1.024c0.573-0.267,1.181-0.463,1.735-0.768c0.379-0.207,0.744-0.44,1.095-0.691
	c1.872-1.275,3.429-3.498,4.155-6.246c0.199-0.763,0.326-1.521,0.381-2.264C32.691,24.066,32.643,23.123,32.48,22.235z"/>
<path fill="none" stroke="#FFFFFF" stroke-miterlimit="10" d="M12.498,16.073c-0.019,0.019-0.037,0.032-0.055,0.049l-0.005,0.004
	C12.459,16.109,12.478,16.092,12.498,16.073z"/>
<path fill="none" stroke="#FFFFFF" stroke-miterlimit="10" d="M24.588,8.848c-2.354,0.108-4.074,1.818-4.074,4.044
	c0,0.171,0.013,0.34,0.033,0.505c-3.662,0.326-6.672,1.422-8.104,2.722v0.002c0.019-0.016,0,0,0,0s0,0.002-0.003,0.002l-0.105,0.106
	c-0.023,0.024-0.047,0.047-0.072,0.072c-0.024,0.029-0.053,0.063-0.08,0.093c-0.021,0.027-0.041,0.052-0.063,0.078
	c-0.025,0.034-0.05,0.067-0.07,0.103l-0.059,0.082c-0.023,0.037-0.048,0.074-0.068,0.113c-0.016,0.026-0.033,0.055-0.049,0.084
	c-0.021,0.039-0.041,0.08-0.061,0.121c-0.014,0.031-0.027,0.059-0.041,0.088c-0.02,0.044-0.038,0.09-0.055,0.135
	c-0.012,0.028-0.022,0.055-0.033,0.085c-0.018,0.051-0.034,0.102-0.049,0.154c-0.008,0.026-0.018,0.05-0.022,0.075
	c-0.021,0.078-0.038,0.158-0.052,0.238c-0.037,0.192-0.057,0.391-0.057,0.596c0,0.863,0.336,1.636,0.861,2.153
	c0.586-0.323,1.309-0.627,2.204-0.895c0.519-0.153,1.071-0.29,1.653-0.412c1.931-0.4,4.193-0.615,6.549-0.615
	c2.361,0,4.623,0.215,6.548,0.615c0.584,0.122,1.142,0.259,1.657,0.412c0.725,0.218,1.498,0.511,2.199,0.896
	c0.531-0.517,0.865-1.291,0.865-2.154c0-0.205-0.021-0.404-0.056-0.596c-0.123-0.66-0.444-1.232-0.886-1.631l-0.006-0.01
	c-0.901-0.82-2.42-1.555-4.334-2.068c-0.586-0.156-1.201-0.293-1.854-0.404c-0.82-0.139-1.689-0.24-2.602-0.293
	c-0.276-0.286-0.449-0.654-0.449-1.056c0-0.727,0.557-1.344,1.328-1.565c0.054-0.006,0.107-0.02,0.16-0.036
	c0.377-0.129,0.65-0.477,0.65-0.888c0-0.424-0.289-0.784-0.689-0.898C25.305,8.901,25.129,8.824,24.588,8.848z"/>
<path fill="none" stroke="#FFFFFF" stroke-width="1.5" stroke-miterlimit="10" d="M7.201,38.346
	c-2.107-2.105-3.734-4.555-4.838-7.276c-1.07-2.638-1.613-5.429-1.613-8.295c0-2.867,0.543-5.658,1.613-8.297
	c1.104-2.72,2.73-5.168,4.838-7.277c2.104-2.105,4.557-3.733,7.277-4.838c2.637-1.07,5.43-1.612,8.295-1.612
	c2.871,0.002,5.659,0.542,8.297,1.612c2.719,1.105,5.168,2.733,7.276,4.838c2.108,2.109,3.735,4.557,4.836,7.281
	c1.073,2.635,1.614,5.424,1.614,8.293c0,2.868-0.541,5.657-1.614,8.295c-1.101,2.72-2.728,5.171-4.836,7.276
	c-2.108,2.109-4.556,3.735-7.276,4.84c-2.641,1.068-5.426,1.613-8.297,1.611c-2.865,0.002-5.656-0.543-8.295-1.611
	C11.758,42.082,9.306,40.453,7.201,38.346"/>
</svg>
