<?xml version="1.0" encoding="utf-8"?>
<!-- Generator: Adobe Illustrator 15.0.0, SVG Export Plug-In . SVG Version: 6.00 Build 0)  -->
<!DOCTYPE svg PUBLIC "-//W3C//DTD SVG 1.1//EN" "http://www.w3.org/Graphics/SVG/1.1/DTD/svg11.dtd">
<svg version="1.1" id="Layer_1" xmlns="http://www.w3.org/2000/svg" xmlns:xlink="http://www.w3.org/1999/xlink" x="0px" y="0px"
	 width="45.547px" height="45.546px" viewBox="0 0 45.547 45.546" enable-background="new 0 0 45.547 45.546" xml:space="preserve">
<path fill="none" stroke="#FFFFFF" stroke-width="1.5" stroke-miterlimit="10" d="M7.201,38.345
	c-2.107-2.105-3.734-4.555-4.838-7.277c-1.07-2.637-1.613-5.428-1.613-8.295s0.543-5.658,1.613-8.297
	c1.104-2.72,2.73-5.168,4.838-7.277c2.104-2.104,4.557-3.731,7.277-4.837c2.637-1.07,5.43-1.611,8.295-1.611
	c2.871,0.002,5.659,0.541,8.297,1.611c2.719,1.105,5.168,2.731,7.276,4.837c2.108,2.109,3.735,4.558,4.836,7.281
	c1.073,2.635,1.614,5.424,1.614,8.293c0,2.868-0.541,5.658-1.614,8.295c-1.101,2.721-2.728,5.172-4.836,7.277
	c-2.108,2.109-4.556,3.735-7.276,4.839c-2.641,1.069-5.426,1.613-8.297,1.612c-2.865,0.001-5.656-0.543-8.295-1.612
	C11.758,42.081,9.306,40.452,7.201,38.345"/>
<path fill="none" stroke="#FFFFFF" stroke-miterlimit="10" d="M24.742,35.18c0.069-0.095,0.134-0.187,0.2-0.279
	c0.658-0.917,0.565-0.667,2.123-1.914c0.527-0.423,1.055-0.846,1.584-1.265c0.123-0.095,0.244-0.191,0.367-0.285
	c0.777-0.505,0.904-1.094,0.904-1.094c0.505-0.966,1.45-2.079,1.45-2.079l-0.005-0.006l3.415-2.498
	c0.606-0.446,0.74-1.3,0.293-1.908c-0.444-0.609-1.299-0.74-1.908-0.295l-4.438,3.249c-1.192,0.729-1.665,0.386-1.665,0.386
	c-1.617-0.504-1.009-4.266-1.009-4.266l-0.006-0.009l1.537-10.968c0.105-0.748-0.414-1.439-1.162-1.544
	c-0.747-0.104-1.438,0.418-1.542,1.164l-1.215,8.656c-0.209,0.966-0.658,0.893-0.658,0.893c-0.588,0-0.547-0.715-0.547-0.715
	c-0.003-0.002,0.05-10.205,0.05-10.205c0.004-0.756-0.604-1.369-1.357-1.373c-0.755-0.004-1.369,0.604-1.373,1.358l-0.053,10.008
	c-0.109,0.942-0.586,0.779-0.586,0.779c-0.313,0-0.473-0.307-0.554-0.581l-1.237-8.82c-0.104-0.746-0.795-1.269-1.541-1.164
	c-0.748,0.104-1.268,0.796-1.163,1.544l1.376,9.818c0.112,0.994-0.266,0.906-0.266,0.906c-0.218,0.013-0.367-0.163-0.449-0.302
	l-2.449-6.758c-0.256-0.712-1.039-1.078-1.749-0.82c-0.71,0.256-1.075,1.04-0.819,1.75l2.782,7.673
	c0.064,0.394,0.799,4.819,1.094,6.986c0.153,1.228,0.407,2.474,1.15,3.485c0.754,1.027,2.104,1.655,3.341,1.771
	c0.693,0.065,1.418-0.081,2.101,0.003c0.86,0.103,1.66,0.459,2.524,0.108C23.918,36.314,24.349,35.732,24.742,35.18z"/>
</svg>
