<?xml version="1.0" encoding="utf-8"?>
<!-- Generator: Adobe Illustrator 15.0.0, SVG Export Plug-In . SVG Version: 6.00 Build 0)  -->
<!DOCTYPE svg PUBLIC "-//W3C//DTD SVG 1.1//EN" "http://www.w3.org/Graphics/SVG/1.1/DTD/svg11.dtd">
<svg version="1.1" id="Layer_1" xmlns="http://www.w3.org/2000/svg" xmlns:xlink="http://www.w3.org/1999/xlink" x="0px" y="0px"
	 width="45.547px" height="45.547px" viewBox="0 0 45.547 45.547" enable-background="new 0 0 45.547 45.547" xml:space="preserve">
<path fill="none" stroke="#FFFFFF" stroke-width="1.5" stroke-miterlimit="10" d="M7.201,38.346
	c-2.107-2.106-3.734-4.555-4.838-7.277c-1.07-2.637-1.613-5.428-1.613-8.295c0-2.866,0.543-5.657,1.613-8.297
	c1.104-2.72,2.73-5.168,4.838-7.276c2.104-2.105,4.557-3.734,7.277-4.839c2.637-1.069,5.43-1.611,8.295-1.611
	c2.871,0.002,5.659,0.542,8.297,1.611c2.719,1.105,5.168,2.732,7.276,4.839c2.108,2.108,3.735,4.557,4.836,7.279
	c1.073,2.637,1.614,5.425,1.614,8.294c0,2.868-0.541,5.658-1.614,8.295c-1.101,2.721-2.728,5.171-4.836,7.277
	c-2.108,2.108-4.556,3.735-7.276,4.839c-2.641,1.069-5.426,1.613-8.297,1.612c-2.865,0.001-5.656-0.543-8.295-1.612
	C11.758,42.082,9.306,40.453,7.201,38.346"/>
<path fill="none" stroke="#FFFFFF" stroke-miterlimit="10" d="M16.273,30.725c0.149,2.002,0.858,3.491,2.108,4.051
	c2.368,1.062,5.914-1.54,8.513-5.987c0.416-0.714,0.809-1.473,1.166-2.272c1.895-4.224,3.189-11.158-0.994-14.582
	c-1.098-0.895-2.969-1.4-4.41-1.4c-3.055,0-5.696,2.273-6.953,5.573"/>
<path fill="none" stroke="#FFFFFF" stroke-miterlimit="10" d="M19.604,32.064c0.627-0.071,2.684-1.232,4.746-4.763
	c0.371-0.633,0.715-1.305,1.023-1.992c0.587-1.309,1.059-2.671,1.326-4.08c0.488-2.561,0.291-6.334-2.604-7.413
	c-1.511-0.563-3.636,0.063-4.543,1.354c-1.105,1.576-1.014,3.771-0.098,5.405c0.525,0.931,1.294,1.788,2.139,2.529
	c0,0,2.629,1.503,1.695,2.505c0,0-0.467,0.801-4.135-2.001c0,0-1.469-0.867-1.201,1.667c0.091,0.87-0.135,1.407-0.559,2.159
	c-0.334,0.592-0.213,1.516,0.576,1.563c0.741,0.047,1.094-0.555,1.523-1.043c0.531-0.603,1.127-0.802,1.925-0.627"/>
</svg>
