<?xml version="1.0" encoding="utf-8"?>
<!-- Generator: Adobe Illustrator 15.0.0, SVG Export Plug-In . SVG Version: 6.00 Build 0)  -->
<!DOCTYPE svg PUBLIC "-//W3C//DTD SVG 1.1//EN" "http://www.w3.org/Graphics/SVG/1.1/DTD/svg11.dtd">
<svg version="1.1" id="Layer_1" xmlns="http://www.w3.org/2000/svg" xmlns:xlink="http://www.w3.org/1999/xlink" x="0px" y="0px"
	 width="119.27px" height="119.268px" viewBox="0 0 119.27 119.268" enable-background="new 0 0 119.27 119.268"
	 xml:space="preserve">
<path fill="none" stroke="#FFFFFF" stroke-width="2" stroke-miterlimit="10" d="M1,59.635c0-7.932,1.543-15.607,4.594-22.807
	c2.951-6.979,7.181-13.256,12.582-18.65c5.398-5.398,11.672-9.635,18.65-12.586C44.027,2.547,51.701,1,59.634,1
	c7.929,0.004,15.607,1.547,22.81,4.596c6.978,2.945,13.252,7.184,18.652,12.582c5.396,5.396,9.633,11.672,12.581,18.65
	c3.044,7.199,4.591,14.875,4.593,22.807c0,7.936-1.547,15.611-4.593,22.816c-2.948,6.973-7.182,13.244-12.584,18.646
	c-5.397,5.398-11.668,9.631-18.647,12.586c-7.202,3.041-14.879,4.588-22.809,4.584c-7.937,0.004-15.609-1.543-22.812-4.588
	c-6.976-2.951-13.254-7.184-18.648-12.582c-5.401-5.396-9.633-11.674-12.584-18.65C2.543,75.246,1,67.57,1,59.635"/>
<text transform="matrix(1 0 0 1 33.2729 53.957)"><tspan x="0" y="0" fill="#FFFFFF" font-family="'DINAlternate-Bold'" font-size="26.7691" letter-spacing="1">ab</tspan><tspan x="30.436" y="0" fill="#FFFFFF" font-family="'DINAlternate-Bold'" font-size="26.7691">c</tspan></text>
<text transform="matrix(1 0 0 1 33.2729 80.9668)"><tspan x="0" y="0" fill="#FFFFFF" font-family="'DINAlternate-Bold'" font-size="26.7691" letter-spacing="2">xy</tspan><tspan x="30.409" y="0" fill="#FFFFFF" font-family="'DINAlternate-Bold'" font-size="26.7691">z</tspan></text>
</svg>
