<?xml version="1.0" encoding="utf-8"?>
<!-- Generator: Adobe Illustrator 15.0.0, SVG Export Plug-In . SVG Version: 6.00 Build 0)  -->
<!DOCTYPE svg PUBLIC "-//W3C//DTD SVG 1.1//EN" "http://www.w3.org/Graphics/SVG/1.1/DTD/svg11.dtd">
<svg version="1.1" id="Layer_1" xmlns="http://www.w3.org/2000/svg" xmlns:xlink="http://www.w3.org/1999/xlink" x="0px" y="0px"
	 width="45.547px" height="45.545px" viewBox="0 0 45.547 45.545" enable-background="new 0 0 45.547 45.545" xml:space="preserve">
<path fill="none" stroke="#FFFFFF" stroke-width="1.5" stroke-miterlimit="10" d="M7.199,38.346
	c-2.107-2.107-3.734-4.555-4.84-7.277c-1.068-2.637-1.609-5.428-1.609-8.295c0-2.866,0.541-5.657,1.609-8.297
	c1.106-2.721,2.733-5.17,4.84-7.276c2.106-2.106,4.557-3.735,7.277-4.839c2.637-1.07,5.43-1.611,8.297-1.611
	c2.866,0.002,5.657,0.541,8.295,1.611c2.719,1.104,5.17,2.732,7.275,4.839c2.109,2.106,3.736,4.556,4.839,7.278
	c1.071,2.635,1.614,5.424,1.614,8.295c0,2.867-0.543,5.658-1.614,8.295c-1.103,2.721-2.729,5.17-4.839,7.277
	c-2.105,2.107-4.553,3.734-7.277,4.838c-2.638,1.07-5.427,1.613-8.293,1.611c-2.867,0.002-5.656-0.541-8.297-1.611
	C11.756,42.082,9.306,40.451,7.199,38.346"/>
<path fill="none" stroke="#FFFFFF" stroke-miterlimit="10" d="M26.895,22.004c0-3.846-1.652-7.205-4.109-9.029
	c-2.461,1.824-4.109,5.184-4.109,9.029c0,3.842,1.648,7.201,4.109,9.026C25.242,29.205,26.895,25.846,26.895,22.004z"/>
<path fill="none" stroke="#FFFFFF" stroke-miterlimit="10" d="M20.783,21.233c-2.258-3.111-5.568-4.86-8.631-4.893
	c-0.918,2.92-0.279,6.609,1.977,9.72c2.258,3.111,5.568,4.861,8.631,4.896C23.678,28.033,23.041,24.346,20.783,21.233z"/>
<path fill="none" stroke="#FFFFFF" stroke-miterlimit="10" d="M15.686,24.075c-3.619-1.29-7.338-0.863-9.883,0.842
	c0.893,2.93,3.504,5.611,7.125,6.901c3.621,1.291,7.34,0.862,9.883-0.842C21.917,28.047,19.309,25.364,15.686,24.075z"/>
<path fill="none" stroke="#FFFFFF" stroke-miterlimit="10" d="M24.766,21.233c2.258-3.111,5.565-4.86,8.629-4.893
	c0.918,2.92,0.283,6.609-1.975,9.72c-2.26,3.111-5.566,4.861-8.63,4.896C21.87,28.033,22.508,24.346,24.766,21.233z"/>
<path fill="none" stroke="#FFFFFF" stroke-miterlimit="10" d="M29.861,24.075c3.623-1.29,7.342-0.863,9.885,0.842
	c-0.895,2.93-3.504,5.611-7.125,6.901c-3.623,1.291-7.34,0.862-9.885-0.842C23.631,28.047,26.24,25.364,29.861,24.075z"/>
</svg>
