<?xml version="1.0" encoding="utf-8"?>
<!-- Generator: Adobe Illustrator 15.0.0, SVG Export Plug-In . SVG Version: 6.00 Build 0)  -->
<!DOCTYPE svg PUBLIC "-//W3C//DTD SVG 1.1//EN" "http://www.w3.org/Graphics/SVG/1.1/DTD/svg11.dtd">
<svg version="1.1" id="Layer_1" xmlns="http://www.w3.org/2000/svg" xmlns:xlink="http://www.w3.org/1999/xlink" x="0px" y="0px"
	 width="35.095px" height="69.354px" viewBox="0 0 35.095 69.354" enable-background="new 0 0 35.095 69.354" xml:space="preserve">
<g>
	<path d="M17.539,13.025c-3.591,0-6.513-2.921-6.513-6.513S13.948,0,17.539,0s6.512,2.921,6.512,6.513S21.13,13.025,17.539,13.025z
		 M17.539,2c-2.489,0-4.513,2.024-4.513,4.513s2.024,4.513,4.513,4.513c2.488,0,4.512-2.024,4.512-4.513S20.027,2,17.539,2z"/>
</g>
<g>
	<path d="M21.389,69.354h-0.01c-1.871,0-3.388-1.337-3.388-2.979V42.74h-0.888v23.635c0,1.643-1.516,2.979-3.38,2.979
		c-1.88,0-3.396-1.337-3.396-2.979V27.197L6.488,37.292c-0.422,1.114-1.551,1.835-2.875,1.835c-0.455,0-0.906-0.084-1.342-0.25
		c-1.74-0.661-2.681-2.45-2.098-3.987l7.851-20.646c0.422-1.109,1.55-1.825,2.875-1.825l0.167,0.004l12.969-0.001
		c0.036-0.002,0.102-0.004,0.166-0.004c1.321,0,2.448,0.717,2.871,1.826l7.85,20.646c0.292,0.765,0.214,1.642-0.216,2.404
		c-0.401,0.713-1.069,1.275-1.881,1.584c-0.436,0.166-0.888,0.25-1.342,0.25l0,0c-1.326,0-2.455-0.721-2.877-1.837l-3.838-10.094
		v39.179C24.768,68.018,23.252,69.354,21.389,69.354z M15.104,40.74h4.888v25.635c0,0.531,0.632,0.979,1.38,0.979h0.018
		c0.747,0,1.379-0.448,1.379-0.979V18.86l1.802,2.418c0.063,0.083,0.125,0.173,0.178,0.267l0.063,0.134l5.666,14.902
		c0.126,0.332,0.521,0.546,1.007,0.546l0,0c0.211,0,0.423-0.04,0.631-0.119c0.37-0.141,0.68-0.395,0.85-0.696
		c0.08-0.143,0.198-0.425,0.089-0.711l-7.85-20.646c-0.124-0.326-0.518-0.538-1.002-0.538l-0.306,0.018l-0.046-0.014l-12.812,0.006
		l0-0.006l-0.139-0.003c-0.487,0-0.881,0.211-1.005,0.537L2.042,35.6c-0.188,0.498,0.241,1.143,0.939,1.408
		c0.688,0.261,1.457,0.049,1.637-0.426l5.903-15.33l1.776-2.186l0.03,2.778v44.53c0,0.531,0.631,0.979,1.379,0.979
		c0.765,0,1.397-0.448,1.397-0.979V40.74z"/>
</g>
</svg>
