<?xml version="1.0" encoding="utf-8"?>
<!-- Generator: Adobe Illustrator 15.0.0, SVG Export Plug-In . SVG Version: 6.00 Build 0)  -->
<!DOCTYPE svg PUBLIC "-//W3C//DTD SVG 1.1//EN" "http://www.w3.org/Graphics/SVG/1.1/DTD/svg11.dtd">
<svg version="1.1" id="Layer_1" xmlns="http://www.w3.org/2000/svg" xmlns:xlink="http://www.w3.org/1999/xlink" x="0px" y="0px"
	 width="35.095px" height="56.938px" viewBox="0 0 35.095 56.938" enable-background="new 0 0 35.095 56.938" xml:space="preserve">
<g>
	<path d="M21.389,56.938h-0.01c-1.871,0-3.388-1.337-3.388-2.979V30.324h-0.888v23.635c0,1.643-1.517,2.979-3.38,2.979
		c-1.88,0-3.396-1.337-3.396-2.979V14.778L6.488,24.875C6.066,25.99,4.937,26.71,3.613,26.71c-0.455,0-0.906-0.084-1.342-0.25
		c-0.812-0.309-1.48-0.871-1.882-1.584c-0.429-0.762-0.508-1.638-0.216-2.404L8.024,1.826c0.422-1.108,1.55-1.824,2.874-1.824
		l0.168,0.004l2.35-0.001l0.294,0.471c0.833,1.336,2.265,2.134,3.828,2.134c1.564,0,2.995-0.797,3.828-2.134l0.294-0.471h2.374
		C24.071,0.002,24.136,0,24.201,0c1.321,0,2.448,0.716,2.871,1.825l7.85,20.647c0.292,0.765,0.214,1.642-0.216,2.404
		c-0.401,0.713-1.069,1.275-1.881,1.584c-0.436,0.166-0.888,0.25-1.342,0.25l0,0c-1.326,0-2.455-0.721-2.877-1.837l-3.838-10.094
		v39.179C24.768,55.601,23.252,56.938,21.389,56.938z M15.104,28.324h4.888v25.635c0,0.531,0.632,0.979,1.38,0.979h0.018
		c0.747,0,1.379-0.448,1.379-0.979V6.443l1.802,2.418c0.058,0.077,0.113,0.158,0.164,0.244l0.076,0.157l5.666,14.902
		c0.126,0.333,0.521,0.546,1.007,0.546l0,0c0.211,0,0.423-0.04,0.631-0.119c0.37-0.141,0.68-0.395,0.85-0.696
		c0.08-0.143,0.198-0.425,0.089-0.711l-7.85-20.647C25.079,2.211,24.685,2,24.201,2l-0.306,0.018l-0.046-0.014h-1.107
		c-1.229,1.641-3.135,2.604-5.203,2.604c-2.068,0-3.974-0.964-5.203-2.604l-1.437-0.003c-0.486,0-0.881,0.21-1.005,0.536
		L2.042,23.183c-0.109,0.287,0.01,0.569,0.09,0.712c0.17,0.302,0.479,0.555,0.85,0.696c0.686,0.262,1.457,0.049,1.636-0.426
		l5.904-15.331l1.771-2.144l0.034,2.737v44.53c0,0.531,0.631,0.979,1.379,0.979c0.765,0,1.397-0.448,1.397-0.979V28.324z"/>
</g>
</svg>
