<?xml version="1.0" encoding="utf-8"?>
<!-- Generator: Adobe Illustrator 15.0.0, SVG Export Plug-In . SVG Version: 6.00 Build 0)  -->
<!DOCTYPE svg PUBLIC "-//W3C//DTD SVG 1.1//EN" "http://www.w3.org/Graphics/SVG/1.1/DTD/svg11.dtd">
<svg version="1.1" id="Layer_1" xmlns="http://www.w3.org/2000/svg" xmlns:xlink="http://www.w3.org/1999/xlink" x="0px" y="0px"
	 width="64.59px" height="69.826px" viewBox="0 0 64.59 69.826" enable-background="new 0 0 64.59 69.826" xml:space="preserve">
<g>
	<path d="M25.147,69.826c-2.793,0-6.24-1.234-9.455-3.385c-2.078-1.392-3.848-3.025-5.144-4.743
		c-2.291-0.546-4.151-2.859-4.79-5.969c-2.129-1.354-3.528-4.36-3.528-7.682c0-0.725,0.066-1.444,0.196-2.146
		C0.898,44.318,0,41.836,0,39.124c0-2.685,0.911-5.191,2.42-6.766c-0.701-1.407-1.081-3.092-1.081-4.835
		c0-3.853,1.874-7.175,4.476-8.152c0.158-3.41,1.73-6.281,4.008-7.393c-0.003-0.098-0.005-0.197-0.005-0.295
		c0-3.985,2.833-7.229,6.247-7.104C16.439,1.993,18.671,0,21.36,0c0.915,0,1.801,0.23,2.592,0.671
		c0.554-0.186,1.125-0.28,1.702-0.28c3.514,0,6.422,3.439,7.022,8.143h0.09l0.024,1v44.441c0.072,0.731,0.111,1.588,0.111,2.455
		c0,7.579-2.831,13.297-6.588,13.314C25.945,69.799,25.554,69.826,25.147,69.826z M15.894,6.575c-2.248,0-4.077,2.291-4.077,5.107
		c0,0.281,0.018,0.555,0.053,0.822l0.112,0.85l-0.822,0.241c-1.915,0.562-3.359,3.289-3.359,6.343l0.003,1.032l-0.827,0.146
		c-2.041,0.359-3.639,3.173-3.639,6.407c0,1.688,0.421,3.288,1.187,4.507l0.478,0.761l-0.706,0.556C2.88,34.463,2,36.677,2,39.124
		c0,2.354,0.833,4.529,2.173,5.679L4.637,45.2l-0.143,0.595c-0.174,0.729-0.263,1.486-0.263,2.253c0,2.769,1.184,5.299,2.878,6.151
		l0.457,0.23l0.081,0.505c0.423,2.632,1.908,4.632,3.61,4.863l0.428,0.059l0.251,0.352c1.175,1.644,2.859,3.225,4.87,4.571
		c2.851,1.907,5.97,3.047,8.342,3.047c0.338,0,0.658-0.024,0.95-0.071l0.214-0.013l0.074,0.008
		c2.088-0.005,4.515-4.651,4.515-11.319c0-0.806-0.036-1.601-0.106-2.362L30.768,9.594c-0.242-4.039-2.488-7.203-5.114-7.203
		c-0.474,0-0.945,0.103-1.398,0.306l-0.518,0.232l-0.464-0.326C22.71,2.208,22.048,2,21.36,2c-1.848,0-3.352,1.503-3.352,3.35
		c0,0.097,0.009,0.194,0.016,0.29l0.111,1.419l-1.372-0.365C16.478,6.615,16.185,6.575,15.894,6.575z"/>
</g>
<g>
	<path d="M39.44,69.826c-0.415,0-0.815-0.029-1.19-0.085c-3.765-0.08-6.563-5.775-6.563-13.311c0-0.855,0.039-1.713,0.115-2.546
		L31.797,8.534h0.116c0.599-4.704,3.506-8.143,7.02-8.143c0.579,0,1.149,0.094,1.704,0.28C41.428,0.23,42.315,0,43.23,0
		c2.688,0,4.919,1.993,5.294,4.578c3.402-0.119,6.247,3.119,6.247,7.104c0,0.098-0.002,0.196-0.005,0.294
		c2.277,1.112,3.851,3.984,4.009,7.394c2.602,0.978,4.476,4.3,4.476,8.152c0,1.742-0.38,3.428-1.081,4.836
		c1.51,1.575,2.421,4.081,2.421,6.766c0,2.712-0.898,5.194-2.429,6.778c0.13,0.695,0.195,1.414,0.195,2.146
		c0,3.321-1.399,6.327-3.527,7.682c-0.638,3.109-2.498,5.423-4.79,5.969c-1.299,1.72-3.069,3.354-5.145,4.743
		C45.679,68.592,42.233,69.826,39.44,69.826z M33.797,10.008v43.968c-0.075,0.864-0.11,1.66-0.11,2.455
		c0,6.667,2.427,11.313,4.604,11.313l0.2,0.011c0.292,0.047,0.611,0.071,0.948,0.071c2.372,0,5.49-1.14,8.343-3.047
		c2.008-1.345,3.692-2.926,4.87-4.572l0.251-0.351l0.428-0.059c1.703-0.231,3.188-2.231,3.61-4.863l0.081-0.505l0.456-0.23
		c1.694-0.853,2.878-3.383,2.878-6.151c0-0.776-0.088-1.533-0.263-2.249l-0.146-0.596l0.467-0.4
		c1.342-1.149,2.175-3.325,2.175-5.679c0-2.446-0.881-4.66-2.298-5.777l-0.705-0.556l0.477-0.761
		c0.766-1.22,1.187-2.821,1.187-4.508c0-3.234-1.599-6.048-3.639-6.406l-0.84-0.147l0.016-1.03c0-3.055-1.444-5.782-3.359-6.344
		l-0.82-0.24l0.109-0.847c0.035-0.269,0.054-0.543,0.054-0.825c0-2.816-1.828-5.107-4.076-5.107c-0.289,0-0.581,0.04-0.868,0.119
		l-1.361,0.373l0.1-1.408c0.007-0.102,0.015-0.205,0.015-0.309c0-1.847-1.503-3.35-3.35-3.35c-0.688,0-1.352,0.208-1.916,0.604
		l-0.465,0.325l-0.518-0.232c-0.452-0.203-0.923-0.306-1.398-0.306c-2.626,0-4.871,3.164-5.111,7.202L33.797,10.008z"/>
</g>
</svg>
