<?xml version="1.0" encoding="utf-8"?>
<!-- Generator: Adobe Illustrator 15.0.0, SVG Export Plug-In . SVG Version: 6.00 Build 0)  -->
<!DOCTYPE svg PUBLIC "-//W3C//DTD SVG 1.1//EN" "http://www.w3.org/Graphics/SVG/1.1/DTD/svg11.dtd">
<svg version="1.1" id="Layer_1" xmlns="http://www.w3.org/2000/svg" xmlns:xlink="http://www.w3.org/1999/xlink" x="0px" y="0px"
	 width="51.269px" height="82.616px" viewBox="0 0 51.269 82.616" enable-background="new 0 0 51.269 82.616" xml:space="preserve">
<g>
	<path d="M18.206,28.866l-1.757-1.906c-0.323-0.351-0.693-0.623-1.1-0.808c-0.892-0.402-1.988-0.383-3.18,0.057l-1.478,0.546
		l0.135-1.57c0.307-3.568,0.052-6.352-0.737-8.052l-0.045-0.116c-0.011-0.034-1.089-3.399-1.625-5.253l-0.139-0.48l0.294-0.491
		c0.191-0.255,0.497-0.407,0.817-0.407c0.426,0,0.705,0.25,0.889,0.416c0.44,0.374,1.446,0.329,2.323-0.064
		c0.659-0.296,1.204-0.754,1.455-1.224l0.25-0.466l2.072-0.222l-0.098,1.204c-0.069,0.854,0.088,1.805,0.442,2.677
		c0.606,1.494,1.56,2.275,2.189,2.275c0.125,0,0.238-0.033,0.346-0.101c0.042-0.027,0.095-0.072,0.153-0.132l0.996-1.038
		l1.353,2.803l-0.359,0.486c-2.192,2.961-3.245,5.996-3.218,9.276L18.206,28.866z M13.943,23.862c0.791,0,1.541,0.158,2.231,0.469
		c0.035,0.016,0.069,0.032,0.103,0.048c0.278-2.578,1.171-5.021,2.706-7.399c-1.645,0.05-3.231-1.351-4.112-3.522
		c-0.193-0.476-0.342-0.972-0.443-1.472c-0.308,0.22-0.646,0.415-1.005,0.577c-0.832,0.373-1.725,0.544-2.528,0.49
		c0.453,1.469,0.937,2.988,1.036,3.298c0.814,1.793,1.144,4.344,0.984,7.598C13.264,23.891,13.607,23.862,13.943,23.862z"/>
</g>
<g>
	<path d="M9.265,12.002l-0.001-0.701l-0.369,0.132L8.46,11.667l-0.053-0.095c-0.198-0.452-0.182-0.808,0.021-1.117l0.296-0.451
		l0.542-0.001c0.293,0,0.819,0.121,1.04,0.928l-0.748,0.267l0.541,0.357l-0.541-0.357L9.298,11.29L9.265,12.002z"/>
</g>
<g>
	<path d="M11.196,13.061L11.196,13.061c-1.265,0-2.262-0.508-2.737-1.395l-0.048-0.103c-0.27-0.682-0.213-1.567,0.152-2.369
		c0.45-0.986,1.328-1.75,2.474-2.152c0.768-0.267,1.533-0.408,2.216-0.408c1.321,0,2.32,0.539,2.741,1.479
		c0.321,0.711,0.26,1.546-0.174,2.347c-0.458,0.856-1.333,1.624-2.397,2.102C12.692,12.888,11.923,13.061,11.196,13.061z
		 M10.255,10.771c0.125,0.151,0.446,0.29,0.941,0.29l0,0c0.448,0,0.934-0.112,1.408-0.324c0.658-0.296,1.203-0.754,1.455-1.225
		c0.129-0.24,0.169-0.45,0.11-0.58c-0.161-0.359-1.343-0.396-2.472-0.002c-0.802,0.281-1.157,0.75-1.314,1.094
		C10.233,10.352,10.229,10.636,10.255,10.771z"/>
</g>
<g>
	<path d="M33.221,40.809L33.221,40.809l-0.005-0.006c-0.366-0.443-0.769-0.885-1.196-1.312c-0.972-0.964-2.057-1.817-3.223-2.534
		l-0.507-0.312l0.031-0.594c0.1-1.852,0.582-3.783,1.396-5.585c2.133-4.73,6.19-7.909,10.097-7.909c0.964,0,1.886,0.195,2.738,0.581
		c0.256,0.114,0.507,0.251,0.746,0.399c3.829,2.374,4.795,8.424,2.245,14.074c-0.124,0.277-0.258,0.546-0.395,0.81l-0.503,0.968
		l-0.921-0.584c-0.168-0.106-0.337-0.208-0.51-0.296c-1.638-0.822-3.315-1.052-4.694-0.625c-0.704,0.221-1.384,0.591-2.017,1.099
		c-0.234,0.194-1.445,1.342-1.638,1.621c0.143-0.208,0.209-0.691-0.104-1.07L33.221,40.809z M30.364,35.584
		c1.101,0.725,2.131,1.561,3.067,2.49c0.18,0.179,0.354,0.36,0.524,0.542c0.61-0.632,1.285-1.182,1.298-1.191
		c0.828-0.665,1.728-1.153,2.675-1.449c1.791-0.554,3.869-0.334,5.887,0.604c1.99-4.603,1.317-9.551-1.569-11.34
		c-0.164-0.102-0.335-0.196-0.512-0.275c-0.597-0.27-1.241-0.405-1.919-0.405c-3.085,0-6.487,2.768-8.273,6.731
		C30.912,32.682,30.509,34.155,30.364,35.584z"/>
</g>
<g>
	<path d="M44.747,24.067L44.747,24.067c-1.27,0-2.573-1.091-3.243-2.715c-0.365-0.885-0.495-1.823-0.366-2.639
		c0.156-0.979,0.683-1.722,1.444-2.036c0.309-0.129,0.649-0.186,1.009-0.155c1.227,0.108,2.42,1.17,3.055,2.706
		c0.743,1.798,0.476,3.621-0.649,4.432c-0.133,0.098-0.272,0.179-0.418,0.241C45.307,24.013,45.032,24.067,44.747,24.067z
		 M43.427,18.516c-0.147,0.037-0.264,0.193-0.314,0.511c-0.071,0.451,0.016,1.02,0.239,1.562c0.398,0.965,1.065,1.479,1.395,1.479
		c0.029,0,0.046-0.005,0.056-0.009c0.243-0.178,0.427-1.021-0.006-2.066C44.396,19.022,43.754,18.544,43.427,18.516z"/>
</g>
<g>
	<path d="M3.05,52.362l-1.811-3.179c-1.94-3.407-1.578-9.191,0.922-14.735c2.235-4.951,5.806-8.828,9.317-10.117
		c1.687-0.622,3.316-0.623,4.696-0.001c0.655,0.299,1.241,0.727,1.745,1.274c1.553,1.686,2.285,4.467,2.061,7.831l-0.058,0.88
		l-0.88,0.052c-0.208,0.013-0.472,0.03-0.785,0.066c-1.614,0.178-4.785,0.785-7.948,2.851c-2.34,1.527-4.274,3.587-5.751,6.123
		c-0.932,1.6-1.42,3.381-1.45,5.297L3.05,52.362z M13.943,25.862c-0.554,0-1.151,0.117-1.774,0.346
		c-3.027,1.111-6.163,4.583-8.185,9.063c-1.372,3.042-2.049,6.195-1.981,8.826c0.231-0.582,0.507-1.147,0.827-1.695
		c1.634-2.808,3.783-5.093,6.386-6.792c3.502-2.288,7.013-2.963,8.803-3.162c0.027-2.389-0.531-4.36-1.57-5.488
		c-0.323-0.351-0.693-0.623-1.1-0.808C14.923,25.96,14.449,25.862,13.943,25.862z"/>
</g>
<g>
	<path d="M30.23,37.838l-1.433-0.88c-1.531-0.941-3.197-1.639-4.951-2.077c-1.146-0.287-2.333-0.458-3.526-0.509l-1.356-0.059
		l0.458-1.278c1.646-4.589,4.856-7.552,5.421-8.049c0.121-0.316-0.118-1.686-0.53-2.805l-0.047-0.177
		c-0.476-2.792,1.125-3.907,1.614-4.178c0.635-0.457,1.26-0.688,1.859-0.688c0.937,0,1.588,0.563,1.861,1.045
		c0.208,0.379,0.718,0.565,1.524,0.565c1.514,0,3.281-0.68,3.299-0.687c1.526-0.48,2.934-0.855,4.246-1.135
		c3.444-0.733,4.954-0.504,4.955-0.503l0.576,0.097l0.781,2.115l-1.543-0.118c-0.16,0.036-0.276,0.192-0.327,0.511
		c-0.071,0.451,0.016,1.02,0.239,1.562c0.398,0.965,1.066,1.479,1.395,1.479l1.06-0.78l0.733,1.717l-0.31,0.481
		c-0.939,1.271-2.585,1.739-3.249,1.881l-0.395,0.084l-0.342-0.213c-0.163-0.102-0.334-0.195-0.511-0.274
		c-0.597-0.27-1.241-0.405-1.919-0.405c-3.085,0-6.487,2.768-8.273,6.731c-0.714,1.579-1.137,3.263-1.222,4.869L30.23,37.838z
		 M21.804,32.483c0.854,0.098,1.7,0.25,2.527,0.457c1.448,0.361,2.842,0.882,4.162,1.555c0.222-1.357,0.638-2.727,1.226-4.028
		c2.132-4.73,6.189-7.909,10.097-7.909c0.964,0,1.886,0.195,2.738,0.581c0.106,0.048,0.213,0.1,0.318,0.154
		c-0.557-0.475-1.038-1.144-1.368-1.942c-0.365-0.885-0.495-1.822-0.366-2.639c0.011-0.067,0.023-0.132,0.037-0.197
		c-0.569,0.075-1.262,0.189-2.087,0.365c-1.251,0.268-2.598,0.626-4.001,1.065c-0.021,0.011-2.065,0.801-3.961,0.801
		c-1.984,0-2.875-0.866-3.271-1.592c-0.097-0.085-0.317-0.07-0.846,0.323l-0.199,0.115c-0.063,0.033-0.814,0.465-0.584,1.99
		c0.405,1.128,1.136,3.648,0.073,4.782l-0.084,0.08C26.184,26.471,23.49,28.782,21.804,32.483z"/>
</g>
<g>
	<path d="M20.421,18.337l-1.493-3.095l0.491-0.502c0.347-0.354,0.558-1.056,0.564-1.876c0.009-0.774-0.148-1.579-0.455-2.331
		c-0.271-0.673-0.636-1.247-1.056-1.663l-0.202-0.2l-0.066-0.276c-0.009-0.039-0.736-4.151-0.182-4.854l0.3-0.381l1.124,0l0.27,0.58
		c0.205,0.456,1.013,0.595,1.704,0.284c0.726-0.326,1.061-0.959,0.954-1.36l-0.283-1.063l2.039-0.34l0.208,0.946
		c0.097,0.485,1.675,7.836,1.916,8.956l0.357,0.654l-0.682,0.597c-0.929,0.658-1.801,1.429-2.664,2.357
		c-0.521,0.558-1.023,1.142-1.493,1.736L20.421,18.337z M20.094,7.673c0.519,0.575,0.96,1.297,1.287,2.107
		c0.405,0.993,0.614,2.066,0.602,3.101c-0.001,0.116-0.004,0.231-0.011,0.344c0.729-0.767,1.469-1.438,2.244-2.034
		c-0.237-1.104-0.797-3.713-1.238-5.773c-0.225,0.164-0.472,0.309-0.74,0.429c-0.755,0.338-1.613,0.432-2.348,0.27
		C19.936,6.649,20.002,7.208,20.094,7.673z"/>
</g>
<g>
	<path d="M20.638,6.196C20.637,6.196,20.637,6.196,20.638,6.196c-1.242,0-2.292-0.624-2.741-1.628
		c-0.051-0.108-0.095-0.235-0.131-0.362c-0.395-1.446,0.472-3.01,2.059-3.729c0.514-0.229,1.067-0.35,1.604-0.35
		c1.243,0,2.294,0.624,2.743,1.628c0.058,0.125,0.105,0.27,0.141,0.413c0.376,1.415-0.494,2.971-2.074,3.68
		C21.728,6.075,21.174,6.196,20.638,6.196z M21.428,2.126c-0.258,0-0.529,0.06-0.784,0.174c-0.728,0.33-1.063,0.968-0.953,1.369
		c0.153,0.356,0.503,0.527,0.946,0.527l0,0c0.257,0,0.528-0.06,0.782-0.174c0.726-0.326,1.061-0.96,0.954-1.361
		C22.223,2.297,21.871,2.126,21.428,2.126z"/>
</g>
<g>
	<path d="M18.914,16.98L18.914,16.98c-1.588,0-3.175-1.383-4.043-3.523c-0.469-1.157-0.676-2.432-0.582-3.59
		c0.121-1.475,0.703-2.612,1.639-3.202c1.17-0.736,2.728-0.431,3.953,0.786c0.609,0.603,1.128,1.409,1.5,2.329
		c0.405,0.994,0.614,2.068,0.602,3.103c-0.01,1.362-0.413,2.52-1.135,3.257c-0.159,0.166-0.329,0.308-0.512,0.426
		C19.893,16.844,19.419,16.98,18.914,16.98z M17.335,8.258c-0.125,0-0.233,0.031-0.341,0.099c-0.379,0.239-0.645,0.864-0.711,1.672
		c-0.069,0.853,0.088,1.804,0.442,2.676c0.605,1.494,1.56,2.275,2.189,2.275c0.126,0,0.236-0.032,0.346-0.101
		c0.04-0.026,0.094-0.072,0.152-0.133c0.354-0.362,0.565-1.063,0.571-1.883c0.009-0.775-0.148-1.58-0.455-2.332
		c-0.272-0.673-0.637-1.247-1.055-1.661C18.08,8.481,17.666,8.258,17.335,8.258z"/>
</g>
<g>
	<path d="M29.348,5.57c-1.793,0-3.222-1.095-3.325-2.546c-0.104-1.559,1.321-2.881,3.243-3.013c1.884-0.13,3.517,1.001,3.621,2.537
		c0.031,0.405-0.051,0.819-0.246,1.219C32.137,4.78,30.993,5.464,29.65,5.56C29.546,5.566,29.447,5.57,29.348,5.57z M29.573,2
		c-0.056,0-0.111,0.002-0.167,0.006c-0.88,0.061-1.408,0.563-1.387,0.881c0.024,0.344,0.674,0.732,1.491,0.678
		c0.71-0.05,1.191-0.389,1.337-0.682c0.033-0.068,0.05-0.134,0.045-0.189C30.87,2.36,30.301,2,29.573,2z"/>
</g>
<g>
	<path d="M17.91,34.429l0.075-1.126c0.184-2.771-0.376-5.083-1.537-6.343l-0.261-0.284l-0.003-0.386
		c-0.031-3.73,1.15-7.16,3.61-10.483l0.396-0.525c0.519-0.657,1.057-1.283,1.613-1.877c0.958-1.03,1.93-1.89,2.971-2.626
		l0.297-0.206c1.085-0.731,1.313-4.259,0.972-7.371c-0.009-0.06-0.015-0.12-0.02-0.18l1.99-0.193l0.012,0.098
		c0.068,0.337,0.696,0.69,1.483,0.637c0.711-0.05,1.192-0.388,1.338-0.681l0.328-0.661l0.86,0.136
		c1.499,0.222,2.266,0.978,2.645,1.572c0.951,1.49,0.441,3.341,0.381,3.548c-0.721,3.277,1.31,4.662,1.33,4.676
		c3.657,2.943,3.526,5.537,3.5,5.823l-0.029,0.305l-0.416,0.507l-0.357,0.092c-1.258,0.269-2.604,0.627-4.002,1.065
		c-0.021,0.011-2.065,0.801-3.961,0.801l0,0c-1.984,0-2.875-0.866-3.271-1.592c-0.097-0.083-0.317-0.069-0.846,0.323l-0.199,0.115
		c-0.062,0.033-0.814,0.466-0.584,1.991c0.405,1.128,1.137,3.648,0.073,4.782l-0.084,0.08c-0.033,0.028-3.328,2.854-4.909,7.265
		l-0.25,0.698l-0.741-0.037c-0.262-0.013-0.501-0.022-0.787-0.019c-0.094,0-0.252,0.002-0.489,0.015L17.91,34.429z M18.186,25.914
		c1.096,1.365,1.723,3.334,1.821,5.689c1.726-3.77,4.334-6.175,4.838-6.617c0.119-0.314-0.12-1.684-0.53-2.805l-0.047-0.177
		c-0.476-2.793,1.125-3.908,1.614-4.179c0.636-0.457,1.26-0.688,1.859-0.688c0.937,0,1.588,0.563,1.861,1.045
		c0.207,0.379,0.718,0.565,1.524,0.565c1.264,0,2.81-0.496,3.298-0.687c1.187-0.373,2.303-0.683,3.362-0.935
		c-0.214-0.718-0.826-1.95-2.573-3.359c-0.054-0.03-3.117-2.115-2.087-6.789C33.234,6.59,33.387,5.614,32.991,5
		c-0.17-0.263-0.438-0.45-0.813-0.567c-0.596,0.64-1.506,1.055-2.529,1.126c-0.52,0.035-1.01-0.021-1.457-0.151
		c0.051,2.504-0.267,5.655-2.01,6.829l-0.262,0.181c-0.918,0.65-1.789,1.421-2.654,2.351c-0.52,0.557-1.021,1.14-1.493,1.736
		l-0.369,0.489C19.29,19.851,18.236,22.771,18.186,25.914z"/>
</g>
<g>
	<path d="M21.356,82.616h-1.633c-2.916,0-3.527-1.46-3.527-2.685v-9.549l1.58,1.124c2.012,1.431,4.202,2.674,6.511,3.695
		l0.596,0.263v4.467C24.882,81.156,24.271,82.616,21.356,82.616z M18.196,74.201v5.73c0,0.337,0,0.685,1.527,0.685h1.633
		c1.526,0,1.526-0.348,1.526-0.685v-3.17C21.255,76.01,19.686,75.152,18.196,74.201z"/>
</g>
<g>
	<path d="M12.506,79.35h-1.631c-2.917,0-3.529-1.46-3.529-2.685V60.731l2.27,2.863c1.551,1.946,3.154,3.685,4.77,5.174
		c0.417,0.386,0.85,0.758,1.29,1.124l0.36,0.3v6.473C16.036,77.89,15.423,79.35,12.506,79.35z M9.346,66.405v10.26
		c0,0.337,0,0.685,1.529,0.685h1.631c1.529,0,1.529-0.348,1.529-0.685v-5.538c-0.342-0.29-0.679-0.586-1.006-0.888
		C11.786,69.093,10.552,67.809,9.346,66.405z"/>
</g>
<g>
	<path d="M36.355,80.068L36.355,80.068c-1.656,0-3.468-0.211-5.538-0.646c-1.428-0.3-2.842-0.691-4.204-1.163
		c-1.044-0.359-2.099-0.773-3.133-1.229c-2.433-1.076-4.742-2.386-6.864-3.896c-0.813-0.579-1.54-1.138-2.221-1.707
		c-0.465-0.387-0.924-0.781-1.367-1.19c-1.689-1.558-3.362-3.372-4.972-5.392l-0.493-0.628c-3-3.886-6.545-9.727-6.456-15.546
		c0.036-2.265,0.615-4.375,1.722-6.271c1.633-2.807,3.782-5.092,6.386-6.791c3.508-2.293,7.029-2.966,8.815-3.164
		c0.353-0.041,0.655-0.063,0.893-0.076c0.307-0.017,0.505-0.018,0.582-0.018c0.326,0,0.615,0.008,0.906,0.021
		c1.32,0.057,2.641,0.247,3.918,0.565c1.953,0.488,3.808,1.266,5.514,2.314c1.294,0.794,2.501,1.744,3.587,2.82
		c0.18,0.179,0.354,0.36,0.524,0.542c0.61-0.632,1.285-1.182,1.298-1.191c0.828-0.665,1.728-1.153,2.675-1.449
		c1.881-0.583,4.082-0.308,6.188,0.75c0.233,0.118,0.459,0.251,0.682,0.393c1.36,0.881,2.612,2.269,3.44,3.811
		c1.759,3.264,2.392,7.275,2.714,10.009c0.554,4.669,0.381,9.592-0.517,14.63c-0.949,5.333-4.066,12.174-9.729,13.904
		C39.406,79.868,37.942,80.068,36.355,80.068z M19.526,34.353c-0.096,0-0.254,0.002-0.49,0.015
		c-0.202,0.012-0.466,0.031-0.779,0.067c-1.615,0.178-4.787,0.785-7.948,2.851c-2.34,1.528-4.275,3.588-5.751,6.124
		c-0.932,1.598-1.42,3.379-1.45,5.296c-0.081,5.241,3.234,10.659,6.03,14.281l0.478,0.609c1.551,1.946,3.154,3.685,4.77,5.174
		c0.418,0.387,0.85,0.758,1.29,1.124c0.644,0.537,1.331,1.065,2.101,1.614c2.011,1.431,4.202,2.674,6.511,3.694
		c0.982,0.433,1.984,0.826,2.978,1.168c1.286,0.445,2.618,0.813,3.963,1.097c3.704,0.777,6.573,0.802,8.896,0.093
		c4.798-1.466,7.493-7.564,8.344-12.341c0.862-4.846,1.03-9.57,0.499-14.045c-0.304-2.572-0.892-6.333-2.488-9.297
		c-0.665-1.237-1.696-2.386-2.76-3.075c-0.16-0.102-0.329-0.203-0.502-0.291c-1.639-0.821-3.313-1.053-4.693-0.625
		c-0.705,0.221-1.385,0.591-2.018,1.099c-0.234,0.194-1.445,1.342-1.638,1.621c0.143-0.208,0.209-0.691-0.104-1.07l-1.543,1.273l0,0
		l-0.004-0.006c-0.367-0.443-0.77-0.885-1.197-1.312c-0.974-0.966-2.059-1.819-3.223-2.534c-1.531-0.94-3.197-1.64-4.951-2.078
		c-1.147-0.286-2.333-0.457-3.525-0.508C20.053,34.359,19.82,34.354,19.526,34.353z"/>
</g>
<g>
	<path d="M31.134,11.513c-0.071,0-0.143-0.007-0.215-0.023c-0.539-0.118-0.881-0.651-0.763-1.191
		c0.584-2.671,1.096-6.821,1.102-6.863c0.066-0.548,0.545-0.937,1.114-0.871c0.548,0.067,0.938,0.566,0.87,1.114
		c-0.021,0.174-0.528,4.284-1.133,7.047C32.008,11.194,31.594,11.513,31.134,11.513z"/>
</g>
</svg>
