<?xml version="1.0" encoding="utf-8"?>
<!-- Generator: Adobe Illustrator 15.0.0, SVG Export Plug-In . SVG Version: 6.00 Build 0)  -->
<!DOCTYPE svg PUBLIC "-//W3C//DTD SVG 1.1//EN" "http://www.w3.org/Graphics/SVG/1.1/DTD/svg11.dtd">
<svg version="1.1" id="Layer_1" xmlns="http://www.w3.org/2000/svg" xmlns:xlink="http://www.w3.org/1999/xlink" x="0px" y="0px"
	 width="69.855px" height="61.555px" viewBox="0 0 69.855 61.555" enable-background="new 0 0 69.855 61.555" xml:space="preserve">
<g>
	<path d="M35.017,61.555L4.239,30.776l0.063-0.063c-6.141-7.423-5.681-18.32,1.211-25.213C9.06,1.953,13.775,0,18.791,0
		s9.73,1.953,13.276,5.499c1.134,1.132,2.11,2.393,2.914,3.763c0.783-1.299,1.723-2.5,2.809-3.586
		c3.546-3.545,8.261-5.498,13.275-5.498s9.729,1.953,13.276,5.498c6.896,6.896,7.354,17.803,1.204,25.229l0.046,0.048l-0.681,0.708
		L35.017,61.555z M6.739,30.448l28.277,28.278l28.436-28.461c6.067-6.635,5.836-16.814-0.524-23.175
		c-3.169-3.167-7.382-4.912-11.862-4.912S42.372,3.922,39.204,7.09c-1.386,1.386-2.506,2.98-3.33,4.74l-0.919,1.962l-0.897-1.972
		c-0.833-1.831-1.979-3.481-3.405-4.906C27.485,3.745,23.272,2,18.791,2S10.096,3.745,6.928,6.913
		c-6.361,6.362-6.59,16.541-0.521,23.171L6.739,30.448z"/>
</g>
</svg>
