<?xml version="1.0" encoding="utf-8"?>
<!-- Generator: Adobe Illustrator 15.0.0, SVG Export Plug-In . SVG Version: 6.00 Build 0)  -->
<!DOCTYPE svg PUBLIC "-//W3C//DTD SVG 1.1//EN" "http://www.w3.org/Graphics/SVG/1.1/DTD/svg11.dtd">
<svg version="1.1" id="Layer_1" xmlns="http://www.w3.org/2000/svg" xmlns:xlink="http://www.w3.org/1999/xlink" x="0px" y="0px"
	 width="69.495px" height="69.491px" viewBox="0 0 69.495 69.491" enable-background="new 0 0 69.495 69.491" xml:space="preserve">
<g>
	<path d="M38.565,31.091l-0.017-0.014l-0.005,0.005l-0.072-0.074c-0.504-0.504-1.087-0.892-1.733-1.152
		c-0.586-0.239-1.215-0.367-1.873-0.38l-0.931-0.02l-0.062-1.173c-0.014-0.201-0.026-0.401-0.025-0.604
		c0.001-2.413,0.458-4.76,1.356-6.971c0.929-2.293,2.299-4.354,4.07-6.124c1.39-1.389,2.985-2.543,4.744-3.43
		c0.453-0.228,0.907-0.45,1.381-0.642c2.217-0.899,4.561-1.355,6.968-1.355c0.003,0,0.006,0,0.008,0c2.116,0,4.222,0.37,6.26,1.101
		l0.485,0.174l0.14,0.497l-1.007,0.391l-0.294,0.82c-1.819-0.652-3.698-0.983-5.584-0.983c-0.002,0-0.005,0-0.007,0
		c-2.149,0-4.24,0.407-6.217,1.208c-0.423,0.172-0.828,0.371-1.233,0.575c-1.567,0.791-2.991,1.82-4.229,3.058
		c-1.58,1.58-2.802,3.417-3.631,5.461c-0.786,1.933-1.192,3.983-1.209,6.095c0.567,0.084,1.118,0.234,1.644,0.448
		c0.877,0.354,1.671,0.877,2.357,1.554l0.089,0.086L38.565,31.091z"/>
</g>
<g>
	<path d="M41.792,35.647c-0.187,0-0.376-0.011-0.565-0.023l-1.19-0.058l-0.018-0.937c-0.013-0.653-0.14-1.282-0.377-1.872
		c-0.257-0.627-0.633-1.198-1.117-1.694l1.432-1.397c0.665,0.681,1.183,1.468,1.538,2.338c0.214,0.529,0.362,1.078,0.446,1.642
		c2.112-0.016,4.161-0.422,6.095-1.208c2.044-0.827,3.882-2.048,5.463-3.631c1.235-1.236,2.265-2.659,3.058-4.231
		c0.202-0.401,0.401-0.804,0.569-1.225c0.809-1.988,1.216-4.082,1.213-6.229c0-1.847-0.322-3.7-0.959-5.508l1.887-0.664
		c0.712,2.022,1.072,4.098,1.072,6.17c0.003,2.406-0.454,4.754-1.357,6.978c-0.188,0.469-0.41,0.924-0.64,1.378
		c-0.889,1.762-2.043,3.358-3.429,4.745c-1.771,1.773-3.832,3.143-6.125,4.07c-2.211,0.899-4.557,1.355-6.97,1.355
		C41.806,35.647,41.8,35.647,41.792,35.647z"/>
</g>
<g>
	<path d="M34.751,69.491l-0.402-0.176c-2.124-0.932-4.021-2.225-5.64-3.843c-1.771-1.772-3.14-3.832-4.07-6.124
		c-0.206-0.509-0.391-1.037-0.565-1.615l-0.243-0.804l0.75-0.378c1.572-0.793,2.996-1.821,4.233-3.058
		c1.583-1.586,2.805-3.423,3.629-5.46c0.803-1.978,1.209-4.072,1.209-6.228c0-0.143-0.01-0.284-0.019-0.426l-0.058-1.364h2.355
		l-0.063,1.339c-0.009,0.15-0.02,0.301-0.02,0.452c-0.001,2.155,0.405,4.25,1.208,6.226c0.826,2.039,2.049,3.877,3.633,5.462
		c1.235,1.235,2.658,2.264,4.23,3.057l0.752,0.379l-0.245,0.805c-0.178,0.584-0.363,1.112-0.567,1.614
		c-0.925,2.286-2.294,4.347-4.068,6.122c-1.621,1.619-3.518,2.912-5.637,3.844L34.751,69.491z M26.241,57.932
		c0.081,0.229,0.164,0.449,0.251,0.666c0.829,2.042,2.05,3.879,3.631,5.461c1.079,1.078,2.297,1.994,3.636,2.736V49.984
		c-0.889,1.811-2.073,3.463-3.532,4.924C29.042,56.093,27.704,57.107,26.241,57.932z M35.76,50.026v16.758
		c1.329-0.74,2.541-1.653,3.616-2.728c1.583-1.583,2.804-3.42,3.629-5.459c0.087-0.215,0.171-0.437,0.252-0.667
		c-1.462-0.824-2.799-1.838-3.982-3.021C37.826,53.461,36.648,51.823,35.76,50.026z"/>
</g>
<g>
	<polygon points="27.775,35.847 27.555,35.847 27.533,33.847 27.72,33.843 27.838,33.849 	"/>
</g>
<g>
	<path d="M17.125,60.334c-2.081,0-4.157-0.361-6.171-1.074l0.667-1.885c3.888,1.373,8.041,1.244,11.73-0.251
		c0.423-0.169,0.827-0.368,1.228-0.571c1.574-0.794,2.998-1.822,4.233-3.058c1.585-1.587,2.807-3.424,3.63-5.46
		c0.787-1.938,1.194-3.988,1.21-6.098c-0.564-0.083-1.114-0.232-1.644-0.447c-0.864-0.35-1.65-0.866-2.339-1.536l1.396-1.434
		c0.502,0.489,1.072,0.864,1.693,1.116c0.593,0.239,1.225,0.368,1.876,0.38l0.945,0.019l0.05,1.227
		c0.012,0.181,0.022,0.362,0.022,0.546c0,2.413-0.457,4.762-1.356,6.979c-0.924,2.285-2.293,4.346-4.069,6.123
		c-1.387,1.386-2.983,2.539-4.745,3.428c-0.427,0.217-0.891,0.445-1.384,0.643C21.88,59.878,19.533,60.334,17.125,60.334z"/>
</g>
<g>
	<path d="M10.956,59.261l-2.229-0.781l1.261-0.673c-0.551-1.78-0.83-3.604-0.829-5.436c0-2.415,0.457-4.763,1.359-6.978
		c0.2-0.499,0.436-0.979,0.639-1.381c0.891-1.762,2.044-3.358,3.427-4.743c1.772-1.772,3.834-3.143,6.127-4.071
		c2.166-0.879,4.465-1.333,6.833-1.352h0.229c0.175,0.003,0.332,0.012,0.488,0.021l1.196,0.053l0.019,0.94
		c0.013,0.652,0.14,1.282,0.379,1.875c0.26,0.641,0.648,1.225,1.155,1.733l0.115,0.118l-0.761,0.649l-0.697,0.716l-0.084-0.081
		c-0.687-0.689-1.223-1.496-1.583-2.387c-0.213-0.527-0.362-1.076-0.446-1.639h-0.003c-2.107,0.016-4.159,0.422-6.09,1.205
		c-2.044,0.828-3.883,2.05-5.464,3.631c-1.232,1.235-2.262,2.659-3.057,4.233c-0.204,0.401-0.4,0.805-0.569,1.226
		c-0.806,1.98-1.214,4.074-1.214,6.229c-0.001,1.884,0.331,3.761,0.986,5.581l0.301,0.836l-0.794,0.397l-0.417-0.83L10.956,59.261z"
		/>
</g>
<g>
	<path d="M56.934,45.662l-0.378-0.747c-0.797-1.576-1.826-3-3.058-4.232c-1.582-1.583-3.42-2.805-5.461-3.632
		c-1.936-0.785-3.992-1.19-6.112-1.204v-0.2c-0.006,0-0.011,0-0.017,0l-0.018,0.2l-0.125-0.001l-1.807,0l0.063-1.06l-0.002-1.219
		l1.356,0.06c0.144,0.009,0.285,0.009,0.431,0.019c0.003,0,0.005,0,0.008,0c2.153,0,4.244-0.407,6.221-1.209
		c2.042-0.826,3.879-2.047,5.462-3.63c1.234-1.235,2.264-2.658,3.058-4.231l0.377-0.748l0.803,0.24
		c0.557,0.167,1.101,0.358,1.617,0.568c2.29,0.928,4.351,2.297,6.124,4.067c1.618,1.62,2.91,3.518,3.843,5.641l0.176,0.402
		l-0.176,0.402c-0.934,2.124-2.227,4.02-3.844,5.636c-1.771,1.771-3.831,3.141-6.124,4.07c-0.514,0.208-1.058,0.399-1.616,0.566
		L56.934,45.662z M50.215,35.847c1.726,0.877,3.301,2.024,4.697,3.421c1.182,1.182,2.195,2.519,3.023,3.985
		c0.227-0.08,0.448-0.164,0.664-0.252c2.044-0.828,3.881-2.05,5.462-3.632c1.049-1.048,1.944-2.228,2.676-3.523H50.215z
		 M49.799,33.847h17.05c-0.75-1.375-1.684-2.625-2.786-3.729c-1.582-1.58-3.42-2.801-5.463-3.628
		c-0.216-0.088-0.438-0.172-0.664-0.252c-0.826,1.464-1.84,2.801-3.023,3.984C53.403,31.731,51.688,32.947,49.799,33.847z"/>
</g>
<g>
	<path d="M40.021,35.925v-2.078h1.71l0.008,1h0.282l-0.282,0.009l0.009,0.991c-0.138,0.002-0.275,0.01-0.412,0.018L40.021,35.925z"
		/>
</g>
<g>
	<polygon points="41.93,35.847 41.731,35.847 41.696,33.848 41.813,33.843 41.93,33.847 	"/>
</g>
<g>
	<path d="M58.51,59.271l-0.292-1.01l-0.854-0.335c0.652-1.848,0.976-3.701,0.976-5.556c0-2.158-0.407-4.253-1.211-6.226
		c-0.171-0.423-0.368-0.827-0.571-1.229c-0.799-1.579-1.827-3.003-3.058-4.233c-1.584-1.584-3.422-2.806-5.461-3.631
		c-1.934-0.784-3.985-1.189-6.098-1.205c-0.085,0.569-0.234,1.118-0.448,1.641c-0.349,0.864-0.867,1.652-1.539,2.342l-0.095,0.098
		l-1.453-1.378l0.116-0.116c0.489-0.502,0.865-1.073,1.118-1.697c0.237-0.585,0.366-1.217,0.382-1.88l0.022-0.94l1.209-0.048
		c0.153-0.009,0.308-0.018,0.462-0.02h0.215c2.38,0.015,4.686,0.47,6.859,1.351c2.288,0.926,4.35,2.295,6.124,4.07
		c1.381,1.381,2.534,2.977,3.428,4.744c0.229,0.452,0.45,0.909,0.641,1.383c0.9,2.209,1.357,4.558,1.357,6.976
		c0,2.082-0.361,4.16-1.075,6.178l-0.204,0.528l-0.424,0.154C58.595,59.247,58.552,59.26,58.51,59.271z"/>
</g>
<g>
	<path d="M52.357,60.333c-2.407,0-4.749-0.456-6.962-1.357c-0.468-0.188-0.924-0.409-1.377-0.638
		c-1.766-0.891-3.362-2.045-4.745-3.429c-1.773-1.774-3.144-3.834-4.072-6.123c-0.899-2.219-1.354-4.566-1.354-6.979
		c0-0.196,0.012-0.391,0.024-0.585l0.057-1.186l0.935-0.021c0.656-0.014,1.287-0.142,1.876-0.38c0.629-0.253,1.2-0.631,1.702-1.124
		l1.402,1.426c-0.69,0.68-1.483,1.202-2.356,1.553c-0.525,0.213-1.074,0.361-1.639,0.445c0.015,2.108,0.42,4.159,1.207,6.098
		c0.827,2.039,2.05,3.877,3.633,5.461c1.233,1.233,2.657,2.263,4.231,3.058c0.402,0.203,0.808,0.401,1.226,0.569
		c1.977,0.804,4.066,1.211,6.214,1.211c0.005,0,0.01,0,0.015,0c1.859,0,3.717-0.324,5.521-0.964l0.668,1.885
		c-2.02,0.716-4.102,1.079-6.188,1.079C52.369,60.333,52.363,60.333,52.357,60.333z"/>
</g>
<g>
	<path d="M29.479,35.925l-1.315-0.06c-0.134-0.008-0.269-0.016-0.404-0.018l0.008-0.924l-0.286,0.017l0.294-0.06h-0.008l0.008-1.033
		h1.618l0.085,1.033V35.925z"/>
</g>
<g>
	<path d="M12.564,45.664l-0.803-0.242c-0.559-0.168-1.103-0.359-1.615-0.568c-2.292-0.926-4.353-2.295-6.124-4.07
		c-1.617-1.616-2.911-3.512-3.845-5.633L0,34.747l0.178-0.403c0.934-2.122,2.228-4.019,3.846-5.638
		c1.772-1.773,3.833-3.143,6.125-4.07c0.494-0.201,1.021-0.386,1.609-0.565l0.806-0.246l0.379,0.752
		c0.791,1.57,1.819,2.994,3.058,4.232c1.582,1.581,3.419,2.802,5.461,3.629c1.976,0.803,4.071,1.209,6.227,1.209
		c0.148,0,0.294-0.01,0.44-0.019l1.374-0.063l-0.028,1.17l0.074,1.069l-1.773,0.042l-0.033-0.201c-0.034,0.001-0.067,0-0.101,0
		l0.008,0.198l-0.087,0.002c-2.112,0.015-4.164,0.42-6.098,1.203c-2.045,0.829-3.883,2.052-5.463,3.633
		c-1.235,1.236-2.264,2.66-3.058,4.232L12.564,45.664z M2.762,35.848c0.731,1.294,1.628,2.475,2.676,3.522
		c1.58,1.584,3.417,2.805,5.46,3.631c0.216,0.088,0.438,0.172,0.665,0.253c0.825-1.462,1.839-2.8,3.022-3.984
		c1.396-1.396,2.972-2.543,4.7-3.422H2.762z M2.649,33.848h17.053c-1.89-0.901-3.607-2.117-5.116-3.625
		c-1.186-1.187-2.2-2.524-3.023-3.985c-0.23,0.082-0.45,0.165-0.663,0.251c-2.043,0.827-3.88,2.048-5.462,3.631
		C4.335,31.224,3.4,32.473,2.649,33.848z"/>
</g>
<g>
	<path d="M35.945,29.524l-1.187-0.054l-1.18,0.004l0.056-1.369c0.009-0.14,0.018-0.281,0.018-0.422
		c-0.002-2.16-0.409-4.254-1.209-6.225c-0.826-2.041-2.047-3.878-3.631-5.461c-1.237-1.236-2.661-2.265-4.231-3.058l-0.749-0.378
		l0.242-0.803c0.17-0.566,0.36-1.109,0.565-1.614c0.931-2.295,2.3-4.356,4.07-6.125c1.625-1.622,3.522-2.915,5.639-3.843L34.75,0
		l0.401,0.176c2.117,0.929,4.014,2.222,5.638,3.842c1.772,1.769,3.142,3.83,4.07,6.127c0.194,0.474,0.381,1.001,0.566,1.608
		l0.247,0.807l-0.754,0.379c-1.567,0.789-2.992,1.818-4.232,3.058c-1.582,1.584-2.805,3.422-3.631,5.461
		c-0.802,1.975-1.208,4.069-1.208,6.225c0,0.164,0.011,0.324,0.021,0.483L35.945,29.524z M26.242,11.56
		c1.462,0.824,2.799,1.839,3.984,3.023c1.459,1.459,2.644,3.111,3.534,4.925V2.695c-1.335,0.74-2.555,1.658-3.638,2.739
		c-1.579,1.578-2.8,3.416-3.63,5.462C26.406,11.11,26.322,11.332,26.242,11.56z M35.76,2.708v16.757
		c0.888-1.796,2.066-3.434,3.511-4.881c1.188-1.188,2.526-2.202,3.986-3.024c-0.082-0.234-0.166-0.453-0.25-0.66
		c-0.83-2.051-2.051-3.888-3.631-5.466C38.3,4.36,37.088,3.447,35.76,2.708z"/>
</g>
<g>
	<path d="M30.982,31.049l-1.448-1.375l0.087-0.09c0.729-0.708,1.517-1.227,2.388-1.581c0.522-0.214,1.072-0.364,1.643-0.449
		c-0.018-2.112-0.424-4.162-1.209-6.096c-0.826-2.041-2.047-3.877-3.63-5.461c-1.236-1.235-2.66-2.264-4.232-3.059
		c-0.403-0.204-0.811-0.401-1.232-0.574c-1.972-0.801-4.064-1.208-6.216-1.208c-0.005,0-0.01,0-0.015,0
		c-1.883,0-3.758,0.332-5.575,0.985l-0.319-0.887l-0.979-0.337l0.162-0.435l0.459-0.223c2.034-0.732,4.138-1.103,6.251-1.103
		c0.005,0,0.01,0,0.017,0c2.41,0,4.755,0.456,6.969,1.355c0.473,0.192,0.928,0.413,1.38,0.64c1.762,0.891,3.358,2.045,4.745,3.43
		c1.774,1.774,3.144,3.835,4.07,6.125c0.897,2.211,1.354,4.559,1.356,6.975c0,0.18-0.011,0.358-0.021,0.535l-0.047,1.236
		l-0.946,0.021c-0.664,0.015-1.294,0.143-1.873,0.381c-0.633,0.256-1.204,0.633-1.703,1.12L30.982,31.049z"/>
</g>
<g>
	<path d="M27.688,35.648c-2.411,0-4.759-0.457-6.978-1.356c-2.291-0.927-4.351-2.297-6.124-4.07
		c-1.389-1.39-2.542-2.986-3.429-4.745c-0.228-0.452-0.449-0.907-0.64-1.379c-0.901-2.222-1.357-4.569-1.356-6.978
		c0-2.083,0.363-4.165,1.078-6.187l1.886,0.667c-0.64,1.808-0.964,3.665-0.964,5.521c-0.001,2.149,0.406,4.244,1.209,6.225
		c0.171,0.421,0.368,0.827,0.572,1.23c0.791,1.569,1.82,2.993,3.058,4.231c1.582,1.583,3.419,2.804,5.461,3.63
		c1.939,0.787,3.99,1.193,6.096,1.209c0.084-0.567,0.234-1.118,0.448-1.645c0.353-0.87,0.874-1.661,1.547-2.35l1.43,1.398
		c-0.491,0.502-0.869,1.075-1.124,1.705c-0.24,0.587-0.367,1.218-0.38,1.874l-0.019,0.945l-1.229,0.051
		C28.05,35.638,27.87,35.648,27.688,35.648z"/>
</g>
</svg>
