<?xml version="1.0" encoding="utf-8"?>
<!-- Generator: Adobe Illustrator 15.0.0, SVG Export Plug-In . SVG Version: 6.00 Build 0)  -->
<!DOCTYPE svg PUBLIC "-//W3C//DTD SVG 1.1//EN" "http://www.w3.org/Graphics/SVG/1.1/DTD/svg11.dtd">
<svg version="1.1" id="Layer_1" xmlns="http://www.w3.org/2000/svg" xmlns:xlink="http://www.w3.org/1999/xlink" x="0px" y="0px"
	 width="48.874px" height="66.877px" viewBox="0 0 48.874 66.877" enable-background="new 0 0 48.874 66.877" xml:space="preserve">
<g>
	<path d="M12.531,43.74c-2.998,0-5.436-2.44-5.436-5.439c0-2.998,2.438-5.437,5.436-5.437c2.999,0,5.439,2.439,5.439,5.437
		C17.97,41.3,15.53,43.74,12.531,43.74z M12.531,34.863c-1.895,0-3.436,1.542-3.436,3.438c0,1.896,1.542,3.439,3.436,3.439
		c1.896,0,3.439-1.543,3.439-3.439C15.97,36.405,14.428,34.863,12.531,34.863z"/>
</g>
<g>
	<path d="M24.557,58.814c-2.998,0-5.437-2.44-5.437-5.44c0-2.998,2.439-5.437,5.437-5.437c3,0,5.439,2.438,5.439,5.437
		C29.996,56.374,27.556,58.814,24.557,58.814z M24.557,49.938c-1.895,0-3.437,1.542-3.437,3.437c0,1.897,1.542,3.44,3.437,3.44
		c1.896,0,3.439-1.543,3.439-3.44C27.996,51.479,26.453,49.938,24.557,49.938z"/>
</g>
<g>
	<path d="M35.899,43.74c-2.998,0-5.438-2.44-5.438-5.439c0-2.998,2.439-5.437,5.438-5.437s5.437,2.439,5.437,5.437
		C41.335,41.3,38.897,43.74,35.899,43.74z M35.899,34.863c-1.896,0-3.438,1.542-3.438,3.438c0,1.896,1.542,3.439,3.438,3.439
		c1.895,0,3.437-1.543,3.437-3.439C39.335,36.405,37.793,34.863,35.899,34.863z"/>
</g>
<g>
	<path d="M24.438,28.394c-2.056,0-3.729-1.671-3.729-3.726c0-2.056,1.673-3.729,3.729-3.729c2.055,0,3.727,1.673,3.727,3.729
		C28.165,26.723,26.493,28.394,24.438,28.394z M24.438,22.939c-0.954,0-1.729,0.775-1.729,1.729c0,0.952,0.775,1.726,1.729,1.726
		c0.952,0,1.727-0.774,1.727-1.726C26.165,23.714,25.39,22.939,24.438,22.939z"/>
</g>
<g>
	<path d="M44.704,31.014c-2.056,0-3.729-1.672-3.729-3.727c0-2.018,1.642-3.689,3.66-3.725l0.63-0.011l0.282,0.564
		c0.546,1.092,1.022,2.202,1.417,3.298c0.19,0.527,0.363,1.06,0.527,1.597l0.186,0.605l-0.469,0.426
		C46.52,30.668,45.63,31.014,44.704,31.014z M44.083,25.677c-0.646,0.251-1.107,0.881-1.107,1.609c0,0.952,0.775,1.727,1.729,1.727
		c0.226,0,0.446-0.044,0.651-0.129c-0.087-0.266-0.177-0.53-0.271-0.793C44.794,27.29,44.459,26.481,44.083,25.677z"/>
</g>
<g>
	<path d="M4.277,31.014c-1.026,0-1.983-0.41-2.695-1.155L1.18,29.438l0.168-0.558c0.149-0.494,0.312-0.981,0.486-1.466
		c0.399-1.107,0.877-2.216,1.419-3.296l0.262-0.523l0.761-0.034c2.054,0,3.725,1.672,3.725,3.727S6.331,31.014,4.277,31.014z
		 M3.466,28.812c0.247,0.132,0.523,0.202,0.811,0.202c0.951,0,1.725-0.775,1.725-1.727c0-0.791-0.533-1.458-1.258-1.663
		c-0.386,0.815-0.73,1.643-1.028,2.468C3.629,28.331,3.546,28.57,3.466,28.812z"/>
</g>
<g>
	<path d="M24.434,66.877c-3.33,0-6.546-0.759-9.561-2.255c-2.911-1.44-5.526-3.505-7.771-6.135
		c-2.235-2.618-3.987-5.659-5.207-9.038C0.638,45.97,0,42.262,0,38.43c0-3.296,0.474-6.51,1.409-9.556l0.501-1.632l1.179,1.235
		c0.33,0.346,0.773,0.536,1.25,0.536c0.952,0,1.726-0.775,1.726-1.727c0-0.952-0.774-1.726-1.726-1.726l-1.704,0.077l0.679-1.52
		c1.052-2.097,2.327-4.029,3.79-5.742c1.091-1.275,2.281-2.429,3.536-3.43l0.855-0.682l0.603,0.913
		c1.875,2.839,6.832,4.747,12.337,4.747c5.505,0,10.461-1.908,12.334-4.748l0.603-0.913l0.855,0.682
		c1.255,1,2.444,2.154,3.536,3.431c1.466,1.716,2.741,3.647,3.789,5.739l0.713,1.421l-1.59,0.027
		c-0.935,0.016-1.695,0.789-1.695,1.724c0,0.952,0.775,1.727,1.729,1.727c0.429,0,0.841-0.16,1.161-0.451l1.173-1.068l0.457,1.519
		c0.903,2.997,1.364,6.164,1.369,9.415c0,3.831-0.639,7.539-1.898,11.021c-1.217,3.374-2.968,6.415-5.206,9.038
		c-2.24,2.627-4.854,4.691-7.77,6.137C30.977,66.119,27.761,66.877,24.434,66.877z M2.958,30.747C2.322,33.216,2,35.794,2,38.43
		c0,3.6,0.598,7.078,1.776,10.34c1.138,3.152,2.769,5.985,4.847,8.419c2.068,2.423,4.47,4.321,7.138,5.642
		c2.737,1.358,5.654,2.047,8.672,2.047c3.017,0,5.934-0.688,8.671-2.045c2.672-1.324,5.073-3.223,7.137-5.643
		c2.081-2.439,3.712-5.271,4.847-8.419c1.181-3.266,1.779-6.744,1.779-10.341c-0.004-2.617-0.321-5.175-0.944-7.621
		c-0.388,0.134-0.798,0.204-1.216,0.204c-2.056,0-3.729-1.672-3.729-3.727c0-1.497,0.903-2.803,2.193-3.391
		c-0.852-1.521-1.834-2.936-2.931-4.22c-0.778-0.911-1.61-1.753-2.48-2.514c-2.567,2.922-7.637,4.763-13.327,4.763
		c-5.691,0-10.762-1.84-13.33-4.762c-0.871,0.761-1.703,1.604-2.482,2.514c-1.078,1.263-2.048,2.656-2.892,4.155
		c1.367,0.553,2.333,1.893,2.333,3.456c0,2.055-1.671,3.727-3.726,3.727C3.863,31.013,3.394,30.92,2.958,30.747z"/>
</g>
<g>
	<path d="M24.433,21.923c-6.246,0-11.743-2.216-14.005-5.645c-0.708-1.069-1.066-2.205-1.066-3.374c0-3.097,2.512-5.889,6.752-7.546
		c0.676-2.508,4.084-4.327,8.319-4.327c4.234,0,7.643,1.818,8.319,4.327c4.24,1.658,6.752,4.45,6.752,7.546
		c0,1.169-0.359,2.304-1.067,3.374C36.174,19.707,30.677,21.923,24.433,21.923z M24.433,3.031c-3.715,0-6.328,1.622-6.438,3.136
		l-0.047,0.651l-0.615,0.219c-3.684,1.31-5.972,3.558-5.972,5.867c0,0.77,0.247,1.534,0.735,2.271
		c1.874,2.84,6.832,4.748,12.337,4.748c5.504,0,10.461-1.908,12.335-4.748c0.489-0.738,0.736-1.502,0.736-2.271
		c0-2.309-2.288-4.557-5.972-5.867l-0.615-0.219l-0.047-0.651C30.76,4.653,28.148,3.031,24.433,3.031z"/>
</g>
<g>
	<rect x="17.217" width="2" height="3.993"/>
</g>
<g>
	<rect x="4.598" y="8.341" width="2" height="13.829"/>
</g>
<g>
	<rect x="42.17" y="8.341" width="2" height="13.829"/>
</g>
<g>
	<rect x="4.598" y="54.502" width="2" height="12.053"/>
</g>
<g>
	<rect x="42.17" y="54.93" width="2" height="11.625"/>
</g>
<g>
	<rect x="46.874" y="18.892" width="2" height="18.021"/>
</g>
<g>
	<rect x="0.035" y="18.892" width="2" height="18.021"/>
</g>
<g>
	<rect x="29.622" width="2" height="3.993"/>
</g>
<g>
	<rect x="17.006" y="5.113" width="14.917" height="2"/>
</g>
<g>
	<rect x="23.438" y="27.362" width="2" height="21.5"/>
</g>
<g>
	<rect x="23.438" y="57.861" width="2" height="8.719"/>
</g>
</svg>
