<?xml version="1.0" encoding="utf-8"?>
<!-- Generator: Adobe Illustrator 15.0.0, SVG Export Plug-In . SVG Version: 6.00 Build 0)  -->
<!DOCTYPE svg PUBLIC "-//W3C//DTD SVG 1.1//EN" "http://www.w3.org/Graphics/SVG/1.1/DTD/svg11.dtd">
<svg version="1.1" id="Layer_1" xmlns="http://www.w3.org/2000/svg" xmlns:xlink="http://www.w3.org/1999/xlink" x="0px" y="0px"
	 width="75.927px" height="70.651px" viewBox="0 0 75.927 70.651" enable-background="new 0 0 75.927 70.651" xml:space="preserve">
<g>
	<path d="M37.87,70.651c-1.046,0-2.09-0.231-3.102-0.688l-2.228-1.005l2.801-1.014l0.367,0.163c0.748,0.346,1.511,0.527,2.271,0.539
		l-0.016,2L37.87,70.651z"/>
</g>
<g>
	<path d="M35.347,12.112l-0.446-0.152l-2.291-0.845l2.157-1.028c1.01-0.457,2.054-0.688,3.103-0.688l0.143,0.008l-0.036,1.998
		c-0.762,0.012-1.524,0.193-2.268,0.538L35.347,12.112z"/>
</g>
<g>
	<path d="M49.703,70.651c-0.915,0-1.861-0.06-2.813-0.178l-7.135-0.884l7.105-1.097c9.887-1.526,17.343-13.765,17.343-28.469
		c0-14.703-7.456-26.941-17.343-28.466l-7.065-1.09l7.093-0.891c0.939-0.118,1.887-0.178,2.814-0.178
		c14.46,0,26.225,13.738,26.225,30.625C75.927,56.912,64.163,70.651,49.703,70.651z M52.923,11.651
		c7.864,4.575,13.28,15.616,13.28,28.373c0,12.758-5.417,23.799-13.281,28.375c11.841-1.866,21.005-13.88,21.005-28.375
		C73.927,25.53,64.764,13.518,52.923,11.651z"/>
</g>
<g>
	<path d="M44.842,70.651c-1.472,0-2.944-0.216-4.379-0.641l-2.572-0.763l2.443-1.107c0.396-0.179,0.793-0.408,1.183-0.684
		c5.259-3.675,8.93-14.955,8.93-27.433c0-12.476-3.671-23.755-8.927-27.43c-0.387-0.271-0.786-0.502-1.188-0.686l-2.425-1.109
		l2.557-0.759c2.176-0.646,4.437-0.812,6.703-0.459c10.852,1.674,19.036,14.762,19.036,30.443c0,15.682-8.185,28.771-19.037,30.445
		C46.38,70.589,45.598,70.651,44.842,70.651z M43.359,68.567c1.146,0.129,2.299,0.108,3.503-0.074
		c9.886-1.526,17.341-13.765,17.341-28.469c0-14.704-7.455-26.941-17.342-28.466c-1.179-0.183-2.346-0.204-3.5-0.075
		c5.464,4.5,9.086,15.777,9.086,28.541C52.447,52.792,48.825,64.068,43.359,68.567z"/>
</g>
<g>
	<path d="M40.677,12.067l-0.459-0.123c-0.749-0.346-1.513-0.527-2.271-0.539l0.015-2c1.118-0.016,2.187,0.225,3.197,0.682l2.4,1.084
		L40.677,12.067z"/>
</g>
<g>
	<path d="M38.056,70.651l-0.141-0.008l0.031-1.998c0.764-0.012,1.528-0.193,2.27-0.538l0.355-0.165l0.508,0.166l2.355,0.828
		l-2.276,1.026C40.147,70.419,39.103,70.651,38.056,70.651z"/>
</g>
<g>
	<path d="M40.799,70.125l-2.883-0.942l2.297-1.075c0.398-0.186,0.795-0.42,1.179-0.694l0.447-0.319l2.215,0.896l-1.387,1.104
		c-0.497,0.348-1.004,0.64-1.507,0.868L40.799,70.125z"/>
</g>
<g>
	<path d="M35.229,70.084l-0.461-0.122c-0.498-0.225-1.005-0.517-1.509-0.868l-1.559-1.088l2.279-0.854l0.554,0.262
		c0.387,0.276,0.783,0.51,1.178,0.694l2.297,1.075L35.229,70.084z"/>
</g>
<g>
	<path d="M34.106,12.94l-0.655-0.241l-1.689-0.696l1.497-1.047c0.496-0.347,1.003-0.639,1.508-0.867l0.338-0.153l0.488,0.149
		l2.256,0.833l-2.14,1.027c-0.391,0.181-0.787,0.414-1.176,0.691L34.106,12.94z"/>
</g>
<g>
	<path d="M26.224,70.651C11.764,70.651,0,56.912,0,40.024C0,23.138,11.764,9.399,26.224,9.399c0.927,0,1.873,0.06,2.813,0.178
		l7.097,0.89l-7.069,1.09c-9.887,1.525-17.343,13.763-17.343,28.466c0,14.704,7.456,26.942,17.343,28.469l7.109,1.098l-7.138,0.883
		C28.084,70.591,27.138,70.651,26.224,70.651z M23.002,11.651C11.163,13.52,2,25.531,2,40.024c0,14.495,9.163,26.508,21.003,28.375
		C15.139,63.823,9.722,52.782,9.722,40.024C9.722,27.268,15.139,16.228,23.002,11.651z"/>
</g>
<g>
	<path d="M31.084,70.651c-0.757,0-1.538-0.062-2.322-0.182c-10.855-1.675-19.04-14.764-19.04-30.445
		c0-15.681,8.185-28.769,19.04-30.443c2.262-0.353,4.528-0.188,6.702,0.459l2.569,0.763l-2.441,1.106
		c-0.391,0.177-0.79,0.408-1.186,0.685c-5.256,3.674-8.926,14.954-8.926,27.43c0,12.479,3.67,23.758,8.926,27.431
		c0.399,0.28,0.797,0.51,1.185,0.686l2.451,1.105l-2.578,0.765C34.03,70.435,32.557,70.651,31.084,70.651z M31.084,11.399
		c-0.665,0-1.343,0.053-2.016,0.158c-9.889,1.525-17.346,13.763-17.346,28.466c0,14.704,7.457,26.942,17.344,28.469
		c1.199,0.183,2.353,0.203,3.501,0.074c-5.464-4.496-9.087-15.773-9.087-28.543c0-12.765,3.622-24.041,9.086-28.541
		C32.073,11.427,31.579,11.399,31.084,11.399z"/>
</g>
<g>
	<rect x="36.272" y="0" width="2.525" height="10.331"/>
</g>
</svg>
