<?xml version="1.0" encoding="utf-8"?>
<!-- Generator: Adobe Illustrator 15.0.0, SVG Export Plug-In . SVG Version: 6.00 Build 0)  -->
<!DOCTYPE svg PUBLIC "-//W3C//DTD SVG 1.1//EN" "http://www.w3.org/Graphics/SVG/1.1/DTD/svg11.dtd">
<svg version="1.1" id="Layer_1" xmlns="http://www.w3.org/2000/svg" xmlns:xlink="http://www.w3.org/1999/xlink" x="0px" y="0px"
	 width="41.462px" height="51.899px" viewBox="0 0 41.462 51.899" enable-background="new 0 0 41.462 51.899" xml:space="preserve">
<g>
	<path d="M10.839,15.897c0,1.124,0.053,2.222,0.187,3.104H8.912l-0.188-1.633h-0.08c-0.723,1.018-2.114,1.927-3.961,1.927
		c-2.623,0-3.961-1.847-3.961-3.72c0-3.132,2.784-4.845,7.789-4.817v-0.268c0-1.044-0.294-2.998-2.944-2.971
		c-1.231,0-2.489,0.348-3.399,0.963L1.632,6.904C2.703,6.235,4.282,5.78,5.915,5.78c3.961,0,4.925,2.703,4.925,5.272V15.897z
		 M8.564,12.392c-2.569-0.054-5.487,0.401-5.487,2.917c0,1.553,1.017,2.248,2.195,2.248c1.713,0,2.81-1.07,3.185-2.168
		c0.081-0.268,0.107-0.535,0.107-0.749V12.392z"/>
	<path d="M15.793,0h2.329v8.136h0.054c0.83-1.445,2.328-2.355,4.416-2.355c3.238,0,5.486,2.677,5.486,6.584
		c0,4.631-2.943,6.932-5.834,6.932c-1.874,0-3.372-0.722-4.362-2.408h-0.054l-0.134,2.114h-2.007
		c0.054-0.883,0.107-2.194,0.107-3.346V0z M18.122,13.81c0,0.295,0.027,0.589,0.107,0.856c0.428,1.633,1.82,2.757,3.533,2.757
		c2.489,0,3.934-2.007,3.934-4.979c0-2.596-1.338-4.817-3.881-4.817c-1.579,0-3.078,1.124-3.56,2.891
		c-0.08,0.295-0.134,0.616-0.134,0.99V13.81z"/>
	<path d="M41.409,18.547c-0.615,0.295-1.98,0.749-3.721,0.749c-3.907,0-6.449-2.649-6.449-6.61c0-3.987,2.729-6.905,6.958-6.905
		c1.392,0,2.623,0.349,3.265,0.696L40.927,8.27c-0.562-0.294-1.445-0.615-2.729-0.615c-2.971,0-4.577,2.221-4.577,4.897
		c0,2.998,1.928,4.845,4.497,4.845c1.338,0,2.222-0.321,2.89-0.616L41.409,18.547z"/>
</g>
<g>
	<path d="M2.837,33.058l1.847,2.784c0.508,0.723,0.91,1.364,1.338,2.087h0.054c0.428-0.749,0.856-1.418,1.312-2.114l1.793-2.757
		h2.569L7.333,39.32l4.523,6.691H9.207l-1.927-2.917c-0.508-0.75-0.937-1.473-1.392-2.248H5.834
		c-0.428,0.775-0.856,1.472-1.365,2.248l-1.874,2.917H0l4.603-6.61l-4.389-6.344H2.837z"/>
	<path d="M17.693,33.058l2.811,7.655c0.321,0.856,0.642,1.873,0.856,2.649h0.053c0.241-0.776,0.509-1.767,0.83-2.703l2.569-7.602
		h2.489l-3.533,9.234c-1.686,4.442-2.837,6.69-4.443,8.109c-1.178,0.99-2.302,1.392-2.891,1.498l-0.589-1.953
		c0.589-0.188,1.365-0.563,2.061-1.151c0.642-0.508,1.418-1.418,1.98-2.623c0.107-0.24,0.188-0.428,0.188-0.562
		s-0.054-0.321-0.188-0.615l-4.764-11.938H17.693z"/>
	<path d="M30.677,44.646l5.834-7.627c0.59-0.723,1.125-1.339,1.713-2.034v-0.054h-7.012v-1.874h9.85v1.473l-5.781,7.521
		c-0.563,0.723-1.07,1.392-1.66,2.034v0.054h7.548v1.873H30.677V44.646z"/>
</g>
</svg>
