<?xml version="1.0" encoding="utf-8"?>
<!-- Generator: Adobe Illustrator 15.0.0, SVG Export Plug-In . SVG Version: 6.00 Build 0)  -->
<!DOCTYPE svg PUBLIC "-//W3C//DTD SVG 1.1//EN" "http://www.w3.org/Graphics/SVG/1.1/DTD/svg11.dtd">
<svg version="1.1" id="Layer_1" xmlns="http://www.w3.org/2000/svg" xmlns:xlink="http://www.w3.org/1999/xlink" x="0px" y="0px"
	 width="26.13px" height="28.896px" viewBox="0 0 26.13 28.896" enable-background="new 0 0 26.13 28.896" xml:space="preserve">
<g>
	<path d="M12.771,28.896C12.771,28.896,12.771,28.896,12.771,28.896c-0.397,0-0.772-0.075-1.135-0.149
		c-0.212-0.043-0.427-0.087-0.646-0.113c-0.332-0.041-0.667-0.021-1.005-0.003c-0.363,0.018-0.728,0.034-1.083,0.002
		c-1.49-0.141-2.907-0.896-3.697-1.974c-0.827-1.126-1.092-2.512-1.243-3.72c-0.177-1.302-0.546-3.66-1.066-6.814L2.87,15.973
		L0.111,8.389c-0.35-0.97,0.153-2.042,1.12-2.391C2.175,5.656,3.282,6.177,3.621,7.12l2.124,5.861L4.443,3.693
		C4.3,2.673,5.013,1.727,6.032,1.585c1.027-0.143,1.965,0.588,2.105,1.59l1.237,8.82c0.021,0.058,0.052,0.108,0.074,0.137
		c0.023-0.055,0.054-0.154,0.074-0.324l0.049-9.953C9.577,0.833,10.414,0,11.438,0c1.038,0.005,1.87,0.847,1.865,1.875
		c-0.016,3.086-0.044,8.664-0.049,9.935l0.015,0.01l-0.017,0.286c-0.001,0.06,0.015,0.149,0.036,0.187
		c0.012-0.034,0.108-0.158,0.182-0.5l1.208-8.62c0.139-1.001,1.085-1.734,2.106-1.59c0.493,0.069,0.931,0.326,1.23,0.724
		c0.3,0.398,0.427,0.891,0.357,1.385l-1.511,10.779l0.003,0.005l-0.025,0.203c-0.174,1.088-0.242,3.426,0.664,3.708l0.125,0.058
		c-0.005-0.005,0.027,0.001,0.088,0c0.149,0,0.483-0.051,1.043-0.393l4.404-3.226c0.802-0.588,2.022-0.396,2.607,0.404
		c0.607,0.826,0.428,1.996-0.401,2.605l-3.342,2.445c-0.124,0.148-0.906,1.097-1.348,1.923c-0.069,0.222-0.318,0.819-1.099,1.325
		l-0.335,0.263c-0.522,0.414-1.05,0.836-1.576,1.258c-0.472,0.378-0.794,0.62-1.031,0.799c-0.526,0.396-0.581,0.437-0.998,1.018
		l-0.203,0.282c-0.37,0.521-0.882,1.239-1.676,1.561C13.451,28.836,13.126,28.896,12.771,28.896z M10.561,27.611
		c0.185,0,0.369,0.008,0.549,0.03c0.244,0.029,0.485,0.077,0.724,0.126c0.329,0.066,0.64,0.129,0.936,0.129c0,0,0,0,0,0
		c0.228,0,0.423-0.036,0.615-0.113c0.484-0.196,0.849-0.668,1.241-1.219l0.201-0.28c0.49-0.684,0.617-0.789,1.21-1.234
		c0.232-0.174,0.547-0.41,1.007-0.779c0.528-0.423,1.056-0.847,1.586-1.266l0.375-0.291c0.604-0.395,0.717-0.796,0.721-0.813
		l0.043-0.115c0.359-0.688,0.917-1.43,1.246-1.844l-0.077-0.093l0.425-0.32l3.415-2.498c0.384-0.282,0.467-0.825,0.185-1.209
		c-0.272-0.374-0.832-0.462-1.21-0.188l-4.438,3.249c-0.62,0.382-1.146,0.563-1.599,0.563c-0.271,0.001-0.457-0.065-0.565-0.121
		c-1.755-0.614-1.438-3.802-1.322-4.641l0.017-0.162l1.537-10.968c0.032-0.23-0.026-0.459-0.166-0.644
		c-0.139-0.185-0.342-0.303-0.57-0.335c-0.479-0.07-0.912,0.273-0.978,0.738l-1.215,8.657c-0.265,1.231-0.933,1.325-1.131,1.325
		l-0.103-0.008c-0.227,0.005-0.466-0.099-0.653-0.297c-0.329-0.348-0.318-0.844-0.313-0.94l0.068,0.004
		c-0.068-0.771-0.057-3.043-0.02-10.183c0.002-0.478-0.383-0.868-0.86-0.871c-0.48,0-0.868,0.386-0.871,0.861l-0.053,10.008
		c-0.136,1.199-0.804,1.288-1.006,1.288l-0.136-0.013c-0.252-0.016-0.745-0.153-0.977-0.938L7.147,3.313
		c-0.064-0.465-0.5-0.803-0.977-0.738C5.941,2.607,5.738,2.727,5.599,2.912C5.46,3.096,5.401,3.325,5.433,3.555l1.376,9.818
		c0.068,0.604-0.003,0.995-0.224,1.242c-0.134,0.15-0.321,0.236-0.514,0.236l-0.092-0.007c-0.347-0.029-0.619-0.219-0.81-0.542
		L2.68,7.459C2.522,7.021,2.012,6.778,1.572,6.938C1.354,7.018,1.18,7.176,1.082,7.385c-0.098,0.21-0.109,0.446-0.03,0.664
		l2.831,7.913c0.521,3.163,0.892,5.531,1.071,6.849c0.142,1.14,0.368,2.318,1.058,3.257c0.618,0.841,1.789,1.457,2.985,1.569
		c0.308,0.029,0.623,0.011,0.938-0.005C10.144,27.621,10.354,27.611,10.561,27.611z"/>
</g>
</svg>
