<?xml version="1.0" encoding="utf-8"?>
<!-- Generator: Adobe Illustrator 15.0.0, SVG Export Plug-In . SVG Version: 6.00 Build 0)  -->
<!DOCTYPE svg PUBLIC "-//W3C//DTD SVG 1.1//EN" "http://www.w3.org/Graphics/SVG/1.1/DTD/svg11.dtd">
<svg version="1.1" id="Layer_1" xmlns="http://www.w3.org/2000/svg" xmlns:xlink="http://www.w3.org/1999/xlink" x="0px" y="0px"
	 width="40.94px" height="36.659px" viewBox="0 0 40.94 36.659" enable-background="new 0 0 40.94 36.659" xml:space="preserve">
<path fill="none" stroke="#4D4D4F" stroke-width="2" stroke-miterlimit="10" d="M23.637,11.373c1.51-1.02,2.502-2.746,2.502-4.703
	c0-3.133-2.537-5.67-5.668-5.67c-3.133,0-5.67,2.537-5.67,5.67c0,1.953,0.988,3.676,2.492,4.695"/>
<path fill="none" stroke="#4D4D4F" stroke-width="2" stroke-miterlimit="10" d="M21.24,7.446c0.366-0.247,0.606-0.667,0.606-1.143
	c0-0.76-0.616-1.377-1.377-1.377s-1.377,0.617-1.377,1.377c0,0.475,0.24,0.894,0.605,1.142"/>
<path fill="none" stroke="#4D4D4F" stroke-width="2" stroke-miterlimit="10" d="M1,16.188c0,10.753,8.717,19.471,19.471,19.471
	s19.47-8.718,19.47-19.471H1z"/>
<line fill="none" stroke="#4D4D4F" stroke-width="2" stroke-miterlimit="10" x1="20.471" y1="5.617" x2="20.471" y2="16.374"/>
</svg>
