<?xml version="1.0" encoding="utf-8"?>
<!-- Generator: Adobe Illustrator 15.0.0, SVG Export Plug-In . SVG Version: 6.00 Build 0)  -->
<!DOCTYPE svg PUBLIC "-//W3C//DTD SVG 1.1//EN" "http://www.w3.org/Graphics/SVG/1.1/DTD/svg11.dtd">
<svg version="1.1" id="Layer_1" xmlns="http://www.w3.org/2000/svg" xmlns:xlink="http://www.w3.org/1999/xlink" x="0px" y="0px"
	 width="30.549px" height="30.545px" viewBox="0 0 30.549 30.545" enable-background="new 0 0 30.549 30.545" xml:space="preserve">
<g>
	<path d="M8.733,29.082l-0.74-0.379C3.063,26.025,0,20.879,0,15.274c0-0.932,0.084-1.865,0.25-2.771l0.387-1.087l0.552,0.792
		c0.246,0.354,0.542,0.725,0.833,1.047c-0.026-0.188-0.039-0.389-0.03-0.598l0.999,0.041c-0.039,0.939,0.527,1.645,0.533,1.651
		l0.733,0.878l-1.143-0.058c-0.67-0.034-1.456-0.785-2.033-1.463C1.029,14.213,1,14.744,1,15.274c0,4.979,2.587,9.571,6.801,12.162
		c0.184-1.23,0.677-2.626,0.702-2.698l0.118-0.186c0.24-0.24,0.348-0.678,0.369-0.826c0.152-0.765-0.521-1.111-0.599-1.148
		l-0.133-0.063l-0.081-0.129c-1.489-2.447-0.611-3.447-0.333-3.681c0.127-0.146,0.149-0.228,0.149-0.229
		c0.005,0.058,0.057,0.097,0.079,0.113l0.6-0.801c0.136,0.103,0.291,0.313,0.317,0.596c0.031,0.333-0.115,0.678-0.434,1.023
		L8.47,19.483l0,0c0.004,0-0.53,0.525,0.492,2.266c0.515,0.301,1.236,1.034,1.014,2.144c-0.006,0.054-0.112,0.758-0.563,1.276
		c-0.14,0.412-0.68,2.067-0.68,3.072V29.082z"/>
</g>
<g>
	<path d="M15.274,30.545c-2.204,0-4.326-0.458-6.309-1.36l-0.744-0.339l0.745-0.582c1.221-0.665,2.998-1.931,3.129-2.66l0.043-0.241
		l0.217-0.114c0.028-0.015,2.807-1.493,3.216-3.457l0.026-0.124l0.082-0.097l0,0c0,0,0.101-0.139,0.062-0.238
		c-0.015-0.037-0.181-0.372-1.425-0.565c-0.064-0.012-1.266-0.244-1.882-1.621c-0.172-0.196-1.125-1.15-3.414-1.15
		c-0.001,0-0.003,0-0.004,0c-0.308,0-1.284-0.119-2.468-1.575c-0.178-0.295-0.424-0.583-0.556-0.627l-0.145-0.076
		c-0.141-0.107-0.839-0.673-0.769-1.352c0.026-0.251,0.164-0.601,0.671-0.842c0.08-0.031,0.652-0.219,1.248-0.219
		c0.6,0,0.968,0.189,1.192,0.405c0.002-0.035,0.005-0.07,0.008-0.104L8.23,13.25l0.337-0.083c-0.002,0.009,0.105-0.096,0.199-0.472
		l0.07-0.157c0.045-0.067,0.458-0.651,1.459-1.109c0.133-0.146,0.422-0.467,0.557-0.637l0.187-0.235l0.296,0.054
		c0.005,0.001,0.034,0.006,0.077,0.012l-0.065-0.076v-0.186c0-0.047,0.006-0.169,0.065-0.302c0.154-0.346,0.549-0.494,0.959-0.316
		c0.132,0.024,0.563,0.06,0.708,0.031c-0.347-0.209-0.948-0.707-1.473-1.816c-0.061,0.014-0.146,0.041-0.263,0.089l-0.191,0.038
		c-0.137,0-0.598-0.053-1.118-0.698c-0.002,0.042-0.003,0.088-0.004,0.139c0.055,0.242,0.173,0.958-0.204,1.453
		C9.671,9.184,9.373,9.428,8.836,9.428H8.712L8.603,9.371C8.402,9.265,6.625,8.3,6.255,7.092C6.135,6.699,6.17,6.307,6.357,5.958
		c0.042-0.067,0.533-0.813,1.344-1.165C7.369,4.783,6.652,4.692,6.43,4.115C6.26,3.675,6.479,3.219,6.799,2.82L6.502,2.729
		l0.952-0.58C8.523,1.51,9.67,1.004,10.864,0.645l0.444-0.133l0.167,0.433c0.056,0.143,0.111,0.274,0.137,0.323
		c0.2,0.315,0.415,0.374,0.88,0.476c0.226,0.049,0.481,0.105,0.754,0.217c0.832,0.336,1.475,1.295,1.909,2.849l0.086,0.309
		l-0.245,0.207c-0.218,0.185-0.05,0.835,0.083,1.126c0.145,0.288,0.311,0.462,0.447,0.462c0.157,0,0.361-0.175,0.431-0.255
		c0.71-0.81,2.353-1.661,2.423-1.696c1.214-0.576,1.972-2.586,2.242-3.425l0.168-0.523l0.505,0.217
		c3.215,1.38,5.883,3.85,7.513,6.955l0.094,0.179l-0.057,0.194c-0.464,1.589-1.288,1.923-1.896,1.923
		c-0.594,0-1.045-0.331-1.095-0.368c-0.088-0.064-0.153-0.097-0.197-0.114c-0.506,0.584-1.127,1.03-1.154,1.049l-0.097,0.069
		l-0.117,0.018c-0.276,0.042-0.492,0.08-0.659,0.111c0.063,0.208,0.063,0.405-0.001,0.593c-0.126,0.375-0.479,0.576-0.743,0.634
		l-0.097,0.021l-0.097-0.017c-0.174-0.03-0.307-0.016-0.359,0.036c-0.058,0.059-0.075,0.19-0.074,0.242
		c0,0.277,0.055,0.352,0.055,0.353c0.321-0.012,0.962-0.432,1.297-0.716c0.511-0.469,1.014-0.712,1.481-0.712
		c0.52,0,0.796,0.296,0.846,0.355l0.064,0.098c0.047,0.093,0.09,0.175,0.129,0.246c0.029-0.075,0.072-0.149,0.134-0.215l0.148-0.156
		l0.278-0.027c0.127,0,0.467,0,0.995,0.792l0.063,0.134c0.019,0.065,0.038,0.117,0.055,0.157c0.772-0.539,1.27-0.472,1.562-0.064
		c0.349,0.487,0.119,1.387-0.048,1.879c-0.13,0.738-1.344,0.942-1.713,0.985c-0.159,0.037-0.363,0.059-0.56,0.059
		c-1.365,0-2.012-1.031-2.211-1.43c-0.151-0.083-0.392-0.127-0.692-0.127c-0.65,0-1.4,0.197-1.797,0.317
		c-0.113,0.396-0.372,0.621-0.409,0.652c-0.873,0.542-1.134,1.219-1.198,1.439c0.27,1.575,0.931,2.477,1.821,2.477
		c0.115,0,0.188-0.017,0.188-0.018c1.093-0.219,1.706-0.089,2.048,0.35c0.22,0.281,0.215,0.584,0.194,0.732
		c0.005,0.37,0.068,0.678,0.101,0.812c0.345,0.523,0.442,1.36,0.453,1.459l0.024,0.226l-0.154,0.167
		c-0.123,0.187-0.239,1.272-0.02,3.458l0.026,0.26l-0.198,0.17C22.455,29.238,18.922,30.545,15.274,30.545z M10.284,28.65
		c1.588,0.595,3.262,0.896,4.991,0.896c3.323,0,6.544-1.161,9.1-3.273c-0.231-2.492-0.028-3.39,0.151-3.753
		c-0.051-0.306-0.155-0.7-0.289-0.872l-0.084-0.161c-0.007-0.022-0.162-0.543-0.162-1.212l0.012-0.108
		c-0.016,0.014-0.11-0.035-0.37-0.035c-0.184,0-0.406,0.026-0.664,0.077c0,0.001-0.165,0.042-0.408,0.042
		c-0.687,0-2.337-0.333-2.825-3.418l-0.013-0.083l0.015-0.082c0.009-0.052,0.24-1.285,1.603-2.134c-0.001,0-0.001,0-0.001,0
		c-0.013,0,0.061-0.092,0.061-0.231V13.95l0.256-0.092c-0.046-0.04-0.089-0.085-0.128-0.135c-0.18-0.23-0.268-0.541-0.268-0.952
		c-0.002-0.035-0.018-0.563,0.349-0.947c0.171-0.18,0.49-0.401,1.038-0.359c-0.024-0.044-0.071-0.12-0.158-0.223l-0.354-0.421
		l0.452-0.313c0.073-0.05,0.224-0.154,1.427-0.344c0.188-0.145,0.633-0.506,1.021-0.962c0.263-0.231,0.826-0.325,1.419,0.108
		c0.005,0.004,0.235,0.169,0.496,0.169c0.429,0,0.707-0.514,0.877-1.013c-1.445-2.658-3.711-4.802-6.435-6.097
		c-0.448,1.211-1.273,2.874-2.568,3.486c-0.412,0.213-1.628,0.905-2.109,1.454c-0.045,0.054-0.523,0.601-1.187,0.601
		c-0.38,0-0.922-0.179-1.349-1.03c-0.072-0.155-0.567-1.294-0.062-2.059c-0.327-1.047-0.775-1.747-1.248-1.938
		c-0.206-0.084-0.403-0.125-0.591-0.167c-0.505-0.11-1.078-0.235-1.521-0.935c-0.006-0.01-0.015-0.026-0.026-0.048
		C9.8,2.049,8.903,2.457,8.058,2.953C7.397,3.551,7.372,3.795,7.372,3.797c0.011-0.046,0.203-0.002,0.386-0.002l0.146-0.002
		c0.308,0,1.126,0,1.313,0.592c0.17,0.538-0.364,0.984-0.602,1.152L8.518,5.605L8.4,5.623C7.716,5.725,7.222,6.459,7.217,6.467
		c-0.04,0.079-0.048,0.192-0.006,0.333c0.175,0.573,1.108,1.265,1.734,1.619C8.981,8.41,9.013,8.397,9.03,8.375
		c0.092-0.12,0.069-0.465,0.018-0.658L9.03,7.585c0-0.871,0.221-1.361,0.656-1.459c-0.222-0.255-0.287-0.52-0.297-0.718
		C9.367,4.992,9.573,4.625,9.757,4.385c-0.124-0.423,0.051-0.807,0.244-0.999l0.129-0.129l0.257-0.018
		c0.594,0,1.38,0.621,1.607,0.811l0.118,0.099l0.042,0.148c0.046,0.161,0.403,0.412,0.628,0.514l0.149,0.103
		c0.316,0.319,0.236,0.626,0.188,0.744c-0.091,0.22-0.283,0.361-0.599,0.434c0.027,0.209-0.003,0.385-0.049,0.52
		c-0.064,0.188-0.169,0.339-0.287,0.458c0.139,0.09,0.23,0.217,0.273,0.348c0.573,1.28,1.222,1.548,1.228,1.55l0.187,0.074
		l0.097,0.187c0.246,0.533,0.142,0.887,0.012,1.091c-0.202,0.315-0.58,0.475-1.124,0.475c-0.082,0-0.161-0.003-0.237-0.009
		c0.016,0.126,0.002,0.258-0.058,0.391c-0.097,0.211-0.338,0.464-0.933,0.464c-0.061,0-0.121-0.002-0.176-0.006
		c-0.216,0.25-0.49,0.549-0.49,0.549l-0.171,0.122c-0.637,0.274-0.972,0.612-1.084,0.742c-0.135,0.464-0.342,0.734-0.525,0.889
		c-0.002,0.084-0.001,0.17-0.001,0.252c0,0.448,0,1.125-0.606,1.125l-0.14-0.018c-0.099-0.026-0.357-0.092-0.878-0.786
		c-0.115-0.182-0.398-0.204-0.558-0.204c-0.429,0-0.872,0.144-0.876,0.146c-0.035,0.021-0.059,0.052-0.06,0.053
		c0.018,0.043,0.178,0.24,0.342,0.379c0.519,0.229,0.894,0.847,0.967,0.975c0.924,1.126,1.591,1.14,1.619,1.14
		c0.001,0,0.002,0,0.003,0c3.074,0,4.228,1.527,4.276,1.592l0.058,0.102c0.392,0.929,1.148,1.09,1.155,1.091
		c1.244,0.193,1.967,0.588,2.197,1.205c0.184,0.491-0.023,0.917-0.152,1.116c-0.496,2.054-2.82,3.525-3.515,3.926
		C12.651,27.023,11.245,28.045,10.284,28.65z M24.143,13.364c0.61,0,1.085,0.139,1.411,0.412l0.1,0.083l0.046,0.121
		c0.015,0.036,0.387,0.94,1.347,0.94c0.125,0,0.259-0.015,0.396-0.044c0.411-0.051,0.849-0.195,0.929-0.298
		c0.09-0.28,0.155-0.597,0.174-0.811c-0.071,0.041-0.163,0.102-0.28,0.19c-0.007,0.021-0.844,0.721-1.371-0.484
		c-0.135,0.219-0.336,0.344-0.579,0.344c-0.404,0-0.732-0.32-1.152-1.133c-0.06-0.012-0.284-0.1-0.89,0.455
		c-0.051,0.043-0.151,0.127-0.286,0.228C24.038,13.365,24.091,13.364,24.143,13.364z M10.502,5.529
		c0.168,0.078,0.561,0.294,1.016,0.777c0.002-0.006,0.005-0.012,0.007-0.018c0.023-0.073-0.023-0.207-0.126-0.359l-0.547-0.808
		l0.686,0.02c-0.112-0.118-0.211-0.253-0.281-0.403c-0.102-0.08-0.208-0.156-0.312-0.225l-0.257,0.328
		c-0.13,0.119-0.308,0.365-0.299,0.517C10.389,5.379,10.392,5.439,10.502,5.529z"/>
</g>
<g>
	<path d="M15.527,7.913L15.527,7.913c-0.38,0-0.922-0.179-1.349-1.03c-0.072-0.155-0.567-1.293-0.062-2.059
		c-0.327-1.047-0.775-1.748-1.248-1.938c-0.206-0.084-0.403-0.125-0.591-0.167c-0.506-0.11-1.079-0.235-1.521-0.935
		c-0.029-0.045-0.126-0.251-0.214-0.481L10.348,0.8l0.516-0.155c3.41-1.029,7.148-0.822,10.433,0.585l0.418,0.179l-0.14,0.434
		c-0.385,1.195-1.255,3.306-2.751,4.014c-0.412,0.213-1.628,0.905-2.109,1.454C16.669,7.366,16.191,7.913,15.527,7.913z
		 M11.745,1.438c0.17,0.172,0.381,0.225,0.746,0.305c0.226,0.049,0.482,0.105,0.755,0.217c0.833,0.336,1.476,1.295,1.909,2.85
		l0.086,0.309l-0.245,0.207c-0.217,0.184-0.05,0.833,0.084,1.125c0.145,0.288,0.311,0.462,0.447,0.462
		c0.164,0,0.374-0.188,0.428-0.252c0.713-0.813,2.356-1.664,2.426-1.699c1.035-0.491,1.739-2.027,2.092-2.988
		C17.708,0.893,14.618,0.704,11.745,1.438z"/>
</g>
<g>
	<path d="M9.206,29.333l-0.239-0.147c-0.331-0.149-0.658-0.311-0.974-0.483l-0.273-0.149l0.014-0.311
		c0-1.324,0.74-3.415,0.771-3.504l0.117-0.186c0.244-0.243,0.349-0.687,0.367-0.823c0.153-0.768-0.52-1.114-0.597-1.151
		l-0.133-0.063l-0.081-0.129c-1.489-2.447-0.611-3.447-0.333-3.681c0.084-0.097,0.123-0.165,0.139-0.2
		c-0.596-0.554-1.242-0.95-1.867-1.335c-0.873-0.536-1.769-1.087-2.461-1.973l-0.539-0.027c-1.044-0.053-2.368-1.843-2.749-2.391
		l0.255-0.177L0.25,12.502c0.792-4.316,3.417-8.09,7.204-10.354l0.191-0.114l1.053,0.324L8.059,2.952
		C7.397,3.551,7.372,3.795,7.372,3.797c0.018-0.04,0.219-0.001,0.377-0.002c0.005,0,0.009,0,0.014,0
		C8.133,3.784,9.01,3.764,9.214,4.378c0.179,0.541-0.359,0.991-0.599,1.159L8.518,5.605L8.4,5.623
		C7.714,5.725,7.221,6.461,7.216,6.469c-0.039,0.077-0.047,0.19-0.005,0.331c0.175,0.573,1.108,1.265,1.734,1.619
		C8.981,8.41,9.013,8.397,9.03,8.374C9.119,8.257,9.1,7.907,9.047,7.718L9.029,7.584c0-0.577,0.07-1.263,0.613-1.442
		c0.532-0.172,0.96,0.334,1.078,0.495c0.184,0.258,0.331,0.371,0.413,0.418c0.312-0.11,0.701-0.19,1.017-0.01
		c0.148,0.084,0.259,0.218,0.308,0.369c0.573,1.281,1.222,1.549,1.229,1.552l0.186,0.074l0.097,0.187
		c0.27,0.586,0.125,0.958-0.044,1.167c-0.305,0.377-0.868,0.423-1.302,0.392c0.017,0.143-0.004,0.294-0.09,0.444
		c-0.221,0.384-0.715,0.431-1.082,0.403c-0.216,0.25-0.488,0.547-0.488,0.547l-0.171,0.122c-0.637,0.274-0.972,0.612-1.084,0.742
		c-0.135,0.465-0.343,0.734-0.526,0.89c-0.002,0.083-0.001,0.168-0.001,0.249c0,0.466,0,0.803-0.265,1.011l-0.192,0.15l-0.287-0.049
		c-0.104-0.027-0.36-0.095-0.881-0.788c-0.187-0.295-0.96-0.214-1.434-0.058c-0.036,0.021-0.06,0.053-0.06,0.053
		c0.019,0.044,0.18,0.243,0.341,0.379c0.52,0.228,0.895,0.847,0.968,0.975c0.927,1.129,1.605,1.14,1.62,1.14l0,0
		c0.003,0,0.006,0,0.009,0c1.285,0,2.3,0.22,3.048,0.653l-0.501,0.865c-0.596-0.345-1.445-0.52-2.526-0.52
		C9.008,17.998,8.951,18,8.86,17.993c0.06,0.099,0.115,0.233,0.129,0.392c0.031,0.333-0.115,0.678-0.434,1.023L8.47,19.483l0,0
		c0.004,0-0.53,0.525,0.492,2.266c0.515,0.301,1.236,1.034,1.013,2.145c-0.006,0.052-0.11,0.756-0.561,1.275
		c-0.128,0.376-0.591,1.791-0.669,2.801c0.132,0.067,0.265,0.133,0.399,0.196c1.208-0.686,2.827-1.866,2.952-2.562
		c0.057-0.32,0.323-0.518,1.351-1.13c0.202-0.121,0.375-0.222,0.442-0.273l0.642,0.767c-0.075,0.063-0.3,0.203-0.572,0.365
		c-0.247,0.147-0.734,0.438-0.91,0.581c-0.4,1.422-3.06,2.933-3.604,3.229L9.206,29.333z M2.975,12.571
		c0.06,0.145,0.446,0.618,0.653,0.872c0.257,0.315,0.395,0.485,0.465,0.613c0.539,0.963,1.371,1.533,2.271,2.091
		c-0.139-0.181-0.282-0.325-0.372-0.354l-0.145-0.076c-0.141-0.106-0.839-0.673-0.769-1.352c0.026-0.251,0.164-0.601,0.671-0.842
		c0.229-0.08,1.691-0.538,2.439,0.184c0.002-0.034,0.004-0.068,0.007-0.101l0.031-0.357l0.34-0.083
		c-0.003,0.01,0.105-0.095,0.198-0.471l0.07-0.157c0.045-0.067,0.458-0.652,1.459-1.109c0.133-0.146,0.422-0.466,0.556-0.636
		l0.187-0.234l0.296,0.054c0.025,0.004,0.052,0.009,0.079,0.012l-0.066-0.077v-0.186c0-0.192,0.084-0.45,0.32-0.597
		c0.143-0.089,0.377-0.161,0.706-0.021c0.253,0.049,0.549,0.06,0.707,0.032c-0.346-0.209-0.948-0.707-1.474-1.819
		c-0.061,0.015-0.147,0.041-0.265,0.09l-0.191,0.038c-0.137,0-0.598-0.053-1.118-0.698c-0.002,0.042-0.003,0.088-0.004,0.139
		c0.055,0.242,0.173,0.958-0.204,1.454C9.67,9.184,9.372,9.428,8.836,9.428H8.712L8.603,9.371C8.402,9.265,6.625,8.3,6.255,7.092
		C6.135,6.699,6.17,6.307,6.357,5.958c0.042-0.067,0.532-0.811,1.341-1.164c-0.289-0.006-1.03-0.083-1.265-0.67
		C6.427,4.109,6.422,4.093,6.417,4.078C3.8,6.149,1.978,9.077,1.297,12.36c0.222,0.306,0.475,0.618,0.725,0.895
		c-0.026-0.189-0.038-0.389-0.029-0.599c0,0,0,0,0-0.001l0.501,0.021L2.975,12.571z"/>
</g>
<g>
	<path d="M24.496,27.49L24.4,26.535c-0.271-2.692-0.061-3.641,0.125-4.016c-0.051-0.306-0.155-0.7-0.289-0.872l-0.084-0.161
		c-0.007-0.022-0.162-0.543-0.162-1.212l0.012-0.108c-0.016,0.014-0.11-0.035-0.37-0.035c-0.184,0-0.406,0.026-0.664,0.077
		c0.001,0.001-0.165,0.042-0.408,0.042c-0.687,0-2.337-0.333-2.825-3.418l-0.013-0.083l0.015-0.082
		c0.009-0.052,0.24-1.285,1.603-2.134c-0.001,0-0.001,0-0.001,0c-0.013,0,0.061-0.092,0.061-0.231V13.95l0.255-0.092
		c-0.216-0.185-0.395-0.512-0.395-1.087c-0.002-0.034-0.018-0.563,0.349-0.947c0.171-0.18,0.49-0.401,1.038-0.359
		c-0.024-0.044-0.071-0.12-0.158-0.223l-0.354-0.421l0.452-0.313c0.073-0.05,0.224-0.154,1.428-0.344
		c0.188-0.145,0.632-0.506,1.021-0.962c0.263-0.232,0.827-0.325,1.418,0.109c0.005,0.003,0.235,0.169,0.496,0.169
		c0.484,0,0.777-0.654,0.937-1.203l0.348-1.189l0.575,1.097c1.14,2.17,1.741,4.622,1.741,7.089c0,4.455-1.941,8.68-5.325,11.59
		L24.496,27.49z M25.091,21.125c0.345,0.523,0.442,1.36,0.453,1.459l0.024,0.226l-0.154,0.167c-0.103,0.155-0.2,0.933-0.104,2.446
		c2.705-2.677,4.238-6.322,4.238-10.149c0-0.376-0.015-0.75-0.042-1.121c-0.047,0.271-0.122,0.529-0.188,0.724
		c-0.13,0.738-1.344,0.942-1.713,0.985c-0.159,0.037-0.363,0.059-0.56,0.059c-1.365,0-2.012-1.031-2.212-1.43
		c-0.15-0.083-0.391-0.127-0.691-0.127c-0.647,0-1.4,0.198-1.797,0.318c-0.113,0.396-0.372,0.621-0.409,0.651
		c-0.873,0.542-1.134,1.219-1.198,1.439c0.27,1.575,0.931,2.477,1.821,2.477c0.115,0,0.188-0.017,0.188-0.018
		c1.094-0.219,1.707-0.089,2.048,0.35c0.22,0.281,0.215,0.584,0.194,0.732C24.995,20.684,25.059,20.992,25.091,21.125z
		 M24.143,13.364c0.61,0,1.085,0.139,1.411,0.412l0.1,0.083l0.046,0.122c0.015,0.035,0.387,0.94,1.347,0.94
		c0.125,0,0.259-0.015,0.396-0.044c0.411-0.051,0.849-0.195,0.929-0.298c0.09-0.28,0.155-0.597,0.174-0.811
		c-0.071,0.041-0.163,0.102-0.28,0.19c-0.007,0.02-0.844,0.72-1.371-0.484c-0.135,0.219-0.336,0.344-0.579,0.344
		c-0.404,0-0.732-0.32-1.152-1.133c-0.06-0.012-0.284-0.1-0.89,0.455c-0.051,0.043-0.151,0.127-0.286,0.228
		C24.038,13.365,24.091,13.364,24.143,13.364z M22.524,12.46c-0.095,0-0.159,0.018-0.192,0.053
		c-0.064,0.067-0.075,0.215-0.074,0.233c0.001,0.284,0.056,0.359,0.056,0.36c0.323-0.012,0.964-0.432,1.297-0.716
		c0.511-0.469,1.014-0.713,1.481-0.713c0.521,0,0.796,0.296,0.846,0.355l0.064,0.098c0.047,0.093,0.09,0.175,0.129,0.246
		c0.029-0.075,0.072-0.149,0.135-0.215l0.147-0.156l0.278-0.027c0.127,0,0.467,0,0.995,0.792l0.063,0.134
		c0.019,0.064,0.037,0.115,0.054,0.156c0.762-0.531,1.269-0.472,1.563-0.062c0.001,0.002,0.003,0.005,0.005,0.007
		c-0.185-1.168-0.515-2.301-0.987-3.39c-0.447,0.691-0.997,0.865-1.437,0.865c-0.594,0-1.045-0.331-1.095-0.368
		c-0.088-0.064-0.153-0.097-0.196-0.114c-0.506,0.583-1.125,1.029-1.152,1.048l-0.098,0.069l-0.117,0.018
		c-0.277,0.042-0.493,0.08-0.66,0.111c0.063,0.208,0.063,0.405-0.001,0.593c-0.126,0.375-0.479,0.576-0.743,0.634l-0.097,0.021
		l-0.097-0.017C22.631,12.466,22.575,12.46,22.524,12.46z"/>
</g>
</svg>
