<?xml version="1.0" encoding="utf-8"?>
<!-- Generator: Adobe Illustrator 15.0.0, SVG Export Plug-In . SVG Version: 6.00 Build 0)  -->
<!DOCTYPE svg PUBLIC "-//W3C//DTD SVG 1.1//EN" "http://www.w3.org/Graphics/SVG/1.1/DTD/svg11.dtd">
<svg version="1.1" id="Layer_1" xmlns="http://www.w3.org/2000/svg" xmlns:xlink="http://www.w3.org/1999/xlink" x="0px" y="0px"
	 width="30.547px" height="30.545px" viewBox="0 0 30.547 30.545" enable-background="new 0 0 30.547 30.545" xml:space="preserve">
<g>
	<path d="M8.7,29.063l-0.706-0.359C3.063,26.026,0,20.879,0,15.274c0-0.932,0.084-1.865,0.25-2.771l0.058-0.18l0.94,0.341
		l-0.036,0.1C1.079,13.53,1,14.402,1,15.274c0,5.238,2.863,10.048,7.471,12.551l-0.232,0.428l0.494,0.009L8.7,29.063z"/>
</g>
<g>
	<path d="M15.274,30.545c-2.204,0-4.326-0.458-6.309-1.36l-0.744-0.339l0.64-0.508l0.321,0.37l0.197-0.434
		c1.852,0.843,3.834,1.271,5.895,1.271c3.408,0,6.71-1.222,9.298-3.44l0.65,0.76C22.454,29.238,18.921,30.545,15.274,30.545z
		 M27.923,8.65c-1.524-2.902-4.018-5.211-7.021-6.5l0.395-0.919c3.214,1.38,5.882,3.85,7.512,6.955L27.923,8.65z M7.611,3.069
		L6.402,2.79l1.052-0.64c1.067-0.639,2.215-1.145,3.41-1.505l0.444-0.133l0.167,0.433c0.056,0.143,0.111,0.274,0.137,0.323
		l-0.474,0.287l0.015,0.048c-0.065,0.02-0.13,0.04-0.195,0.061l-0.201,0.122c-0.006-0.009-0.015-0.026-0.026-0.047
		C9.766,2.06,8.838,2.487,7.968,3.008L7.716,2.587L7.611,3.069z"/>
</g>
<g>
	<path d="M20.901,2.149c-3.067-1.316-6.565-1.508-9.749-0.547l-0.015-0.049l-0.381,0.231c-0.029-0.045-0.126-0.251-0.214-0.481
		L10.348,0.8l0.516-0.155c3.411-1.028,7.148-0.823,10.433,0.585L20.901,2.149z"/>
</g>
<g>
	<path d="M9.273,29.284l-0.308-0.099c-0.33-0.149-0.657-0.311-0.974-0.484l-0.273-0.15l0.014-0.311l0.505,0.012l0.235-0.428
		c0.294,0.162,0.599,0.312,0.905,0.451l-0.197,0.434l0.33,0.391L9.273,29.284z"/>
</g>
<g>
	<path d="M1.212,12.763L0.25,12.502c0.792-4.316,3.417-8.09,7.204-10.354l0.191-0.114L7.858,2.1L7.716,2.585l0.251,0.421
		C4.435,5.118,1.983,8.636,1.238,12.66l0.01,0.003L1.212,12.763z"/>
</g>
<g>
	<path d="M25.224,26.864l-0.652-0.758c3.162-2.72,4.976-6.667,4.976-10.832c0-2.341-0.546-4.57-1.623-6.624l0.885-0.465
		c1.138,2.168,1.738,4.62,1.738,7.089C30.547,19.73,28.606,23.955,25.224,26.864z"/>
</g>
<g>
	<path d="M5.826,20.132c-1.242,0-2.252-1.011-2.252-2.253c0-1.241,1.01-2.251,2.252-2.251s2.252,1.01,2.252,2.251
		C8.078,19.122,7.068,20.132,5.826,20.132z M5.826,16.628c-0.69,0-1.252,0.562-1.252,1.251c0,0.69,0.562,1.253,1.252,1.253
		s1.252-0.563,1.252-1.253C7.078,17.19,6.517,16.628,5.826,16.628z"/>
</g>
<g>
	<path d="M24.401,21.752c-1.243,0-2.254-1.01-2.254-2.251c0-1.242,1.011-2.252,2.254-2.252c1.24,0,2.25,1.01,2.25,2.252
		C26.651,20.743,25.642,21.752,24.401,21.752z M24.401,18.25c-0.691,0-1.254,0.562-1.254,1.252c0,0.689,0.563,1.251,1.254,1.251
		c0.689,0,1.25-0.562,1.25-1.251C25.651,18.811,25.091,18.25,24.401,18.25z"/>
</g>
<g>
	<path d="M24.401,13.14c-1.243,0-2.254-1.01-2.254-2.252c0-1.241,1.011-2.251,2.254-2.251c1.24,0,2.25,1.01,2.25,2.251
		C26.651,12.13,25.642,13.14,24.401,13.14z M24.401,9.637c-0.691,0-1.254,0.561-1.254,1.251c0,0.69,0.563,1.252,1.254,1.252
		c0.689,0,1.25-0.562,1.25-1.252C25.651,10.198,25.091,9.637,24.401,9.637z"/>
</g>
<g>
	<polygon points="22.585,11.567 16.568,11.567 16.568,0.385 17.568,0.385 17.568,10.567 22.585,10.567 	"/>
</g>
<g>
	<polygon points="11.448,29.745 10.448,29.745 10.448,18.463 7.411,18.463 7.411,17.463 11.448,17.463 	"/>
</g>
<g>
	<polygon points="13.685,29.745 12.685,29.745 12.685,13.929 0.473,13.929 0.473,12.929 13.685,12.929 	"/>
</g>
<g>
	<polygon points="15.609,29.745 14.609,29.745 14.609,10.451 8.349,10.451 8.349,9.451 15.609,9.451 	"/>
</g>
<g>
	<polygon points="17.568,29.745 16.568,29.745 16.568,19.016 22.438,19.016 22.438,20.016 17.568,20.016 	"/>
</g>
</svg>
