<?xml version="1.0" encoding="utf-8"?>
<!-- Generator: Adobe Illustrator 15.0.0, SVG Export Plug-In . SVG Version: 6.00 Build 0)  -->
<!DOCTYPE svg PUBLIC "-//W3C//DTD SVG 1.1//EN" "http://www.w3.org/Graphics/SVG/1.1/DTD/svg11.dtd">
<svg version="1.1" id="Layer_1" xmlns="http://www.w3.org/2000/svg" xmlns:xlink="http://www.w3.org/1999/xlink" x="0px" y="0px"
	 width="34.826px" height="68.805px" viewBox="0 0 34.826 68.805" enable-background="new 0 0 34.826 68.805" xml:space="preserve">
<g>
	<path d="M17.402,12.935c-3.566,0-6.467-2.901-6.467-6.468C10.936,2.901,13.836,0,17.402,0c3.567,0,6.47,2.901,6.47,6.467
		C23.872,10.033,20.97,12.935,17.402,12.935z M17.402,2c-2.463,0-4.467,2.004-4.467,4.467c0,2.463,2.004,4.468,4.467,4.468
		c2.465,0,4.47-2.004,4.47-4.468C21.872,4.004,19.867,2,17.402,2z"/>
</g>
<g>
	<path d="M21.226,68.805h-0.013c-1.86,0-3.367-1.33-3.367-2.965V46.9h-0.864V65.84c0,1.635-1.508,2.965-3.361,2.965
		c-1.87,0-3.377-1.33-3.377-2.965V46.9H3.407l0.518-1.365l8.913-22.866c0.053-0.248-0.106-0.493-0.355-0.547
		c-0.209-0.008-0.336,0.044-0.425,0.133L6.451,36.998c-0.42,1.108-1.543,1.825-2.859,1.825c-0.452,0-0.9-0.083-1.334-0.248
		C1.451,38.269,0.787,37.709,0.387,37c-0.426-0.758-0.504-1.629-0.215-2.391L7.96,14.133c0.417-1.103,1.539-1.816,2.857-1.816
		l0.167,0.004l12.85-0.001c0.032-0.002,0.102-0.005,0.171-0.005c1.318,0,2.441,0.714,2.86,1.819l7.789,20.476
		c0.58,1.529-0.354,3.308-2.085,3.966c-0.434,0.165-0.883,0.248-1.335,0.248l0,0c-1.316,0-2.439-0.717-2.86-1.826l-5.587-14.691
		c-0.087-0.121-0.225-0.194-0.37-0.194c-0.313,0.058-0.472,0.268-0.456,0.492L31.432,46.9h-6.85V65.84
		C24.582,67.475,23.076,68.805,21.226,68.805z M14.982,44.9h4.864V65.84c0,0.523,0.622,0.965,1.359,0.965h0.021
		c0.735,0,1.356-0.441,1.356-0.965V44.9h5.924l-8.495-21.832c-0.271-1.316,0.575-2.618,1.889-2.902
		c1.047-0.224,2.139,0.276,2.661,1.206l0.063,0.134l5.621,14.78c0.178,0.469,0.94,0.675,1.614,0.419
		c0.688-0.262,1.112-0.896,0.927-1.386l-7.789-20.476c-0.122-0.322-0.511-0.529-0.991-0.529l-0.259,0.014l-0.045-0.009
		l-12.884-0.003c-0.479,0-0.866,0.207-0.987,0.526L2.042,35.32c-0.107,0.281,0.01,0.558,0.089,0.698
		c0.167,0.298,0.473,0.549,0.838,0.688c0.677,0.258,1.435,0.049,1.613-0.418l5.765-15.085c0.556-0.828,1.582-1.248,2.561-1.036
		c0.88,0.191,1.549,0.833,1.816,1.63l0.609-0.052l-0.549,1.494L6.323,44.9h5.921V65.84c0,0.523,0.622,0.965,1.359,0.965
		c0.756,0,1.379-0.441,1.379-0.965V44.9z"/>
</g>
</svg>
