<?xml version="1.0" encoding="utf-8"?>
<!-- Generator: Adobe Illustrator 15.0.0, SVG Export Plug-In . SVG Version: 6.00 Build 0)  -->
<!DOCTYPE svg PUBLIC "-//W3C//DTD SVG 1.1//EN" "http://www.w3.org/Graphics/SVG/1.1/DTD/svg11.dtd">
<svg version="1.1" id="Layer_1" xmlns="http://www.w3.org/2000/svg" xmlns:xlink="http://www.w3.org/1999/xlink" x="0px" y="0px"
	 width="28.025px" height="34.586px" viewBox="0 0 28.025 34.586" enable-background="new 0 0 28.025 34.586" xml:space="preserve">
<g>
	<path d="M28.025,34.586H0l0.519-1.365l2.639-6.727l6.283-16.196c0.02-0.228-0.134-0.44-0.364-0.491
		C8.833,9.797,8.685,9.876,8.6,10.003l-1.161,1.73L4.43,2.143l0.123-0.324c0.419-1.104,1.542-1.817,2.858-1.817l0.167,0.004
		l12.849-0.001C20.46,0.002,20.53,0,20.599,0c1.317,0,2.44,0.714,2.859,1.819l0.121,0.319l-3.024,9.945l-1.146-2.046
		c-0.083-0.147-0.235-0.239-0.398-0.239c-0.313,0.058-0.472,0.268-0.456,0.492L28.025,34.586z M2.917,32.586h22.183l-8.495-21.832
		c-0.271-1.317,0.575-2.618,1.89-2.902c0.414-0.089,0.849-0.067,1.241,0.055L21.44,2.3C21.256,2.113,20.952,2,20.599,2l-0.252,0.014
		l-0.045-0.009L7.411,2.002c-0.351,0-0.652,0.111-0.836,0.295l1.753,5.588C8.701,7.783,9.108,7.769,9.5,7.853
		c1.326,0.288,2.172,1.598,1.888,2.922l-0.045,0.152L2.917,32.586z"/>
</g>
</svg>
