<?xml version="1.0" encoding="utf-8"?>
<!-- Generator: Adobe Illustrator 15.0.0, SVG Export Plug-In . SVG Version: 6.00 Build 0)  -->
<!DOCTYPE svg PUBLIC "-//W3C//DTD SVG 1.1//EN" "http://www.w3.org/Graphics/SVG/1.1/DTD/svg11.dtd">
<svg version="1.1" id="Layer_1" xmlns="http://www.w3.org/2000/svg" xmlns:xlink="http://www.w3.org/1999/xlink" x="0px" y="0px"
	 width="69.437px" height="76.866px" viewBox="0 0 69.437 76.866" enable-background="new 0 0 69.437 76.866" xml:space="preserve">
<g>
	<rect x="28.303" y="40.504" width="2" height="25.33"/>
</g>
<g>
	<path d="M29.807,63.486h-0.563c-2.454-0.163-4.624-1.212-6.343-3.034l1.455-1.373c1.387,1.471,3.054,2.281,4.955,2.409l0.496-0.002
		c2.386,0,4.052-1.535,4.052-3.732c0-1.657-0.677-2.734-4.38-4.021l-0.621-0.257c-3.067-1.047-5.963-2.55-5.963-6.273
		c0-3.318,2.655-5.803,6.312-5.938l0.6-0.001c2.258,0.091,4.154,0.86,5.835,2.353l-1.328,1.496c-1.322-1.174-2.81-1.779-4.548-1.85
		l-0.522,0.001c-2.545,0.095-4.349,1.702-4.349,3.908c0,2.103,1.223,3.255,4.673,4.435l0.625,0.259
		c3.378,1.172,5.667,2.634,5.667,5.889C35.859,61.075,33.314,63.486,29.807,63.486z"/>
</g>
<g>
	<path d="M33.925,76.866L33.925,76.866c-1.032,0-2.024-0.203-2.983-0.398c-0.604-0.123-1.174-0.239-1.755-0.31
		c-0.758-0.092-1.771-0.059-2.744-0.009c-0.96,0.05-1.924,0.094-2.867,0.007c-3.908-0.369-7.616-2.346-9.678-5.159
		c-2.173-2.964-2.872-6.626-3.27-9.816C9.863,55.534,7.992,44.238,7.713,42.56L0.279,22.054c-0.876-2.419,0.379-5.1,2.798-5.977
		c0.512-0.186,1.045-0.28,1.586-0.28c1.956,0,3.72,1.236,4.388,3.077l6.539,18.041c0.018,0.027,0.035,0.051,0.051,0.073
		c0.023-0.231,0.029-0.593-0.034-1.142l-3.69-26.325c-0.174-1.233,0.143-2.46,0.894-3.456c0.75-0.995,1.842-1.638,3.076-1.811
		c2.57-0.357,4.919,1.467,5.271,3.971l3.307,23.595c0.144,0.46,0.346,0.775,0.501,0.775l0.223,0.02
		c0.052-0.063,0.253-0.382,0.352-1.173l0.143-26.799C25.698,2.083,27.79,0,30.347,0c1.272,0.007,2.442,0.499,3.318,1.384
		c0.876,0.886,1.355,2.06,1.349,3.307c-0.043,8.238-0.121,23.071-0.135,26.603l0.044,0.011l-0.047,0.826
		c-0.009,0.225,0.057,0.629,0.204,0.783c0.022,0.023,0.075,0.078,0.264,0.078h0.065c0.089-0.048,0.469-0.428,0.725-1.606
		l3.243-23.158c0.354-2.505,2.702-4.331,5.269-3.972c1.233,0.173,2.327,0.816,3.078,1.811c0.751,0.995,1.068,2.223,0.896,3.457
		l-4.059,28.934l0.009,0.009l-0.061,0.533c-0.387,2.396-0.845,9.44,2.016,10.333l0.277,0.137c-0.02-0.013,0.123,0.036,0.397,0.036
		c0.437,0,1.403-0.144,2.975-1.104l11.839-8.674c0.805-0.59,1.757-0.903,2.753-0.903c1.482,0,2.891,0.714,3.768,1.911
		c0.737,1.004,1.038,2.235,0.847,3.468c-0.19,1.231-0.85,2.315-1.855,3.053l-9.019,6.604c-0.325,0.39-2.472,2.991-3.673,5.254
		c-0.152,0.516-0.761,2.07-2.818,3.404c-0.258,0.204-0.584,0.46-0.908,0.716c-1.193,0.937-2.375,1.883-3.557,2.829l-0.69,0.553
		c-1.255,1.006-2.114,1.651-2.749,2.13c-1.458,1.097-1.61,1.211-2.764,2.813l-0.523,0.739c-0.982,1.381-2.322,3.263-4.364,4.089
		C35.666,76.708,34.836,76.866,33.925,76.866z M28.014,74.096c0.522,0,0.984,0.024,1.413,0.076c0.663,0.081,1.3,0.211,1.916,0.336
		c1.604,0.328,3.105,0.537,4.365,0.024c1.39-0.563,2.399-1.868,3.482-3.39l0.532-0.751c1.297-1.801,1.597-2.051,3.187-3.246
		c0.624-0.47,1.468-1.104,2.701-2.092L46.3,64.5c1.187-0.95,2.373-1.9,3.571-2.841c0.327-0.257,0.657-0.517,0.987-0.772
		c1.737-1.131,2.052-2.317,2.064-2.368l0.087-0.235c0.972-1.864,2.498-3.885,3.362-4.971l-0.231-0.186l1.044-0.779l9.158-6.706
		c0.575-0.422,0.952-1.042,1.062-1.746c0.108-0.703-0.063-1.405-0.483-1.979c-0.839-1.144-2.58-1.42-3.726-0.577l-11.909,8.721
		c-1.587,0.974-2.938,1.443-4.087,1.443c-0.687,0-1.14-0.172-1.383-0.3c-4.483-1.539-3.655-9.854-3.349-12.08l0.042-0.445
		l4.129-29.435c0.099-0.705-0.083-1.406-0.512-1.974s-1.054-0.936-1.76-1.035c-1.472-0.202-2.808,0.838-3.01,2.27l-3.256,23.23
		c-0.638,2.948-2.1,3.259-2.7,3.259l-0.114-0.004c-0.666-0.013-1.24-0.256-1.665-0.706c-0.802-0.85-0.753-2.126-0.745-2.269
		l0.065,0.004c-0.065-0.708-0.06-1.96-0.048-4.231L33.014,4.68c0.004-0.712-0.27-1.383-0.77-1.889
		C31.743,2.285,31.075,2.004,30.362,2c-1.475,0-2.67,1.19-2.678,2.653l-0.15,26.966c-0.314,2.712-1.75,3.005-2.353,3.005
		c-0.136,0-0.253-0.015-0.346-0.033c-0.68-0.04-1.767-0.417-2.31-2.276l-0.03-0.142L19.178,8.503
		c-0.201-1.432-1.548-2.471-3.012-2.269c-0.705,0.099-1.329,0.466-1.757,1.035s-0.61,1.269-0.51,1.973l3.694,26.352
		c0.172,1.507,0.007,2.469-0.516,3.055c-0.299,0.335-0.699,0.52-1.126,0.52l-0.137-0.004c-0.79-0.005-1.496-0.468-1.989-1.303
		l-0.079-0.167L7.172,19.556c-0.488-1.341-2.056-2.089-3.413-1.599c-1.383,0.501-2.1,2.034-1.6,3.416L9.67,42.141
		c0.218,1.312,2.155,12.981,2.941,18.781c0.386,3.095,1.002,6.306,2.9,8.894c1.708,2.33,4.947,4.037,8.252,4.35
		c0.847,0.078,1.713,0.03,2.577-0.013C26.901,74.124,27.46,74.096,28.014,74.096z"/>
</g>
</svg>
