<?xml version="1.0" encoding="utf-8"?>
<!-- Generator: Adobe Illustrator 15.0.0, SVG Export Plug-In . SVG Version: 6.00 Build 0)  -->
<!DOCTYPE svg PUBLIC "-//W3C//DTD SVG 1.1//EN" "http://www.w3.org/Graphics/SVG/1.1/DTD/svg11.dtd">
<svg version="1.1" id="Layer_1" xmlns="http://www.w3.org/2000/svg" xmlns:xlink="http://www.w3.org/1999/xlink" x="0px" y="0px"
	 width="42.504px" height="38.792px" viewBox="0 0 42.504 38.792" enable-background="new 0 0 42.504 38.792" xml:space="preserve">
<g>
	<path d="M9.846,38.792H3.402v-2.526h6.459v1.683c-0.01,0.142-0.016,0.242-0.016,0.344V38.792z M4.402,37.792h4.46l0-0.526h-4.46
		V37.792z"/>
</g>
<g>
	<path d="M9.861,38.792H8.846v-0.5c0-0.132,0.006-0.26,0.018-0.389l0.482,0.021v-0.132l0.004,0.133l0.512,0.021V38.792z"/>
</g>
<g>
	<path d="M20.482,38.792h-3.496v-0.5c0-1.141-0.554-2.226-1.482-2.902l-0.28-0.204l0.093-0.334c0.065-0.232,0.106-0.459,0.126-0.692
		l0.04-0.463l0.464,0.006c2.5,0.03,4.535,2.09,4.535,4.59V38.792z M17.958,37.792h1.489c-0.223-1.581-1.489-2.843-3.076-3.058
		c-0.003,0.019-0.007,0.038-0.011,0.057C17.256,35.553,17.83,36.632,17.958,37.792z"/>
</g>
<g>
	<path d="M4.328,27.455H0V12.516h4.328V27.455z M1,26.455h2.328V13.516H1V26.455z"/>
</g>
<g>
	<path d="M4.363,38.792H3.346V17.266c0-1.631,0.803-3.162,2.147-4.093l0.274-0.19l0.281,0.181c2.234,1.438,5.241,1.361,7.395-0.173
		l0.263-0.188l0.279,0.163c1.528,0.891,2.477,2.539,2.477,4.3v1.515l-5.241-2.368c-1.009-0.458-2.26,0.024-2.711,1.022
		c-0.226,0.499-0.243,1.056-0.05,1.568c0.193,0.513,0.575,0.919,1.073,1.144l6.929,3.133v10.531c0,0.148-0.008,0.293-0.021,0.437
		l-0.042,0.454h-0.457c-0.412-0.019-0.787,0.056-1.145,0.17l-0.151,0.048l-0.151-0.048c-0.36-0.114-0.73-0.172-1.099-0.172
		c-1.851,0-3.421,1.444-3.576,3.289L8.82,37.948v-0.683H4.363V38.792z M4.346,36.265h4.936c0.757-1.521,2.333-2.564,4.113-2.564
		c0.42,0,0.839,0.059,1.25,0.174c0.269-0.076,0.542-0.127,0.817-0.153v-9.796L9.12,21.059c-0.742-0.335-1.31-0.939-1.597-1.702
		c-0.288-0.762-0.261-1.591,0.074-2.333c0.493-1.09,1.583-1.794,2.779-1.794c0.435,0,0.858,0.092,1.257,0.273l3.828,1.729
		c-0.011-1.291-0.661-2.503-1.719-3.236c-2.349,1.523-5.5,1.606-7.936,0.192c-0.92,0.753-1.46,1.882-1.46,3.078V36.265z"/>
</g>
<g>
	<path d="M16.087,35.815l-0.583-0.424c-0.315-0.229-0.656-0.404-1.014-0.52l-1.485-0.479l1.487-0.474
		c0.456-0.146,0.927-0.219,1.4-0.219h0.545l0.001,0.545c-0.025,0.293-0.079,0.587-0.159,0.875L16.087,35.815z"/>
</g>
<g>
	<path d="M9.615,15.215c-1.458,0-2.879-0.419-4.109-1.211c-2.19-1.41-3.499-3.801-3.499-6.397C2.008,3.413,5.42,0,9.615,0
		c1.785,0,3.519,0.631,4.884,1.777l-0.643,0.766C12.671,1.548,11.165,1,9.615,1C5.972,1,3.008,3.964,3.008,7.607
		c0,2.254,1.136,4.332,3.04,5.556c2.232,1.439,5.237,1.365,7.395-0.173c0.141-0.101,0.28-0.205,0.414-0.318l0.643,0.767
		c-0.155,0.129-0.313,0.249-0.476,0.365C12.727,14.728,11.203,15.215,9.615,15.215z"/>
</g>
<g>
	<path d="M14.354,13.559l-0.188-0.004C10.959,13.48,8.35,10.813,8.35,7.607c0-3.208,2.609-5.875,5.817-5.947l0.188-0.004
		l0.145,0.121c1.732,1.452,2.726,3.577,2.726,5.83s-0.994,4.378-2.726,5.83L14.354,13.559z M14.001,2.668
		C11.419,2.825,9.35,5.002,9.35,7.607c0,2.604,2.07,4.78,4.651,4.939c1.416-1.256,2.224-3.045,2.224-4.939
		S15.417,3.925,14.001,2.668z"/>
</g>
<g>
	<path d="M17.986,38.792H8.82v-0.846c0.199-2.399,2.208-4.246,4.574-4.246c0.472,0,0.943,0.073,1.401,0.219
		c0.459,0.146,0.896,0.369,1.297,0.662c1.186,0.865,1.894,2.252,1.894,3.711V38.792z M9.84,37.792h7.11
		c-0.136-0.952-0.655-1.825-1.446-2.402c-0.315-0.229-0.656-0.404-1.012-0.518c-0.359-0.114-0.729-0.172-1.098-0.172
		C11.61,34.701,10.085,36.043,9.84,37.792z"/>
</g>
<g>
	<path d="M25.355,38.792h-3.496v-0.5c0-2.5,2.034-4.56,4.535-4.59l0.464-0.006l0.04,0.463c0.02,0.229,0.063,0.463,0.125,0.695
		l0.09,0.332l-0.277,0.202c-0.94,0.688-1.48,1.746-1.48,2.903V38.792z M22.895,37.792h1.488c0.129-1.16,0.702-2.24,1.599-3.002
		c-0.004-0.019-0.008-0.037-0.011-0.056C24.384,34.95,23.118,36.212,22.895,37.792z"/>
</g>
<g>
	<path d="M42.504,27.455h-4.328V12.516h4.328V27.455z M39.176,26.455h2.328V13.516h-2.328V26.455z"/>
</g>
<g>
	<path d="M38.996,38.792h-1.018v-1.526H33.52v0.692l-0.998,0.04c-0.149-1.85-1.721-3.298-3.576-3.298
		c-0.37,0-0.739,0.058-1.096,0.172l-0.152,0.048l-0.152-0.048c-0.356-0.114-0.726-0.172-1.096-0.172h-0.457l-0.09-0.453
		c-0.013-0.144-0.021-0.288-0.021-0.436V23.281l6.929-3.132c1.03-0.466,1.489-1.683,1.023-2.713c-0.45-0.999-1.705-1.48-2.713-1.022
		l-5.239,2.37v-1.516c0-1.762,0.949-3.41,2.477-4.301l0.279-0.163l0.263,0.188c2.157,1.538,5.167,1.61,7.392,0.173l0.281-0.182
		l0.275,0.19c1.345,0.932,2.148,2.463,2.148,4.094V38.792z M33.059,36.266h4.938v-19c0-1.196-0.541-2.325-1.462-3.079
		c-2.425,1.413-5.581,1.335-7.935-0.192c-1.058,0.734-1.707,1.946-1.719,3.237l3.827-1.731c0.398-0.181,0.821-0.272,1.257-0.272
		c1.196,0,2.288,0.704,2.78,1.793c0.692,1.533,0.009,3.344-1.523,4.037l-6.341,2.865v9.798c0.283,0.026,0.553,0.076,0.816,0.15
		c0.407-0.114,0.827-0.173,1.248-0.173C30.727,33.701,32.303,34.745,33.059,36.266z"/>
</g>
<g>
	<path d="M26.248,35.819l-0.189-0.701c-0.079-0.291-0.131-0.584-0.156-0.872l-0.047-0.543H26.4c0.531-0.006,0.99,0.071,1.448,0.217
		l1.494,0.474l-1.493,0.479c-0.357,0.114-0.699,0.289-1.015,0.519L26.248,35.819z"/>
</g>
<g>
	<path d="M20.88,26.081C20.88,26.081,20.88,26.081,20.88,26.081c-0.437,0-0.854-0.089-1.238-0.264L9.12,21.06
		c-0.742-0.335-1.31-0.94-1.597-1.703c-0.288-0.762-0.261-1.591,0.074-2.333c0.492-1.09,1.583-1.794,2.779-1.794
		c0.435,0,0.857,0.091,1.256,0.272l10.524,4.757c1.533,0.693,2.217,2.504,1.524,4.037c-0.448,0.988-1.367,1.649-2.457,1.767
		C21.109,26.074,20.995,26.081,20.88,26.081z M10.376,16.229c-0.804,0-1.537,0.473-1.868,1.206c-0.226,0.5-0.243,1.056-0.05,1.569
		s0.575,0.919,1.073,1.144l10.524,4.757c0.323,0.147,0.693,0.198,1.062,0.162c0.733-0.079,1.351-0.522,1.652-1.185
		c0.225-0.499,0.243-1.056,0.049-1.568c-0.193-0.513-0.574-0.92-1.073-1.145L11.22,16.413
		C10.951,16.291,10.668,16.229,10.376,16.229z"/>
</g>
<g>
	<path d="M21.461,26.08c-0.115,0-0.23-0.006-0.346-0.019l0.109-0.994c0.368,0.04,0.738-0.015,1.06-0.16l10.525-4.759
		c0.499-0.225,0.88-0.631,1.073-1.144c0.194-0.512,0.176-1.069-0.05-1.568c-0.225-0.499-0.632-0.88-1.145-1.073
		c-0.509-0.193-1.067-0.175-1.568,0.051l-9.744,4.406l-0.412-0.911l9.744-4.406c0.741-0.335,1.569-0.363,2.334-0.076
		c0.763,0.288,1.367,0.854,1.703,1.597c0.335,0.743,0.361,1.571,0.074,2.333c-0.288,0.763-0.855,1.367-1.598,1.702l-10.525,4.76
		C22.313,25.992,21.893,26.08,21.461,26.08z"/>
</g>
<g>
	<path d="M36.833,14.003l-0.541-0.841c1.905-1.226,3.042-3.302,3.042-5.556C39.334,3.964,36.369,1,32.725,1
		c-1.547,0-3.053,0.548-4.239,1.543l-0.643-0.767C29.209,0.631,30.943,0,32.725,0c4.196,0,7.609,3.413,7.609,7.607
		C40.334,10.202,39.025,12.593,36.833,14.003z"/>
</g>
<g>
	<path d="M32.725,15.214c-1.588,0-3.111-0.487-4.405-1.41l0.58-0.814c2.157,1.537,5.166,1.609,7.393,0.173l0.541,0.841
		C35.605,14.796,34.185,15.214,32.725,15.214z"/>
</g>
<g>
	<path d="M27.987,13.559l-0.145-0.121c-1.732-1.45-2.726-3.575-2.726-5.83s0.993-4.38,2.726-5.83l0.145-0.121l0.188,0.004
		c3.208,0.072,5.817,2.739,5.817,5.947c0,3.205-2.609,5.873-5.816,5.947L27.987,13.559z M28.341,2.668
		c-1.416,1.254-2.224,3.044-2.224,4.939s0.808,3.684,2.224,4.939c2.581-0.159,4.651-2.335,4.651-4.939
		C32.992,5.002,30.923,2.825,28.341,2.668z"/>
</g>
<g>
	<path d="M33.52,38.792h-9.164v-0.5c0-1.46,0.707-2.847,1.891-3.711c0.404-0.292,0.84-0.515,1.299-0.662
		c0.455-0.146,0.927-0.219,1.4-0.219c2.373,0,4.382,1.853,4.572,4.219L33.52,38.792z M25.391,37.792h7.111
		c-0.228-1.731-1.758-3.092-3.557-3.092c-0.37,0-0.739,0.058-1.096,0.172s-0.698,0.289-1.016,0.519
		C26.045,35.966,25.526,36.84,25.391,37.792z"/>
</g>
<g>
	<path d="M39.02,38.792h-6.441v-0.5c0-0.096-0.007-0.192-0.016-0.289l-0.002-1.737h6.459V38.792z M33.561,37.792h4.459v-0.526
		h-4.459V37.792z"/>
</g>
<g>
	<path d="M33.578,38.792h-1.018v-0.834l0.5-0.022v-0.144l0.005,0.144l0.493-0.021c0.011,0.125,0.02,0.252,0.02,0.378V38.792z"/>
</g>
</svg>
