<?xml version="1.0" encoding="utf-8"?>
<!-- Generator: Adobe Illustrator 15.0.0, SVG Export Plug-In . SVG Version: 6.00 Build 0)  -->
<!DOCTYPE svg PUBLIC "-//W3C//DTD SVG 1.1//EN" "http://www.w3.org/Graphics/SVG/1.1/DTD/svg11.dtd">
<svg version="1.1" id="Layer_1" xmlns="http://www.w3.org/2000/svg" xmlns:xlink="http://www.w3.org/1999/xlink" x="0px" y="0px"
	 width="69.221px" height="67.556px" viewBox="0 0 69.221 67.556" enable-background="new 0 0 69.221 67.556" xml:space="preserve">
<g>
	<path fill="#FFFFFF" d="M68.721,33.372h-7.399l4.07-4.066l-1.238-1.238l-5.303,5.304h-8.023l9.316-9.313l-1.238-1.239
		L48.354,33.372h-6.543c-0.08-0.671-0.246-1.325-0.513-1.948c-0.251-0.596-0.582-1.145-0.979-1.649L53.09,17.004l-1.237-1.236
		l-12.77,12.767c-0.505-0.397-1.055-0.726-1.648-0.98c-0.599-0.252-1.234-0.412-1.877-0.496v-6.081l10.754-10.753l-1.238-1.236
		l-9.516,9.515v-8.021l5.506-5.506l-1.237-1.237l-4.269,4.27V0.5h-1.749v7.657l-4.216-4.216l-1.236,1.238l5.452,5.452v8.021
		l-9.464-9.463l-1.235,1.237l10.699,10.701v5.91c-0.693,0.074-1.377,0.246-2.024,0.518c-0.593,0.254-1.143,0.584-1.648,0.98
		l-12.57-12.567l-1.235,1.235l12.568,12.57c-0.396,0.504-0.728,1.051-0.981,1.651c-0.265,0.621-0.431,1.275-0.512,1.948h-6.541
		L10.514,23.02l-1.237,1.238l9.115,9.114H10.37l-5.104-5.104l-1.237,1.238l3.867,3.866H0.5v1.75h7.947l-4.026,4.025l1.237,1.235
		l5.262-5.261h8.022l-9.273,9.271l1.237,1.237l10.51-10.509h5.99c0.081,0.672,0.247,1.324,0.512,1.947
		c0.252,0.598,0.581,1.148,0.98,1.652L16.447,51.174l1.236,1.233l12.453-12.449c0.505,0.396,1.055,0.729,1.648,0.979
		c0.646,0.274,1.326,0.448,2.024,0.524v6.456L23.502,58.226l1.236,1.237l9.07-9.072v8.022l-5.06,5.06l1.236,1.238l3.824-3.824v6.147
		l1.749,0.017v-6.017l3.877,3.875l1.236-1.235l-5.114-5.114v-8.021l9.125,9.123l1.236-1.235L35.557,48.065v-6.626
		c0.646-0.085,1.275-0.246,1.877-0.502c0.594-0.25,1.145-0.583,1.648-0.979l12.65,12.65l1.239-1.236L40.319,38.72
		c0.397-0.503,0.729-1.053,0.979-1.648c0.267-0.625,0.433-1.281,0.513-1.949h5.993L58.514,45.83l1.236-1.234l-9.472-9.473h8.021
		l5.463,5.461l1.236-1.235l-4.226-4.226h7.948V33.372z M40.046,35.123c-0.07,0.434-0.184,0.86-0.357,1.269
		c-0.164,0.384-0.379,0.74-0.623,1.075c-0.172,0.236-0.351,0.469-0.561,0.678c-0.209,0.209-0.439,0.387-0.677,0.559
		c-0.337,0.244-0.69,0.461-1.076,0.625c-0.383,0.162-0.785,0.273-1.195,0.345c-0.309,0.054-0.624,0.087-0.945,0.087h-0.005
		c-0.27,0-0.537-0.027-0.799-0.066c-0.461-0.068-0.911-0.183-1.341-0.367c-0.385-0.162-0.74-0.379-1.077-0.623
		c-0.236-0.172-0.467-0.35-0.678-0.56c-0.209-0.208-0.387-0.44-0.56-0.676c-0.244-0.336-0.46-0.692-0.623-1.076
		c-0.172-0.407-0.286-0.834-0.357-1.269c-0.044-0.289-0.074-0.578-0.074-0.875c0-0.297,0.03-0.59,0.074-0.876
		c0.071-0.436,0.185-0.86,0.357-1.267c0.164-0.387,0.381-0.742,0.624-1.078c0.174-0.237,0.351-0.467,0.56-0.677
		c0.21-0.209,0.441-0.388,0.677-0.559c0.339-0.244,0.692-0.461,1.077-0.624c0.432-0.183,0.88-0.3,1.341-0.367
		c0.263-0.038,0.531-0.066,0.801-0.066c0.322,0,0.637,0.034,0.948,0.088c0.41,0.071,0.812,0.184,1.196,0.346
		c0.385,0.162,0.738,0.379,1.075,0.623c0.235,0.171,0.468,0.35,0.677,0.559c0.209,0.21,0.389,0.442,0.561,0.677
		c0.244,0.337,0.459,0.692,0.623,1.076c0.174,0.41,0.287,0.834,0.357,1.269c0.046,0.287,0.074,0.579,0.074,0.876
		C40.12,34.543,40.092,34.833,40.046,35.123"/>
	<path d="M36.058,67.556l-2.75-0.026v-5.436l-3.325,3.324l-1.942-1.945l5.267-5.267v-6.608l-8.57,8.572l-1.943-1.944L33.308,47.71
		v-5.813c-0.595-0.1-1.171-0.268-1.719-0.5c-0.483-0.203-0.954-0.465-1.404-0.78L17.684,53.115l-1.944-1.94l12.5-12.5
		c-0.311-0.443-0.573-0.916-0.782-1.41c-0.219-0.516-0.381-1.066-0.482-1.642h-5.352L10.906,46.338l-1.944-1.944l8.773-8.771h-6.608
		L5.659,41.09l-1.945-1.942l3.526-3.525H0v-2.75h6.688l-3.367-3.366l1.944-1.945l5.311,5.311h6.608L8.57,24.258l1.944-1.945
		l10.558,10.559h5.903c0.102-0.578,0.264-1.129,0.483-1.644c0.205-0.485,0.467-0.958,0.782-1.407L15.624,17.203l1.942-1.942
		l12.619,12.616c0.444-0.311,0.915-0.572,1.403-0.781c0.55-0.231,1.126-0.397,1.721-0.495v-5.267L22.402,10.427l1.941-1.945
		l8.965,8.963v-6.606L27.649,5.18l1.942-1.946l3.717,3.717V0h2.75v6.804l3.769-3.77l1.944,1.944l-5.713,5.713v6.606l9.016-9.015
		l1.945,1.942l-10.961,10.96v5.446c0.555,0.102,1.082,0.257,1.571,0.463c0.492,0.211,0.963,0.473,1.405,0.782l12.818-12.815
		l1.944,1.943L40.979,29.823c0.313,0.447,0.575,0.919,0.781,1.407c0.22,0.514,0.382,1.065,0.483,1.642h5.904l10.758-10.759
		l1.945,1.946l-8.816,8.813h6.609l5.51-5.511l1.945,1.945l-3.569,3.566h6.691v2.75h-7.241l3.726,3.726l-1.943,1.942l-5.67-5.668
		h-6.606l8.972,8.973l-1.943,1.941L47.598,35.623h-5.354c-0.102,0.576-0.264,1.128-0.484,1.646c-0.206,0.488-0.468,0.959-0.78,1.404
		l12.702,12.7l-1.947,1.943L39.034,40.617c-0.449,0.314-0.92,0.577-1.405,0.781c-0.491,0.208-1.019,0.365-1.571,0.468v5.992
		l10.568,10.568l-1.943,1.942l-8.625-8.623v6.607l5.32,5.321l-1.943,1.942l-3.377-3.375V67.556z M34.308,66.54l0.749,0.007v-6.719
		l4.377,4.375l0.529-0.528l-4.907-4.907v-9.436l9.625,9.623l0.529-0.528L35.057,48.272V41l0.435-0.058
		c0.624-0.082,1.211-0.238,1.748-0.466c0.535-0.226,1.052-0.532,1.535-0.912l0.349-0.273l12.61,12.61l0.531-0.529L39.651,38.759
		l0.275-0.349c0.377-0.478,0.684-0.993,0.911-1.533c0.24-0.562,0.4-1.172,0.478-1.814l0.053-0.44h6.644l10.502,10.5l0.529-0.527
		l-9.972-9.973h9.435l5.256,5.254l0.529-0.528l-4.726-4.726h8.655v-0.75h-8.107l4.571-4.566l-0.531-0.531l-5.096,5.097H49.62
		l9.816-9.813l-0.531-0.532L48.562,33.872h-7.194l-0.052-0.441c-0.077-0.642-0.237-1.251-0.477-1.81
		c-0.228-0.541-0.534-1.057-0.912-1.537l-0.275-0.349l12.731-12.731l-0.53-0.529L39.123,29.203l-0.349-0.274
		c-0.475-0.373-0.992-0.68-1.536-0.913c-0.53-0.223-1.118-0.378-1.746-0.46l-0.435-0.057v-6.727l10.547-10.545l-0.531-0.53
		L35.057,19.711v-9.435l5.299-5.299l-0.53-0.53l-4.769,4.771V1h-0.749v8.364l-4.716-4.716l-0.53,0.53l5.246,5.246v9.435
		l-9.964-9.962l-0.529,0.529L34.308,20.92v6.567l-0.447,0.047c-0.655,0.07-1.289,0.232-1.883,0.482
		c-0.539,0.23-1.056,0.538-1.534,0.913l-0.349,0.273l-12.53-12.527l-0.528,0.528l12.528,12.53l-0.274,0.349
		c-0.38,0.484-0.688,1-0.913,1.537c-0.239,0.56-0.399,1.169-0.477,1.813l-0.053,0.44h-7.191L10.514,23.727l-0.53,0.531l9.615,9.614
		h-9.436l-4.897-4.897l-0.53,0.531l4.368,4.366H1v0.75h8.654l-4.525,4.525l0.529,0.528l5.055-5.054h9.436l-9.773,9.771l0.53,0.53
		l10.303-10.302h6.64l0.053,0.44c0.077,0.642,0.237,1.251,0.476,1.812c0.231,0.548,0.538,1.064,0.912,1.537l0.276,0.35
		L17.154,51.174l0.528,0.526l12.413-12.409l0.349,0.273c0.487,0.381,1.003,0.688,1.535,0.911c0.595,0.253,1.228,0.417,1.884,0.488
		l0.446,0.049v7.111L24.209,58.226l0.529,0.53l9.57-9.572v9.437l-4.854,4.853l0.53,0.531l4.324-4.324V66.54z M34.612,40.259
		c-0.3,0-0.592-0.029-0.877-0.072c-0.542-0.08-1.021-0.212-1.465-0.401c-0.381-0.161-0.766-0.383-1.173-0.678
		c-0.241-0.176-0.496-0.37-0.737-0.61c-0.241-0.239-0.441-0.504-0.61-0.733c-0.293-0.405-0.516-0.79-0.68-1.178
		c-0.178-0.42-0.309-0.885-0.39-1.383c-0.056-0.364-0.081-0.667-0.081-0.956c0-0.29,0.026-0.601,0.08-0.952
		c0.083-0.507,0.21-0.959,0.391-1.386c0.163-0.384,0.385-0.768,0.679-1.176c0.169-0.23,0.368-0.492,0.611-0.737
		c0.248-0.247,0.512-0.447,0.738-0.611c0.42-0.302,0.793-0.518,1.175-0.68c0.456-0.193,0.935-0.324,1.465-0.401
		c0.603-0.088,1.202-0.099,1.907,0.024c0.458,0.08,0.897,0.207,1.304,0.377c0.38,0.16,0.764,0.382,1.174,0.679
		c0.242,0.177,0.499,0.372,0.737,0.611c0.241,0.243,0.444,0.508,0.61,0.735c0.292,0.403,0.514,0.787,0.68,1.175
		c0.182,0.43,0.31,0.883,0.391,1.386c0.055,0.339,0.081,0.652,0.081,0.956c0,0.3-0.026,0.612-0.08,0.953
		c-0.082,0.502-0.213,0.968-0.392,1.387c-0.169,0.394-0.391,0.777-0.679,1.174c-0.176,0.241-0.372,0.498-0.612,0.737
		c-0.242,0.242-0.508,0.444-0.736,0.609c-0.406,0.294-0.79,0.517-1.174,0.68c-0.399,0.169-0.838,0.296-1.304,0.377
		C35.278,40.228,34.94,40.259,34.612,40.259z M34.609,29.234c-0.246,0-0.49,0.026-0.729,0.061c-0.444,0.064-0.842,0.173-1.218,0.333
		c-0.312,0.132-0.624,0.313-0.98,0.569c-0.193,0.14-0.419,0.312-0.617,0.508c-0.189,0.19-0.35,0.402-0.51,0.619
		c-0.248,0.343-0.434,0.664-0.566,0.977c-0.149,0.352-0.255,0.729-0.324,1.152c-0.045,0.295-0.068,0.557-0.068,0.795
		c0,0.271,0.028,0.535,0.068,0.799c0.068,0.414,0.177,0.803,0.323,1.149c0.135,0.316,0.32,0.637,0.567,0.977
		c0.151,0.206,0.317,0.426,0.508,0.615c0.193,0.192,0.412,0.358,0.62,0.51c0.344,0.249,0.664,0.435,0.977,0.566
		c0.366,0.157,0.765,0.266,1.22,0.334c0.506,0.074,1.008,0.081,1.59-0.019c0.391-0.068,0.757-0.174,1.085-0.313
		c0.313-0.134,0.633-0.319,0.979-0.57c0.205-0.148,0.423-0.313,0.616-0.507c0.191-0.19,0.358-0.41,0.51-0.618
		c0.244-0.335,0.43-0.654,0.567-0.978c0.148-0.35,0.255-0.727,0.324-1.152c0.045-0.287,0.067-0.547,0.067-0.794
		c0-0.25-0.022-0.511-0.068-0.797c-0.067-0.422-0.174-0.8-0.323-1.153c-0.137-0.318-0.322-0.638-0.568-0.979
		c-0.155-0.212-0.318-0.425-0.51-0.617c-0.189-0.189-0.408-0.355-0.616-0.507c-0.347-0.251-0.666-0.437-0.976-0.566
		c-0.336-0.142-0.702-0.248-1.086-0.314C35.159,29.26,34.876,29.234,34.609,29.234z"/>
</g>
</svg>
