<?xml version="1.0" encoding="utf-8"?>
<!-- Generator: Adobe Illustrator 15.0.0, SVG Export Plug-In . SVG Version: 6.00 Build 0)  -->
<!DOCTYPE svg PUBLIC "-//W3C//DTD SVG 1.1//EN" "http://www.w3.org/Graphics/SVG/1.1/DTD/svg11.dtd">
<svg version="1.1" id="Layer_1" xmlns="http://www.w3.org/2000/svg" xmlns:xlink="http://www.w3.org/1999/xlink" x="0px" y="0px"
	 width="68.771px" height="68.775px" viewBox="0 0 68.771 68.775" enable-background="new 0 0 68.771 68.775" xml:space="preserve">
<g>
	<path d="M24.041,51.565V17.21l25.497,17.178L24.041,51.565z M26.041,20.969v26.836l19.917-13.417L26.041,20.969z"/>
</g>
<g>
	<path d="M34.387,68.775C15.426,68.775,0,53.349,0,34.387C0,15.426,15.426,0,34.387,0c18.96,0,34.385,15.426,34.385,34.387
		C68.771,53.349,53.347,68.775,34.387,68.775z M34.387,2C16.529,2,2,16.529,2,34.387c0,17.859,14.529,32.389,32.387,32.389
		c17.857,0,32.385-14.529,32.385-32.389C66.771,16.529,52.244,2,34.387,2z"/>
</g>
</svg>
