<?xml version="1.0" encoding="utf-8"?>
<!-- Generator: Adobe Illustrator 15.0.0, SVG Export Plug-In . SVG Version: 6.00 Build 0)  -->
<!DOCTYPE svg PUBLIC "-//W3C//DTD SVG 1.1//EN" "http://www.w3.org/Graphics/SVG/1.1/DTD/svg11.dtd">
<svg version="1.1" id="Layer_1" xmlns="http://www.w3.org/2000/svg" xmlns:xlink="http://www.w3.org/1999/xlink" x="0px" y="0px"
	 width="45.547px" height="45.547px" viewBox="0 0 45.547 45.547" enable-background="new 0 0 45.547 45.547" xml:space="preserve">
<path fill="none" stroke="#FFFFFF" stroke-width="1.5" stroke-miterlimit="10" d="M7.199,38.346
	c-2.107-2.105-3.732-4.555-4.836-7.276c-1.072-2.638-1.613-5.429-1.613-8.295c0-2.867,0.541-5.658,1.613-8.297
	c1.104-2.72,2.729-5.168,4.836-7.277c2.104-2.105,4.557-3.733,7.279-4.838c2.635-1.07,5.428-1.612,8.295-1.612
	c2.869,0.002,5.657,0.542,8.295,1.612c2.719,1.105,5.17,2.733,7.276,4.838c2.108,2.109,3.735,4.557,4.838,7.281
	c1.071,2.635,1.616,5.424,1.614,8.293c0.002,2.868-0.543,5.657-1.614,8.295c-1.103,2.72-2.729,5.171-4.838,7.276
	c-2.106,2.109-4.554,3.735-7.276,4.84c-2.64,1.068-5.426,1.613-8.295,1.611c-2.867,0.002-5.656-0.543-8.295-1.611
	C11.756,42.082,9.304,40.453,7.199,38.346"/>
<path fill="#FFFFFF" d="M30.48,22.397v-0.031c0-1.043-0.203-2.053-0.602-2.998c-0.303-0.713-0.709-1.368-1.207-1.959l4.168-4.166
	l-0.533-0.531l-4.146,4.146c-0.697-0.682-1.498-1.219-2.387-1.595c-0.832-0.35-1.723-0.539-2.623-0.583V8.919h-0.377h-0.375v5.761
	c-0.899,0.043-1.791,0.232-2.621,0.582c-0.891,0.377-1.691,0.916-2.389,1.596l-4.145-4.146l-0.266,0.265l-0.268,0.266l4.166,4.166
	c-0.496,0.59-0.906,1.246-1.205,1.959c-0.4,0.947-0.605,1.956-0.605,2.998c0,0.011,0.002,0.021,0.002,0.031H8.92v0.376v0.377h6.188
	c0.076,0.765,0.263,1.507,0.564,2.215c0.377,0.889,0.914,1.688,1.594,2.386l-4.555,4.554l0.533,0.532l4.57-4.575
	c0.592,0.498,1.246,0.905,1.963,1.207c0.834,0.352,1.711,0.541,2.621,0.585v6.575h0.375h0.377v-6.575
	c0.91-0.044,1.791-0.233,2.623-0.585c0.715-0.302,1.369-0.709,1.959-1.207l4.574,4.575l0.266-0.267l0.268-0.266l-4.559-4.554
	c0.684-0.697,1.221-1.497,1.598-2.386c0.299-0.708,0.488-1.45,0.563-2.215h6.188v-0.377v-0.376H30.48z M29.684,23.15
	c-0.074,0.663-0.238,1.307-0.498,1.92c-0.34,0.802-0.82,1.52-1.437,2.148c-0.019,0.022-0.036,0.043-0.058,0.065
	c-0.069,0.067-0.141,0.129-0.213,0.194c-0.092,0.084-0.182,0.172-0.279,0.252c-0.516,0.432-1.096,0.78-1.717,1.045
	c-0.738,0.313-1.531,0.481-2.332,0.523c-0.125,0.006-0.25,0.018-0.377,0.018c-0.123,0-0.25-0.012-0.375-0.018
	c-0.799-0.042-1.59-0.211-2.328-0.523c-0.627-0.265-1.203-0.613-1.723-1.045c-0.17-0.141-0.334-0.289-0.49-0.446
	c-0.024-0.022-0.039-0.043-0.061-0.065c-0.611-0.629-1.096-1.347-1.434-2.148c-0.258-0.613-0.424-1.258-0.498-1.92
	c-0.014-0.126-0.02-0.251-0.027-0.377c-0.007-0.124-0.018-0.249-0.018-0.376c0-0.01-0.002-0.02-0.002-0.031
	c0-0.942,0.186-1.853,0.545-2.706c0.264-0.622,0.615-1.198,1.047-1.72c0.078-0.098,0.168-0.186,0.253-0.278
	c0.063-0.071,0.124-0.146,0.194-0.214c0.021-0.021,0.043-0.038,0.064-0.06c0.627-0.611,1.346-1.095,2.146-1.434
	c0.74-0.313,1.523-0.484,2.33-0.525c0.125-0.007,0.252-0.019,0.375-0.019c0.127,0,0.252,0.012,0.377,0.019
	c0.808,0.041,1.59,0.214,2.332,0.526c0.799,0.338,1.515,0.822,2.145,1.433c0.021,0.021,0.045,0.039,0.064,0.06
	c0.158,0.158,0.308,0.322,0.449,0.492c0.43,0.522,0.781,1.098,1.045,1.72c0.361,0.853,0.545,1.763,0.545,2.706v0.031
	c0,0.127-0.014,0.252-0.022,0.376C29.703,22.899,29.699,23.024,29.684,23.15"/>
</svg>
