<?xml version="1.0" encoding="utf-8"?>
<!-- Generator: Adobe Illustrator 15.0.0, SVG Export Plug-In . SVG Version: 6.00 Build 0)  -->
<!DOCTYPE svg PUBLIC "-//W3C//DTD SVG 1.1//EN" "http://www.w3.org/Graphics/SVG/1.1/DTD/svg11.dtd">
<svg version="1.1" id="Layer_1" xmlns="http://www.w3.org/2000/svg" xmlns:xlink="http://www.w3.org/1999/xlink" x="0px" y="0px"
	 width="119.308px" height="119.309px" viewBox="0 0 119.308 119.309" enable-background="new 0 0 119.308 119.309"
	 xml:space="preserve">
<polygon fill="none" stroke="#FFFFFF" stroke-width="2" stroke-miterlimit="10" points="92.529,81.211 78.217,64.965 86.719,64.965 
	73.111,49.517 79.996,49.517 59.72,26.499 39.445,49.517 46.258,49.517 32.65,64.965 41.089,64.965 26.778,81.211 "/>
<line fill="none" stroke="#FFFFFF" stroke-width="2" stroke-miterlimit="10" x1="59.654" y1="27.417" x2="59.654" y2="92.811"/>
<path fill="none" stroke="#FFFFFF" stroke-width="2" stroke-miterlimit="10" d="M9.01,89.208C5.012,82.356,2.477,74.95,1.483,67.193
	c-0.969-7.514-0.479-15.069,1.466-22.45c1.942-7.385,5.225-14.205,9.766-20.27C17.4,18.214,23.248,13.009,30.099,9.011
	c6.85-3.992,14.26-6.53,22.017-7.528c7.511-0.972,15.067-0.474,22.451,1.467c7.381,1.942,14.202,5.227,20.267,9.768
	c6.257,4.683,11.462,10.533,15.461,17.383c4,6.853,6.532,14.263,7.532,22.019c0.969,7.51,0.474,15.06-1.47,22.448
	c-1.94,7.384-5.224,14.2-9.761,20.269c-4.689,6.258-10.539,11.463-17.393,15.457c-6.852,4.004-14.258,6.533-22.014,7.535
	c-7.513,0.967-15.068,0.476-22.448-1.47c-7.384-1.938-14.204-5.227-20.269-9.765C18.211,101.913,13.01,96.061,9.01,89.208"/>
</svg>
