<?xml version="1.0" encoding="utf-8"?>
<!-- Generator: Adobe Illustrator 15.0.0, SVG Export Plug-In . SVG Version: 6.00 Build 0)  -->
<!DOCTYPE svg PUBLIC "-//W3C//DTD SVG 1.1//EN" "http://www.w3.org/Graphics/SVG/1.1/DTD/svg11.dtd">
<svg version="1.1" id="Layer_1" xmlns="http://www.w3.org/2000/svg" xmlns:xlink="http://www.w3.org/1999/xlink" x="0px" y="0px"
	 width="28.607px" height="28.459px" viewBox="0 0 28.607 28.459" enable-background="new 0 0 28.607 28.459" xml:space="preserve">
<path fill="none" stroke="#5d5d5c" stroke-miterlimit="10" d="M6.848,8.676C5.36,7.315,3.051,7.355,1.612,8.794
	c-1.482,1.481-1.482,3.88,0,5.361c0.33,0.332,0.705,0.586,1.109,0.768c-0.391,0.183-0.752,0.434-1.072,0.753
	c-1.48,1.479-1.48,3.882,0,5.361c1.439,1.44,3.75,1.479,5.238,0.117l0.002,0.003l6.225-6.223l-0.039-0.037l-2.324-2.326L6.852,8.673
	L6.848,8.676z"/>
<path fill="none" stroke="#5d5d5c" stroke-miterlimit="10" d="M21.76,21.206c1.488,1.361,3.797,1.322,5.236-0.118
	c1.48-1.481,1.48-3.882,0.002-5.36c-0.332-0.332-0.709-0.587-1.109-0.77c0.387-0.182,0.748-0.432,1.068-0.753
	c1.482-1.48,1.482-3.881,0-5.359c-1.438-1.442-3.748-1.48-5.234-0.12l-0.004-0.003l-6.225,6.224l0.039,0.037l2.326,2.327
	l3.898,3.897L21.76,21.206z"/>
<path fill="none" stroke="#5d5d5c" stroke-miterlimit="10" d="M8.061,6.851l3.9,3.898l2.324,2.325l0.037,0.039l6.227-6.225
	l-0.004-0.004c1.359-1.486,1.32-3.796-0.121-5.236c-1.479-1.481-3.879-1.481-5.359,0c-0.32,0.32-0.568,0.683-0.752,1.072
	c-0.184-0.402-0.441-0.779-0.77-1.109c-1.482-1.481-3.879-1.481-5.363,0C6.743,3.05,6.704,5.36,8.065,6.848L8.061,6.851z"/>
<line fill="none" stroke="#5d5d5c" stroke-miterlimit="10" x1="14.329" y1="13.192" x2="14.329" y2="28.459"/>
</svg>
