<?xml version="1.0" encoding="utf-8"?>
<!-- Generator: Adobe Illustrator 15.0.0, SVG Export Plug-In . SVG Version: 6.00 Build 0)  -->
<!DOCTYPE svg PUBLIC "-//W3C//DTD SVG 1.1//EN" "http://www.w3.org/Graphics/SVG/1.1/DTD/svg11.dtd">
<svg version="1.1" id="Layer_1" xmlns="http://www.w3.org/2000/svg" xmlns:xlink="http://www.w3.org/1999/xlink" x="0px" y="0px"
	 width="28.521px" height="27.823px" viewBox="0 0 28.521 27.823" enable-background="new 0 0 28.521 27.823" xml:space="preserve">
<rect x="9.066" y="17.14" transform="matrix(0.7065 -0.7077 0.7077 0.7065 -8.9875 12.6093)" fill="#5d5d5c" width="3.287" height="0.002"/>
<polygon fill="#5d5d5c" points="16.129,16.495 18.381,18.745 18.381,18.743 "/>
<polygon fill="#5d5d5c" points="13.926,13.924 13.741,14.108 13.926,14.292 "/>
<polygon fill="#5d5d5c" points="14.658,14.222 14.771,14.108 14.658,13.993 "/>
<polygon fill="#5d5d5c" points="28.521,13.743 25.428,13.743 27.128,12.043 26.611,11.526 24.393,13.743 21.041,13.743
	24.936,9.849 24.417,9.332 20.005,13.743 15.137,13.743 21.986,6.898 21.469,6.383 14.658,13.193 14.658,8.562 19.152,4.064
	18.635,3.55 14.658,7.527 14.658,4.175 16.96,1.873 16.441,1.354 14.658,3.14 14.658,0 13.926,0 13.926,3.202 12.164,1.438
	11.645,1.955 13.926,4.236 13.926,7.59 9.969,3.633 9.453,4.15 13.926,8.625 13.926,13.262 7.133,6.467 6.619,6.984 13.375,13.743
	8.514,13.743 4.188,9.416 3.669,9.931 7.482,13.743 4.125,13.743 1.994,11.609 1.477,12.126 3.094,13.743 0,13.743 0,14.474
	3.322,14.474 1.639,16.155 2.156,16.674 4.357,14.474 7.71,14.474 3.835,18.351 4.352,18.868 8.746,14.474 13.375,14.474
	6.667,21.185 7.182,21.702 13.926,14.954 13.926,25.245 13.926,27.817 14.658,27.823 14.658,25.307 14.658,15.021 21.417,21.784
	21.939,21.269 15.139,14.474 19.775,14.474 24.251,18.95 24.77,18.435 20.813,14.474 24.166,14.474 26.449,16.758 26.962,16.241
	25.197,14.474 28.521,14.474 "/>
</svg>
