<?xml version="1.0" encoding="utf-8"?>
<!-- Generator: Adobe Illustrator 15.0.0, SVG Export Plug-In . SVG Version: 6.00 Build 0)  -->
<!DOCTYPE svg PUBLIC "-//W3C//DTD SVG 1.1//EN" "http://www.w3.org/Graphics/SVG/1.1/DTD/svg11.dtd">
<svg version="1.1" id="Layer_1" xmlns="http://www.w3.org/2000/svg" xmlns:xlink="http://www.w3.org/1999/xlink" x="0px" y="0px"
	 width="119.27px" height="119.265px" viewBox="0 0 119.27 119.265" enable-background="new 0 0 119.27 119.265"
	 xml:space="preserve">
<path fill="none" stroke="#FFFFFF" stroke-width="2" stroke-miterlimit="10" d="M56.85,93.859c0.87,0.393,1.77,0.6,2.691,0.6
	c0.033,0,0.062-0.005,0.092-0.005c-0.916-0.015-1.809-0.231-2.674-0.632C56.923,93.833,56.887,93.845,56.85,93.859z"/>
<path fill="none" stroke="#FFFFFF" stroke-width="2" stroke-miterlimit="10" d="M59.633,35.213c-0.03,0-0.06-0.006-0.092-0.006
	c-0.922,0-1.821,0.206-2.691,0.599c0.037,0.011,0.073,0.026,0.109,0.038C57.823,35.443,58.717,35.227,59.633,35.213z"/>
<path fill="none" stroke="#FFFFFF" stroke-width="2" stroke-miterlimit="10" d="M71.373,35.207c-0.908,0-1.807,0.059-2.689,0.17
	c10.224,1.577,18.19,14.162,18.19,29.455c0,15.295-7.967,27.879-18.19,29.457c0.883,0.109,1.781,0.17,2.689,0.17
	c13.931,0,25.225-13.264,25.225-29.627C96.598,48.471,85.304,35.207,71.373,35.207z"/>
<path fill="none" stroke="#FFFFFF" stroke-width="2" stroke-miterlimit="10" d="M68.684,35.377c-0.713-0.111-1.438-0.17-2.171-0.17
	c-1.402,0-2.771,0.206-4.095,0.599c0.457,0.209,0.908,0.469,1.346,0.776c5.422,3.791,9.354,15.004,9.354,28.25
	c0,13.246-3.932,24.461-9.354,28.25c-0.438,0.309-0.889,0.57-1.346,0.777c1.324,0.393,2.692,0.6,4.095,0.6
	c0.733,0,1.458-0.061,2.171-0.17c10.225-1.578,18.189-14.162,18.189-29.457C86.873,49.539,78.908,36.954,68.684,35.377z"/>
<path fill="none" stroke="#FFFFFF" stroke-width="2" stroke-miterlimit="10" d="M62.418,35.806c-0.87-0.393-1.771-0.599-2.691-0.599
	c-0.033,0-0.062,0.006-0.094,0.006c0.917,0.014,1.811,0.231,2.676,0.631C62.344,35.832,62.382,35.817,62.418,35.806z"/>
<path fill="none" stroke="#FFFFFF" stroke-width="2" stroke-miterlimit="10" d="M59.633,94.453c0.032,0,0.062,0.006,0.094,0.006
	c0.921,0,1.821-0.207,2.691-0.6c-0.036-0.013-0.074-0.025-0.11-0.037C61.443,94.223,60.55,94.438,59.633,94.453z"/>
<path fill="none" stroke="#FFFFFF" stroke-width="2" stroke-miterlimit="10" d="M63.645,93.035
	c-0.436,0.312-0.882,0.574-1.337,0.787c0.036,0.012,0.073,0.024,0.11,0.037c0.457-0.207,0.908-0.47,1.346-0.776
	C63.725,93.068,63.686,93.051,63.645,93.035z"/>
<path fill="none" stroke="#FFFFFF" stroke-width="2" stroke-miterlimit="10" d="M55.623,93.035c-0.042,0.017-0.081,0.033-0.12,0.048
	c0.439,0.307,0.888,0.569,1.347,0.776c0.037-0.013,0.073-0.025,0.109-0.037C56.504,93.609,56.059,93.346,55.623,93.035z"/>
<path fill="none" stroke="#FFFFFF" stroke-width="2" stroke-miterlimit="10" d="M55.623,36.629c0.436-0.311,0.881-0.574,1.336-0.785
	c-0.036-0.012-0.072-0.027-0.109-0.038c-0.459,0.208-0.908,0.469-1.347,0.776C55.542,36.598,55.581,36.614,55.623,36.629z"/>
<path fill="none" stroke="#FFFFFF" stroke-width="2" stroke-miterlimit="10" d="M32.393,64.832c0-15.292,7.967-27.877,18.191-29.455
	c-0.884-0.111-1.782-0.17-2.689-0.17c-13.931,0-25.224,13.264-25.224,29.625c0,16.363,11.293,29.627,25.224,29.627
	c0.907,0,1.805-0.061,2.689-0.17C40.359,92.71,32.393,80.126,32.393,64.832z"/>
<path fill="none" stroke="#FFFFFF" stroke-width="2" stroke-miterlimit="10" d="M46.15,64.832c0-13.246,3.93-24.458,9.353-28.25
	c0.439-0.307,0.887-0.568,1.346-0.776c-1.323-0.393-2.693-0.599-4.095-0.599c-0.734,0-1.458,0.059-2.17,0.17
	c-10.225,1.577-18.192,14.162-18.192,29.455c0,15.295,7.967,27.879,18.192,29.457c0.712,0.109,1.436,0.17,2.17,0.17
	c1.402,0,2.772-0.207,4.095-0.6c-0.459-0.207-0.907-0.469-1.346-0.777C50.081,89.292,46.15,78.078,46.15,64.832z"/>
<rect x="57.942" y="24.808" fill="#FFFFFF" width="2.525" height="10.331"/>
<path fill="none" stroke="#FFFFFF" stroke-width="2" stroke-miterlimit="10" d="M1,59.634c0-7.931,1.543-15.606,4.593-22.808
	c2.951-6.976,7.182-13.255,12.581-18.65c5.399-5.398,11.673-9.633,18.651-12.584C44.026,2.547,51.7,1,59.635,1
	c7.93,0.002,15.606,1.547,22.809,4.594c6.978,2.947,13.252,7.184,18.651,12.582c5.396,5.398,9.632,11.674,12.582,18.65
	c3.043,7.202,4.591,14.877,4.593,22.808c0,7.936-1.547,15.609-4.593,22.814c-2.95,6.974-7.182,13.245-12.584,18.647
	c-5.397,5.397-11.669,9.631-18.647,12.584c-7.202,3.043-14.879,4.59-22.81,4.586c-7.938,0.004-15.61-1.543-22.813-4.588
	c-6.976-2.951-13.253-7.185-18.649-12.582c-5.399-5.397-9.631-11.674-12.583-18.65C2.543,75.243,1,67.57,1,59.634"/>
</svg>
