<?xml version="1.0" encoding="utf-8"?>
<!-- Generator: Adobe Illustrator 15.0.0, SVG Export Plug-In . SVG Version: 6.00 Build 0)  -->
<!DOCTYPE svg PUBLIC "-//W3C//DTD SVG 1.1//EN" "http://www.w3.org/Graphics/SVG/1.1/DTD/svg11.dtd">
<svg version="1.1" id="Layer_1" xmlns="http://www.w3.org/2000/svg" xmlns:xlink="http://www.w3.org/1999/xlink" x="0px" y="0px"
	 width="23.537px" height="28.86px" viewBox="0 0 23.537 28.86" enable-background="new 0 0 23.537 28.86" xml:space="preserve">
<path fill="none" stroke="#5d5d5c" stroke-miterlimit="10" d="M21.477,13.891c-1.777-1.064-5.457-1.799-9.709-1.799
	s-7.93,0.735-9.707,1.799c-0.162,0.888-0.211,1.832-0.141,2.808c0.057,0.742,0.182,1.501,0.383,2.264
	c0.627,2.385,1.885,4.373,3.426,5.691c0.236,0.201,0.477,0.385,0.725,0.554c0.352,0.251,0.719,0.484,1.098,0.692
	c0.555,0.305,1.162,0.501,1.734,0.768c0.632,0.293,1.295,0.596,1.85,1.024c0.125,0.094,0.297,0.216,0.323,0.383
	c0.015,0.159,0.149,0.285,0.31,0.285c0.166,0,0.297-0.126,0.311-0.285h0.002c0.025-0.167,0.199-0.289,0.32-0.383
	c0.556-0.429,1.219-0.731,1.851-1.024c0.573-0.267,1.181-0.463,1.735-0.768c0.379-0.207,0.744-0.44,1.095-0.691
	c1.872-1.275,3.429-3.498,4.155-6.246c0.199-0.763,0.326-1.521,0.381-2.264C21.688,15.723,21.639,14.779,21.477,13.891z"/>
<path fill="none" stroke="#5d5d5c" stroke-miterlimit="10" d="M1.494,7.729C1.476,7.748,1.457,7.761,1.439,7.778L1.435,7.782
	C1.455,7.765,1.474,7.748,1.494,7.729z"/>
<path fill="none" stroke="#5d5d5c" stroke-miterlimit="10" d="M13.584,0.504C11.229,0.612,9.51,2.322,9.51,4.548
	c0,0.171,0.013,0.34,0.033,0.505C5.881,5.379,2.871,6.476,1.438,7.775v0.002c0.019-0.016,0,0,0,0s0,0.002-0.003,0.002L1.33,7.886
	C1.307,7.91,1.283,7.933,1.258,7.958C1.233,7.986,1.205,8.021,1.178,8.05C1.156,8.078,1.137,8.103,1.115,8.128
	c-0.025,0.034-0.05,0.067-0.07,0.103L0.986,8.313C0.963,8.351,0.938,8.388,0.918,8.427C0.902,8.453,0.885,8.481,0.869,8.511
	C0.848,8.549,0.828,8.59,0.809,8.631C0.795,8.663,0.781,8.69,0.768,8.72c-0.02,0.044-0.038,0.09-0.055,0.135
	C0.701,8.882,0.69,8.909,0.68,8.939C0.662,8.99,0.646,9.042,0.631,9.094C0.623,9.12,0.613,9.144,0.608,9.168
	C0.588,9.247,0.57,9.326,0.557,9.406C0.52,9.599,0.5,9.797,0.5,10.002c0,0.863,0.336,1.636,0.861,2.153
	c0.586-0.323,1.309-0.627,2.204-0.895c0.519-0.153,1.071-0.29,1.653-0.412c1.931-0.4,4.193-0.615,6.549-0.615
	c2.361,0,4.623,0.215,6.548,0.615c0.584,0.122,1.142,0.259,1.657,0.412c0.725,0.218,1.498,0.511,2.199,0.896
	c0.531-0.517,0.865-1.291,0.865-2.154c0-0.205-0.021-0.404-0.056-0.596c-0.123-0.66-0.444-1.232-0.886-1.631l-0.006-0.01
	c-0.901-0.82-2.42-1.555-4.334-2.068c-0.586-0.156-1.201-0.293-1.854-0.404c-0.82-0.139-1.689-0.24-2.602-0.293
	c-0.276-0.286-0.449-0.654-0.449-1.056c0-0.727,0.557-1.344,1.328-1.565c0.054-0.006,0.107-0.02,0.16-0.036
	c0.377-0.129,0.65-0.477,0.65-0.888c0-0.424-0.289-0.784-0.689-0.898C14.301,0.558,14.125,0.48,13.584,0.504z"/>
</svg>
