<?xml version="1.0" encoding="utf-8"?>
<!-- Generator: Adobe Illustrator 15.0.0, SVG Export Plug-In . SVG Version: 6.00 Build 0)  -->
<!DOCTYPE svg PUBLIC "-//W3C//DTD SVG 1.1//EN" "http://www.w3.org/Graphics/SVG/1.1/DTD/svg11.dtd">
<svg version="1.1" id="Layer_1" xmlns="http://www.w3.org/2000/svg" xmlns:xlink="http://www.w3.org/1999/xlink" x="0px" y="0px"
	 width="119.268px" height="119.27px" viewBox="0 0 119.268 119.27" enable-background="new 0 0 119.268 119.27"
	 xml:space="preserve">
<path fill="none" stroke="#FFFFFF" stroke-width="2" stroke-miterlimit="10" d="M59.637,118.269c-7.934,0-15.607-1.543-22.809-4.593
	c-6.978-2.95-13.257-7.181-18.65-12.581c-5.398-5.397-9.633-11.673-12.584-18.65C2.549,75.245,1,67.57,1,59.635
	c0.004-7.931,1.549-15.606,4.594-22.81c2.949-6.977,7.186-13.252,12.584-18.653c5.398-5.396,11.674-9.631,18.65-12.58
	C44.029,2.549,51.703,1.002,59.637,1c7.934,0,15.609,1.546,22.813,4.593c6.976,2.949,13.244,7.183,18.648,12.583
	c5.396,5.398,9.631,11.671,12.584,18.648c3.043,7.203,4.59,14.879,4.586,22.81c0.004,7.938-1.543,15.61-4.588,22.813
	c-2.951,6.976-7.186,13.252-12.582,18.646c-5.396,5.401-11.674,9.632-18.649,12.585C75.246,116.726,67.57,118.269,59.637,118.269z"
	/>
<path fill="none" stroke="#FFFFFF" stroke-width="2" stroke-miterlimit="10" d="M49.764,43.57c0.539,0.246,1.012,0.597,1.42,1.04
	c-0.031-3.8,1.273-6.988,3.414-9.88l-0.465-0.963c-0.105,0.109-0.217,0.206-0.342,0.287c-1.287,0.809-3.074-0.378-3.994-2.646
	c-0.43-1.06-0.59-2.17-0.512-3.134l-0.347,0.037c-0.346,0.646-1.03,1.262-1.928,1.665c-1.305,0.585-2.652,0.529-3.35-0.06
	c-0.132-0.113-0.351-0.334-0.283-0.104c0.539,1.861,1.617,5.226,1.617,5.226c1,2.154,1.102,5.36,0.825,8.56
	C47.227,43.08,48.582,43.038,49.764,43.57z"/>
<path fill="none" stroke="#FFFFFF" stroke-width="2" stroke-miterlimit="10" d="M43.297,29.445c0.012,0.022,0.031,0.051,0.043,0.077
	C43.273,29.279,43.227,29.283,43.297,29.445z"/>
<path fill="none" stroke="#FFFFFF" stroke-width="2" stroke-miterlimit="10" d="M49.08,26.849c-0.453-1.014-2.062-1.111-3.713-0.535
	c-1.988,0.696-2.332,2.439-2.027,3.208c0.504,0.939,2.117,1.15,3.672,0.455c0.896-0.403,1.582-1.021,1.928-1.665
	C49.211,27.81,49.279,27.291,49.08,26.849z"/>
<path fill="none" stroke="#FFFFFF" stroke-width="2" stroke-miterlimit="10" d="M76.771,42.716
	c-0.201-0.125-0.412-0.239-0.631-0.338c-3.867-1.748-9.022,1.31-11.512,6.828c-0.793,1.755-1.219,3.543-1.31,5.228
	c1.24,0.762,2.382,1.66,3.406,2.678c0.443,0.443,0.867,0.906,1.267,1.388c-0.113-0.137,1.692-1.812,1.887-1.967
	c0.697-0.56,1.492-1.007,2.348-1.275c1.82-0.562,3.771-0.149,5.441,0.689c0.201,0.102,0.397,0.219,0.594,0.343
	c0.129-0.248,0.254-0.5,0.371-0.76C80.982,50.322,80.121,44.792,76.771,42.716z"/>
<path fill="none" stroke="#FFFFFF" stroke-width="2" stroke-miterlimit="10" d="M79.721,37.938c-0.496-1.2-1.396-2.02-2.205-2.091
	c-0.19-0.015-0.377,0.009-0.553,0.082c-0.908,0.375-1.148,1.885-0.535,3.368c0.613,1.487,1.848,2.388,2.756,2.013
	c0.082-0.035,0.156-0.081,0.228-0.134C80.127,40.66,80.279,39.291,79.721,37.938z"/>
<path fill="none" stroke="#FFFFFF" stroke-width="2" stroke-miterlimit="10" d="M51.184,44.61c-0.408-0.443-0.881-0.794-1.42-1.04
	c-1.182-0.532-2.537-0.49-3.94,0.028c-3.154,1.157-6.552,4.718-8.75,9.589c-2.429,5.383-2.688,10.805-0.966,13.829
	c0.031-1.974,0.504-3.929,1.586-5.784c1.742-2.992,3.906-5.046,6.068-6.457c3.291-2.15,6.578-2.809,8.379-3.007
	c0.336-0.039,0.619-0.059,0.842-0.071C53.184,48.673,52.568,46.113,51.184,44.61z"/>
<path fill="none" stroke="#FFFFFF" stroke-width="2" stroke-miterlimit="10" d="M79.41,41.177c-0.07,0.053-0.146,0.099-0.228,0.134
	c-0.908,0.375-2.143-0.526-2.756-2.013c-0.613-1.483-0.373-2.993,0.535-3.368c0.176-0.073,0.361-0.098,0.553-0.082l-0.039-0.108
	c0,0-1.34-0.202-4.598,0.492c-1.127,0.241-2.482,0.585-4.092,1.089c0,0-4.849,1.894-6.058-0.317c0,0-0.686-1.211-2.317,0
	c0,0-1.582,0.685-1.16,3.16c0,0,1.104,3.004,0.315,3.846c0,0-3.506,2.952-5.205,7.691c1.279,0.055,2.525,0.238,3.726,0.538
	c1.871,0.466,3.633,1.212,5.231,2.195c0.091-1.685,0.517-3.473,1.31-5.228c2.488-5.52,7.645-8.576,11.512-6.828
	c0.219,0.099,0.43,0.213,0.631,0.338c0.447-0.096,1.902-0.48,2.654-1.498L79.41,41.177z"/>
<path fill="none" stroke="#FFFFFF" stroke-width="2" stroke-miterlimit="10" d="M59.307,29.841c0,0-1.844-8.586-1.949-9.111
	l-0.018,0.003c0.248,0.932-0.381,2.022-1.512,2.53c-1.23,0.551-2.582,0.202-3.021-0.775c-0.035-0.076,0.017,2.534,0.367,4
	c0.496,0.492,0.945,1.172,1.277,1.995c0.37,0.91,0.539,1.855,0.528,2.716c-0.008,1.075-0.301,2.008-0.85,2.569l0.465,0.963
	c0.127-0.173,0.26-0.345,0.391-0.518c0.482-0.61,0.996-1.21,1.546-1.798c0.858-0.924,1.79-1.765,2.817-2.492L59.307,29.841z"/>
<path fill="none" stroke="#FFFFFF" stroke-width="2" stroke-miterlimit="10" d="M57.34,20.732c-0.021-0.08-0.045-0.162-0.082-0.241
	c-0.438-0.979-1.791-1.326-3.021-0.776c-1.133,0.514-1.766,1.609-1.51,2.545c0.021,0.076,0.047,0.152,0.082,0.228
	c0.438,0.978,1.789,1.326,3.021,0.775C56.959,22.755,57.588,21.665,57.34,20.732z"/>
<path fill="none" stroke="#FFFFFF" stroke-width="2" stroke-miterlimit="10" d="M54.453,28.482
	c-0.332-0.822-0.781-1.503-1.277-1.994c-0.873-0.867-1.896-1.164-2.715-0.65c-0.685,0.432-1.086,1.342-1.176,2.438
	c-0.078,0.964,0.082,2.074,0.512,3.134c0.92,2.269,2.707,3.454,3.994,2.646c0.125-0.081,0.235-0.178,0.342-0.287
	c0.549-0.561,0.842-1.494,0.85-2.568C54.992,30.338,54.824,29.392,54.453,28.482z"/>
<path fill="none" stroke="#FFFFFF" stroke-width="2" stroke-miterlimit="10" d="M63.334,19.335
	c-1.347,0.093-2.379,0.963-2.313,1.945c0.069,0.979,1.214,1.701,2.559,1.609c1.004-0.071,1.836-0.574,2.164-1.234
	c0.108-0.224,0.166-0.465,0.146-0.713C65.822,19.962,64.678,19.24,63.334,19.335z"/>
<path fill="none" stroke="#FFFFFF" stroke-width="2" stroke-miterlimit="10" d="M69.84,31.316c0,0-2.633-1.739-1.738-5.795
	c0,0,1-3.37-2.213-3.847c-0.049-0.005-0.096-0.011-0.146-0.019c-0.328,0.66-1.16,1.163-2.164,1.233
	c-1.345,0.093-2.488-0.629-2.558-1.608c0,0,0.865,6.929-1.397,8.454c-0.095,0.062-0.183,0.126-0.271,0.188
	c-1.026,0.728-1.959,1.569-2.817,2.493c-0.55,0.587-1.063,1.187-1.545,1.797c-0.132,0.173-0.265,0.345-0.392,0.518
	c-2.141,2.892-3.445,6.08-3.414,9.88c1.385,1.503,2,4.063,1.799,7.087c0.357-0.021,0.556-0.017,0.556-0.017
	c0.276,0,0.551,0.007,0.826,0.021c1.698-4.739,5.204-7.691,5.204-7.691c0.789-0.841-0.315-3.845-0.315-3.845
	c-0.422-2.477,1.16-3.161,1.16-3.161c1.633-1.21,2.317,0,2.317,0c1.209,2.211,6.058,0.317,6.058,0.317
	c1.608-0.504,2.965-0.848,4.092-1.089l0.016-0.02C72.895,36.212,73.105,33.95,69.84,31.316z"/>
<path fill="none" stroke="#FFFFFF" stroke-width="2" stroke-miterlimit="10" d="M51.195,98.259c0,1.396,1.132,1.686,2.527,1.686
	h1.633c1.396,0,2.526-0.289,2.526-1.686v-3.814c-2.345-1.037-4.597-2.31-6.688-3.795L51.195,98.259L51.195,98.259z"/>
<path fill="none" stroke="#FFFFFF" stroke-width="2" stroke-miterlimit="10" d="M42.838,82.551
	c-0.104-0.128-0.207-0.262-0.313-0.395c-0.059-0.077-0.119-0.156-0.18-0.232v13.068c0,1.397,1.133,1.685,2.529,1.685h1.631
	c1.396,0,2.529-0.286,2.529-1.685v-6.004c-0.453-0.377-0.898-0.761-1.328-1.157C45.961,86.222,44.316,84.407,42.838,82.551z"/>
<path fill="none" stroke="#FFFFFF" stroke-width="2" stroke-miterlimit="10" d="M83.959,69.382
	c-0.379-3.211-1.058-6.785-2.603-9.652c-0.69-1.287-1.813-2.609-3.096-3.44c-0.195-0.124-0.393-0.241-0.594-0.343
	c-1.672-0.839-3.621-1.252-5.441-0.689c-0.854,0.269-1.649,0.716-2.348,1.275c-0.193,0.155-2,1.83-1.887,1.967
	c-0.398-0.481-0.822-0.944-1.267-1.388c-1.024-1.018-2.166-1.917-3.406-2.678c-1.6-0.982-3.36-1.729-5.231-2.196
	c-1.199-0.299-2.445-0.482-3.726-0.537c-0.274-0.013-0.549-0.021-0.825-0.021c0,0-0.197-0.004-0.556,0.016
	c-0.223,0.013-0.506,0.033-0.842,0.072c-1.801,0.198-5.088,0.855-8.379,3.007c-2.162,1.411-4.326,3.464-6.068,6.458
	c-1.082,1.854-1.555,3.81-1.586,5.783c-0.082,5.324,3.068,10.801,6.238,14.907c0.061,0.076,0.121,0.155,0.18,0.232
	c0.105,0.133,0.209,0.267,0.313,0.395c1.479,1.855,3.123,3.672,4.869,5.28c0.43,0.397,0.875,0.78,1.328,1.157
	c0.696,0.582,1.418,1.131,2.159,1.66c2.091,1.485,4.343,2.758,6.688,3.795c1.002,0.44,2.022,0.843,3.057,1.198
	c1.334,0.462,2.699,0.839,4.082,1.13c3.008,0.631,6.402,0.98,9.394,0.07c5.274-1.611,8.147-8.131,9.037-13.123
	C84.293,78.991,84.525,74.155,83.959,69.382z"/>
<path fill="none" stroke="#FFFFFF" stroke-width="2" stroke-linecap="round" stroke-miterlimit="10" d="M66.25,21.885
	c0,0-0.517,4.206-1.117,6.955"/>
</svg>
