<?xml version="1.0" encoding="utf-8"?>
<!-- Generator: Adobe Illustrator 15.0.0, SVG Export Plug-In . SVG Version: 6.00 Build 0)  -->
<!DOCTYPE svg PUBLIC "-//W3C//DTD SVG 1.1//EN" "http://www.w3.org/Graphics/SVG/1.1/DTD/svg11.dtd">
<svg version="1.1" id="Layer_1" xmlns="http://www.w3.org/2000/svg" xmlns:xlink="http://www.w3.org/1999/xlink" x="0px" y="0px"
	 width="119.269px" height="119.266px" viewBox="0 0 119.269 119.266" enable-background="new 0 0 119.269 119.266"
	 xml:space="preserve">
<path fill="none" stroke="#FFFFFF" stroke-width="2" stroke-miterlimit="10" d="M1,59.635c0-7.932,1.543-15.607,4.593-22.807
	c2.951-6.978,7.182-13.256,12.581-18.65c5.399-5.398,11.673-9.635,18.651-12.586C44.026,2.547,51.7,1,59.635,1
	c7.929,0.004,15.606,1.547,22.809,4.594c6.977,2.947,13.252,7.186,18.651,12.584c5.396,5.396,9.632,11.672,12.582,18.65
	c3.043,7.2,4.59,14.875,4.592,22.807c0,7.936-1.547,15.609-4.592,22.814c-2.95,6.974-7.183,13.245-12.585,18.647
	c-5.396,5.397-11.668,9.631-18.646,12.584c-7.203,3.043-14.879,4.59-22.81,4.586c-7.938,0.004-15.61-1.543-22.813-4.588
	c-6.976-2.951-13.253-7.185-18.649-12.582c-5.399-5.397-9.631-11.674-12.583-18.65C2.543,75.244,1,67.571,1,59.635"/>
<path fill="none" stroke="#FFFFFF" stroke-width="2" stroke-miterlimit="10" d="M59.129,78.696V34.254h-0.024
	c-0.273-4.563-2.904-8.143-6.112-8.143c-0.629,0-1.235,0.137-1.807,0.393c-0.704-0.493-1.561-0.784-2.487-0.784
	c-2.403,0-4.352,1.948-4.352,4.35c0,0.127,0.01,0.254,0.02,0.379c-0.365-0.1-0.744-0.154-1.134-0.154
	c-2.804,0-5.077,2.732-5.077,6.107c0,0.326,0.021,0.643,0.062,0.953c-2.326,0.682-4.078,3.692-4.078,7.303
	c0,0.064,0.003,0.131,0.003,0.193c-2.516,0.442-4.465,3.582-4.465,7.392c0,1.945,0.507,3.713,1.339,5.039
	c-1.594,1.256-2.678,3.725-2.678,6.563c0,2.747,1.014,5.145,2.522,6.438c-0.187,0.779-0.291,1.615-0.291,2.486
	c0,3.27,1.434,6.041,3.428,7.045c0.493,3.065,2.276,5.398,4.463,5.696c1.192,1.668,2.953,3.365,5.127,4.821
	c3.636,2.433,7.458,3.542,10.007,3.132c0.013,0,0.026,0.003,0.04,0.003c3.096,0,5.605-5.513,5.605-12.314
	C59.24,80.311,59.203,79.491,59.129,78.696z"/>
<path fill="none" stroke="#FFFFFF" stroke-width="2" stroke-miterlimit="10" d="M60.025,81.151c0,6.802,2.509,12.313,5.605,12.313
	c0.015,0,0.028-0.002,0.041-0.002c2.548,0.41,6.369-0.699,10.006-3.132c2.175-1.456,3.935-3.153,5.128-4.821
	c2.186-0.298,3.971-2.631,4.463-5.696c1.993-1.004,3.428-3.775,3.428-7.045c0-0.871-0.102-1.707-0.291-2.485
	c1.51-1.294,2.524-3.691,2.524-6.438c0-2.839-1.086-5.307-2.679-6.563c0.831-1.326,1.339-3.094,1.339-5.039
	c0-3.809-1.95-6.949-4.466-7.391c0.001-0.062,0.003-0.129,0.003-0.193c0-3.612-1.753-6.621-4.078-7.303
	c0.04-0.31,0.062-0.627,0.062-0.953c0-3.375-2.271-6.107-5.076-6.107c-0.389,0-0.768,0.054-1.133,0.154
	c0.009-0.125,0.018-0.252,0.018-0.379c0-2.402-1.947-4.35-4.35-4.35c-0.926,0-1.784,0.291-2.489,0.784
	c-0.571-0.256-1.179-0.393-1.808-0.393c-3.207,0-5.838,3.58-6.109,8.143h-0.026v44.441C60.063,79.491,60.025,80.311,60.025,81.151z"
	/>
</svg>
