<?xml version="1.0" encoding="utf-8"?>
<!-- Generator: Adobe Illustrator 15.0.0, SVG Export Plug-In . SVG Version: 6.00 Build 0)  -->
<!DOCTYPE svg PUBLIC "-//W3C//DTD SVG 1.1//EN" "http://www.w3.org/Graphics/SVG/1.1/DTD/svg11.dtd">
<svg version="1.1" id="Layer_1" xmlns="http://www.w3.org/2000/svg" xmlns:xlink="http://www.w3.org/1999/xlink" x="0px" y="0px"
	 width="53.347px" height="53.264px" viewBox="0 0 53.347 53.264" enable-background="new 0 0 53.347 53.264" xml:space="preserve">
<path fill="#FFFFFF" d="M12.911,48.054c0.003-0.002,0.181-0.229,1.618,0.164c4.636,1.267,10.034,2.472,15.444,0.674
	c0.104-0.032,0.178-0.118,0.198-0.227c0.069-0.353-0.53-0.994-0.536-1c-0.309-0.26-0.684-0.312-1.016-0.357l-0.161-0.021
	c-0.847-0.129-1.65-0.342-2.501-0.564l-0.171-0.045c-2.772-0.728-5.226-1.877-7.717-3.616c-0.368-0.397-0.698-0.953-0.595-1.134
	c0.018-0.025,0.186-0.256,1.347,0.012c0.331,0.178,3,1.457,8.935,0.001c0.101-0.041,1.068-0.304,1.161-0.938
	c0.06-0.398-0.223-0.785-0.867-1.188l-0.073-0.03c-0.049-0.008-5.012-1.063-6.672-3.351c-0.136-0.186-0.375-0.637-0.247-0.856
	c0.109-0.185,0.521-0.247,1.144-0.168c0.193,0.013,4.744,0.267,5.683-1.513c0.059-0.068,0.161-0.229,0.13-0.469
	c-0.059-0.446-0.542-0.895-1.459-1.358c-0.009-0.006-0.436-0.28-0.824-0.707c-0.356-0.07-0.699-0.172-1.025-0.313
	c-0.723-0.313-1.357-0.798-1.851-1.406c0.047,0.517,0.283,1.013,0.506,1.471c0.166,0.339,0.322,0.659,0.407,0.979
	c0.124,0.471,0.075,0.852-0.14,1.104c-0.221,0.26-0.623,0.376-1.13,0.325c-1.132-0.111-2.022-0.685-2.964-1.293
	c-0.248-0.159-0.498-0.321-0.754-0.477c-0.786-0.47-1.347-0.575-1.715-0.317c-0.484,0.337-0.349,1.125-0.331,1.217
	c0.66,3.135,3.902,6.347,4.018,6.458c0.698,0.917-0.45,1.09-1.173,0.968c-0.766-0.13-1.475-0.553-2.152-0.911
	c-1.398-0.743-2.751-1.575-3.966-2.594c-0.43-0.362-0.841-0.76-1.254-1.219l-0.034-0.039c-0.304-0.336-0.81-0.909-1.418-0.693
	c-0.729,0.251-0.365,1.455-0.209,1.97l0.022,0.076c1.466,4.957,6.986,9.059,7.42,9.376c0.373,0.412,0.397,0.606,0.375,0.646
	c-0.063,0.109-0.553,0.134-0.979,0.052c-7.56-2.558-11.552-7.353-11.605-7.416c-1.193-1.194-1.582-1.224-1.822-1.076
	c-0.32,0.194-0.182,0.724-0.137,0.86c0.215,1.043,0.682,2.146,1.278,3.232c3.525,4.838,8.637,8.452,14.563,10.069
	c-2.216-0.951-4.781-2.228-6.271-3.579C13.073,48.515,12.862,48.14,12.911,48.054"/>
<path fill="#FFFFFF" d="M14.731,4.359c0.078,0.44-1.182,1.525-1.595,1.882c-0.126,0.109-0.222,0.192-0.274,0.242
	c-2.441,2.41-5.372,5.72-6.369,9.953c-0.188,0.795-0.226,1.818,0.281,2.075c0.496,0.251,1.054-0.398,1.241-0.617
	c1.097-1.373,2.123-2.489,3.136-3.415c1.383-1.269,2.773-2.24,4.25-2.974c0.071-0.035,0.152-0.078,0.243-0.125
	c0.59-0.31,1.821-0.955,2.262-0.471c0.494,0.537-0.623,1.646-1.1,2.121l-0.157,0.156c-1.563,1.604-2.522,3.106-3.114,4.874
	c-0.008,0.025-0.776,2.551-0.002,3.091c0.273,0.189,0.644,0.098,1.103-0.271c0.476-0.381,0.941-0.819,1.388-1.246
	c1.112-1.052,2.268-2.136,3.72-2.508c0.582-0.148,1.071-0.061,1.338,0.236c0.263,0.289,0.295,0.76,0.092,1.321
	c-0.151,0.419-0.344,0.817-0.53,1.201c-0.387,0.8-0.787,1.625-0.812,2.644c-0.018,0.708,0.138,1.168,0.477,1.402
	c0.547,0.383,1.382,0.049,2.191-0.272c0.11-0.043,0.219-0.086,0.324-0.127c0.33-0.412,0.726-0.772,1.176-1.061
	c0.467-0.302,0.992-0.529,1.558-0.658c-0.402-0.189-0.834-0.273-1.259-0.352c-0.603-0.112-1.172-0.219-1.631-0.627
	c-0.213-0.189-0.303-0.388-0.275-0.612c0.093-0.722,1.273-1.666,3.511-2.802l0.137-0.071c0.482-0.249,1.076-0.752,1.159-1.354
	c0.037-0.26-0.01-0.654-0.439-1.056c-1.117-1.043-2.87-0.682-4.15-0.418c-0.565,0.116-1.127,0.277-1.671,0.433
	c-0.784,0.223-1.596,0.455-2.409,0.552c-0.304,0.037-0.568-0.011-0.641-0.118c-0.05-0.071-0.022-0.213,0.07-0.389
	c0.545-1.039,1.608-1.872,2.674-2.62c1.071-0.749,2.308-1.392,3.784-1.964c0.692-0.268,1.451-0.518,2.256-0.736
	c0.437-0.115,0.9-0.63,0.858-1.108c-0.129-1.509-2.743-1.344-3.727-1.281l-0.077,0.007c-2.244,0.137-4.465,0.725-6.65,1.305
	c-0.856,0.228-1.745,0.483-2.637,0.759c-0.603,0.164-0.827,0.086-0.863,0.023c-0.086-0.159,0.194-0.74,0.847-1.324
	c3.321-2.972,6.137-3.929,9.119-4.944c0.905-0.308,1.84-0.625,2.811-1.005l0.118-0.046c0.517-0.193,1.084-0.433,1.25-0.817
	c0.063-0.145,0.065-0.299,0.004-0.447C27.534,0.338,27.06,0.11,26.497,0C19.882,0.043,13.832,2.505,9.188,6.543
	c3.222-2.112,5.139-2.286,5.429-2.298C14.719,4.293,14.729,4.34,14.731,4.359"/>
<path fill="#FFFFFF" d="M0.821,26.571c0.248-0.987,0.475-1.019,0.474-1.021c0.053-0.005,0.173,0.123,0.223,0.217
	c0.19,0.686,0.386,1.367,0.584,2.049c0.053,0.183,0.104,0.356,0.157,0.532c0.584,1.976,1.136,3.667,1.837,5.326
	c1.083,2.554,2.43,4.515,4.12,5.994c0.783,0.685,1.159,0.709,1.337,0.661c0.045-0.012,0.079-0.029,0.102-0.04
	c0.323-0.175,0.265-0.636,0.247-0.785c-0.106-0.815-0.355-1.603-0.597-2.366c-0.061-0.191-0.121-0.381-0.179-0.572
	c-0.255-0.836-0.482-1.592-0.685-2.351c-0.541-2.045-1.14-5.082-0.087-7.86c0.091-0.238,0.2-0.363,0.267-0.383
	c0.032-0.007,0.075,0.008,0.125,0.051c0.286,0.222,0.427,0.618,0.563,1.001l0.05,0.141c0.088,0.24,0.173,0.48,0.259,0.722
	c0.121,0.336,0.24,0.675,0.364,1.009c0.239,0.645,0.493,1.265,0.756,1.851c0.582,1.294,1.334,2.771,2.507,3.92
	c0.399,0.391,1.088,0.882,1.706,0.968c0.349,0.049,0.547-0.079,0.653-0.191c0.354-0.384,0.18-1.162,0.077-1.631l-0.035-0.152
	c-0.428-1.965-0.913-4.193-0.479-6.19c0.115-0.527,0.304-0.909,0.503-1.021c0.073-0.043,0.149-0.048,0.24-0.015
	c0.59,0.202,1.096,1.061,1.467,1.686l0.175,0.297c0.683,1.122,1.455,2.393,2.944,2.71c0.329,0.069,0.61,0.022,0.835-0.147
	c0.524-0.392,0.592-1.332,0.654-2.164c0.016-0.222,0.033-0.439,0.056-0.631c0.025-0.197,0.059-0.367,0.111-0.477
	c0.17-0.364,0.375-0.623,0.61-0.802c0.002,0.024,0.001,0.048,0.005,0.072c0.044,0.43,0.16,0.835,0.331,1.208
	c0.033,0.072,0.071,0.14,0.106,0.209c0.387,0.726,0.99,1.308,1.717,1.666c0.061,0.031,0.126,0.056,0.189,0.082
	c0.389,0.168,0.809,0.279,1.249,0.308c0.118,0.01,0.235,0.014,0.355,0.013c0.109-0.001,0.22-0.008,0.333-0.021
	c0.485-0.05,0.938-0.192,1.349-0.4c0.1-0.051,0.192-0.107,0.286-0.164c0.38-0.234,0.717-0.525,0.992-0.867
	c0.061-0.076,0.112-0.156,0.166-0.238c0.436,0.03,0.888-0.127,1.351-0.457c0.062-0.041,0.118-0.074,0.178-0.123
	c0.286-0.23,0.56-0.568,0.849-0.926c0.049-0.061,0.102-0.132,0.153-0.209c0.009-0.011,0.017-0.021,0.025-0.034
	c0.668-0.975,1.483-1.581,2.104-0.19c0.409,0.917,0.475,1.929,0.486,2.921c0.007,0.781-0.175,1.854,0.322,2.523
	c0.048,0.062,0.1,0.116,0.162,0.16c0.217,0.156,0.496,0.176,0.83,0.051c1.406-0.524,2.252-1.906,2.953-3.534l0.185,0.247
	c0,0,0.729,1.085,1.368,0.203c0,0,0.015-0.02,0.033-0.056c0.166-0.276,0.174-0.659,0.146-0.993c-0.032-0.455-0.18-1.076-0.561-1.882
	c-0.032-0.129-0.057-0.256-0.07-0.375c0.05-0.13,0.097-0.257,0.144-0.374c0.097-0.234,0.185-0.363,0.259-0.431
	c0.043-0.008,0.08-0.018,0.129-0.018c0.045,0,0.088,0.013,0.129,0.033c0.261,0.224,0.578,0.91,0.787,1.561
	c0,0,0.347,0.648,0.824,0.631c0.161-0.005,0.338-0.084,0.518-0.287c0.476-0.532,0.262-1.643,0.125-2.277
	c-0.322-1.47-1.065-3.02-1.885-4.277c-0.647-1-1.728-2.284-2.987-2.466c-0.349-0.052-0.546,0.075-0.653,0.19
	c-0.352,0.382-0.18,1.162-0.076,1.63l0.033,0.154c0.459,2.068,0.719,4.208,0.449,6.323c-0.072,0.567-0.153,1.172-0.374,1.704
	c-0.127,0.302-0.462,1.014-0.899,0.834c-0.263-0.106-0.441-0.869-0.543-1.112c-0.326-0.787-0.49-1.634-0.789-2.43
	c-0.484-1.29-1.256-2.48-2.692-2.785c-0.33-0.07-0.61-0.023-0.834,0.147c-0.524,0.392-0.595,1.332-0.654,2.163
	c-0.006,0.096-0.017,0.189-0.022,0.28c-0.027,0.343-0.063,0.645-0.14,0.817c-0.002,0.005-0.004,0.01-0.006,0.014
	c-0.013,0.024-0.022,0.045-0.036,0.067c-0.186,0.366-0.404,0.625-0.658,0.79c0.027-0.266,0.039-0.538,0.01-0.814
	c-0.043-0.384-0.139-0.75-0.278-1.09c-0.034-0.078-0.072-0.155-0.108-0.231c-0.367-0.735-0.947-1.333-1.66-1.711
	c-0.08-0.044-0.164-0.08-0.25-0.118c-0.394-0.174-0.819-0.288-1.264-0.323c-0.134-0.01-0.268-0.013-0.403-0.012
	c-0.106,0.003-0.211,0.008-0.317,0.019c-0.485,0.052-0.938,0.193-1.35,0.401c-0.126,0.065-0.248,0.135-0.367,0.212
	c-0.361,0.236-0.682,0.529-0.944,0.867c-0.07,0.089-0.134,0.181-0.197,0.276c-0.436,0.004-0.889,0.185-1.353,0.546
	c-0.019,0.013-0.036,0.024-0.056,0.04c-0.284,0.229-0.558,0.568-0.847,0.925c-0.451,0.556-0.964,1.188-1.386,1.147
	c-0.245-0.025-0.499-0.278-0.751-0.755c-0.462-0.875-0.694-1.955-0.711-3.305c-0.002-0.088,0.004-0.204,0.01-0.335
	c0.028-0.665,0.065-1.576-0.416-1.923c-0.216-0.158-0.495-0.177-0.83-0.052c-1.983,0.74-3.03,3.604-3.796,5.693
	c-0.143,0.391-0.275,0.754-0.402,1.07c-0.154,0.381-0.298,0.505-0.375,0.498c-0.362-0.035-0.95-1.482-1.114-2.334
	c-0.43-2.255-0.061-4.695,0.352-6.762c0.125-0.399,0.492-1.73-0.034-2.073c-0.385-0.253-0.934,0.157-1.288,0.467
	c-0.137,0.089-3.38,2.283-4.804,10.926c-0.122,0.611-0.288,0.776-0.359,0.782c-0.176,0.006-0.569-0.502-0.812-1.35
	c-0.076-0.264-0.142-0.528-0.201-0.794c-0.848-3.823,0.013-7.728,0.884-10.756c0.017-0.062,0.058-0.172,0.109-0.313
	c0.407-1.122,0.805-2.361,0.397-2.862c-0.098-0.116-0.281-0.246-0.608-0.196l-0.038,0.005L4.91,12.758
	c-0.076,0.042-0.973,0.549-2.185,2.176C0.982,18.478,0,22.461,0,26.671c0,2.385,0.316,4.699,0.907,6.9
	C0.248,29.621,0.623,27.362,0.821,26.571 M24.718,25.071c0.221-0.285,0.498-0.513,0.822-0.676c0.269-0.136,0.553-0.22,0.845-0.251
	c0.152-0.016,0.303-0.015,0.45-0.004c0.335,0.027,0.654,0.119,0.947,0.276c0.499,0.263,0.893,0.695,1.107,1.216
	c0.092,0.22,0.152,0.45,0.176,0.681c0.025,0.248,0.014,0.494-0.033,0.732c-0.078,0.383-0.247,0.746-0.492,1.051
	c-0.213,0.267-0.49,0.49-0.801,0.647c-0.268,0.137-0.552,0.221-0.845,0.252c-0.078,0.009-0.157,0.012-0.235,0.012
	c-0.065,0-0.131-0.002-0.195-0.007c-0.312-0.023-0.616-0.106-0.9-0.245c-0.504-0.248-0.909-0.665-1.141-1.174
	c-0.111-0.241-0.182-0.497-0.209-0.757c-0.007-0.067-0.009-0.135-0.011-0.202C24.19,26.064,24.372,25.512,24.718,25.071"/>
<path fill="#FFFFFF" d="M52.528,27.253c-0.05,0.196-0.183,0.976-0.482,0.986c-0.252,0.01-0.313-0.526-0.364-0.707
	c-0.202-0.709-0.366-1.432-0.612-2.128c-0.004-0.019-0.011-0.039-0.017-0.058c-0.57-1.921-1.112-3.574-1.8-5.196
	c-1.082-2.554-2.43-4.516-4.119-5.996c-0.987-0.86-1.327-0.678-1.438-0.618c-0.325,0.173-0.266,0.632-0.247,0.783
	c0.105,0.815,0.354,1.603,0.598,2.365c0.059,0.191,0.119,0.384,0.178,0.574c0.255,0.837,0.482,1.59,0.686,2.351
	c0.534,2.023,1.123,5.016,0.116,7.768c-0.438,1.197-0.771,2.387-1.339,3.541c-0.337,0.686-0.712,1.355-1.117,2.006
	c-0.381,0.613-0.857,1.167-1.064,1.873c-0.133,0.441-0.307,1.291,0.164,1.597c0.39,0.254,0.936-0.155,1.289-0.465
	c0.088-0.058,1.49-1.012,2.851-4.04c1.216-2.402,2.115-2.339,2.115-2.339c1.62,0.26,1.343,2.944,1.343,2.944l0.021-0.084
	c-0.229,1.696-0.631,3.299-1.037,4.711c-0.018,0.061-0.059,0.172-0.109,0.313c-0.406,1.122-0.805,2.359-0.396,2.859
	c0.512,0.628,1.717-0.117,2.084-0.592l0.377-0.483c2.004-3.744,3.142-8.015,3.142-12.549c0-2.727-0.412-5.358-1.177-7.836
	C53.186,23.672,52.747,26.373,52.528,27.253 M49.308,28.327c-0.556-0.854-1.229-1.058-2.009-0.597l-0.266,0.156l0.071-0.299
	c0.204-0.843,0.382-1.721,0.527-2.607c0.114-0.574,0.286-0.887,0.487-0.889c0.297,0,0.707,0.633,0.938,1.444
	c0.246,0.854,0.405,1.739,0.49,2.709l0.046,0.52L49.308,28.327z"/>
<path fill="#FFFFFF" d="M39.616,3.963c0.315,0.231,1.057,0.771,0.89,1.121c-0.052,0.107-0.377,0.295-2.324-0.218
	c-0.124-0.034-0.221-0.058-0.28-0.073c-2.875-0.621-6.137-1.329-9.449-1.254c-1.339,0.03-4.513,0.195-5.065,1.08
	c-0.116,0.187-0.129,0.394-0.033,0.603c0.298,0.654,1.285,0.831,1.941,0.949l0.195,0.035c2.664,0.514,5.05,1.03,7.259,2.148
	c0.65,0.33,3.094,1.847,3.15,2.711c0.006,0.09-0.011,0.211-0.195,0.337c-0.283,0.192-0.683,0.09-1.067-0.012
	c-0.149-0.037-0.296-0.075-0.431-0.096c-4.102-0.657-5.955-0.659-8.627-0.004c-0.313,0.065-1.014,0.324-1.153,0.855
	c-0.062,0.239-0.033,0.461,0.089,0.663c0.345,0.571,1.337,0.802,2.064,0.972c0.173,0.041,0.326,0.076,0.433,0.109
	c1.444,0.456,2.551,0.945,3.479,1.539c0.699,0.449,1.188,0.885,1.539,1.368c0.135,0.186,0.373,0.639,0.246,0.856
	c-0.109,0.184-0.52,0.246-1.143,0.167c-1.467-0.088-3.586-0.096-5.077,0.853c-0.399,0.255-0.605,0.558-0.613,0.899
	c-0.013,0.637,0.66,1.192,1.319,1.653c0.262,0.182,0.485,0.362,0.677,0.541c0.416,0.069,0.816,0.185,1.194,0.354
	c0.72,0.324,1.35,0.823,1.836,1.442c-0.031-0.545-0.221-1.03-0.313-1.226c-0.082-0.181-0.207-0.382-0.342-0.596
	c-0.529-0.842-0.863-1.474-0.31-1.92c0.411-0.331,1.213-0.287,2.317,0.135c0.74,0.282,1.43,0.713,2.096,1.131
	c0.211,0.131,0.422,0.264,0.634,0.392c0.787,0.471,1.347,0.578,1.716,0.319c0.482-0.338,0.348-1.126,0.33-1.218
	c-0.658-3.134-3.9-6.344-4.016-6.457c-0.228-0.297-0.315-0.539-0.246-0.662c0.134-0.235,0.822-0.28,1.216-0.241
	c0.843,0.209,1.702,0.535,2.554,0.971c1.385,0.707,2.65,1.537,3.766,2.47c0.431,0.36,0.841,0.758,1.256,1.217l0.031,0.038
	c0.306,0.339,0.807,0.903,1.42,0.696c0.729-0.25,0.365-1.457,0.209-1.97l-0.022-0.076c-0.231-0.786-0.571-1.567-1.032-2.389
	c-1.298-2.308-3.262-4.514-5.835-6.564c-0.671-0.533-0.928-0.939-0.895-1.057c0.007-0.026,0.075-0.084,0.284-0.11
	c1.572-0.214,3.277,0.804,4.648,1.623l0.299,0.177c2.696,1.598,5.16,3.503,7.321,5.663c1.192,1.194,1.579,1.221,1.819,1.077
	c0.32-0.197,0.182-0.727,0.138-0.86c-0.19-0.927-0.58-1.899-1.082-2.866c-3.224-4.536-7.828-8.026-13.194-9.851
	c1.514,0.7,2.986,1.512,4.262,2.471L39.616,3.963z"/>
<path fill="#FFFFFF" d="M38.604,48.868c-0.078-0.438,1.183-1.524,1.595-1.881c0.127-0.108,0.223-0.193,0.272-0.242
	c2.441-2.411,5.373-5.722,6.37-9.952c0.188-0.798,0.228-1.819-0.28-2.075c-0.494-0.251-1.054,0.398-1.242,0.617
	c-5.334,6.667-9.186,7.012-9.254,7.02c-0.791,0.164-0.894,0.012-0.896,0.012c-0.079-0.153,0.356-0.781,0.914-1.31
	c1.413-1.649,2.962-3.64,3.715-5.889c0.009-0.026,0.778-2.55,0.003-3.089c-0.273-0.192-0.646-0.102-1.104,0.27
	c-0.475,0.381-0.938,0.82-1.387,1.245c-1.113,1.051-2.27,2.137-3.721,2.508c-0.582,0.147-1.07,0.062-1.339-0.235
	c-0.262-0.289-0.294-0.758-0.091-1.321c0.15-0.419,0.343-0.818,0.531-1.202c0.386-0.799,0.785-1.626,0.812-2.643
	c0.017-0.709-0.139-1.168-0.478-1.402c-0.547-0.382-1.383-0.048-2.191,0.271c-0.178,0.07-0.354,0.14-0.52,0.198
	c-0.324,0.372-0.703,0.697-1.129,0.957c-0.481,0.296-1.021,0.511-1.598,0.625c0.144,0.093,0.299,0.181,0.469,0.259
	c0.335,0.153,0.782,0.25,1.212,0.342c0.688,0.149,1.469,0.318,1.619,0.705c0.088,0.229-0.027,0.566-0.343,1.008
	c-0.616,0.863-2.11,1.631-3.1,2.137l-0.154,0.08c-0.481,0.249-1.076,0.753-1.159,1.354c-0.037,0.262,0.011,0.655,0.439,1.057
	c1.313,1.224,3.824,0.539,6.042-0.065c0.907-0.246,1.763-0.478,2.388-0.53c0.352-0.026,0.477,0.039,0.496,0.084
	c0.109,0.248-0.538,1.146-1.413,1.961c-2.248,2.093-5.288,3.23-7.478,3.828c-0.084,0.043-0.829,0.418-0.812,1.031
	c0.014,0.469,0.455,0.875,1.348,1.244l0.043,0.014c0.136,0.023,3.38,0.59,11.708-1.988c0.601-0.164,0.826-0.086,0.859-0.022
	c0.088,0.159-0.191,0.74-0.844,1.323c-3.321,2.971-6.139,3.93-9.12,4.945c-0.905,0.307-1.84,0.623-2.812,1.006l-0.117,0.043
	c-0.518,0.193-1.083,0.434-1.249,0.817c-0.064,0.146-0.066,0.3-0.006,0.447c0.457,1.112,2.923,0.812,3.826,0.763
	c0.086-0.005,0.172-0.012,0.256-0.018c5.758-0.652,10.967-3.143,15.021-6.869c-3.563,2.473-5.686,2.665-5.992,2.68
	C38.617,48.934,38.608,48.888,38.604,48.868"/>
</svg>
