<?xml version="1.0" encoding="utf-8"?>
<!-- Generator: Adobe Illustrator 15.0.0, SVG Export Plug-In . SVG Version: 6.00 Build 0)  -->
<!DOCTYPE svg PUBLIC "-//W3C//DTD SVG 1.1//EN" "http://www.w3.org/Graphics/SVG/1.1/DTD/svg11.dtd">
<svg version="1.1" id="Layer_1" xmlns="http://www.w3.org/2000/svg" xmlns:xlink="http://www.w3.org/1999/xlink" x="0px" y="0px"
   width="68.82px" height="68.817px" viewBox="0 0 68.82 68.817" enable-background="new 0 0 68.82 68.817" xml:space="preserve">
<path fill="none" stroke="#5d5d5c" stroke-miterlimit="10" d="M39.035,51.894c8.115-2.059,14.121-9.412,14.121-18.17
  c0-10.35-8.393-18.744-18.746-18.744c-10.352,0-18.744,8.394-18.744,18.744c0,0.649,0.031,1.288,0.096,1.917"/>
<path fill="none" stroke="#5d5d5c" stroke-miterlimit="10" d="M49.814,29.505c-1.852-6.771-8.045-11.746-15.404-11.746
  c-7.357,0-13.553,4.975-15.402,11.746"/>
<path fill="none" stroke="#5d5d5c" stroke-miterlimit="10" d="M23.869,43.937c-4.424,0-8.012-3.586-8.012-8.014
  c0-4.423,3.588-8.01,8.012-8.01V43.937z"/>
<path fill="none" stroke="#5d5d5c" stroke-miterlimit="10" d="M45,43.937c4.424,0,8.012-3.586,8.012-8.014
  c0-4.423-3.588-8.01-8.012-8.01V43.937z"/>
<path fill="none" stroke="#5d5d5c" stroke-miterlimit="10" d="M39.121,52.45c0,0.768-0.623,1.39-1.391,1.39H31.09
  c-0.768,0-1.391-0.622-1.391-1.39v-1.313c0-0.769,0.623-1.39,1.391-1.39h6.641c0.768,0,1.391,0.621,1.391,1.39V52.45z"/>
</svg>
