<?xml version="1.0" encoding="utf-8"?>
<!-- Generator: Adobe Illustrator 15.0.0, SVG Export Plug-In . SVG Version: 6.00 Build 0)  -->
<!DOCTYPE svg PUBLIC "-//W3C//DTD SVG 1.1//EN" "http://www.w3.org/Graphics/SVG/1.1/DTD/svg11.dtd">
<svg version="1.1" id="Layer_1" xmlns="http://www.w3.org/2000/svg" xmlns:xlink="http://www.w3.org/1999/xlink" x="0px" y="0px"
	 width="80.034px" height="91.168px" viewBox="0 0 80.034 91.168" enable-background="new 0 0 80.034 91.168" xml:space="preserve">
<path fill="none" stroke="#FFFFFF" stroke-width="2" stroke-linecap="round" stroke-miterlimit="10" d="M65.911,56.331
	c-0.49,0.254-0.681,0.854-0.429,1.345c0.257,0.487,0.854,0.679,1.345,0.427c0.489-0.253,0.682-0.854,0.426-1.344
	C67.001,56.269,66.398,56.079,65.911,56.331z"/>
<path fill="none" stroke="#FFFFFF" stroke-width="2" stroke-linecap="round" stroke-miterlimit="10" d="M65.339,54.145
	c-0.694,0.518-1.918,4.037-1.918,4.037s1.045,1.703,4.164,1.853"/>
<path fill="none" stroke="#FFFFFF" stroke-width="2" stroke-miterlimit="10" d="M36.828,43.216c3.343,4.555,6.191,0,6.191,0
	s3.81-6.135,1.121-11.279c0,0,2.465,1.781,2.688,5.936c-0.222-4.091,4.172-5.776,7.394-7.124c0,0-9.41,3.959-7.843,14.051
	c0,0,4.705,4.551,6.72-2.375c0,0,0.002-2.573-0.894-3.363c0,0,2.463-1.189,2.463,4.154c0,0,5.836-3.207,4.563-7.948
	c0,0,1.349,1.156,1.233,3.815l4.47,1.426l-4.933,0.926c0,0-6.476,3.392-2.196,4.75c0,0,3.36,0.396,4.705-1.188
	c0,0-0.449,1.979-2.466,2.573c0,0,2.912,2.967-0.896,5.738c1.007-0.733,1.054-3.744,0.263-4.627
	c-0.41-0.453-0.981-0.688-1.623-0.771c-1.601-0.206-3.625,0.538-4.58,1.21c-1.653,1.162-2.961,2.981-3.93,4.612
	c-2.718,4.576-3.615,10.101-3.615,15.211c0,11.695,6.832,22.058,12.142,21.173"/>
<path fill="none" stroke="#FFFFFF" stroke-width="2" stroke-linecap="round" stroke-miterlimit="10" d="M65.86,22.589
	c-0.758,0.066-1.437-0.471-1.522-1.204c-0.084-0.736,0.461-1.387,1.222-1.454c0.756-0.072,1.438,0.467,1.521,1.202
	C67.164,21.864,66.62,22.519,65.86,22.589z"/>
<path fill="none" stroke="#FFFFFF" stroke-width="2" stroke-linecap="round" stroke-miterlimit="10" d="M64.271,21.679l-5.097,0.465
	c0,0-0.215,1.553-6.008,2.851"/>
<path fill="none" stroke="#FFFFFF" stroke-width="2" stroke-linecap="round" stroke-miterlimit="10" d="M59.175,22.144
	c0,0-2.235-0.561-7.854,0.529"/>
<path fill="none" stroke="#FFFFFF" stroke-width="2" stroke-linecap="round" stroke-miterlimit="10" d="M66.882,25.465
	c-1.199-0.083-5.31-3.157-5.31-3.157s-0.104-2.674,3.377-5.103"/>
<path fill="none" stroke="#FFFFFF" stroke-width="2" stroke-linecap="round" stroke-miterlimit="10" d="M58.933,14.535
	c-0.604-0.293-0.881-1.009-0.613-1.605c0.267-0.598,0.976-0.846,1.586-0.554c0.607,0.287,0.882,1.004,0.615,1.601
	C60.252,14.571,59.541,14.824,58.933,14.535z"/>
<path fill="none" stroke="#FFFFFF" stroke-width="2" stroke-linecap="round" stroke-miterlimit="10" d="M58.136,13.124l-4.088-1.949
	c0,0-0.867,1.084-5.858-0.545"/>
<path fill="none" stroke="#FFFFFF" stroke-width="2" stroke-linecap="round" stroke-miterlimit="10" d="M54.048,11.175
	c0,0-1.446-1.437-6.217-3.147"/>
<path fill="none" stroke="#FFFFFF" stroke-width="2" stroke-linecap="round" stroke-miterlimit="10" d="M58.409,17.183
	c-0.873-0.604-2.61-4.799-2.61-4.799s1.129-2.082,4.877-2.357"/>
<path fill="none" stroke="#FFFFFF" stroke-width="2" stroke-linecap="round" stroke-miterlimit="10" d="M61.319,28.909
	c-0.381,0.33-0.955,0.288-1.283-0.092c-0.332-0.382-0.288-0.957,0.093-1.286c0.379-0.331,0.955-0.288,1.285,0.093
	C61.741,28.004,61.7,28.579,61.319,28.909z"/>
<path fill="none" stroke="#FFFFFF" stroke-width="2" stroke-linecap="round" stroke-miterlimit="10" d="M60.112,29.007l-2.558,2.215
	c0,0,0.485,0.957-2.127,3.908"/>
<path fill="none" stroke="#FFFFFF" stroke-width="2" stroke-linecap="round" stroke-miterlimit="10" d="M57.556,31.222
	c0,0-1.424,0.543-4.022,3.31"/>
<path fill="none" stroke="#FFFFFF" stroke-width="2" stroke-linecap="round" stroke-miterlimit="10" d="M62.983,30.136
	c-0.676,0.412-4.076,0.26-4.076,0.26s-1.096-1.463-0.164-4.164"/>
<path fill="none" stroke="#FFFFFF" stroke-width="2" stroke-linecap="round" stroke-miterlimit="10" d="M47.513,16.741
	c-0.062,0.701,0.453,1.32,1.151,1.383c0.703,0.063,1.324-0.454,1.386-1.154c0.063-0.7-0.453-1.321-1.154-1.382
	C48.195,15.524,47.576,16.041,47.513,16.741z"/>
<path fill="none" stroke="#FFFFFF" stroke-width="2" stroke-linecap="round" stroke-miterlimit="10" d="M48.386,18.19l-0.422,4.711
	c0,0-1.483,0.231-2.699,5.602"/>
<path fill="none" stroke="#FFFFFF" stroke-width="2" stroke-linecap="round" stroke-miterlimit="10" d="M47.964,22.901
	c0,0,0.545,2.057-0.476,7.264"/>
<path fill="none" stroke="#FFFFFF" stroke-width="2" stroke-linecap="round" stroke-miterlimit="10" d="M44.763,15.854
	c0.084,1.104,3.033,4.84,3.033,4.84s2.555,0.047,4.858-3.216"/>
<circle fill="none" stroke="#FFFFFF" stroke-width="2" stroke-linecap="round" stroke-miterlimit="10" cx="74.292" cy="25.357" r="1.371"/>
<path fill="none" stroke="#FFFFFF" stroke-width="2" stroke-linecap="round" stroke-miterlimit="10" d="M73.396,26.558l-2.19,4.601
	c0,0-1.584-0.322-4.822,4.65"/>
<path fill="none" stroke="#FFFFFF" stroke-width="2" stroke-linecap="round" stroke-miterlimit="10" d="M71.204,31.158
	c0,0-0.22,2.282-3.192,7.161"/>
<path fill="none" stroke="#FFFFFF" stroke-width="2" stroke-linecap="round" stroke-miterlimit="10" d="M70.606,22.843
	c-0.328,1.146,1.256,6.023,1.256,6.023s2.56,1.002,6.109-1.432"/>
<path fill="none" stroke="#FFFFFF" stroke-width="2" stroke-linecap="round" stroke-miterlimit="10" d="M75.603,40.888
	c-0.549,0.496-0.59,1.338-0.099,1.885c0.496,0.549,1.341,0.59,1.888,0.097c0.549-0.494,0.588-1.338,0.094-1.884
	C76.996,40.437,76.151,40.394,75.603,40.888z"/>
<path fill="none" stroke="#FFFFFF" stroke-width="2" stroke-linecap="round" stroke-miterlimit="10" d="M75.243,42.626l-3.681,3.324
	c0,0-1.305-0.878-6.062,2.391"/>
<path fill="none" stroke="#FFFFFF" stroke-width="2" stroke-linecap="round" stroke-miterlimit="10" d="M71.563,45.95
	c0,0-1.045,1.971-5.535,5.253"/>
<path fill="none" stroke="#FFFFFF" stroke-width="2" stroke-linecap="round" stroke-miterlimit="10" d="M74.114,38.247
	c-0.72,0.91-1.106,5.886-1.106,5.886s1.931,1.852,6.026,0.982"/>
<circle fill="none" stroke="#FFFFFF" stroke-width="2" stroke-linecap="round" stroke-miterlimit="10" cx="52.067" cy="63.903" r="1.124"/>
<path fill="none" stroke="#FFFFFF" stroke-width="2" stroke-linecap="round" stroke-miterlimit="10" d="M52.608,62.801l1.067-4.029
	c0,0,1.326,0.02,3.181-4.467"/>
<path fill="none" stroke="#FFFFFF" stroke-width="2" stroke-linecap="round" stroke-miterlimit="10" d="M53.677,58.772
	c0,0-0.166-1.871,1.494-6.241"/>
<path fill="none" stroke="#FFFFFF" stroke-width="2" stroke-linecap="round" stroke-miterlimit="10" d="M55.411,65.37
	c0.092-0.973-1.918-4.656-1.918-4.656s-2.209-0.419-4.697,2.072"/>
<path fill="none" stroke="#FFFFFF" stroke-width="2" stroke-linecap="round" stroke-miterlimit="10" d="M65.321,57.518l-3.285,1.701
	c0,0-0.776-0.882-4.832,0.576"/>
<path fill="none" stroke="#FFFFFF" stroke-width="2" stroke-linecap="round" stroke-miterlimit="10" d="M62.036,59.219
	c0,0-1.129,1.226-4.992,2.742"/>
<path fill="none" stroke="#FFFFFF" stroke-width="2" stroke-linecap="round" stroke-miterlimit="10" d="M40.499,2.159
	c0.062,0.7-0.453,1.319-1.152,1.383c-0.703,0.062-1.321-0.455-1.384-1.156c-0.063-0.7,0.453-1.319,1.153-1.381
	C39.816,0.94,40.437,1.458,40.499,2.159z"/>
<path fill="none" stroke="#FFFFFF" stroke-width="2" stroke-linecap="round" stroke-miterlimit="10" d="M39.46,6.737l0.424,4.711
	c0,0,1.481,0.23,2.697,5.602"/>
<path fill="none" stroke="#FFFFFF" stroke-width="2" stroke-linecap="round" stroke-miterlimit="10" d="M39.782,6.465
	c0,0-2.553,0.046-4.856-3.216"/>
<path fill="none" stroke="#FFFFFF" stroke-width="2" stroke-linecap="round" stroke-miterlimit="10" d="M14.123,56.331
	c0.49,0.254,0.68,0.854,0.429,1.345c-0.257,0.487-0.855,0.679-1.345,0.427c-0.489-0.253-0.681-0.854-0.426-1.344
	C13.034,56.269,13.636,56.079,14.123,56.331z"/>
<path fill="none" stroke="#FFFFFF" stroke-width="2" stroke-linecap="round" stroke-miterlimit="10" d="M14.696,54.145
	c0.693,0.518,1.917,4.037,1.917,4.037s-1.045,1.703-4.165,1.853"/>
<path fill="none" stroke="#FFFFFF" stroke-width="2" stroke-miterlimit="10" d="M43.206,43.216c-3.344,4.555-6.191,0-6.191,0
	s-3.809-6.135-1.122-11.279c0,0-2.465,1.781-2.687,5.936c0.221-4.091-4.174-5.776-7.394-7.124c0,0,9.409,3.959,7.842,14.051
	c0,0-4.705,4.551-6.72-2.375c0,0-0.002-2.573,0.895-3.363c0,0-2.464-1.189-2.464,4.154c0,0-5.835-3.207-4.563-7.948
	c0,0-1.349,1.156-1.234,3.815l-4.47,1.426l4.933,0.926c0,0,6.476,3.392,2.197,4.75c0,0-3.36,0.396-4.705-1.188
	c0,0,0.449,1.979,2.465,2.573c0,0-2.913,2.967,0.895,5.738c-1.005-0.733-1.052-3.744-0.261-4.627
	c0.408-0.453,0.981-0.688,1.622-0.771c1.6-0.206,3.625,0.538,4.58,1.21c1.653,1.162,2.962,2.981,3.93,4.612
	c2.718,4.576,3.615,10.101,3.615,15.211c0,11.695-6.832,22.058-12.141,21.173"/>
<path fill="none" stroke="#FFFFFF" stroke-width="2" stroke-linecap="round" stroke-miterlimit="10" d="M14.174,22.589
	c0.759,0.066,1.437-0.471,1.523-1.204c0.085-0.736-0.462-1.387-1.221-1.454c-0.756-0.072-1.439,0.467-1.522,1.202
	C12.871,21.864,13.415,22.519,14.174,22.589z"/>
<path fill="none" stroke="#FFFFFF" stroke-width="2" stroke-linecap="round" stroke-miterlimit="10" d="M15.764,21.679l5.096,0.465
	c0,0,0.216,1.553,6.008,2.851"/>
<path fill="none" stroke="#FFFFFF" stroke-width="2" stroke-linecap="round" stroke-miterlimit="10" d="M20.859,22.144
	c0,0,2.236-0.561,7.856,0.529"/>
<path fill="none" stroke="#FFFFFF" stroke-width="2" stroke-linecap="round" stroke-miterlimit="10" d="M13.153,25.465
	c1.198-0.083,5.308-3.157,5.308-3.157s0.105-2.674-3.377-5.103"/>
<path fill="none" stroke="#FFFFFF" stroke-width="2" stroke-linecap="round" stroke-miterlimit="10" d="M21.102,14.535
	c0.606-0.293,0.88-1.009,0.613-1.605c-0.267-0.598-0.976-0.846-1.585-0.554c-0.608,0.287-0.882,1.004-0.615,1.601
	C19.783,14.571,20.493,14.824,21.102,14.535z"/>
<path fill="none" stroke="#FFFFFF" stroke-width="2" stroke-linecap="round" stroke-miterlimit="10" d="M21.899,13.124l4.087-1.949
	c0,0,0.867,1.084,5.86-0.545"/>
<path fill="none" stroke="#FFFFFF" stroke-width="2" stroke-linecap="round" stroke-miterlimit="10" d="M25.986,11.175
	c0,0,1.448-1.437,6.218-3.147"/>
<path fill="none" stroke="#FFFFFF" stroke-width="2" stroke-linecap="round" stroke-miterlimit="10" d="M21.625,17.183
	c0.873-0.604,2.611-4.799,2.611-4.799s-1.129-2.082-4.876-2.357"/>
<circle fill="none" stroke="#FFFFFF" stroke-width="2" stroke-linecap="round" stroke-miterlimit="10" cx="19.31" cy="28.22" r="0.911"/>
<path fill="none" stroke="#FFFFFF" stroke-width="2" stroke-linecap="round" stroke-miterlimit="10" d="M19.921,29.007l2.559,2.215
	c0,0-0.485,0.957,2.126,3.908"/>
<path fill="none" stroke="#FFFFFF" stroke-width="2" stroke-linecap="round" stroke-miterlimit="10" d="M22.479,31.222
	c0,0,1.424,0.543,4.021,3.31"/>
<path fill="none" stroke="#FFFFFF" stroke-width="2" stroke-linecap="round" stroke-miterlimit="10" d="M17.051,30.136
	c0.676,0.412,4.077,0.26,4.077,0.26s1.095-1.463,0.163-4.164"/>
<circle fill="none" stroke="#FFFFFF" stroke-width="2" stroke-linecap="round" stroke-miterlimit="10" cx="31.253" cy="16.856" r="1.274"/>
<path fill="none" stroke="#FFFFFF" stroke-width="2" stroke-linecap="round" stroke-miterlimit="10" d="M31.648,18.19l0.423,4.711
	c0,0,1.483,0.231,2.698,5.602"/>
<path fill="none" stroke="#FFFFFF" stroke-width="2" stroke-linecap="round" stroke-miterlimit="10" d="M32.071,22.901
	c0,0-0.546,2.057,0.474,7.264"/>
<path fill="none" stroke="#FFFFFF" stroke-width="2" stroke-linecap="round" stroke-miterlimit="10" d="M35.271,15.854
	c-0.084,1.104-3.033,4.84-3.033,4.84s-2.554,0.047-4.858-3.216"/>
<circle fill="none" stroke="#FFFFFF" stroke-width="2" stroke-linecap="round" stroke-miterlimit="10" cx="5.743" cy="25.357" r="1.372"/>
<path fill="none" stroke="#FFFFFF" stroke-width="2" stroke-linecap="round" stroke-miterlimit="10" d="M6.638,26.558l2.192,4.601
	c0,0,1.584-0.322,4.821,4.65"/>
<path fill="none" stroke="#FFFFFF" stroke-width="2" stroke-linecap="round" stroke-miterlimit="10" d="M8.83,31.158
	c0,0,0.219,2.282,3.193,7.161"/>
<path fill="none" stroke="#FFFFFF" stroke-width="2" stroke-linecap="round" stroke-miterlimit="10" d="M9.429,22.843
	c0.327,1.146-1.257,6.023-1.257,6.023s-2.56,1.002-6.109-1.432"/>
<path fill="none" stroke="#FFFFFF" stroke-width="2" stroke-linecap="round" stroke-miterlimit="10" d="M4.432,40.888
	c0.549,0.496,0.59,1.338,0.097,1.885c-0.495,0.549-1.339,0.59-1.885,0.097c-0.55-0.494-0.589-1.338-0.095-1.884
	C3.039,40.437,3.883,40.394,4.432,40.888z"/>
<path fill="none" stroke="#FFFFFF" stroke-width="2" stroke-linecap="round" stroke-miterlimit="10" d="M4.791,42.626l3.681,3.324
	c0,0,1.306-0.878,6.061,2.391"/>
<path fill="none" stroke="#FFFFFF" stroke-width="2" stroke-linecap="round" stroke-miterlimit="10" d="M8.472,45.95
	c0,0,1.044,1.971,5.534,5.253"/>
<path fill="none" stroke="#FFFFFF" stroke-width="2" stroke-linecap="round" stroke-miterlimit="10" d="M5.921,38.247
	c0.719,0.91,1.107,5.886,1.107,5.886S5.095,45.985,1,45.115"/>
<circle fill="none" stroke="#FFFFFF" stroke-width="2" stroke-linecap="round" stroke-miterlimit="10" cx="27.967" cy="63.903" r="1.124"/>
<path fill="none" stroke="#FFFFFF" stroke-width="2" stroke-linecap="round" stroke-miterlimit="10" d="M27.426,62.801l-1.069-4.029
	c0,0-1.323,0.02-3.178-4.467"/>
<path fill="none" stroke="#FFFFFF" stroke-width="2" stroke-linecap="round" stroke-miterlimit="10" d="M26.356,58.772
	c0,0,0.167-1.871-1.492-6.241"/>
<path fill="none" stroke="#FFFFFF" stroke-width="2" stroke-linecap="round" stroke-miterlimit="10" d="M24.624,65.37
	c-0.092-0.973,1.917-4.656,1.917-4.656s2.21-0.419,4.697,2.072"/>
<path fill="none" stroke="#FFFFFF" stroke-width="2" stroke-linecap="round" stroke-miterlimit="10" d="M14.713,57.518l3.286,1.701
	c0,0,0.776-0.882,4.831,0.576"/>
<path fill="none" stroke="#FFFFFF" stroke-width="2" stroke-linecap="round" stroke-miterlimit="10" d="M17.999,59.219
	c0,0,1.129,1.226,4.991,2.742"/>
<path fill="none" stroke="#FFFFFF" stroke-width="2" stroke-linecap="round" stroke-miterlimit="10" d="M40.151,11.448
	c0,0-1.484,0.23-2.697,5.602"/>
<path fill="none" stroke="#FFFFFF" stroke-width="2" stroke-linecap="round" stroke-miterlimit="10" d="M39.715,6.465
	c0,0,2.555,0.046,4.857-3.216"/>
<path fill="none" stroke="#FFFFFF" stroke-width="2" stroke-linecap="round" stroke-miterlimit="10" d="M40.478,20.019
	c0.041,0.466-0.301,0.878-0.768,0.92c-0.466,0.042-0.878-0.303-0.921-0.77c-0.041-0.464,0.303-0.878,0.769-0.919
	C40.022,19.207,40.437,19.551,40.478,20.019z"/>
<path fill="none" stroke="#FFFFFF" stroke-width="2" stroke-linecap="round" stroke-miterlimit="10" d="M39.608,21.218l0.281,3.136
	c0,0,0.987,0.154,1.795,3.729"/>
<path fill="none" stroke="#FFFFFF" stroke-width="2" stroke-linecap="round" stroke-miterlimit="10" d="M39.999,22.885
	c0,0-1.698,0.03-3.231-2.142"/>
<path fill="none" stroke="#FFFFFF" stroke-width="2" stroke-linecap="round" stroke-miterlimit="10" d="M40.067,24.354
	c0,0-0.988,0.154-1.796,3.729"/>
<path fill="none" stroke="#FFFFFF" stroke-width="2" stroke-linecap="round" stroke-miterlimit="10" d="M39.958,22.885
	c0,0,1.696,0.03,3.231-2.142"/>
</svg>
