<?xml version="1.0" encoding="utf-8"?>
<!-- Generator: Adobe Illustrator 15.0.0, SVG Export Plug-In . SVG Version: 6.00 Build 0)  -->
<!DOCTYPE svg PUBLIC "-//W3C//DTD SVG 1.1//EN" "http://www.w3.org/Graphics/SVG/1.1/DTD/svg11.dtd">
<svg version="1.1" id="Layer_1" xmlns="http://www.w3.org/2000/svg" xmlns:xlink="http://www.w3.org/1999/xlink" x="0px" y="0px"
	 width="207.551px" height="60.804px" viewBox="0 0 207.551 60.804" enable-background="new 0 0 207.551 60.804"
	 xml:space="preserve">
<path fill="none" stroke="#FFFFFF" stroke-width="2" stroke-linecap="round" stroke-miterlimit="10" d="M152.744,41.376
	c-3.006-3.479-6.291-5.119-9.545-2.745"/>
<path fill="none" stroke="#FFFFFF" stroke-width="2" stroke-linecap="round" stroke-miterlimit="10" d="M93.121,40.683l-0.336,0.528
	H92.16c-2.008,0.01-4.135,0.894-6.322,2.577l-0.207,0.153c-1.43,1.167-2.801,2.842-4.244,4.627
	c-2.111,2.598-5.469,7.009-9.342,5.752c-7.189-2.361-7.715-17.618-7.475-23.324c0.129-3.004,0.318-7.542-1.666-8.985
	c-9.986-7.289-20.238,23.293-22.214,28.676l-0.151,0.429c-0.693,1.894-1.344,3.649-1.961,5.206c-3.461,8.59-7.131-1.681-8.17-5.398
	c-3.764-13.574-2.658-26.145,0.064-39.848c1.5-4.816,1.621-8.68,0.34-9.546c-5.9-3.916-15.938,15.053-17.801,18.671
	C6.682,32.515,3.236,46.229,1,59.803 M108.879,53.571c-1.195,0.593-2.463,0.978-3.752,1.104c-0.65,0.067-1.277,0.067-1.912,0.017
	c-1.393-0.101-2.729-0.461-3.99-1.078c-2.236-1.099-4.023-2.948-5.055-5.2c-0.488-1.072-0.803-2.207-0.912-3.363
	c-0.043-0.287-0.043-0.594-0.055-0.881c-0.057-2.481,0.748-4.922,2.279-6.885c0.988-1.267,2.203-2.269,3.639-2.988
	c1.189-0.605,2.455-0.98,3.752-1.119c0.342-0.031,0.701-0.059,1.055-0.059c0.316,0,0.617,0.024,0.943,0.047
	c1.477,0.115,2.889,0.525,4.189,1.213c2.215,1.174,3.953,3.088,4.91,5.392c0.4,0.987,0.66,2.003,0.775,3.036
	c0.113,1.078,0.057,2.166-0.148,3.234c-0.336,1.697-1.09,3.308-2.17,4.646C111.475,51.877,110.244,52.86,108.879,53.571z"/>
<path fill="none" stroke="#FFFFFF" stroke-width="2" stroke-linecap="round" stroke-miterlimit="10" d="M156.852,27.838
	c-0.75-1.147-1.51-2.2-2.318-3.13c-3.037-3.557-6.416-5.226-9.885-2.696c-1.98,1.442-1.787,5.98-1.656,8.985
	c0.229,5.705-0.297,20.961-7.482,23.323c-3.881,1.257-7.23-3.155-9.334-5.752c-1.455-1.785-2.82-3.459-4.263-4.627l-0.196-0.142
	c-2.203-1.694-4.324-2.579-6.32-2.589h-0.623"/>
<path fill="none" stroke="#FFFFFF" stroke-width="2" stroke-linecap="round" stroke-miterlimit="10" d="M206.551,59.804
	c-2.238-13.575-5.686-27.291-12.012-39.602c-1.863-3.618-11.906-22.586-17.799-18.673c-1.291,0.867-1.16,4.732,0.336,9.547
	c2.732,13.693,3.824,26.274,0.064,39.851c-1.027,3.715-4.695,13.985-8.162,5.396c-0.623-1.556-1.273-3.315-1.971-5.207l-0.15-0.431
	c-0.359-0.999-0.939-2.711-1.691-4.819"/>
<path fill="none" stroke="#FFFFFF" stroke-width="2" stroke-linecap="round" stroke-miterlimit="10" d="M202.297,40.846
	c-2.332-4.809-7-9.827-12.66-10.028c-5.549-0.192-10.943,6.092-10.719,11.67"/>
</svg>
