<?xml version="1.0" encoding="utf-8"?>
<!-- Generator: Adobe Illustrator 15.0.0, SVG Export Plug-In . SVG Version: 6.00 Build 0)  -->
<!DOCTYPE svg PUBLIC "-//W3C//DTD SVG 1.1//EN" "http://www.w3.org/Graphics/SVG/1.1/DTD/svg11.dtd">
<svg version="1.1" id="Layer_1" xmlns="http://www.w3.org/2000/svg" xmlns:xlink="http://www.w3.org/1999/xlink" x="0px" y="0px"
	 width="68.82px" height="68.817px" viewBox="0 0 68.82 68.817" enable-background="new 0 0 68.82 68.817" xml:space="preserve">
<path fill="none" stroke="#FFFFFF" stroke-width="1.5" stroke-miterlimit="10" d="M0.75,34.41c0-4.552,0.887-8.959,2.637-13.093
	c1.695-4.006,4.123-7.609,7.225-10.706c3.098-3.098,6.699-5.531,10.705-7.224C25.451,1.639,29.855,0.75,34.41,0.75
	c4.553,0.003,8.959,0.889,13.096,2.639c4.004,1.691,7.605,4.124,10.705,7.222c3.098,3.097,5.531,6.7,7.223,10.706
	c1.748,4.134,2.635,8.541,2.637,13.093c0,4.557-0.889,8.962-2.637,13.099c-1.691,4.002-4.123,7.602-7.223,10.703
	c-3.1,3.099-6.699,5.527-10.705,7.224c-4.135,1.746-8.541,2.636-13.094,2.632c-4.557,0.004-8.961-0.886-13.096-2.633
	c-4.006-1.695-7.609-4.124-10.705-7.223C7.51,55.114,5.08,51.511,3.387,47.506C1.637,43.372,0.75,38.967,0.75,34.41"/>
<path fill="none" stroke="#FFFFFF" stroke-miterlimit="10" d="M22.52,51.778h-5.459v1.526h5.443c0-0.116,0.006-0.231,0.016-0.344
	V51.778z"/>
<path fill="none" stroke="#FFFFFF" stroke-miterlimit="10" d="M22.504,53.306h0.016V52.96C22.51,53.074,22.504,53.188,22.504,53.306
	z"/>
<path fill="none" stroke="#FFFFFF" stroke-miterlimit="10" d="M30.645,53.306h2.496c0-2.243-1.805-4.063-4.041-4.09
	c-0.023,0.271-0.072,0.53-0.143,0.783C29.979,50.744,30.645,51.947,30.645,53.306z"/>
<rect x="13.658" y="28.029" fill="none" stroke="#FFFFFF" stroke-miterlimit="10" width="3.328" height="13.938"/>
<path fill="none" stroke="#FFFFFF" stroke-miterlimit="10" d="M21.211,32.243c0.58-1.284,2.092-1.854,3.373-1.272l4.535,2.049
	v-0.741c0-1.652-0.898-3.092-2.229-3.868c-1.162,0.828-2.58,1.317-4.118,1.317c-1.415,0-2.729-0.418-3.837-1.131
	c-1.166,0.808-1.932,2.156-1.932,3.682v21.026h0.018v-1.526h5.457v1.183c0.176-2.099,1.932-3.747,4.074-3.747
	c0.438,0,0.855,0.07,1.25,0.195c0.393-0.125,0.813-0.195,1.248-0.195c0.016,0,0.031,0.002,0.049,0.002
	c0.012-0.128,0.02-0.258,0.02-0.391V38.616l-6.635-3C21.201,35.038,20.631,33.526,21.211,32.243z"/>
<path fill="none" stroke="#FFFFFF" stroke-miterlimit="10" d="M27.803,49.409c0.418,0.135,0.807,0.338,1.154,0.591
	c0.07-0.253,0.119-0.515,0.143-0.784c-0.018,0-0.033-0.002-0.049-0.002C28.614,49.214,28.195,49.284,27.803,49.409z"/>
<path fill="none" stroke="#FFFFFF" stroke-miterlimit="10" d="M27.336,17.173c-1.232-1.035-2.824-1.66-4.563-1.66
	c-3.926,0-7.107,3.181-7.107,7.106c0,2.51,1.305,4.712,3.27,5.977c1.107,0.714,2.422,1.132,3.838,1.132
	c1.537,0,2.955-0.49,4.117-1.318c0.152-0.109,0.301-0.221,0.445-0.342"/>
<path fill="none" stroke="#FFFFFF" stroke-miterlimit="10" d="M22.008,22.621c0,2.97,2.375,5.379,5.328,5.447
	c1.555-1.303,2.547-3.259,2.547-5.447s-0.992-4.144-2.547-5.447C24.383,17.24,22.008,19.65,22.008,22.621z"/>
<path fill="none" stroke="#FFFFFF" stroke-miterlimit="10" d="M30.645,53.306c0-1.358-0.666-2.562-1.688-3.307
	c-0.348-0.253-0.736-0.456-1.154-0.59c-0.395-0.125-0.813-0.195-1.25-0.195c-2.143,0-3.898,1.649-4.074,3.746v0.346H30.645z"/>
<path fill="none" stroke="#FFFFFF" stroke-miterlimit="10" d="M39.699,49.999c-0.068-0.252-0.117-0.514-0.141-0.783
	c-2.236,0.027-4.041,1.846-4.041,4.09h2.496C38.014,51.946,38.678,50.745,39.699,49.999z"/>
<rect x="51.834" y="28.029" fill="none" stroke="#FFFFFF" stroke-miterlimit="10" width="3.328" height="13.938"/>
<path fill="none" stroke="#FFFFFF" stroke-miterlimit="10" d="M49.721,28.596c-1.105,0.714-2.422,1.132-3.838,1.132
	c-1.535,0-2.953-0.489-4.115-1.318c-1.332,0.777-2.229,2.216-2.229,3.869v0.741l4.533-2.05c1.283-0.581,2.795-0.012,3.375,1.272
	s0.01,2.795-1.273,3.375l-6.635,2.999v10.209c0,0.132,0.008,0.262,0.02,0.391c0.016,0,0.031-0.002,0.049-0.002
	c0.436,0,0.854,0.069,1.248,0.195c0.395-0.126,0.813-0.195,1.248-0.195c2.148,0,3.904,1.654,4.074,3.758v-1.192h5.459v1.526h0.018
	V32.279C51.654,30.752,50.889,29.405,49.721,28.596z"/>
<path fill="none" stroke="#FFFFFF" stroke-miterlimit="10" d="M40.855,49.409c-0.395-0.125-0.813-0.195-1.248-0.195
	c-0.018,0-0.033,0.002-0.049,0.002c0.023,0.27,0.072,0.531,0.141,0.784C40.047,49.747,40.436,49.544,40.855,49.409z"/>
<path fill="none" stroke="#FFFFFF" stroke-miterlimit="10" d="M35.109,35.728l-0.781-0.352l-5.209-2.356l-4.535-2.05
	c-1.281-0.581-2.793-0.012-3.373,1.273c-0.58,1.283-0.01,2.795,1.273,3.374l6.635,2.999l3.889,1.759
	c0.43,0.195,0.885,0.249,1.32,0.203c0.869-0.094,1.668-0.622,2.055-1.476C36.963,37.819,36.393,36.308,35.109,35.728z"/>
<path fill="none" stroke="#FFFFFF" stroke-miterlimit="10" d="M34.328,40.577c0.437,0.048,0.893-0.008,1.32-0.201l3.891-1.76
	l6.635-3c1.283-0.579,1.854-2.091,1.273-3.374c-0.58-1.284-2.092-1.853-3.375-1.272l-4.533,2.049l-5.211,2.357"/>
<path fill="none" stroke="#FFFFFF" stroke-miterlimit="10" d="M49.721,28.596c1.965-1.264,3.271-3.466,3.271-5.976
	c0-3.925-3.184-7.107-7.109-7.107c-1.736,0-3.326,0.625-4.561,1.66"/>
<path fill="none" stroke="#FFFFFF" stroke-miterlimit="10" d="M41.768,28.411c1.162,0.828,2.58,1.317,4.115,1.317
	c1.416,0,2.732-0.418,3.838-1.131"/>
<path fill="none" stroke="#FFFFFF" stroke-miterlimit="10" d="M46.65,22.621c0-2.97-2.375-5.381-5.328-5.447
	c-1.557,1.303-2.547,3.259-2.547,5.447s0.99,4.144,2.547,5.447C44.275,28,46.65,25.591,46.65,22.621z"/>
<path fill="none" stroke="#FFFFFF" stroke-miterlimit="10" d="M42.104,49.214c-0.436,0-0.854,0.069-1.248,0.195
	c-0.42,0.135-0.809,0.338-1.156,0.59c-1.021,0.745-1.686,1.947-1.686,3.307h8.164v-0.333C46.008,50.868,44.252,49.214,42.104,49.214
	z"/>
<path fill="none" stroke="#FFFFFF" stroke-miterlimit="10" d="M46.219,51.778v1.193c0.01,0.111,0.018,0.223,0.018,0.333h5.441
	v-1.526H46.219z"/>
<path fill="none" stroke="#FFFFFF" stroke-miterlimit="10" d="M46.219,53.306h0.018c0-0.111-0.008-0.224-0.018-0.334V53.306z"/>
</svg>
