<?xml version="1.0" encoding="utf-8"?>
<!-- Generator: Adobe Illustrator 15.0.0, SVG Export Plug-In . SVG Version: 6.00 Build 0)  -->
<!DOCTYPE svg PUBLIC "-//W3C//DTD SVG 1.1//EN" "http://www.w3.org/Graphics/SVG/1.1/DTD/svg11.dtd">
<svg version="1.1" id="Layer_1" xmlns="http://www.w3.org/2000/svg" xmlns:xlink="http://www.w3.org/1999/xlink" x="0px" y="0px"
	 width="68.82px" height="68.817px" viewBox="0 0 68.82 68.817" enable-background="new 0 0 68.82 68.817" xml:space="preserve">
<path fill="none" stroke="#FFFFFF" stroke-miterlimit="10" d="M39.035,51.894c8.115-2.059,14.121-9.412,14.121-18.17
	c0-10.35-8.393-18.744-18.746-18.744c-10.352,0-18.744,8.394-18.744,18.744c0,0.649,0.031,1.288,0.096,1.917"/>
<path fill="none" stroke="#FFFFFF" stroke-miterlimit="10" d="M49.814,29.505c-1.852-6.771-8.045-11.746-15.404-11.746
	c-7.357,0-13.553,4.975-15.402,11.746"/>
<path fill="none" stroke="#FFFFFF" stroke-miterlimit="10" d="M23.869,43.937c-4.424,0-8.012-3.586-8.012-8.014
	c0-4.423,3.588-8.01,8.012-8.01V43.937z"/>
<path fill="none" stroke="#FFFFFF" stroke-miterlimit="10" d="M45,43.937c4.424,0,8.012-3.586,8.012-8.014
	c0-4.423-3.588-8.01-8.012-8.01V43.937z"/>
<path fill="none" stroke="#FFFFFF" stroke-miterlimit="10" d="M39.121,52.45c0,0.768-0.623,1.39-1.391,1.39H31.09
	c-0.768,0-1.391-0.622-1.391-1.39v-1.313c0-0.769,0.623-1.39,1.391-1.39h6.641c0.768,0,1.391,0.621,1.391,1.39V52.45z"/>
<path fill="none" stroke="#FFFFFF" stroke-width="1.5" stroke-miterlimit="10" d="M0.75,34.411c0-4.555,0.887-8.962,2.637-13.094
	c1.695-4.006,4.123-7.608,7.225-10.706c3.098-3.099,6.699-5.531,10.705-7.225C25.451,1.639,29.857,0.75,34.41,0.75
	c4.553,0.003,8.961,0.889,13.096,2.638c4.004,1.691,7.607,4.124,10.705,7.223c3.1,3.098,5.531,6.7,7.225,10.706
	c1.746,4.132,2.633,8.539,2.635,13.094c0,4.554-0.887,8.963-2.635,13.098c-1.693,4.002-4.125,7.602-7.225,10.703
	c-3.098,3.099-6.699,5.527-10.705,7.225c-4.135,1.745-8.541,2.635-13.094,2.631c-4.557,0.004-8.961-0.886-13.096-2.633
	c-4.006-1.695-7.609-4.124-10.705-7.223c-3.102-3.098-5.529-6.701-7.225-10.706C1.637,43.374,0.75,38.965,0.75,34.411"/>
</svg>
