<?xml version="1.0" encoding="utf-8"?>
<!-- Generator: Adobe Illustrator 15.0.0, SVG Export Plug-In . SVG Version: 6.00 Build 0)  -->
<!DOCTYPE svg PUBLIC "-//W3C//DTD SVG 1.1//EN" "http://www.w3.org/Graphics/SVG/1.1/DTD/svg11.dtd">
<svg version="1.1" id="Layer_1" xmlns="http://www.w3.org/2000/svg" xmlns:xlink="http://www.w3.org/1999/xlink" x="0px" y="0px"
	 width="119.269px" height="119.268px" viewBox="0 0 119.269 119.268" enable-background="new 0 0 119.269 119.268"
	 xml:space="preserve">
<path fill="none" stroke="#FFFFFF" stroke-width="2" stroke-miterlimit="10" d="M1,59.635c0-7.932,1.543-15.607,4.594-22.807
	c2.951-6.979,7.181-13.256,12.582-18.65c5.398-5.398,11.672-9.635,18.65-12.586C44.027,2.547,51.701,1,59.634,1
	c7.929,0.004,15.607,1.547,22.81,4.596c6.977,2.945,13.252,7.184,18.651,12.582c5.396,5.396,9.633,11.672,12.582,18.65
	c3.043,7.199,4.59,14.875,4.592,22.807c0,7.936-1.547,15.611-4.592,22.816c-2.949,6.973-7.183,13.244-12.585,18.646
	c-5.396,5.398-11.668,9.631-18.646,12.586c-7.203,3.041-14.879,4.588-22.81,4.584c-7.938,0.004-15.609-1.543-22.813-4.588
	c-6.976-2.951-13.254-7.184-18.648-12.582c-5.401-5.396-9.633-11.674-12.584-18.65C2.543,75.246,1,67.57,1,59.635"/>
<path fill="none" stroke="#FFFFFF" stroke-width="2" stroke-miterlimit="10" d="M42.38,80.739c0.403,5.313,2.28,9.263,5.601,10.751
	c6.284,2.818,15.695-4.086,22.591-15.892c1.104-1.894,2.146-3.909,3.099-6.032c5.024-11.207,8.465-29.615-2.644-38.7
	c-2.909-2.378-7.877-3.718-11.706-3.718c-8.105,0-15.114,6.033-18.454,14.791"/>
<path fill="none" stroke="#FFFFFF" stroke-width="2" stroke-miterlimit="10" d="M51.219,84.293c1.669-0.187,7.127-3.268,12.6-12.638
	c0.982-1.683,1.896-3.464,2.714-5.288c1.56-3.475,2.813-7.088,3.524-10.83c1.293-6.795,0.77-16.812-6.914-19.674
	c-4.007-1.494-9.647,0.167-12.054,3.592c-2.938,4.182-2.696,10.008-0.258,14.346c1.391,2.473,3.43,4.746,5.675,6.711
	c0,0,6.977,3.992,4.496,6.648c0,0-1.238,2.126-10.976-5.311c0,0-3.894-2.301-3.187,4.424c0.244,2.311-0.358,3.737-1.483,5.734
	c-0.885,1.57-0.563,4.02,1.533,4.146c1.97,0.12,2.898-1.475,4.039-2.769c1.41-1.601,2.992-2.129,5.118-1.665"/>
</svg>
