<?xml version="1.0" encoding="utf-8"?>
<!-- Generator: Adobe Illustrator 15.0.0, SVG Export Plug-In . SVG Version: 6.00 Build 0)  -->
<!DOCTYPE svg PUBLIC "-//W3C//DTD SVG 1.1//EN" "http://www.w3.org/Graphics/SVG/1.1/DTD/svg11.dtd">
<svg version="1.1" id="Layer_1" xmlns="http://www.w3.org/2000/svg" xmlns:xlink="http://www.w3.org/1999/xlink" x="0px" y="0px"
	 width="45.547px" height="45.546px" viewBox="0 0 45.547 45.546" enable-background="new 0 0 45.547 45.546" xml:space="preserve">
<path fill="none" stroke="#FFFFFF" stroke-width="1.5" stroke-miterlimit="10" d="M7.199,38.345
	c-2.107-2.105-3.734-4.555-4.84-7.277C1.291,28.431,0.75,25.64,0.75,22.772s0.541-5.658,1.609-8.297
	c1.106-2.72,2.733-5.168,4.84-7.277c2.107-2.104,4.557-3.731,7.277-4.837c2.637-1.07,5.43-1.611,8.297-1.611
	c2.867,0.002,5.658,0.541,8.295,1.611c2.719,1.105,5.17,2.731,7.275,4.837c2.109,2.109,3.736,4.558,4.84,7.281
	c1.07,2.635,1.613,5.424,1.613,8.293c0,2.868-0.543,5.658-1.613,8.295c-1.104,2.721-2.73,5.172-4.84,7.277
	c-2.105,2.109-4.553,3.735-7.277,4.839c-2.637,1.069-5.426,1.613-8.293,1.612c-2.867,0.001-5.656-0.543-8.297-1.612
	C11.756,42.081,9.307,40.452,7.199,38.345"/>
<path fill="none" stroke="#FFFFFF" stroke-miterlimit="10" d="M24.429,10.127c-0.506-0.774-1.065-1.203-1.655-1.203
	c-2.241,0-4.058,6.2-4.058,13.85c0,7.648,1.816,13.849,4.058,13.849c2.239,0,4.055-6.2,4.055-13.849
	c0-3.179-0.313-6.108-0.841-8.445"/>
<path fill="none" stroke="#FFFFFF" stroke-miterlimit="10" d="M28.763,29.755c-2.338-0.672-5.118-1.849-7.969-3.441
	c-6.678-3.733-11.203-8.344-10.108-10.3c1.093-1.956,7.391-0.515,14.065,3.22c6.677,3.732,11.204,8.345,10.11,10.299
	c-0.273,0.488-0.871,0.766-1.721,0.846"/>
<path fill="none" stroke="#FFFFFF" stroke-miterlimit="10" d="M10.757,27.855c-0.279,0.666-0.317,1.237-0.071,1.677
	c1.092,1.953,7.39,0.515,14.065-3.219c6.677-3.733,11.204-8.344,10.109-10.3c-1.093-1.956-7.392-0.515-14.066,3.219
	c-2.724,1.522-5.089,3.192-6.864,4.767"/>
<circle fill="none" stroke="#FFFFFF" stroke-miterlimit="10" cx="25.308" cy="12.077" r="1.373"/>
<circle fill="none" stroke="#FFFFFF" stroke-miterlimit="10" cx="30.983" cy="30.29" r="1.372"/>
<path fill="none" stroke="#FFFFFF" stroke-miterlimit="10" d="M11.137,26.064c0,0.756,0.614,1.37,1.373,1.37
	c0.757,0,1.373-0.614,1.373-1.37c0-0.761-0.616-1.374-1.373-1.374C11.751,24.69,11.137,25.304,11.137,26.064z"/>
<circle fill="none" stroke="#FFFFFF" stroke-miterlimit="10" cx="22.772" cy="22.772" r="1.372"/>
</svg>
