<?xml version="1.0" encoding="utf-8"?>
<!-- Generator: Adobe Illustrator 15.0.0, SVG Export Plug-In . SVG Version: 6.00 Build 0)  -->
<!DOCTYPE svg PUBLIC "-//W3C//DTD SVG 1.1//EN" "http://www.w3.org/Graphics/SVG/1.1/DTD/svg11.dtd">
<svg version="1.1" id="Layer_1" xmlns="http://www.w3.org/2000/svg" xmlns:xlink="http://www.w3.org/1999/xlink" x="0px" y="0px"
	 width="45.547px" height="45.547px" viewBox="0 0 45.547 45.547" enable-background="new 0 0 45.547 45.547" xml:space="preserve">
<path fill="none" stroke="#FFFFFF" stroke-width="1.5" stroke-miterlimit="10" d="M7.201,38.346
	c-2.107-2.104-3.734-4.555-4.838-7.277c-1.07-2.637-1.613-5.428-1.613-8.295c0-2.866,0.543-5.657,1.613-8.297
	c1.104-2.719,2.73-5.168,4.838-7.276c2.104-2.104,4.557-3.733,7.277-4.839c2.637-1.068,5.43-1.611,8.295-1.611
	c2.871,0.002,5.659,0.543,8.297,1.611c2.719,1.105,5.168,2.732,7.276,4.839c2.108,2.108,3.735,4.558,4.836,7.28
	c1.073,2.636,1.614,5.424,1.614,8.293s-0.541,5.658-1.614,8.295c-1.101,2.721-2.728,5.173-4.836,7.277
	c-2.108,2.109-4.556,3.736-7.276,4.84c-2.641,1.068-5.426,1.613-8.297,1.611c-2.865,0.002-5.656-0.543-8.295-1.611
	C11.758,42.082,9.306,40.453,7.201,38.346"/>
<polygon fill="none" stroke="#FFFFFF" stroke-miterlimit="10" points="19.252,17.009 27.807,22.772 19.252,28.536 "/>
<path fill="none" stroke="#FFFFFF" stroke-miterlimit="10" d="M10.193,22.772c0,6.945,5.633,12.58,12.58,12.58
	c6.944,0,12.578-5.635,12.578-12.58s-5.634-12.578-12.578-12.578C15.826,10.194,10.193,15.827,10.193,22.772z"/>
</svg>
