<?xml version="1.0" encoding="utf-8"?>
<!-- Generator: Adobe Illustrator 16.0.0, SVG Export Plug-In . SVG Version: 6.00 Build 0)  -->
<!DOCTYPE svg PUBLIC "-//W3C//DTD SVG 1.1//EN" "http://www.w3.org/Graphics/SVG/1.1/DTD/svg11.dtd">
<svg version="1.1" id="Layer_1" xmlns="http://www.w3.org/2000/svg" xmlns:xlink="http://www.w3.org/1999/xlink" x="0px" y="0px"
	 width="119.27px" height="119.268px" viewBox="0 0 119.27 119.268" enable-background="new 0 0 119.27 119.268"
	 xml:space="preserve">
<path fill="none" stroke="#FFFFFF" stroke-width="2" stroke-miterlimit="10" d="M1,59.635c0-7.932,1.543-15.607,4.594-22.807
	c2.951-6.979,7.181-13.256,12.582-18.65c5.398-5.397,11.672-9.635,18.65-12.586C44.027,2.547,51.701,1,59.633,1
	c7.93,0.004,15.608,1.547,22.811,4.596c6.979,2.945,13.253,7.185,18.652,12.582c5.396,5.396,9.633,11.672,12.582,18.65
	c3.043,7.198,4.59,14.875,4.592,22.807c0,7.936-1.547,15.611-4.592,22.816c-2.949,6.973-7.183,13.243-12.585,18.646
	c-5.396,5.398-11.668,9.631-18.646,12.586c-7.202,3.041-14.88,4.588-22.812,4.584c-7.936,0.004-15.608-1.543-22.811-4.588
	c-6.977-2.951-13.255-7.184-18.648-12.582c-5.401-5.396-9.633-11.674-12.584-18.649C2.543,75.246,1,67.57,1,59.635"/>
<polygon fill="none" stroke="#FFFFFF" stroke-width="2" stroke-miterlimit="10" points="50.289,44.336 72.996,59.635 50.289,74.932 
	"/>
<circle fill="none" stroke="#FFFFFF" stroke-width="2" stroke-miterlimit="10" cx="59.634" cy="59.633" r="33.386"/>
</svg>
