<?xml version="1.0" encoding="utf-8"?>
<!-- Generator: Adobe Illustrator 15.0.0, SVG Export Plug-In . SVG Version: 6.00 Build 0)  -->
<!DOCTYPE svg PUBLIC "-//W3C//DTD SVG 1.1//EN" "http://www.w3.org/Graphics/SVG/1.1/DTD/svg11.dtd">
<svg version="1.1" id="Layer_1" xmlns="http://www.w3.org/2000/svg" xmlns:xlink="http://www.w3.org/1999/xlink" x="0px" y="0px"
	 width="45.547px" height="45.547px" viewBox="0 0 45.547 45.547" enable-background="new 0 0 45.547 45.547" xml:space="preserve">
<path fill="none" stroke="#FFFFFF" stroke-width="1.5" stroke-miterlimit="10" d="M7.201,38.346
	c-2.107-2.106-3.734-4.555-4.838-7.277c-1.07-2.637-1.613-5.428-1.613-8.295s0.543-5.658,1.613-8.297
	c1.104-2.72,2.73-5.168,4.838-7.277c2.105-2.104,4.557-3.733,7.277-4.838c2.637-1.069,5.43-1.611,8.295-1.611
	c2.871,0.002,5.66,0.542,8.297,1.611c2.719,1.105,5.168,2.732,7.277,4.838c2.107,2.109,3.734,4.558,4.836,7.28
	c1.072,2.636,1.613,5.425,1.613,8.294c0,2.868-0.541,5.658-1.613,8.295c-1.102,2.721-2.729,5.171-4.836,7.277
	c-2.109,2.108-4.557,3.735-7.277,4.839c-2.641,1.069-5.426,1.613-8.297,1.612c-2.865,0.001-5.656-0.543-8.295-1.612
	C11.758,42.082,9.307,40.453,7.201,38.346"/>
<path fill="none" stroke="#FFFFFF" stroke-miterlimit="10" d="M18.977,31.213c0,0.668,0.648,1.206,1.453,1.206h0.006h0.006
	c0.803,0,1.453-0.538,1.453-1.206V16.174h1.762v15.039c0,0.668,0.65,1.206,1.453,1.206h0.004h0.006c0.803,0,1.451-0.538,1.451-1.206
	V13.128h-7.594V31.213z"/>
</svg>
