<?xml version="1.0" encoding="utf-8"?>
<!-- Generator: Adobe Illustrator 15.0.0, SVG Export Plug-In . SVG Version: 6.00 Build 0)  -->
<!DOCTYPE svg PUBLIC "-//W3C//DTD SVG 1.1//EN" "http://www.w3.org/Graphics/SVG/1.1/DTD/svg11.dtd">
<svg version="1.1" id="Layer_1" xmlns="http://www.w3.org/2000/svg" xmlns:xlink="http://www.w3.org/1999/xlink" x="0px" y="0px"
   width="28.042px" height="34.586px" viewBox="0 0 28.042 34.586" enable-background="new 0 0 28.042 34.586" xml:space="preserve">
<path fill="none" stroke="#5d5d5c" stroke-width="2" stroke-miterlimit="10" d="M7.786,9.446C8.11,8.964,8.704,8.7,9.306,8.83
  c0.788,0.171,1.29,0.947,1.121,1.734L4.106,26.859l-2.639,6.727h0.017h25.078h0.018l-8.979-23.034
  c-0.162-0.784,0.338-1.553,1.121-1.722c0.643-0.139,1.271,0.174,1.576,0.718l2.243-7.374c-0.302-0.795-1.167-1.233-2.112-1.167
  c-0.006,0-0.01-0.002-0.016-0.002H7.55C6.63,0.963,5.8,1.397,5.505,2.174L7.786,9.446z"/>
</svg>
