<?xml version="1.0" encoding="utf-8"?>
<!-- Generator: Adobe Illustrator 15.0.0, SVG Export Plug-In . SVG Version: 6.00 Build 0)  -->
<!DOCTYPE svg PUBLIC "-//W3C//DTD SVG 1.1//EN" "http://www.w3.org/Graphics/SVG/1.1/DTD/svg11.dtd">
<svg version="1.1" id="Layer_1" xmlns="http://www.w3.org/2000/svg" xmlns:xlink="http://www.w3.org/1999/xlink" x="0px" y="0px"
	 width="45.547px" height="45.547px" viewBox="0 0 45.547 45.547" enable-background="new 0 0 45.547 45.547" xml:space="preserve">
<path fill="none" stroke="#FFFFFF" stroke-miterlimit="10" d="M18.968,17.984c0.197-0.296,0.559-0.458,0.928-0.379
	c0.48,0.106,0.786,0.579,0.683,1.062l-3.858,9.947l-1.611,4.105h0.012h15.309h0.01l-5.48-14.063c-0.1-0.478,0.205-0.945,0.685-1.052
	c0.391-0.082,0.773,0.107,0.962,0.438l1.369-4.501c-0.184-0.485-0.713-0.753-1.289-0.71c-0.004,0-0.006-0.004-0.011-0.004h-7.853
	c-0.561-0.025-1.066,0.241-1.247,0.714L18.968,17.984z"/>
<path fill="none" stroke="#FFFFFF" stroke-width="1.5" stroke-miterlimit="10" d="M7.199,38.346
	c-2.107-2.106-3.732-4.555-4.836-7.277c-1.072-2.637-1.613-5.428-1.613-8.295s0.541-5.658,1.613-8.297
	c1.104-2.72,2.729-5.168,4.836-7.277c2.105-2.104,4.557-3.733,7.279-4.838c2.635-1.069,5.428-1.611,8.295-1.611
	c2.869,0.002,5.658,0.542,8.295,1.611c2.719,1.105,5.17,2.732,7.277,4.838c2.107,2.109,3.734,4.558,4.838,7.28
	c1.07,2.636,1.615,5.425,1.613,8.294c0.002,2.868-0.543,5.658-1.613,8.295c-1.104,2.721-2.73,5.171-4.838,7.277
	c-2.107,2.108-4.555,3.735-7.277,4.839c-2.639,1.069-5.426,1.613-8.295,1.612c-2.867,0.001-5.656-0.543-8.295-1.612
	C11.756,42.082,9.305,40.453,7.199,38.346"/>
</svg>
