<?xml version="1.0" encoding="utf-8"?>
<!-- Generator: Adobe Illustrator 16.0.0, SVG Export Plug-In . SVG Version: 6.00 Build 0)  -->
<!DOCTYPE svg PUBLIC "-//W3C//DTD SVG 1.1//EN" "http://www.w3.org/Graphics/SVG/1.1/DTD/svg11.dtd">
<svg version="1.1" id="Layer_1" xmlns="http://www.w3.org/2000/svg" xmlns:xlink="http://www.w3.org/1999/xlink" x="0px" y="0px"
	 width="35.099px" height="56.938px" viewBox="0 0 35.099 56.938" enable-background="new 0 0 35.099 56.938" xml:space="preserve">
<g>
	<path fill="none" stroke="#FFFFFF" stroke-miterlimit="10" d="M11.336,1.034c0.054-0.008-0.085-0.015-0.219-0.021
		C11.191,1.019,11.263,1.022,11.336,1.034z"/>
	<path fill="none" stroke="#FFFFFF" stroke-width="2" stroke-miterlimit="10" d="M33.988,22.828l-7.85-20.646
		c-0.306-0.802-1.178-1.244-2.132-1.175c-0.005,0-0.009-0.003-0.015-0.003h-1.775c-0.974,1.562-2.702,2.604-4.677,2.604
		s-3.703-1.043-4.677-2.604h-1.841C10.095,0.962,9.258,1.399,8.96,2.182L1.109,22.828c-0.389,1.023,0.291,2.231,1.519,2.698
		s2.539,0.018,2.928-1.006l5.705-15.004c0.021-0.031,0.046-0.057,0.068-0.088v44.53c0,1.095,1.065,1.979,2.379,1.979
		c0.003,0,0.006,0,0.009,0s0.007,0,0.009,0c1.315,0,2.38-0.885,2.38-1.979V29.324h2.888v24.635c0,1.095,1.065,1.979,2.38,1.979
		c0.002,0,0.005,0,0.007,0c0.006,0,0.008,0,0.011,0c1.313,0,2.379-0.885,2.379-1.979V9.459c0.037,0.05,0.075,0.103,0.107,0.158
		l5.666,14.902c0.388,1.023,1.7,1.473,2.928,1.006C33.697,25.059,34.379,23.851,33.988,22.828z M11.117,1.013"/>
</g>
</svg>
