<?xml version="1.0" encoding="utf-8"?>
<!-- Generator: Adobe Illustrator 15.0.0, SVG Export Plug-In . SVG Version: 6.00 Build 0)  -->
<!DOCTYPE svg PUBLIC "-//W3C//DTD SVG 1.1//EN" "http://www.w3.org/Graphics/SVG/1.1/DTD/svg11.dtd">
<svg version="1.1" id="Layer_1" xmlns="http://www.w3.org/2000/svg" xmlns:xlink="http://www.w3.org/1999/xlink" x="0px" y="0px"
	 width="45.547px" height="45.547px" viewBox="0 0 45.547 45.547" enable-background="new 0 0 45.547 45.547" xml:space="preserve">
<path fill="none" stroke="#FFFFFF" stroke-width="1.5" stroke-miterlimit="10" d="M7.199,38.346
	c-2.107-2.107-3.734-4.555-4.84-7.277c-1.068-2.637-1.609-5.428-1.609-8.295s0.541-5.658,1.609-8.297
	c1.105-2.721,2.732-5.168,4.84-7.277c2.106-2.105,4.557-3.734,7.277-4.838c2.637-1.07,5.43-1.611,8.297-1.611
	c2.866,0.002,5.657,0.541,8.295,1.611c2.719,1.105,5.17,2.732,7.275,4.838c2.109,2.109,3.736,4.557,4.839,7.279
	c1.071,2.637,1.614,5.426,1.614,8.295c0,2.867-0.543,5.658-1.614,8.295c-1.103,2.721-2.729,5.17-4.839,7.277
	c-2.105,2.107-4.553,3.734-7.277,4.838c-2.638,1.07-5.427,1.613-8.293,1.613c-2.867,0-5.656-0.543-8.297-1.613
	C11.756,42.082,9.306,40.453,7.199,38.346"/>
<path fill="none" stroke="#FFFFFF" stroke-miterlimit="10" d="M19.501,8.321c0.027-0.005-0.045-0.008-0.115-0.011
	C19.424,8.313,19.462,8.314,19.501,8.321z"/>
<path fill="none" stroke="#FFFFFF" stroke-miterlimit="10" d="M31.434,19.803L27.298,8.925c-0.16-0.421-0.62-0.654-1.122-0.618
	c-0.004,0-0.006-0.001-0.009-0.001h-0.936c-0.513,0.821-1.422,1.372-2.463,1.372c-1.04,0-1.951-0.551-2.464-1.372h-0.97
	c-0.489-0.022-0.93,0.208-1.086,0.619l-4.135,10.878c-0.205,0.538,0.152,1.174,0.798,1.42c0.648,0.246,1.339,0.01,1.544-0.53
	l3.006-7.903c0.009-0.017,0.022-0.029,0.035-0.045v23.458c0,0.576,0.562,1.041,1.252,1.041h0.005h0.006
	c0.693,0,1.254-0.465,1.254-1.041V23.224h1.521v12.979c0,0.576,0.561,1.041,1.252,1.041h0.003h0.008
	c0.691,0,1.253-0.465,1.253-1.041V12.76c0.019,0.025,0.039,0.055,0.057,0.083l2.984,7.85c0.205,0.54,0.896,0.776,1.543,0.53
	C31.279,20.977,31.639,20.341,31.434,19.803z"/>
</svg>
