<?xml version="1.0" encoding="utf-8"?>
<!-- Generator: Adobe Illustrator 16.0.0, SVG Export Plug-In . SVG Version: 6.00 Build 0)  -->
<!DOCTYPE svg PUBLIC "-//W3C//DTD SVG 1.1//EN" "http://www.w3.org/Graphics/SVG/1.1/DTD/svg11.dtd">
<svg version="1.1" id="Layer_1" xmlns="http://www.w3.org/2000/svg" xmlns:xlink="http://www.w3.org/1999/xlink" x="0px" y="0px"
	 width="35.099px" height="26.71px" viewBox="0 0 35.099 26.71" enable-background="new 0 0 35.099 26.71" xml:space="preserve">
<path fill="none" stroke="#FFFFFF" stroke-miterlimit="10" d="M11.336,1.034c0.054-0.008-0.085-0.015-0.219-0.021
	C11.191,1.019,11.263,1.022,11.336,1.034z"/>
<g>
	<path fill="none" stroke="#FFFFFF" stroke-width="2" stroke-miterlimit="10" d="M12.863,1.004h-1.841
		C10.095,0.962,9.258,1.399,8.96,2.182L1.109,22.828c-0.389,1.023,0.291,2.231,1.519,2.698s2.539,0.018,2.928-1.006l5.705-15.004
		c0.021-0.031,0.046-0.057,0.068-0.088v14.904h12.44V9.459c0.037,0.05,0.075,0.103,0.107,0.158l5.666,14.902
		c0.388,1.023,1.7,1.473,2.928,1.006c1.227-0.467,1.908-1.675,1.518-2.698l-7.85-20.646c-0.306-0.802-1.178-1.244-2.132-1.175
		c-0.005,0-0.009-0.003-0.015-0.003h-1.775H12.863z"/>
</g>
</svg>
