<?xml version="1.0" encoding="utf-8"?>
<!-- Generator: Adobe Illustrator 15.0.0, SVG Export Plug-In . SVG Version: 6.00 Build 0)  -->
<!DOCTYPE svg PUBLIC "-//W3C//DTD SVG 1.1//EN" "http://www.w3.org/Graphics/SVG/1.1/DTD/svg11.dtd">
<svg version="1.1" id="Layer_1" xmlns="http://www.w3.org/2000/svg" xmlns:xlink="http://www.w3.org/1999/xlink" x="0px" y="0px"
	 width="14.439px" height="33.604px" viewBox="0 0 14.439 33.604" enable-background="new 0 0 14.439 33.604" xml:space="preserve">
<g>
	<path d="M11.062,33.604h-0.011c-1.87,0-3.387-1.336-3.387-2.979V6.991H6.775v23.635c0,1.643-1.516,2.979-3.379,2.979
		C1.516,33.604,0,32.269,0,30.626V0h14.439v30.626C14.439,32.269,12.924,33.604,11.062,33.604z M4.775,4.991h4.889v25.635
		c0,0.53,0.632,0.979,1.38,0.979h0.018c0.747,0,1.378-0.448,1.378-0.979V2H2v28.626c0,0.53,0.631,0.979,1.379,0.979
		c0.765,0,1.396-0.448,1.396-0.979V4.991z"/>
</g>
</svg>
