<?xml version="1.0" encoding="utf-8"?>
<!-- Generator: Adobe Illustrator 15.0.0, SVG Export Plug-In . SVG Version: 6.00 Build 0)  -->
<!DOCTYPE svg PUBLIC "-//W3C//DTD SVG 1.1//EN" "http://www.w3.org/Graphics/SVG/1.1/DTD/svg11.dtd">
<svg version="1.1" id="Layer_1" xmlns="http://www.w3.org/2000/svg" xmlns:xlink="http://www.w3.org/1999/xlink" x="0px" y="0px"
	 width="68.026px" height="67.874px" viewBox="0 0 68.026 67.874" enable-background="new 0 0 68.026 67.874" xml:space="preserve">
<g>
	<path d="M10.157,53.778c-2.689,0-5.217-1.047-7.117-2.948c-3.924-3.924-3.925-10.311-0.001-14.237
		c0.398-0.396,0.825-0.758,1.278-1.081c-0.485-0.338-0.941-0.72-1.366-1.144C1.047,32.466,0,29.938,0,27.249
		c0-2.689,1.047-5.218,2.949-7.119c1.902-1.901,4.43-2.948,7.118-2.948c2.222,0,4.359,0.727,6.106,2.062l0.061-0.052l0.662,0.649
		l15.681,15.69L16.44,51.667l-0.063-0.038C14.608,53.021,12.427,53.778,10.157,53.778z M10.067,19.182
		c-2.154,0-4.18,0.839-5.704,2.362C2.839,23.067,2,25.093,2,27.249c0,2.155,0.839,4.181,2.363,5.705
		c0.69,0.688,1.484,1.239,2.358,1.636l1.968,0.894l-1.956,0.921c-0.849,0.4-1.617,0.939-2.282,1.604
		c-3.143,3.146-3.143,8.264,0.001,11.408c1.523,1.523,3.548,2.362,5.703,2.362c2.021,0,3.953-0.749,5.441-2.109l0.137-0.125
		l14.018-14.019L15.507,21.291C14.019,19.931,12.087,19.182,10.067,19.182z"/>
</g>
<g>
	<path d="M57.965,53.899c-2.257,0-4.424-0.749-6.186-2.124l-0.057,0.038l-0.589-0.574l-15.68-15.688l16.252-16.253l0.068,0.061
		c1.747-1.332,3.882-2.057,6.102-2.057c2.688,0,5.216,1.046,7.117,2.947c3.926,3.925,3.926,10.313,0,14.238
		c-0.397,0.397-0.824,0.758-1.276,1.082c0.485,0.339,0.941,0.721,1.366,1.146c3.925,3.925,3.925,10.312,0,14.238
		C63.181,52.853,60.653,53.899,57.965,53.899z M52.402,49.68l0.122,0.109c1.487,1.36,3.419,2.11,5.44,2.11
		c2.154,0,4.181-0.839,5.704-2.361c3.145-3.146,3.145-8.266,0-11.41c-0.688-0.688-1.482-1.239-2.358-1.636l-1.972-0.895l1.959-0.921
		c0.849-0.399,1.616-0.939,2.281-1.604c3.146-3.145,3.146-8.264,0-11.409c-1.523-1.523-3.549-2.361-5.703-2.361
		c-2.021,0-3.954,0.749-5.442,2.11l-0.154,0.141L38.278,35.555L52.402,49.68z"/>
</g>
<g>
	<path d="M34.072,32.574l-0.8-0.778L17.763,16.284l0.049-0.066c-3.079-3.974-2.766-9.65,0.853-13.268
		C20.566,1.048,23.095,0,25.784,0C28.473,0,31,1.047,32.902,2.948c0.424,0.424,0.807,0.881,1.145,1.367
		c0.323-0.452,0.684-0.877,1.081-1.275c1.902-1.901,4.431-2.949,7.119-2.949c2.689,0,5.218,1.047,7.119,2.949
		c3.556,3.555,3.92,9.098,1.011,13.058l0.088,0.066l-0.808,0.821L34.072,32.574z M19.958,15.65l14.103,14.105l14.143-14.159
		c2.918-3.189,2.808-8.084-0.252-11.143c-1.523-1.523-3.55-2.363-5.705-2.363c-2.154,0-4.181,0.839-5.705,2.363
		c-0.667,0.667-1.205,1.434-1.6,2.277l-0.918,1.961l-0.898-1.97c-0.399-0.877-0.951-1.671-1.639-2.36
		C29.964,2.839,27.938,2,25.784,2c-2.155,0-4.181,0.839-5.705,2.364c-3.06,3.058-3.171,7.952-0.253,11.143L19.958,15.65z"/>
</g>
<g>
	<rect x="33.075" y="31.354" width="2" height="36.52"/>
</g>
</svg>
