<?xml version="1.0" encoding="utf-8"?>
<!-- Generator: Adobe Illustrator 15.0.0, SVG Export Plug-In . SVG Version: 6.00 Build 0)  -->
<!DOCTYPE svg PUBLIC "-//W3C//DTD SVG 1.1//EN" "http://www.w3.org/Graphics/SVG/1.1/DTD/svg11.dtd">
<svg version="1.1" id="Layer_1" xmlns="http://www.w3.org/2000/svg" xmlns:xlink="http://www.w3.org/1999/xlink" x="0px" y="0px"
	 width="42.324px" height="67.35px" viewBox="0 0 42.324 67.35" enable-background="new 0 0 42.324 67.35" xml:space="preserve">
<g>
	<path d="M21.16,67.35C9.492,67.35,0,57.857,0,46.189c0-2.615,0.507-5.252,1.506-7.837c0.769-1.993,1.682-4.055,2.875-6.486
		c1.998-4.077,4.083-8.193,6.1-12.175c1.745-3.444,3.489-6.888,5.2-10.348c1.105-2.243,2.206-4.49,3.306-6.737L20.264,0l1.796,0.878
		c0.143-0.292,0.077-0.53,0.076-0.533c0.071,0.25,0.571,1.101,0.735,1.38c0.121,0.207,0.211,0.364,0.24,0.427l5.731,11.71
		c1.745,3.566,3.616,7.322,5.562,11.163c1.79,3.535,3.532,7.005,5.171,10.602c1.279,2.817,2.748,6.563,2.748,10.563
		C42.324,57.857,32.83,67.35,21.16,67.35z M21.148,2.741l-0.365,0.745c-1.101,2.249-2.203,4.497-3.309,6.743
		c-1.715,3.467-3.462,6.917-5.209,10.367c-2.014,3.976-4.096,8.086-6.088,12.151c-1.167,2.378-2.058,4.388-2.805,6.325
		C2.461,41.428,2,43.822,2,46.189c0,10.565,8.595,19.16,19.16,19.16c10.567,0,19.164-8.595,19.164-19.16
		c0-3.615-1.373-7.102-2.568-9.733c-1.623-3.562-3.354-7.012-5.135-10.527c-1.949-3.849-3.825-7.612-5.574-11.187L21.313,3.024
		C21.287,2.976,21.226,2.873,21.148,2.741z"/>
</g>
</svg>
