<?xml version="1.0" encoding="utf-8"?>
<!-- Generator: Adobe Illustrator 15.0.0, SVG Export Plug-In . SVG Version: 6.00 Build 0)  -->
<!DOCTYPE svg PUBLIC "-//W3C//DTD SVG 1.1//EN" "http://www.w3.org/Graphics/SVG/1.1/DTD/svg11.dtd">
<svg version="1.1" id="Layer_1" xmlns="http://www.w3.org/2000/svg" xmlns:xlink="http://www.w3.org/1999/xlink" x="0px" y="0px"
	 width="66.282px" height="66.28px" viewBox="0 0 66.282 66.28" enable-background="new 0 0 66.282 66.28" xml:space="preserve">
<g>
	<path d="M66.282,34.039v-1.797H40.599l1.292-1.26l-0.9-0.131l12.607-5.241l-0.691-1.659L37.52,30.347l-0.274-0.041L57.21,10.342
		L55.938,9.07L35.691,29.32l-0.105,0.256l-0.052-0.101l0.157-0.155l6.592-15.971l-1.662-0.685L34.526,27.43l-0.485-0.983V0h-1.799
		v26.447l-0.494,1.002l-6.137-14.766l-1.66,0.69l6.618,15.924L10.343,9.07l-1.271,1.272l19.965,19.964l-0.3,0.044L13.35,23.999
		l-0.685,1.661l12.587,5.196l-0.859,0.126l1.292,1.26H0v1.797h27.529l0.331,0.323L12.683,40.67l0.691,1.659l15.266-6.346
		l-0.079,0.465L9.072,55.938l1.271,1.271l17.691-17.692l-0.3,1.75l1.379-0.725L24,52.93l1.661,0.687l5.937-14.381l0.645-0.34V66.28
		h1.799V38.896l0.664,0.352l5.967,14.352l1.66-0.689l-5.135-12.354l1.352,0.711l-0.299-1.749l17.688,17.693l1.272-1.272
		l-19.488-19.49l-0.082-0.478l15.291,6.312l0.685-1.662l-15.184-6.269l0.321-0.313H66.282z M38.024,32.242l-1.401,1.364
		l-0.445,0.434l-0.438,0.428l-0.155,0.151l0.094,0.541l0.369,2.156l0.114,0.664l-0.045-0.022l-2.075-1.093l-0.416-0.219
		l-0.483-0.254l-0.474,0.25l-0.426,0.223l-2.057,1.082l-0.063,0.033l0.114-0.664l0.369-2.147l0.094-0.55l-0.156-0.151l-0.438-0.428
		l-0.44-0.428l-1.405-1.369l-0.004-0.005l0.251-0.036l2.117-0.308l0.966-0.141l0.041-0.006l0.082-0.166l0.377-0.764l0.152-0.307
		l0.422-0.856l0.477-0.966l0.471,0.955l0.429,0.869l0.151,0.307l0.373,0.756l0.086,0.172l0.036,0.006l0.972,0.141l2.093,0.304
		l0.274,0.04L38.024,32.242z"/>
</g>
<g>
	<path fill="#231F20" d="M3.555,44.177c-0.486,0-0.881,0.395-0.881,0.879c0,0.483,0.395,0.879,0.881,0.879
		c0.484,0,0.878-0.396,0.878-0.879C4.433,44.571,4.039,44.177,3.555,44.177"/>
	<path d="M3.555,46.435c-0.761,0-1.381-0.618-1.381-1.379s0.62-1.379,1.381-1.379c0.76,0,1.378,0.618,1.378,1.379
		S4.315,46.435,3.555,46.435z M3.555,44.677c-0.21,0-0.381,0.17-0.381,0.379s0.171,0.379,0.381,0.379
		c0.208,0,0.378-0.17,0.378-0.379S3.764,44.677,3.555,44.677z"/>
</g>
<g>
	<path d="M3.555,46.435c-0.761,0-1.381-0.618-1.381-1.379s0.62-1.379,1.381-1.379c0.76,0,1.378,0.618,1.378,1.379
		S4.315,46.435,3.555,46.435z M3.555,44.677c-0.21,0-0.381,0.17-0.381,0.379s0.171,0.379,0.381,0.379
		c0.208,0,0.378-0.17,0.378-0.379S3.764,44.677,3.555,44.677z"/>
</g>
<g>
	<path fill="#231F20" d="M45.152,61.894c-0.482,0-0.878,0.396-0.878,0.881c0,0.483,0.396,0.88,0.878,0.88
		c0.486,0,0.881-0.396,0.881-0.88C46.033,62.29,45.638,61.894,45.152,61.894"/>
	<path d="M45.152,64.154c-0.76,0-1.378-0.619-1.378-1.38c0-0.762,0.618-1.381,1.378-1.381c0.762,0,1.381,0.619,1.381,1.381
		C46.533,63.535,45.914,64.154,45.152,64.154z M45.152,62.394c-0.205,0-0.378,0.175-0.378,0.381s0.173,0.38,0.378,0.38
		c0.21,0,0.381-0.171,0.381-0.38C45.533,62.564,45.362,62.394,45.152,62.394z"/>
</g>
<g>
	<path d="M45.152,64.154c-0.76,0-1.378-0.619-1.378-1.38c0-0.762,0.618-1.381,1.378-1.381c0.762,0,1.381,0.619,1.381,1.381
		C46.533,63.535,45.914,64.154,45.152,64.154z M45.152,62.394c-0.205,0-0.378,0.175-0.378,0.381s0.173,0.38,0.378,0.38
		c0.21,0,0.381-0.171,0.381-0.38C45.533,62.564,45.362,62.394,45.152,62.394z"/>
</g>
<g>
	<path fill="#231F20" d="M62.872,44.177c-0.483,0-0.879,0.395-0.879,0.879c0,0.483,0.396,0.879,0.879,0.879s0.879-0.396,0.879-0.879
		C63.75,44.571,63.355,44.177,62.872,44.177"/>
	<path d="M62.872,46.435c-0.761,0-1.379-0.618-1.379-1.379s0.618-1.379,1.379-1.379s1.379,0.618,1.379,1.379
		S63.632,46.435,62.872,46.435z M62.872,44.677c-0.209,0-0.379,0.17-0.379,0.379s0.17,0.379,0.379,0.379s0.379-0.17,0.379-0.379
		S63.081,44.677,62.872,44.677z"/>
</g>
<g>
	<path d="M62.872,46.435c-0.761,0-1.379-0.618-1.379-1.379s0.618-1.379,1.379-1.379s1.379,0.618,1.379,1.379
		S63.632,46.435,62.872,46.435z M62.872,44.677c-0.209,0-0.379,0.17-0.379,0.379s0.17,0.379,0.379,0.379s0.379-0.17,0.379-0.379
		S63.081,44.677,62.872,44.677z"/>
</g>
<g>
	<path fill="#231F20" d="M3.555,22.054c0.484,0,0.878-0.394,0.878-0.879c0-0.484-0.394-0.879-0.878-0.879
		c-0.486,0-0.881,0.395-0.881,0.879C2.674,21.66,3.069,22.054,3.555,22.054"/>
	<path d="M3.555,22.554c-0.761,0-1.381-0.619-1.381-1.379s0.62-1.379,1.381-1.379c0.76,0,1.378,0.619,1.378,1.379
		S4.315,22.554,3.555,22.554z M3.555,20.796c-0.21,0-0.381,0.17-0.381,0.379s0.171,0.379,0.381,0.379
		c0.208,0,0.378-0.17,0.378-0.379S3.764,20.796,3.555,20.796z"/>
</g>
<g>
	<path d="M3.555,22.554c-0.761,0-1.381-0.619-1.381-1.379s0.62-1.379,1.381-1.379c0.76,0,1.378,0.619,1.378,1.379
		S4.315,22.554,3.555,22.554z M3.555,20.796c-0.21,0-0.381,0.17-0.381,0.379s0.171,0.379,0.381,0.379
		c0.208,0,0.378-0.17,0.378-0.379S3.764,20.796,3.555,20.796z"/>
</g>
<g>
	<path fill="#231F20" d="M21.274,61.894c-0.484,0-0.879,0.396-0.879,0.881c0,0.483,0.395,0.88,0.879,0.88
		c0.485,0,0.88-0.396,0.88-0.88C22.154,62.29,21.759,61.894,21.274,61.894"/>
	<path d="M21.274,64.154c-0.76,0-1.379-0.619-1.379-1.38c0-0.762,0.619-1.381,1.379-1.381c0.761,0,1.38,0.619,1.38,1.381
		C22.654,63.535,22.035,64.154,21.274,64.154z M21.274,62.394c-0.209,0-0.379,0.171-0.379,0.381c0,0.209,0.17,0.38,0.379,0.38
		c0.209,0,0.38-0.171,0.38-0.38C21.654,62.564,21.483,62.394,21.274,62.394z"/>
</g>
<g>
	<path d="M21.274,64.154c-0.76,0-1.379-0.619-1.379-1.38c0-0.762,0.619-1.381,1.379-1.381c0.761,0,1.38,0.619,1.38,1.381
		C22.654,63.535,22.035,64.154,21.274,64.154z M21.274,62.394c-0.209,0-0.379,0.171-0.379,0.381c0,0.209,0.17,0.38,0.379,0.38
		c0.209,0,0.38-0.171,0.38-0.38C21.654,62.564,21.483,62.394,21.274,62.394z"/>
</g>
<g>
	<path fill="#231F20" d="M62.872,22.054c0.483,0,0.879-0.394,0.879-0.879c0-0.484-0.396-0.879-0.879-0.879s-0.879,0.395-0.879,0.879
		C61.993,21.66,62.388,22.054,62.872,22.054"/>
	<path d="M62.872,22.554c-0.761,0-1.379-0.619-1.379-1.379s0.618-1.379,1.379-1.379s1.379,0.619,1.379,1.379
		S63.632,22.554,62.872,22.554z M62.872,20.796c-0.209,0-0.379,0.17-0.379,0.379s0.17,0.379,0.379,0.379s0.379-0.17,0.379-0.379
		S63.081,20.796,62.872,20.796z"/>
</g>
<g>
	<path d="M62.872,22.554c-0.761,0-1.379-0.619-1.379-1.379s0.618-1.379,1.379-1.379s1.379,0.619,1.379,1.379
		S63.632,22.554,62.872,22.554z M62.872,20.796c-0.209,0-0.379,0.17-0.379,0.379s0.17,0.379,0.379,0.379s0.379-0.17,0.379-0.379
		S63.081,20.796,62.872,20.796z"/>
</g>
<g>
	<path fill="#231F20" d="M45.152,4.335c0.486,0,0.881-0.395,0.881-0.879s-0.395-0.879-0.881-0.879c-0.482,0-0.878,0.395-0.878,0.879
		S44.669,4.335,45.152,4.335"/>
	<path d="M45.152,4.835c-0.76,0-1.378-0.619-1.378-1.379s0.618-1.379,1.378-1.379c0.762,0,1.381,0.619,1.381,1.379
		S45.914,4.835,45.152,4.835z M45.152,3.078c-0.208,0-0.378,0.17-0.378,0.379s0.17,0.379,0.378,0.379c0.21,0,0.381-0.17,0.381-0.379
		S45.362,3.078,45.152,3.078z"/>
</g>
<g>
	<path d="M45.152,4.835c-0.76,0-1.378-0.619-1.378-1.379s0.618-1.379,1.378-1.379c0.762,0,1.381,0.619,1.381,1.379
		S45.914,4.835,45.152,4.835z M45.152,3.078c-0.208,0-0.378,0.17-0.378,0.379s0.17,0.379,0.378,0.379c0.21,0,0.381-0.17,0.381-0.379
		S45.362,3.078,45.152,3.078z"/>
</g>
<g>
	<path fill="#231F20" d="M21.274,4.335c0.485,0,0.88-0.395,0.88-0.879s-0.395-0.879-0.88-0.879c-0.484,0-0.879,0.395-0.879,0.879
		S20.79,4.335,21.274,4.335"/>
	<path d="M21.274,4.835c-0.76,0-1.379-0.619-1.379-1.379s0.619-1.379,1.379-1.379c0.761,0,1.38,0.619,1.38,1.379
		S22.035,4.835,21.274,4.835z M21.274,3.078c-0.209,0-0.379,0.17-0.379,0.379s0.17,0.379,0.379,0.379c0.209,0,0.38-0.17,0.38-0.379
		S21.483,3.078,21.274,3.078z"/>
</g>
<g>
	<path d="M21.274,4.835c-0.76,0-1.379-0.619-1.379-1.379s0.619-1.379,1.379-1.379c0.761,0,1.38,0.619,1.38,1.379
		S22.035,4.835,21.274,4.835z M21.274,3.078c-0.209,0-0.379,0.17-0.379,0.379s0.17,0.379,0.379,0.379c0.209,0,0.38-0.17,0.38-0.379
		S21.483,3.078,21.274,3.078z"/>
</g>
<g>
	<path fill="#FFFFFF" d="M21.274,6.134c1.477,0,2.677-1.202,2.677-2.677c0-1.477-1.2-2.678-2.677-2.678s-2.677,1.201-2.677,2.678
		C18.597,4.932,19.797,6.134,21.274,6.134 M21.274,2.578c0.485,0,0.88,0.395,0.88,0.879s-0.395,0.879-0.88,0.879
		c-0.484,0-0.879-0.396-0.879-0.879S20.79,2.578,21.274,2.578"/>
	<path d="M21.274,6.634c-1.751,0-3.177-1.425-3.177-3.177c0-1.752,1.425-3.178,3.177-3.178s3.177,1.425,3.177,3.178
		C24.451,5.208,23.025,6.634,21.274,6.634z M21.274,1.279c-1.2,0-2.177,0.977-2.177,2.178s0.977,2.177,2.177,2.177
		s2.177-0.977,2.177-2.177S22.474,1.279,21.274,1.279z M21.274,4.836c-0.76,0-1.379-0.619-1.379-1.379
		c0-0.76,0.619-1.379,1.379-1.379c0.761,0,1.38,0.619,1.38,1.379C22.654,4.217,22.035,4.836,21.274,4.836z M21.274,3.078
		c-0.209,0-0.379,0.17-0.379,0.379s0.17,0.379,0.379,0.379c0.209,0,0.38-0.17,0.38-0.379S21.483,3.078,21.274,3.078z"/>
</g>
<g>
	<path fill="#FFFFFF" d="M45.152,6.134c1.479,0,2.678-1.202,2.678-2.677c0-1.477-1.199-2.678-2.678-2.678
		c-1.477,0-2.675,1.201-2.675,2.678C42.477,4.932,43.675,6.134,45.152,6.134 M45.152,2.578c0.486,0,0.881,0.395,0.881,0.879
		s-0.395,0.879-0.881,0.879c-0.482,0-0.878-0.396-0.878-0.879S44.669,2.578,45.152,2.578"/>
	<path d="M45.152,6.634c-1.751,0-3.175-1.425-3.175-3.177c0-1.752,1.424-3.178,3.175-3.178c1.752,0,3.178,1.425,3.178,3.178
		C48.33,5.208,46.904,6.634,45.152,6.634z M45.152,1.279c-1.199,0-2.175,0.977-2.175,2.178s0.976,2.177,2.175,2.177
		c1.201,0,2.178-0.977,2.178-2.177S46.353,1.279,45.152,1.279z M45.152,4.836c-0.76,0-1.378-0.619-1.378-1.379
		c0-0.76,0.618-1.379,1.378-1.379c0.762,0,1.381,0.619,1.381,1.379C46.533,4.217,45.914,4.836,45.152,4.836z M45.152,3.078
		c-0.208,0-0.378,0.17-0.378,0.379c0,0.206,0.173,0.379,0.378,0.379c0.21,0,0.381-0.17,0.381-0.379S45.362,3.078,45.152,3.078z"/>
</g>
<g>
	<path fill="#FFFFFF" d="M21.274,60.097c-1.477,0-2.677,1.202-2.677,2.678c0,1.477,1.2,2.678,2.677,2.678s2.677-1.201,2.677-2.678
		C23.951,61.299,22.751,60.097,21.274,60.097 M21.274,63.653c-0.484,0-0.879-0.396-0.879-0.879c0-0.484,0.395-0.881,0.879-0.881
		c0.485,0,0.88,0.396,0.88,0.881C22.154,63.258,21.759,63.653,21.274,63.653"/>
	<path d="M21.274,65.952c-1.751,0-3.177-1.426-3.177-3.178s1.425-3.178,3.177-3.178s3.177,1.426,3.177,3.178
		S23.025,65.952,21.274,65.952z M21.274,60.597c-1.2,0-2.177,0.977-2.177,2.178s0.977,2.178,2.177,2.178s2.177-0.977,2.177-2.178
		S22.474,60.597,21.274,60.597z M21.274,64.153c-0.76,0-1.379-0.618-1.379-1.379c0-0.762,0.619-1.381,1.379-1.381
		c0.761,0,1.38,0.619,1.38,1.381C22.654,63.535,22.035,64.153,21.274,64.153z M21.274,62.394c-0.209,0-0.379,0.171-0.379,0.381
		c0,0.209,0.17,0.379,0.379,0.379c0.209,0,0.38-0.17,0.38-0.379C21.654,62.564,21.483,62.394,21.274,62.394z"/>
</g>
<g>
	<path fill="#FFFFFF" d="M45.152,60.097c-1.477,0-2.675,1.202-2.675,2.678c0,1.477,1.198,2.678,2.675,2.678
		c1.479,0,2.678-1.201,2.678-2.678C47.83,61.299,46.63,60.097,45.152,60.097 M45.152,63.653c-0.482,0-0.878-0.396-0.878-0.879
		c0-0.484,0.396-0.881,0.878-0.881c0.486,0,0.881,0.396,0.881,0.881C46.033,63.258,45.638,63.653,45.152,63.653"/>
	<path d="M45.152,65.952c-1.751,0-3.175-1.426-3.175-3.178s1.424-3.178,3.175-3.178c1.752,0,3.178,1.426,3.178,3.178
		S46.904,65.952,45.152,65.952z M45.152,60.597c-1.199,0-2.175,0.977-2.175,2.178s0.976,2.178,2.175,2.178
		c1.201,0,2.178-0.977,2.178-2.178S46.353,60.597,45.152,60.597z M45.152,64.153c-0.76,0-1.378-0.618-1.378-1.379
		c0-0.762,0.618-1.381,1.378-1.381c0.762,0,1.381,0.619,1.381,1.381C46.533,63.535,45.914,64.153,45.152,64.153z M45.152,62.394
		c-0.205,0-0.378,0.175-0.378,0.381c0,0.205,0.173,0.379,0.378,0.379c0.21,0,0.381-0.17,0.381-0.379
		C45.533,62.564,45.362,62.394,45.152,62.394z"/>
</g>
<g>
	<path fill="#FFFFFF" d="M3.555,42.378c-1.477,0-2.679,1.202-2.679,2.678c0,1.477,1.202,2.678,2.679,2.678
		c1.475,0,2.676-1.201,2.676-2.678C6.231,43.58,5.03,42.378,3.555,42.378 M3.555,45.935c-0.486,0-0.881-0.396-0.881-0.879
		c0-0.484,0.395-0.879,0.881-0.879c0.484,0,0.878,0.395,0.878,0.879C4.433,45.539,4.039,45.935,3.555,45.935"/>
	<path d="M3.555,48.233c-1.753,0-3.179-1.426-3.179-3.178s1.426-3.178,3.179-3.178c1.751,0,3.176,1.426,3.176,3.178
		S5.306,48.233,3.555,48.233z M3.555,42.878c-1.202,0-2.179,0.977-2.179,2.178s0.978,2.178,2.179,2.178
		c1.2,0,2.176-0.977,2.176-2.178S4.755,42.878,3.555,42.878z M3.555,46.435c-0.761,0-1.381-0.618-1.381-1.379
		s0.62-1.379,1.381-1.379c0.76,0,1.378,0.618,1.378,1.379S4.315,46.435,3.555,46.435z M3.555,44.677c-0.21,0-0.381,0.17-0.381,0.379
		s0.171,0.379,0.381,0.379c0.208,0,0.378-0.17,0.378-0.379S3.764,44.677,3.555,44.677z"/>
</g>
<g>
	<path fill="#FFFFFF" d="M3.555,23.853c1.475,0,2.676-1.201,2.676-2.677c0-1.477-1.201-2.678-2.676-2.678
		c-1.477,0-2.679,1.201-2.679,2.678C0.876,22.651,2.078,23.853,3.555,23.853 M3.555,20.296c0.484,0,0.878,0.395,0.878,0.879
		c0,0.485-0.394,0.879-0.878,0.879c-0.486,0-0.881-0.395-0.881-0.879C2.674,20.691,3.069,20.296,3.555,20.296"/>
	<path d="M3.555,24.353c-1.753,0-3.179-1.425-3.179-3.177c0-1.752,1.426-3.178,3.179-3.178c1.751,0,3.176,1.425,3.176,3.178
		C6.731,22.927,5.306,24.353,3.555,24.353z M3.555,18.998c-1.202,0-2.179,0.977-2.179,2.178s0.978,2.177,2.179,2.177
		c1.2,0,2.176-0.977,2.176-2.177S4.755,18.998,3.555,18.998z M3.555,22.555c-0.761,0-1.381-0.619-1.381-1.379
		c0-0.76,0.62-1.379,1.381-1.379c0.76,0,1.378,0.619,1.378,1.379C4.933,21.936,4.315,22.555,3.555,22.555z M3.555,20.796
		c-0.21,0-0.381,0.17-0.381,0.379s0.171,0.379,0.381,0.379c0.208,0,0.378-0.17,0.378-0.379S3.764,20.796,3.555,20.796z"/>
</g>
<g>
	<path fill="#FFFFFF" d="M62.872,42.378c-1.478,0-2.679,1.202-2.679,2.678c0,1.477,1.201,2.678,2.679,2.678s2.678-1.201,2.678-2.678
		C65.549,43.58,64.349,42.378,62.872,42.378 M62.872,45.935c-0.483,0-0.879-0.396-0.879-0.879c0-0.484,0.396-0.879,0.879-0.879
		s0.879,0.395,0.879,0.879C63.75,45.539,63.355,45.935,62.872,45.935"/>
	<path d="M62.872,48.233c-1.753,0-3.179-1.426-3.179-3.178s1.426-3.178,3.179-3.178c1.752,0,3.178,1.426,3.178,3.178
		S64.624,48.233,62.872,48.233z M62.872,42.878c-1.201,0-2.179,0.977-2.179,2.178s0.978,2.178,2.179,2.178s2.178-0.977,2.178-2.178
		S64.073,42.878,62.872,42.878z M62.872,46.435c-0.761,0-1.379-0.618-1.379-1.379s0.618-1.379,1.379-1.379s1.379,0.618,1.379,1.379
		S63.632,46.435,62.872,46.435z M62.872,44.677c-0.209,0-0.379,0.17-0.379,0.379s0.17,0.379,0.379,0.379s0.379-0.17,0.379-0.379
		S63.081,44.677,62.872,44.677z"/>
</g>
<g>
	<path fill="#FFFFFF" d="M62.872,23.853c1.478,0,2.678-1.201,2.678-2.677c0-1.477-1.2-2.678-2.678-2.678s-2.679,1.201-2.679,2.678
		C60.193,22.651,61.394,23.853,62.872,23.853 M62.872,20.296c0.483,0,0.879,0.395,0.879,0.879c0,0.485-0.396,0.879-0.879,0.879
		s-0.879-0.395-0.879-0.879C61.993,20.691,62.388,20.296,62.872,20.296"/>
	<path d="M62.872,24.353c-1.753,0-3.179-1.425-3.179-3.177c0-1.752,1.426-3.178,3.179-3.178c1.752,0,3.178,1.425,3.178,3.178
		C66.049,22.927,64.624,24.353,62.872,24.353z M62.872,18.998c-1.201,0-2.179,0.977-2.179,2.178s0.978,2.177,2.179,2.177
		s2.178-0.977,2.178-2.177S64.073,18.998,62.872,18.998z M62.872,22.555c-0.761,0-1.379-0.619-1.379-1.379
		c0-0.76,0.618-1.379,1.379-1.379s1.379,0.619,1.379,1.379C64.25,21.936,63.632,22.555,62.872,22.555z M62.872,20.796
		c-0.209,0-0.379,0.17-0.379,0.379s0.17,0.379,0.379,0.379s0.379-0.17,0.379-0.379S63.081,20.796,62.872,20.796z"/>
</g>
</svg>
