<?xml version="1.0" encoding="utf-8"?>
<!-- Generator: Adobe Illustrator 15.0.0, SVG Export Plug-In . SVG Version: 6.00 Build 0)  -->
<!DOCTYPE svg PUBLIC "-//W3C//DTD SVG 1.1//EN" "http://www.w3.org/Graphics/SVG/1.1/DTD/svg11.dtd">
<svg version="1.1" id="Layer_1" xmlns="http://www.w3.org/2000/svg" xmlns:xlink="http://www.w3.org/1999/xlink" x="0px" y="0px"
	 width="66.282px" height="66.283px" viewBox="0 0 66.282 66.283" enable-background="new 0 0 66.282 66.283" xml:space="preserve">
<path d="M51.571,32.24c0-0.025,0.004-0.051,0.004-0.076c-0.002-2.494-0.488-4.907-1.445-7.17c-0.72-1.703-1.693-3.271-2.885-4.685
	l9.965-9.967L55.938,9.07l-9.918,9.92c-1.664-1.628-3.58-2.916-5.709-3.812c-1.986-0.842-4.121-1.292-6.271-1.395V0h-0.898h-0.901
	v13.783c-2.148,0.102-4.283,0.551-6.273,1.391c-2.127,0.903-4.043,2.191-5.707,3.816l-9.919-9.92L9.706,9.706l-0.635,0.636
	l9.965,9.967c-1.191,1.413-2.164,2.98-2.887,4.685c-0.958,2.266-1.445,4.679-1.445,7.17c0,0.025,0.004,0.051,0.004,0.076H0v0.901
	v0.898h14.798c0.184,1.83,0.635,3.605,1.351,5.299c0.899,2.127,2.187,4.042,3.815,5.707L9.071,55.937l1.271,1.271l10.94-10.939
	c1.41,1.191,2.979,2.163,4.688,2.885c1.989,0.844,4.097,1.297,6.271,1.401v15.728h0.901h0.898V50.555
	c2.172-0.103,4.281-0.558,6.271-1.399c1.711-0.724,3.278-1.697,4.688-2.887l10.939,10.942l0.637-0.636l0.635-0.637L46.313,45.045
	c1.629-1.665,2.918-3.58,3.816-5.707c0.717-1.694,1.168-3.47,1.352-5.299h14.801v-0.898V32.24H51.571z M49.665,34.039
	c-0.176,1.587-0.568,3.128-1.191,4.599c-0.809,1.912-1.966,3.635-3.43,5.135c-0.049,0.051-0.092,0.106-0.143,0.157
	c-0.162,0.162-0.34,0.306-0.508,0.463c-0.221,0.205-0.436,0.416-0.666,0.604c-1.242,1.029-2.619,1.869-4.115,2.502
	c-1.766,0.746-3.661,1.148-5.572,1.252c-0.301,0.016-0.6,0.044-0.898,0.044c-0.301,0-0.6-0.028-0.901-0.044
	c-1.912-0.104-3.806-0.506-5.572-1.252c-1.493-0.633-2.873-1.472-4.116-2.502c-0.407-0.336-0.8-0.691-1.176-1.068
	c-0.05-0.05-0.093-0.105-0.142-0.156c-1.463-1.5-2.621-3.223-3.428-5.136c-0.622-1.47-1.016-3.011-1.193-4.598
	c-0.032-0.298-0.047-0.598-0.063-0.898c-0.017-0.3-0.043-0.598-0.045-0.901c0-0.025-0.004-0.051-0.004-0.076
	c0-2.249,0.438-4.427,1.305-6.47c0.631-1.492,1.469-2.87,2.501-4.115c0.191-0.23,0.402-0.445,0.605-0.665
	c0.154-0.17,0.3-0.348,0.463-0.512c0.051-0.049,0.105-0.092,0.156-0.141c1.499-1.459,3.224-2.618,5.137-3.431
	c1.769-0.746,3.642-1.154,5.572-1.256c0.301-0.015,0.597-0.043,0.901-0.043c0.3,0,0.598,0.028,0.898,0.043
	c1.932,0.102,3.805,0.511,5.572,1.26c1.914,0.808,3.637,1.965,5.135,3.428c0.051,0.049,0.105,0.091,0.156,0.14
	c0.377,0.377,0.732,0.771,1.068,1.178c1.033,1.246,1.873,2.623,2.502,4.114c0.863,2.041,1.301,4.218,1.303,6.47
	c0,0.025-0.004,0.051-0.004,0.076c0,0.303-0.025,0.601-0.043,0.901S49.698,33.741,49.665,34.039"/>
</svg>
