<?xml version="1.0" encoding="utf-8"?>
<!-- Generator: Adobe Illustrator 15.0.0, SVG Export Plug-In . SVG Version: 6.00 Build 0)  -->
<!DOCTYPE svg PUBLIC "-//W3C//DTD SVG 1.1//EN" "http://www.w3.org/Graphics/SVG/1.1/DTD/svg11.dtd">
<svg version="1.1" id="Layer_1" xmlns="http://www.w3.org/2000/svg" xmlns:xlink="http://www.w3.org/1999/xlink" x="0px" y="0px"
	 width="39.423px" height="66.965px" viewBox="0 0 39.423 66.965" enable-background="new 0 0 39.423 66.965" xml:space="preserve">
<g>
	<path d="M11.061,66.965c-1.205,0-2.353-0.231-3.421-0.711c-3.545-1.588-5.743-5.703-6.189-11.588l1.994-0.15
		c0.388,5.118,2.168,8.639,5.013,9.914c5.637,2.522,14.603-3.983,21.319-15.483c1.106-1.898,2.133-3.896,3.05-5.938
		c4.335-9.67,8.716-28.455-2.364-37.517C27.946,3.436,23.393,2,19.389,2C11.911,2,5.197,7.421,1.869,16.147L0,15.435
		C3.631,5.914,11.061,0,19.389,0c3.619,0,9.024,1.234,12.339,3.943c12.017,9.828,7.491,29.694,2.923,39.884
		c-0.945,2.106-2.004,4.168-3.146,6.127C25.319,60.541,17.402,66.965,11.061,66.965z"/>
</g>
<g>
	<path d="M11.397,59.139l-0.222-1.988c1.008-0.112,6.287-2.629,11.848-12.147c0.965-1.652,1.861-3.399,2.665-5.193
		c1.679-3.741,2.809-7.211,3.454-10.607c1.329-6.983,0.481-16.031-6.28-18.55c-3.576-1.332-8.764,0.207-10.887,3.23
		c-2.548,3.627-2.631,8.964-0.205,13.281c1.214,2.158,3.027,4.306,5.39,6.384c0.816,0.478,5.002,3.048,5.41,5.743
		c0.132,0.872-0.121,1.688-0.73,2.362c-0.156,0.196-0.471,0.474-1.051,0.589c-1.98,0.388-5.765-1.524-11.242-5.7
		c-0.208-0.106-0.819-0.35-1.149-0.135c-0.396,0.26-0.735,1.345-0.496,3.614c0.286,2.714-0.521,4.403-1.606,6.33
		c-0.38,0.675-0.441,1.6-0.141,2.15c0.174,0.32,0.449,0.481,0.863,0.507c1.083,0.065,1.731-0.633,2.677-1.778
		c0.182-0.221,0.364-0.44,0.551-0.653c1.667-1.894,3.599-2.525,6.082-1.98L15.9,46.549c-1.765-0.384-2.971,0.005-4.154,1.35
		c-0.174,0.196-0.342,0.4-0.51,0.604c-0.969,1.174-2.174,2.646-4.341,2.502c-1.104-0.066-1.992-0.616-2.499-1.547
		c-0.631-1.16-0.569-2.804,0.156-4.089c1.107-1.966,1.566-3.175,1.359-5.139c-0.305-2.901,0.155-4.703,1.408-5.507
		c1.434-0.922,3.097,0.009,3.283,0.118l0.098,0.066c7.139,5.451,9.332,5.427,9.68,5.376c0.188-0.219,0.25-0.429,0.21-0.693
		c-0.221-1.468-3.137-3.569-4.514-4.357l-0.162-0.115c-2.569-2.249-4.55-4.595-5.888-6.974c-2.795-4.974-2.67-11.167,0.312-15.411
		c2.681-3.817,8.735-5.626,13.222-3.954c7.929,2.954,9.021,13.05,7.547,20.798c-0.675,3.552-1.851,7.167-3.595,11.052
		c-0.832,1.858-1.762,3.669-2.763,5.383C19.454,55.079,13.749,58.876,11.397,59.139z"/>
</g>
</svg>
