<?xml version="1.0" encoding="utf-8"?>
<!-- Generator: Adobe Illustrator 15.0.0, SVG Export Plug-In . SVG Version: 6.00 Build 0)  -->
<!DOCTYPE svg PUBLIC "-//W3C//DTD SVG 1.1//EN" "http://www.w3.org/Graphics/SVG/1.1/DTD/svg11.dtd">
<svg version="1.1" id="Layer_1" xmlns="http://www.w3.org/2000/svg" xmlns:xlink="http://www.w3.org/1999/xlink" x="0px" y="0px"
	 width="28.178px" height="20.988px" viewBox="0 0 28.178 20.988" enable-background="new 0 0 28.178 20.988" xml:space="preserve">
<g>
	<path d="M27.083,18.549L10.961,2.386C9.903,1.503,8.516,1,7.09,1C3.732,1,1,3.733,1,7.092H0C0,3.181,3.181,0,7.09,0
		c1.661,0,3.275,0.586,4.546,1.65L27.79,17.842L27.083,18.549z"/>
</g>
<g>
	<path d="M14.088,20.988C6.32,20.988,0,14.668,0,6.898h1c0,7.218,5.871,13.09,13.088,13.09c7.218,0,13.09-5.872,13.09-13.09h1
		C28.178,14.668,21.857,20.988,14.088,20.988z"/>
</g>
<g>
	<path d="M28.178,7.092h-1c0-3.359-2.731-6.092-6.09-6.092c-1.434,0-2.825,0.506-3.919,1.426L16.526,1.66
		C17.8,0.59,19.42,0,21.088,0C24.997,0,28.178,3.181,28.178,7.092z"/>
</g>
<g>
	<rect x="8.229" y="-1.169" transform="matrix(0.7091 0.7052 -0.7052 0.7091 9.7955 -3.1611)" width="1" height="22.917"/>
</g>
</svg>
