<?xml version="1.0" encoding="utf-8"?>
<!-- Generator: Adobe Illustrator 15.0.0, SVG Export Plug-In . SVG Version: 6.00 Build 0)  -->
<!DOCTYPE svg PUBLIC "-//W3C//DTD SVG 1.1//EN" "http://www.w3.org/Graphics/SVG/1.1/DTD/svg11.dtd">
<svg version="1.1" id="Layer_1" xmlns="http://www.w3.org/2000/svg" xmlns:xlink="http://www.w3.org/1999/xlink" x="0px" y="0px"
	 width="35.117px" height="20.718px" viewBox="0 0 35.117 20.718" enable-background="new 0 0 35.117 20.718" xml:space="preserve">
<g>
	<path d="M17.569,19.301l-0.298-0.222c-2.66-1.973-4.312-5.585-4.312-9.428c0-3.904,1.612-7.43,4.312-9.431L17.569,0l0.298,0.221
		c2.659,1.974,4.312,5.588,4.312,9.431c0,3.84-1.652,7.452-4.311,9.428L17.569,19.301z M17.569,1.257
		c-2.235,1.831-3.609,5.008-3.609,8.395c0,3.385,1.374,6.56,3.609,8.393c2.235-1.835,3.609-5.011,3.609-8.393
		C21.178,6.268,19.803,3.091,17.569,1.257z"/>
</g>
<g>
	<path d="M17.909,19.109l-0.372-0.004c-3.313-0.038-6.773-1.993-9.03-5.103C6.251,10.891,5.466,6.997,6.459,3.839L6.57,3.485
		l0.371,0.004c3.313,0.035,6.773,1.989,9.03,5.099c2.291,3.157,3.056,6.958,2.049,10.167L17.909,19.109z M7.309,4.502
		c-0.732,2.795,0.021,6.173,2.009,8.913c1.987,2.739,4.966,4.503,7.854,4.677c0.731-2.798-0.021-6.177-2.009-8.917
		C13.174,6.436,10.195,4.672,7.309,4.502z"/>
</g>
<g>
	<path d="M11.976,20.718L11.976,20.718c-1.487,0-2.978-0.263-4.432-0.781c-3.621-1.29-6.47-4.059-7.436-7.227L0,12.356l0.308-0.206
		c2.737-1.835,6.706-2.189,10.329-0.897c3.674,1.307,6.454,4.009,7.435,7.227l0.108,0.354l-0.308,0.206
		C16.234,20.138,14.194,20.718,11.976,20.718z M1.184,12.778c0.976,2.721,3.506,5.081,6.696,6.218
		c3.161,1.126,6.668,0.888,9.118-0.584c-0.977-2.723-3.508-5.083-6.695-6.218C7.142,11.069,3.634,11.306,1.184,12.778z"/>
</g>
<g>
	<path d="M17.208,19.109l-0.111-0.354c-1.009-3.208-0.244-7.009,2.048-10.167c2.291-3.158,5.666-5.064,9.028-5.099l0.37-0.004
		l0.111,0.354c0.994,3.161,0.21,7.055-2.047,10.164c-2.292,3.156-5.668,5.063-9.028,5.103L17.208,19.109z M27.806,4.502
		c-2.887,0.17-5.864,1.934-7.853,4.673c-1.988,2.741-2.741,6.12-2.008,8.917c2.886-0.173,5.864-1.938,7.854-4.677
		C27.786,10.677,28.539,7.3,27.806,4.502z"/>
</g>
<g>
	<path d="M23.139,20.718c-2.218,0-4.258-0.58-5.897-1.679l-0.308-0.206l0.108-0.355c0.967-3.169,3.817-5.938,7.435-7.226
		c3.628-1.292,7.596-0.938,10.331,0.897l0.309,0.206l-0.108,0.355c-0.982,3.216-3.762,5.917-7.436,7.226
		C26.118,20.456,24.626,20.718,23.139,20.718z M18.118,18.412c2.45,1.471,5.958,1.708,9.119,0.584
		c3.188-1.136,5.718-3.497,6.695-6.218c-2.447-1.472-5.957-1.709-9.119-0.584C21.625,13.329,19.095,15.689,18.118,18.412z"/>
</g>
</svg>
