<?xml version="1.0" encoding="utf-8"?>
<!-- Generator: Adobe Illustrator 15.0.0, SVG Export Plug-In . SVG Version: 6.00 Build 0)  -->
<!DOCTYPE svg PUBLIC "-//W3C//DTD SVG 1.1//EN" "http://www.w3.org/Graphics/SVG/1.1/DTD/svg11.dtd">
<svg version="1.1" id="Layer_1" xmlns="http://www.w3.org/2000/svg" xmlns:xlink="http://www.w3.org/1999/xlink" x="0px" y="0px"
	 width="119.27px" height="119.267px" viewBox="0 0 119.27 119.267" enable-background="new 0 0 119.27 119.267"
	 xml:space="preserve">
<path fill="none" stroke="#FFFFFF" stroke-width="2" stroke-miterlimit="10" d="M1,59.635c0-7.932,1.543-15.607,4.594-22.807
	c2.951-6.979,7.181-13.257,12.581-18.65c5.399-5.397,11.673-9.635,18.651-12.586C44.027,2.547,51.701,1,59.635,1
	c7.929,0.004,15.607,1.547,22.81,4.596c6.978,2.945,13.253,7.185,18.651,12.582c5.396,5.396,9.631,11.672,12.582,18.65
	c3.043,7.199,4.59,14.875,4.592,22.807c0,7.937-1.547,15.612-4.592,22.815c-2.951,6.973-7.182,13.244-12.584,18.646
	c-5.396,5.398-11.67,9.631-18.647,12.586c-7.202,3.041-14.879,4.588-22.81,4.584c-7.938,0.004-15.61-1.543-22.813-4.588
	c-6.976-2.951-13.254-7.184-18.649-12.582c-5.4-5.396-9.632-11.674-12.583-18.65C2.543,75.247,1,67.571,1,59.635"/>
<path fill="none" stroke="#FFFFFF" stroke-width="2" stroke-miterlimit="10" d="M53.397,46.991c0.324-0.482,0.918-0.746,1.52-0.616
	c0.788,0.171,1.29,0.947,1.121,1.734l-6.321,16.295l-2.639,6.727h0.017h25.078h0.018l-8.979-23.034
	c-0.162-0.784,0.338-1.553,1.121-1.722c0.643-0.139,1.271,0.174,1.576,0.718l2.243-7.374c-0.302-0.795-1.167-1.233-2.112-1.167
	c-0.006,0-0.01-0.002-0.016-0.002H53.161c-0.92-0.042-1.75,0.393-2.045,1.169L53.397,46.991z"/>
</svg>
