<?xml version="1.0" encoding="utf-8"?>
<!-- Generator: Adobe Illustrator 15.0.0, SVG Export Plug-In . SVG Version: 6.00 Build 0)  -->
<!DOCTYPE svg PUBLIC "-//W3C//DTD SVG 1.1//EN" "http://www.w3.org/Graphics/SVG/1.1/DTD/svg11.dtd">
<svg version="1.1" id="Layer_1" xmlns="http://www.w3.org/2000/svg" xmlns:xlink="http://www.w3.org/1999/xlink" x="0px" y="0px"
	 width="45.547px" height="45.547px" viewBox="0 0 45.547 45.547" enable-background="new 0 0 45.547 45.547" xml:space="preserve">
<path fill="none" stroke="#FFFFFF" stroke-miterlimit="10" d="M19.913,15.234h-1.122c-0.568-0.026-1.078,0.241-1.261,0.718
	l-4.793,12.604c-0.235,0.624,0.18,1.361,0.927,1.646c0.75,0.286,1.553,0.011,1.788-0.614l3.481-9.158
	c0.015-0.019,0.03-0.034,0.043-0.052v9.098h7.596v-9.08c0.021,0.03,0.044,0.063,0.066,0.097l3.457,9.096
	c0.235,0.625,1.037,0.9,1.788,0.614c0.749-0.284,1.163-1.021,0.925-1.646l-4.791-12.604c-0.187-0.489-0.719-0.758-1.3-0.717
	c-0.003,0-0.007-0.001-0.011-0.001h-1.083H19.913z"/>
<path fill="none" stroke="#FFFFFF" stroke-width="1.5" stroke-miterlimit="10" d="M7.201,38.346
	c-2.107-2.105-3.734-4.555-4.838-7.277c-1.07-2.637-1.613-5.428-1.613-8.295s0.543-5.658,1.613-8.297
	c1.104-2.719,2.73-5.168,4.838-7.277c2.105-2.104,4.557-3.732,7.277-4.838c2.637-1.068,5.43-1.611,8.295-1.611
	c2.871,0.002,5.66,0.543,8.297,1.611c2.719,1.105,5.168,2.732,7.277,4.838c2.107,2.109,3.734,4.559,4.836,7.281
	c1.072,2.635,1.613,5.424,1.613,8.293s-0.541,5.658-1.613,8.295c-1.102,2.721-2.729,5.172-4.836,7.277
	c-2.109,2.109-4.557,3.736-7.277,4.84c-2.641,1.068-5.426,1.613-8.297,1.611c-2.865,0.002-5.656-0.543-8.295-1.611
	C11.758,42.082,9.307,40.453,7.201,38.346"/>
</svg>
