<?xml version="1.0" encoding="utf-8"?>
<!-- Generator: Adobe Illustrator 15.0.0, SVG Export Plug-In . SVG Version: 6.00 Build 0)  -->
<!DOCTYPE svg PUBLIC "-//W3C//DTD SVG 1.1//EN" "http://www.w3.org/Graphics/SVG/1.1/DTD/svg11.dtd">
<svg version="1.1" id="Layer_1" xmlns="http://www.w3.org/2000/svg" xmlns:xlink="http://www.w3.org/1999/xlink" x="0px" y="0px"
	 width="119.27px" height="119.267px" viewBox="0 0 119.27 119.267" enable-background="new 0 0 119.27 119.267"
	 xml:space="preserve">
<path fill="none" stroke="#FFFFFF" stroke-width="2" stroke-miterlimit="10" d="M1,59.635c0-7.932,1.543-15.607,4.594-22.807
	c2.951-6.979,7.181-13.257,12.581-18.65c5.399-5.398,11.673-9.635,18.651-12.586C44.027,2.547,51.701,1,59.635,1
	c7.93,0.004,15.607,1.547,22.811,4.596c6.977,2.945,13.252,7.184,18.65,12.582c5.396,5.396,9.631,11.672,12.582,18.65
	c3.043,7.199,4.59,14.875,4.592,22.807c0,7.937-1.547,15.612-4.592,22.815c-2.951,6.973-7.182,13.244-12.584,18.646
	c-5.396,5.398-11.67,9.631-18.646,12.586c-7.203,3.041-14.879,4.588-22.811,4.584c-7.938,0.004-15.61-1.543-22.813-4.588
	c-6.976-2.951-13.254-7.184-18.649-12.582c-5.4-5.396-9.632-11.674-12.583-18.65C2.543,75.247,1,67.571,1,59.635"/>
<circle fill="none" stroke="#FFFFFF" stroke-width="2" stroke-miterlimit="10" cx="59.625" cy="31.697" r="5.468"/>
<path fill="none" stroke="#FFFFFF" stroke-width="2" stroke-miterlimit="10" d="M75.941,60.195l-7.789-20.477
	c-0.302-0.795-1.166-1.233-2.113-1.167c-0.004,0-0.008-0.002-0.015-0.002H53.161c-0.919-0.042-1.75,0.393-2.044,1.169l-7.788,20.477
	c-0.386,1.014,0.289,2.213,1.506,2.676c1.219,0.463,2.518,0.018,2.903-0.998l5.66-14.882c0.324-0.482,0.918-0.746,1.519-0.616
	c0.788,0.171,1.29,0.947,1.121,1.734l0.034-0.003l-6.354,16.298l-2.64,6.727h0.018h6.37V91.07c0,1.086,1.056,1.965,2.359,1.965
	h0.008h0.01c1.303,0,2.361-0.879,2.361-1.965V71.131h2.864V91.07c0,1.086,1.054,1.965,2.359,1.965h0.008h0.013
	c1.301,0,2.356-0.879,2.356-1.965V71.131h6.37h0.017l-8.979-23.034c-0.162-0.784,0.338-1.553,1.12-1.722
	c0.644-0.139,1.272,0.174,1.578,0.718l5.621,14.78c0.385,1.016,1.686,1.461,2.904,0.998C75.652,62.408,76.326,61.209,75.941,60.195z
	 M53.472,38.579c-0.072-0.012-0.145-0.014-0.218-0.02C53.388,38.565,53.524,38.571,53.472,38.579z"/>
</svg>
