<?xml version="1.0" encoding="utf-8"?>
<!-- Generator: Adobe Illustrator 15.0.0, SVG Export Plug-In . SVG Version: 6.00 Build 0)  -->
<!DOCTYPE svg PUBLIC "-//W3C//DTD SVG 1.1//EN" "http://www.w3.org/Graphics/SVG/1.1/DTD/svg11.dtd">
<svg version="1.1" id="Layer_1" xmlns="http://www.w3.org/2000/svg" xmlns:xlink="http://www.w3.org/1999/xlink" x="0px" y="0px"
	 width="143.428px" height="143.204px" viewBox="0 0 143.428 143.204" enable-background="new 0 0 143.428 143.204"
	 xml:space="preserve">
<path fill="#4D4D4F" d="M34.711,129.197c0.01-0.004,0.486-0.615,4.352,0.439c12.465,3.406,26.977,6.646,41.52,1.813
	c0.283-0.088,0.48-0.317,0.539-0.607c0.184-0.95-1.43-2.674-1.443-2.689c-0.832-0.699-1.838-0.838-2.73-0.957l-0.434-0.061
	c-2.275-0.35-4.438-0.921-6.723-1.521l-0.459-0.118c-7.455-1.957-14.051-5.046-20.75-9.722c-0.988-1.066-1.877-2.563-1.598-3.048
	c0.047-0.071,0.498-0.687,3.619,0.03c0.893,0.479,8.064,3.916,24.021,0.004c0.273-0.111,2.871-0.816,3.123-2.521
	c0.162-1.074-0.6-2.115-2.332-3.195l-0.193-0.08c-0.135-0.026-13.477-2.86-17.941-9.012c-0.365-0.496-1.006-1.711-0.662-2.299
	c0.293-0.498,1.4-0.664,3.074-0.451c0.521,0.031,12.754,0.716,15.279-4.069c0.158-0.185,0.434-0.617,0.352-1.258
	c-0.16-1.204-1.457-2.408-3.926-3.657c-0.021-0.014-1.17-0.749-2.215-1.9c-0.957-0.184-1.879-0.461-2.754-0.841
	c-1.945-0.84-3.646-2.145-4.979-3.778c0.127,1.387,0.762,2.719,1.361,3.951c0.449,0.912,0.867,1.772,1.096,2.631
	c0.332,1.264,0.199,2.289-0.377,2.966c-0.596,0.7-1.676,1.014-3.037,0.876c-3.045-0.299-5.438-1.84-7.972-3.477
	c-0.665-0.43-1.337-0.865-2.026-1.279c-2.111-1.266-3.619-1.545-4.611-0.854c-1.299,0.902-0.938,3.021-0.891,3.268
	c1.775,8.433,10.49,17.066,10.803,17.364c1.875,2.466-1.207,2.929-3.152,2.602c-2.059-0.349-3.965-1.485-5.785-2.447
	c-3.76-1.996-7.398-4.238-10.662-6.976c-1.158-0.973-2.262-2.043-3.373-3.277l-0.094-0.104c-0.813-0.903-2.174-2.447-3.813-1.861
	c-1.961,0.674-0.98,3.908-0.561,5.295l0.059,0.203c3.943,13.328,18.781,24.354,19.951,25.211c1.004,1.107,1.066,1.625,1.008,1.732
	c-0.17,0.297-1.486,0.359-2.631,0.137c-20.328-6.875-31.059-19.768-31.203-19.938c-3.207-3.209-4.254-3.285-4.896-2.89
	c-0.859,0.521-0.49,1.947-0.369,2.31c0.58,2.806,1.834,5.772,3.436,8.692c9.479,13.01,23.221,22.725,39.154,27.072
	c-5.957-2.556-12.854-5.989-16.859-9.619C35.147,130.435,34.58,129.429,34.711,129.197"/>
<path fill="#4D4D4F" d="M39.607,11.72c0.209,1.186-3.176,4.103-4.289,5.062c-0.34,0.294-0.598,0.516-0.734,0.648
	c-6.563,6.481-14.445,15.379-17.125,26.761c-0.504,2.137-0.607,4.886,0.756,5.579c1.332,0.677,2.832-1.071,3.338-1.66
	c2.949-3.69,5.705-6.691,8.43-9.182c3.719-3.411,7.455-6.021,11.426-7.995c0.189-0.092,0.41-0.208,0.654-0.337
	c1.586-0.832,4.896-2.566,6.082-1.264c1.328,1.445-1.676,4.429-2.959,5.701l-0.42,0.42c-4.203,4.312-6.783,8.351-8.373,13.104
	c-0.021,0.067-2.086,6.858-0.008,8.309c0.736,0.509,1.734,0.265,2.969-0.729c1.279-1.023,2.527-2.201,3.73-3.347
	c2.99-2.83,6.098-5.745,10.002-6.745c1.564-0.395,2.879-0.163,3.596,0.635c0.709,0.777,0.795,2.043,0.248,3.554
	c-0.406,1.126-0.924,2.194-1.426,3.227c-1.039,2.153-2.113,4.371-2.184,7.11c-0.047,1.902,0.371,3.138,1.283,3.769
	c1.473,1.029,3.717,0.132,5.891-0.734c0.297-0.116,0.59-0.231,0.873-0.342c0.885-1.109,1.951-2.075,3.16-2.852
	c1.256-0.815,2.666-1.423,4.189-1.77c-1.08-0.51-2.244-0.735-3.385-0.948c-1.621-0.3-3.15-0.588-4.385-1.685
	c-0.576-0.506-0.816-1.042-0.74-1.644c0.25-1.943,3.422-4.478,9.439-7.534l0.367-0.191c1.297-0.668,2.895-2.02,3.117-3.64
	c0.1-0.698-0.025-1.758-1.18-2.838c-3.004-2.804-7.719-1.837-11.158-1.125c-1.52,0.312-3.031,0.744-4.492,1.163
	c-2.109,0.602-4.291,1.224-6.477,1.485c-0.818,0.099-1.527-0.031-1.725-0.318c-0.133-0.189-0.059-0.571,0.188-1.044
	c1.467-2.796,4.324-5.037,7.189-7.045c2.883-2.016,6.207-3.742,10.176-5.281c1.859-0.72,3.9-1.39,6.064-1.977
	c1.174-0.311,2.42-1.694,2.309-2.98c-0.348-4.057-7.377-3.612-10.021-3.444l-0.21,0.017c-6.03,0.37-12.001,1.952-17.876,3.51
	c-2.301,0.614-4.693,1.297-7.09,2.042c-1.623,0.441-2.223,0.229-2.32,0.061c-0.232-0.427,0.521-1.99,2.275-3.56
	c8.928-7.991,16.5-10.566,24.52-13.292c2.434-0.826,4.947-1.68,7.557-2.702l0.314-0.124c1.393-0.519,2.918-1.164,3.365-2.196
	c0.17-0.388,0.172-0.806,0.01-1.201C74.029,0.912,72.752,0.298,71.238,0C53.457,0.117,37.188,6.735,24.703,17.593
	c8.662-5.678,13.816-6.144,14.598-6.179C39.574,11.542,39.598,11.67,39.607,11.72"/>
<path fill="#4D4D4F" d="M2.209,71.44c0.664-2.656,1.275-2.738,1.273-2.746c0.143-0.016,0.465,0.331,0.6,0.587
	c0.51,1.838,1.037,3.673,1.568,5.506c0.143,0.49,0.283,0.957,0.424,1.432c1.567,5.311,3.055,9.859,4.938,14.314
	c2.914,6.871,6.535,12.144,11.078,16.117c2.104,1.844,3.115,1.905,3.594,1.777c0.123-0.032,0.213-0.077,0.273-0.109
	c0.871-0.469,0.715-1.703,0.664-2.108c-0.283-2.193-0.953-4.31-1.605-6.361c-0.16-0.514-0.324-1.024-0.48-1.54
	c-0.686-2.248-1.295-4.275-1.84-6.32c-1.455-5.496-3.064-13.662-0.236-21.128c0.244-0.642,0.537-0.978,0.721-1.031
	c0.084-0.021,0.197,0.021,0.336,0.136c0.768,0.598,1.148,1.664,1.512,2.692l0.137,0.378c0.234,0.646,0.465,1.293,0.693,1.941
	c0.326,0.905,0.646,1.814,0.979,2.715c0.643,1.729,1.326,3.398,2.033,4.974c1.564,3.477,3.588,7.45,6.744,10.536
	c1.07,1.054,2.922,2.373,4.586,2.605c0.936,0.133,1.469-0.212,1.752-0.516c0.953-1.031,0.486-3.126,0.209-4.383l-0.094-0.414
	c-1.15-5.283-2.455-11.271-1.289-16.639c0.311-1.419,0.816-2.445,1.352-2.747c0.197-0.116,0.402-0.128,0.646-0.04
	c1.588,0.544,2.947,2.85,3.945,4.529l0.469,0.798c1.836,3.018,3.912,6.437,7.918,7.286c0.883,0.19,1.637,0.059,2.244-0.395
	c1.406-1.053,1.592-3.581,1.756-5.816c0.043-0.602,0.088-1.184,0.152-1.695c0.066-0.535,0.158-0.988,0.297-1.285
	c0.461-0.979,1.01-1.676,1.641-2.155c0.006,0.067,0.002,0.129,0.012,0.194c0.121,1.154,0.432,2.245,0.895,3.249
	c0.086,0.192,0.188,0.377,0.283,0.562c1.039,1.948,2.66,3.515,4.615,4.479c0.164,0.08,0.338,0.148,0.506,0.22
	c1.049,0.452,2.176,0.747,3.359,0.829c0.318,0.021,0.633,0.031,0.955,0.029c0.293-0.003,0.594-0.019,0.895-0.054
	c1.307-0.134,2.521-0.519,3.629-1.078c0.268-0.136,0.52-0.286,0.771-0.44c1.018-0.627,1.924-1.411,2.666-2.334
	c0.16-0.201,0.301-0.416,0.447-0.635c1.168,0.081,2.385-0.343,3.631-1.229c0.162-0.113,0.318-0.202,0.477-0.334
	c0.77-0.62,1.504-1.527,2.279-2.486c0.135-0.167,0.273-0.357,0.416-0.563c0.021-0.029,0.045-0.06,0.064-0.093
	c1.794-2.621,3.992-4.251,5.66-0.51c1.102,2.467,1.277,5.188,1.307,7.854c0.021,2.1-0.471,4.983,0.867,6.783
	c0.127,0.166,0.27,0.314,0.436,0.433c0.584,0.423,1.334,0.472,2.232,0.138c3.781-1.412,6.057-5.127,7.938-9.505l0.496,0.664
	c0,0,1.963,2.916,3.684,0.549c0,0,0.037-0.053,0.086-0.149c0.447-0.742,0.471-1.773,0.393-2.668
	c-0.084-1.228-0.479-2.896-1.506-5.061c-0.088-0.346-0.152-0.688-0.188-1.01c0.133-0.348,0.262-0.692,0.383-1.006
	c0.26-0.63,0.496-0.976,0.699-1.161c0.113-0.019,0.215-0.047,0.348-0.047c0.119,0,0.234,0.036,0.346,0.089
	c0.699,0.604,1.553,2.45,2.117,4.195c0,0,0.926,1.745,2.215,1.697c0.434-0.014,0.904-0.228,1.391-0.772
	c1.279-1.428,0.703-4.417,0.334-6.12c-0.865-3.955-2.863-8.121-5.064-11.502c-1.744-2.688-4.646-6.141-8.035-6.628
	c-0.934-0.138-1.467,0.203-1.754,0.51c-0.947,1.028-0.484,3.125-0.207,4.383l0.092,0.414c1.234,5.56,1.932,11.313,1.207,17
	c-0.193,1.525-0.412,3.148-1.006,4.579c-0.342,0.81-1.244,2.724-2.42,2.243c-0.705-0.288-1.188-2.336-1.457-2.992
	c-0.879-2.116-1.32-4.392-2.123-6.53c-1.303-3.47-3.375-6.671-7.238-7.491c-0.889-0.19-1.641-0.058-2.242,0.396
	c-1.408,1.056-1.598,3.581-1.758,5.815c-0.02,0.259-0.043,0.509-0.063,0.754c-0.074,0.92-0.17,1.734-0.375,2.195
	c-0.006,0.015-0.01,0.027-0.014,0.039c-0.031,0.064-0.063,0.12-0.098,0.18c-0.498,0.985-1.09,1.68-1.773,2.124
	c0.076-0.717,0.105-1.447,0.027-2.191c-0.111-1.033-0.369-2.016-0.746-2.929c-0.092-0.211-0.193-0.42-0.295-0.624
	c-0.984-1.974-2.545-3.582-4.465-4.601c-0.213-0.117-0.438-0.213-0.668-0.313c-1.061-0.47-2.205-0.775-3.396-0.869
	c-0.359-0.027-0.719-0.034-1.084-0.032c-0.285,0.006-0.566,0.019-0.854,0.049c-1.303,0.138-2.521,0.52-3.629,1.081
	c-0.34,0.172-0.666,0.362-0.984,0.567c-0.973,0.634-1.836,1.42-2.541,2.331c-0.189,0.241-0.359,0.487-0.527,0.742
	c-1.172,0.01-2.391,0.5-3.639,1.469c-0.051,0.036-0.098,0.065-0.15,0.106c-0.762,0.617-1.5,1.528-2.277,2.486
	c-1.211,1.498-2.592,3.196-3.727,3.085c-0.659-0.065-1.342-0.747-2.02-2.028c-1.242-2.351-1.865-5.257-1.912-8.886
	c-0.004-0.239,0.012-0.548,0.027-0.903c0.074-1.786,0.176-4.236-1.119-5.171c-0.58-0.423-1.33-0.475-2.229-0.137
	c-5.334,1.988-8.148,9.688-10.207,15.306c-0.385,1.05-0.74,2.028-1.082,2.876c-0.412,1.022-0.801,1.354-1.006,1.338
	c-0.975-0.094-2.557-3.982-2.994-6.274c-1.158-6.062-0.164-12.621,0.943-18.181c0.338-1.073,1.322-4.651-0.092-5.573
	c-1.035-0.681-2.51,0.423-3.463,1.256c-0.367,0.239-9.086,6.138-12.914,29.377c-0.326,1.642-0.773,2.083-0.965,2.099
	c-0.473,0.019-1.531-1.35-2.186-3.629c-0.203-0.707-0.381-1.418-0.537-2.134c-2.283-10.278,0.033-20.775,2.375-28.919
	c0.047-0.168,0.156-0.461,0.293-0.842c1.094-3.016,2.164-6.344,1.066-7.692c-0.262-0.312-0.754-0.661-1.635-0.528l-0.102,0.015
	l-0.094,0.046c-0.205,0.112-2.617,1.476-5.875,5.85C2.639,49.681,0,60.389,0,71.706c0,6.416,0.852,12.635,2.439,18.557
	C0.668,79.639,1.674,73.566,2.209,71.44 M66.455,67.407c0.594-0.768,1.34-1.379,2.211-1.818c0.723-0.367,1.488-0.594,2.271-0.675
	c0.41-0.045,0.814-0.042,1.209-0.01c0.902,0.07,1.762,0.318,2.549,0.741c1.338,0.708,2.398,1.869,2.979,3.271
	c0.244,0.592,0.402,1.208,0.469,1.831c0.068,0.667,0.039,1.328-0.086,1.969c-0.211,1.029-0.666,2.003-1.324,2.826
	c-0.572,0.715-1.32,1.313-2.154,1.738c-0.719,0.365-1.484,0.593-2.27,0.675c-0.211,0.023-0.426,0.032-0.635,0.032
	c-0.174,0-0.35-0.004-0.523-0.018c-0.838-0.061-1.654-0.282-2.418-0.659c-1.357-0.666-2.447-1.788-3.07-3.155
	c-0.297-0.647-0.488-1.336-0.561-2.036c-0.021-0.181-0.025-0.362-0.029-0.542C65.037,70.078,65.527,68.594,66.455,67.407"/>
<path fill="#4D4D4F" d="M141.225,73.272c-0.133,0.526-0.49,2.625-1.295,2.655c-0.676,0.022-0.844-1.42-0.98-1.903
	c-0.541-1.906-0.984-3.848-1.646-5.719c-0.01-0.054-0.027-0.105-0.048-0.159c-1.528-5.163-2.987-9.608-4.835-13.967
	c-2.91-6.869-6.531-12.144-11.074-16.12c-2.652-2.314-3.57-1.824-3.867-1.664c-0.875,0.465-0.719,1.7-0.666,2.106
	c0.283,2.192,0.951,4.31,1.607,6.36c0.158,0.512,0.32,1.03,0.479,1.543c0.686,2.247,1.295,4.274,1.842,6.319
	c1.436,5.438,3.021,13.484,0.314,20.886c-1.178,3.218-2.07,6.419-3.6,9.519c-0.908,1.847-1.918,3.646-3.004,5.394
	c-1.025,1.649-2.305,3.137-2.863,5.035c-0.354,1.189-0.826,3.471,0.439,4.297c1.051,0.682,2.52-0.418,3.469-1.252
	c0.236-0.156,4.004-2.723,7.66-10.862c3.273-6.459,5.689-6.289,5.689-6.289c4.357,0.7,3.609,7.915,3.609,7.915l0.059-0.225
	c-0.613,4.561-1.697,8.869-2.791,12.666c-0.043,0.166-0.154,0.461-0.293,0.843c-1.092,3.014-2.162,6.341-1.064,7.684
	c1.375,1.688,4.615-0.315,5.604-1.588l1.012-1.304c5.387-10.062,8.447-21.549,8.447-33.737c0-7.329-1.107-14.403-3.16-21.066
	C142.996,63.643,141.814,70.906,141.225,73.272 M132.568,76.162c-1.492-2.294-3.305-2.843-5.4-1.605l-0.717,0.418l0.195-0.803
	c0.549-2.267,1.027-4.627,1.416-7.008c0.309-1.543,0.773-2.385,1.311-2.392c0.799,0,1.902,1.704,2.525,3.884
	c0.658,2.295,1.086,4.677,1.316,7.287l0.123,1.396L132.568,76.162z"/>
<path fill="#4D4D4F" d="M106.512,10.658c0.848,0.62,2.838,2.073,2.391,3.015c-0.137,0.284-1.014,0.791-6.248-0.587
	c-0.334-0.092-0.596-0.158-0.758-0.196c-7.729-1.672-16.494-3.574-25.402-3.371c-3.602,0.08-12.131,0.525-13.617,2.903
	c-0.313,0.498-0.35,1.055-0.09,1.617c0.803,1.759,3.457,2.234,5.219,2.551l0.523,0.097c7.164,1.379,13.578,2.769,19.516,5.771
	c1.75,0.888,8.318,4.968,8.473,7.29c0.016,0.243-0.029,0.566-0.527,0.908c-0.76,0.516-1.834,0.24-2.869-0.035
	c-0.402-0.1-0.793-0.202-1.158-0.258c-11.025-1.767-16.008-1.772-23.191-0.01c-0.842,0.174-2.729,0.873-3.102,2.296
	c-0.168,0.644-0.088,1.241,0.24,1.784c0.928,1.537,3.594,2.16,5.547,2.615c0.467,0.11,0.877,0.203,1.164,0.293
	c3.887,1.225,6.859,2.541,9.357,4.136c1.879,1.209,3.189,2.379,4.137,3.68c0.363,0.499,1.004,1.716,0.66,2.299
	c-0.295,0.497-1.395,0.663-3.07,0.452c-3.943-0.239-9.645-0.259-13.648,2.291c-1.074,0.686-1.629,1.498-1.648,2.418
	c-0.035,1.713,1.773,3.205,3.547,4.442c0.701,0.492,1.301,0.976,1.816,1.456c1.119,0.187,2.195,0.499,3.211,0.954
	c1.938,0.871,3.629,2.21,4.938,3.874c-0.084-1.464-0.592-2.766-0.84-3.294c-0.221-0.486-0.561-1.026-0.92-1.602
	c-1.424-2.266-2.318-3.964-0.832-5.161c1.109-0.893,3.262-0.771,6.227,0.361c1.994,0.76,3.848,1.917,5.637,3.04
	c0.568,0.352,1.137,0.708,1.705,1.052c2.115,1.271,3.621,1.554,4.615,0.86c1.299-0.909,0.936-3.025,0.887-3.274
	C96.627,46.9,87.912,38.269,87.6,37.964c-0.609-0.797-0.844-1.446-0.66-1.778c0.359-0.634,2.213-0.754,3.268-0.649
	c2.268,0.56,4.576,1.439,6.866,2.61c3.724,1.901,7.125,4.132,10.128,6.642c1.154,0.966,2.258,2.038,3.372,3.272l0.089,0.101
	c0.818,0.913,2.164,2.427,3.814,1.872c1.963-0.673,0.98-3.917,0.563-5.296l-0.061-0.204c-0.627-2.112-1.535-4.212-2.775-6.423
	c-3.49-6.206-8.768-12.137-15.688-17.647c-1.805-1.433-2.492-2.527-2.404-2.845c0.018-0.068,0.201-0.225,0.762-0.293
	c4.229-0.576,8.813,2.16,12.498,4.361l0.805,0.477c7.25,4.297,13.873,9.42,19.684,15.228c3.203,3.206,4.244,3.279,4.893,2.89
	c0.859-0.526,0.486-1.951,0.369-2.31c-0.514-2.491-1.561-5.106-2.908-7.705c-8.668-12.195-21.047-21.579-35.477-26.483
	c4.072,1.88,8.031,4.064,11.461,6.644L106.512,10.658z"/>
<path fill="#4D4D4F" d="M103.789,131.387c-0.207-1.178,3.18-4.099,4.289-5.058c0.342-0.292,0.6-0.52,0.732-0.651
	c6.563-6.481,14.447-15.379,17.127-26.756c0.506-2.144,0.609-4.889-0.752-5.58c-1.332-0.675-2.835,1.068-3.34,1.66
	c-14.34,17.924-24.697,18.852-24.883,18.875c-2.125,0.441-2.4,0.03-2.406,0.029c-0.211-0.413,0.957-2.102,2.457-3.521
	c3.799-4.436,7.967-9.785,9.988-15.832c0.023-0.067,2.09-6.855,0.01-8.306c-0.736-0.518-1.738-0.271-2.969,0.726
	c-1.277,1.026-2.523,2.205-3.73,3.348c-2.992,2.828-6.1,5.746-10.002,6.744c-1.563,0.392-2.877,0.166-3.598-0.633
	c-0.707-0.78-0.793-2.043-0.248-3.557c0.41-1.123,0.924-2.195,1.43-3.229c1.037-2.149,2.113-4.37,2.184-7.104
	c0.047-1.909-0.373-3.143-1.283-3.773c-1.475-1.026-3.719-0.128-5.893,0.733c-0.48,0.189-0.947,0.371-1.396,0.533
	c-0.873,0.999-1.893,1.873-3.037,2.575c-1.293,0.793-2.74,1.368-4.293,1.679c0.387,0.248,0.803,0.483,1.258,0.692
	c0.906,0.412,2.104,0.673,3.262,0.923c1.852,0.4,3.947,0.855,4.354,1.893c0.236,0.613-0.074,1.524-0.92,2.707
	c-1.662,2.324-5.676,4.385-8.336,5.748l-0.414,0.215c-1.295,0.668-2.893,2.023-3.117,3.641c-0.1,0.704,0.029,1.761,1.182,2.838
	c3.529,3.291,10.283,1.451,16.242-0.172c2.439-0.662,4.744-1.287,6.424-1.43c0.941-0.07,1.279,0.105,1.332,0.229
	c0.295,0.667-1.445,3.08-3.799,5.27c-6.045,5.627-14.217,8.686-20.105,10.295c-0.227,0.112-2.229,1.121-2.182,2.771
	c0.035,1.261,1.223,2.356,3.623,3.345l0.115,0.037c0.365,0.063,9.086,1.583,31.477-5.342c1.617-0.443,2.225-0.236,2.314-0.064
	c0.236,0.429-0.518,1.989-2.27,3.557c-8.93,7.99-16.504,10.568-24.52,13.296c-2.434,0.825-4.947,1.68-7.561,2.706l-0.314,0.119
	c-1.395,0.519-2.912,1.164-3.359,2.195c-0.172,0.39-0.178,0.805-0.016,1.199c1.229,2.99,7.863,2.182,10.285,2.055
	c0.229-0.015,0.461-0.034,0.691-0.052c15.48-1.75,29.482-8.446,40.383-18.467c-9.574,6.647-15.285,7.166-16.109,7.204
	C103.824,131.565,103.801,131.439,103.789,131.387"/>
</svg>
