<?xml version="1.0" encoding="utf-8"?>
<!-- Generator: Adobe Illustrator 15.0.0, SVG Export Plug-In . SVG Version: 6.00 Build 0)  -->
<!DOCTYPE svg PUBLIC "-//W3C//DTD SVG 1.1//EN" "http://www.w3.org/Graphics/SVG/1.1/DTD/svg11.dtd">
<svg version="1.1" id="Layer_1" xmlns="http://www.w3.org/2000/svg" xmlns:xlink="http://www.w3.org/1999/xlink" x="0px" y="0px"
	 width="35.097px" height="26.71px" viewBox="0 0 35.097 26.71" enable-background="new 0 0 35.097 26.71" xml:space="preserve">
<g>
	<path d="M31.481,26.71c-1.325,0-2.453-0.722-2.875-1.837l-3.838-10.095v10.554h-14.44V14.777l-3.84,10.099
		c-0.422,1.114-1.55,1.835-2.874,1.835c-0.456,0-0.907-0.085-1.344-0.251c-0.811-0.308-1.479-0.87-1.881-1.584
		c-0.429-0.761-0.507-1.637-0.217-2.403L8.024,1.827c0.421-1.109,1.55-1.825,2.875-1.825l0.168,0.004l12.967-0.001
		C24.07,0.002,24.135,0,24.2,0c1.322,0,2.449,0.717,2.872,1.826l7.85,20.646c0.26,0.681,0.23,1.443-0.085,2.145
		c-0.37,0.826-1.104,1.498-2.012,1.843C32.389,26.625,31.937,26.71,31.481,26.71z M22.768,6.443l1.802,2.418
		c0.058,0.077,0.113,0.158,0.164,0.244l0.076,0.157l5.666,14.902c0.181,0.478,0.953,0.686,1.637,0.426
		c0.411-0.156,0.746-0.452,0.899-0.792c0.067-0.151,0.13-0.381,0.04-0.614l-7.85-20.646C25.079,2.211,24.684,2,24.2,2l-0.313,0.019
		l-0.045-0.014L10.898,2.001c-0.487,0-0.881,0.21-1.005,0.536L2.042,23.183c-0.109,0.287,0.01,0.569,0.09,0.712
		c0.17,0.302,0.479,0.555,0.849,0.695c0.69,0.262,1.457,0.05,1.637-0.425l5.909-15.337l1.812-2.521l-0.012,3.121v13.904h10.44V6.443
		z"/>
</g>
</svg>
