<?xml version="1.0" encoding="utf-8"?>
<!-- Generator: Adobe Illustrator 15.0.0, SVG Export Plug-In . SVG Version: 6.00 Build 0)  -->
<!DOCTYPE svg PUBLIC "-//W3C//DTD SVG 1.1//EN" "http://www.w3.org/Graphics/SVG/1.1/DTD/svg11.dtd">
<svg version="1.1" id="Layer_1" xmlns="http://www.w3.org/2000/svg" xmlns:xlink="http://www.w3.org/1999/xlink" x="0px" y="0px"
	 width="80.034px" height="91.168px" viewBox="0 0 80.034 91.168" enable-background="new 0 0 80.034 91.168" xml:space="preserve">
<g>
	<path d="M66.37,59.213c-0.745,0-1.424-0.411-1.772-1.072c-0.507-0.987-0.121-2.193,0.854-2.698c0.955-0.494,2.203-0.09,2.69,0.857
		c0.245,0.469,0.293,1.01,0.132,1.519c-0.161,0.51-0.512,0.926-0.987,1.172C67.002,59.136,66.687,59.213,66.37,59.213z"/>
</g>
<g>
	<path d="M67.586,61.035c-0.017,0-0.032,0-0.049-0.001c-3.605-0.173-4.915-2.24-4.969-2.328l-0.248-0.404l0.156-0.447
		c0.604-1.738,1.487-3.932,2.265-4.511c0.443-0.33,1.069-0.238,1.399,0.204c0.324,0.436,0.242,1.048-0.182,1.382
		c-0.265,0.28-0.868,1.6-1.399,3.039c0.424,0.381,1.358,0.985,3.073,1.067c0.552,0.026,0.978,0.495,0.951,1.047
		C68.559,60.618,68.116,61.035,67.586,61.035z"/>
</g>
<g>
	<path d="M57.162,91.168c-1.514,0-3.109-0.68-4.663-1.996c-4.612-3.908-7.834-12.227-7.834-20.229
		c0-6.236,1.264-11.525,3.756-15.722c1.343-2.262,2.722-3.87,4.214-4.92c0.976-0.686,2.647-1.323,4.216-1.415
		c-0.926-0.431-1.43-1.047-1.499-1.837c-0.037-0.428,0.074-0.847,0.284-1.25c-0.268,0.171-0.445,0.271-0.485,0.293l-1.481,0.814
		v-1.062c-0.737,1.833-1.793,2.942-3.146,3.301c-2.449,0.648-4.741-1.535-4.838-1.627l-0.241-0.233l-0.052-0.332
		c-0.265-1.702-0.235-3.242,0.001-4.631c-0.626,1.953-1.448,3.3-1.523,3.421c-0.063,0.101-1.532,2.41-3.82,2.495
		c-1.455,0.064-2.804-0.764-4.027-2.43l1.612-1.184c0.804,1.096,1.564,1.629,2.334,1.616c1.017-0.034,1.937-1.136,2.205-1.558
		c0.03-0.049,3.467-5.716,1.08-10.282l-1.962-3.755l3.435,2.481c0.078,0.057,1.338,0.99,2.232,2.984
		c1.53-2.054,4.313-3.215,6.547-4.146l0.331-0.138l0.775,1.843c-0.351,0.149-8.454,3.706-7.295,12.622
		c0.584,0.47,1.733,1.179,2.696,0.92c1.065-0.287,1.717-1.719,2.084-2.927c-0.021-0.983-0.252-2.207-0.553-2.473l-1.129-0.996
		l1.355-0.654c0.114-0.056,1.159-0.526,2.22,0.14c0.835,0.524,1.353,1.541,1.565,3.085c1.438-1.158,3.402-3.281,2.71-5.859
		l-0.838-3.122l2.454,2.104c0.16,0.137,1.452,1.32,1.58,3.843l7.552,2.409l-4.717,0.886l-0.811,3.572
		c-0.02,0.085-0.414,1.741-1.948,2.753c0.338,0.632,0.64,1.495,0.558,2.486c-0.113,1.372-0.907,2.603-2.357,3.659L58.562,52.5
		c0.093-0.071,0.309-0.471,0.379-1.24c0.089-0.972-0.127-1.749-0.272-1.911c-0.214-0.236-0.554-0.389-1.006-0.446
		c-1.326-0.18-3.103,0.491-3.877,1.036c-1.239,0.871-2.466,2.319-3.646,4.305c-2.306,3.883-3.475,8.828-3.475,14.7
		c0,8.315,3.585,15.703,7.127,18.703c0.957,0.811,2.399,1.719,3.851,1.483l0.328,1.973C57.704,91.147,57.435,91.168,57.162,91.168z
		 M58.017,45.201c0.821,0.076,2.957,0.063,3.732-0.852l2.246-2.647l-3.657,0.687c-1.499,0.812-2.955,2.016-2.993,2.485
		c0,0,0.001,0,0.001,0C57.364,44.874,57.512,45.029,58.017,45.201z M59.547,39.839c-0.222,0.398-0.475,0.771-0.744,1.119
		c0.275-0.162,0.527-0.299,0.736-0.409l0.279-0.097l1.038-0.195L59.547,39.839z"/>
</g>
<g>
	<path d="M65.734,23.594c-1.223,0-2.25-0.9-2.39-2.093c-0.071-0.623,0.107-1.23,0.501-1.712c0.403-0.494,0.98-0.797,1.626-0.854
		c0.07-0.007,0.147-0.01,0.224-0.01c1.223,0,2.245,0.901,2.379,2.097c0.07,0.614-0.107,1.22-0.5,1.704
		c-0.402,0.495-0.979,0.8-1.622,0.859C65.876,23.591,65.805,23.594,65.734,23.594z M65.695,20.925
		c-0.188,0.015-0.266,0.087-0.3,0.128c-0.036,0.043-0.075,0.117-0.064,0.218c0.021,0.18,0.198,0.323,0.403,0.323l0.039-0.001
		c0.135-0.013,0.214-0.086,0.248-0.128c0.036-0.044,0.076-0.118,0.065-0.217C66.066,21.068,65.892,20.925,65.695,20.925z"/>
</g>
<g>
	<path d="M53.165,25.995c-0.458,0-0.87-0.316-0.975-0.781c-0.121-0.539,0.218-1.074,0.757-1.194
		c4.146-0.929,5.097-1.937,5.254-2.145l0.091-0.654l5.888-0.538c0.562-0.042,1.036,0.356,1.087,0.905
		c0.05,0.55-0.355,1.037-0.905,1.087l-4.57,0.417c-0.63,0.819-2.259,1.949-6.406,2.878C53.312,25.987,53.237,25.995,53.165,25.995z"
		/>
</g>
<g>
	<path d="M51.319,23.672c-0.47,0-0.888-0.332-0.98-0.81c-0.105-0.542,0.249-1.067,0.791-1.172c5.675-1.101,8.038-0.58,8.288-0.517
		c0.536,0.134,0.861,0.678,0.727,1.213c-0.133,0.533-0.673,0.855-1.205,0.729c-0.059-0.013-2.231-0.47-7.429,0.539
		C51.446,23.667,51.383,23.672,51.319,23.672z"/>
</g>
<g>
	<path d="M66.882,26.465c-0.022,0-0.046-0.001-0.069-0.002c-1.348-0.093-4.532-2.376-5.839-3.354l-0.382-0.286l-0.019-0.476
		c-0.005-0.131-0.081-3.252,3.804-5.962c0.455-0.317,1.077-0.205,1.393,0.248c0.315,0.453,0.205,1.077-0.248,1.393
		c-2.174,1.517-2.746,3.075-2.896,3.816c1.744,1.268,3.781,2.553,4.333,2.626c0.536,0.071,0.945,0.557,0.892,1.094
		C67.798,26.076,67.39,26.465,66.882,26.465z"/>
</g>
<g>
	<path d="M59.458,15.655c-0.331,0-0.652-0.073-0.954-0.216c-1.093-0.53-1.582-1.837-1.097-2.918c0.478-1.07,1.846-1.565,2.93-1.046
		c1.09,0.514,1.584,1.821,1.097,2.91C61.084,15.158,60.31,15.655,59.458,15.655z M59.373,13.254c-0.031,0-0.106,0.008-0.141,0.083
		c-0.046,0.103,0.019,0.241,0.137,0.298l0.089,0.02c0.026,0,0.113-0.006,0.151-0.089c0.043-0.096-0.018-0.231-0.131-0.285
		C59.439,13.262,59.405,13.254,59.373,13.254z"/>
</g>
<g>
	<path d="M58.135,14.124c-0.144,0-0.29-0.031-0.43-0.097l-3.612-1.722c-0.917,0.353-2.71,0.419-6.214-0.724
		c-0.524-0.171-0.812-0.736-0.64-1.261C47.41,9.794,47.97,9.506,48.5,9.68c3.424,1.117,4.617,0.839,4.86,0.754l0.402-0.503
		l4.804,2.29c0.498,0.238,0.71,0.834,0.472,1.333C58.867,13.914,58.509,14.124,58.135,14.124z"/>
</g>
<g>
	<path d="M54.048,12.175c-0.252,0-0.504-0.094-0.697-0.284c-0.043-0.039-1.486-1.355-5.857-2.922
		c-0.52-0.187-0.79-0.759-0.604-1.279s0.756-0.792,1.279-0.604c4.84,1.735,6.42,3.216,6.584,3.379
		c0.392,0.389,0.394,1.022,0.004,1.414C54.562,12.076,54.305,12.175,54.048,12.175z"/>
</g>
<g>
	<path d="M58.377,18.175c-0.184,0-0.37-0.055-0.537-0.17c-0.97-0.671-2.274-3.57-2.965-5.238l-0.183-0.44l0.228-0.419
		c0.057-0.104,1.438-2.566,5.683-2.878c0.565-0.028,1.03,0.374,1.07,0.924c0.041,0.551-0.373,1.03-0.924,1.071
		c-2.221,0.163-3.337,1.014-3.803,1.504c0.734,1.699,1.665,3.525,2.044,3.841c0.411,0.342,0.509,0.97,0.186,1.396
		C58.975,18.029,58.679,18.175,58.377,18.175z"/>
</g>
<g>
	<path d="M60.724,30.132c-0.555,0-1.081-0.241-1.444-0.661c-0.334-0.384-0.498-0.877-0.462-1.387c0.037-0.51,0.271-0.975,0.657-1.31
		c0.757-0.661,2.03-0.574,2.695,0.196c0.688,0.798,0.599,2.006-0.195,2.695C61.627,29.966,61.183,30.132,60.724,30.132z"/>
</g>
<g>
	<path d="M55.428,36.13c-0.236,0-0.473-0.083-0.663-0.251c-0.413-0.366-0.452-0.998-0.086-1.412
		c1.617-1.826,1.866-2.713,1.904-2.949l-0.273-0.541l3.148-2.727c0.414-0.361,1.049-0.317,1.41,0.101
		c0.361,0.417,0.316,1.049-0.102,1.411l-2.184,1.892c-0.078,0.819-0.624,2.125-2.406,4.138C55.979,36.016,55.704,36.13,55.428,36.13
		z"/>
</g>
<g>
	<path d="M53.533,35.532c-0.246,0-0.491-0.09-0.685-0.271c-0.402-0.378-0.423-1.011-0.044-1.414c2.679-2.853,4.227-3.496,4.395-3.56
		c0.515-0.196,1.094,0.063,1.291,0.578c0.195,0.512-0.058,1.084-0.565,1.286c-0.052,0.022-1.354,0.606-3.663,3.065
		C54.065,35.426,53.8,35.532,53.533,35.532z"/>
</g>
<g>
	<path d="M60.334,31.43c-0.501,0-1.005-0.014-1.472-0.035l-0.472-0.021l-0.284-0.378c-0.145-0.193-1.382-1.977-0.309-5.09
		c0.18-0.522,0.748-0.798,1.271-0.619c0.522,0.18,0.799,0.749,0.619,1.271c-0.484,1.404-0.323,2.362-0.152,2.858
		c1.357,0.033,2.663-0.033,2.97-0.157c0.471-0.286,1.064-0.126,1.353,0.344c0.288,0.472,0.117,1.099-0.354,1.386
		C62.943,31.331,61.647,31.43,60.334,31.43z"/>
</g>
<g>
	<path d="M48.779,19.129L48.779,19.129c-0.067,0-0.136-0.003-0.204-0.009c-1.245-0.113-2.168-1.22-2.059-2.467
		c0.113-1.25,1.2-2.178,2.47-2.062c0.601,0.053,1.148,0.338,1.539,0.804c0.391,0.467,0.575,1.058,0.521,1.664
		C50.942,18.239,49.968,19.129,48.779,19.129z M48.805,16.584c-0.167,0-0.283,0.109-0.296,0.247
		c-0.014,0.149,0.097,0.284,0.246,0.297l0.024,0.001c0.142,0,0.262-0.108,0.274-0.247c0.009-0.096-0.029-0.163-0.063-0.203
		c-0.032-0.039-0.091-0.087-0.183-0.096C48.808,16.584,48.807,16.584,48.805,16.584z"/>
</g>
<g>
	<path d="M45.266,29.503c-0.073,0-0.147-0.008-0.222-0.025c-0.539-0.122-0.877-0.657-0.755-1.196
		c0.87-3.841,1.941-5.382,2.726-5.992l0.375-4.189c0.05-0.549,0.533-0.951,1.085-0.907c0.551,0.049,0.956,0.535,0.907,1.085
		l-0.491,5.489l-0.645,0.101c-0.197,0.15-1.144,1.045-2.006,4.854C46.135,29.188,45.723,29.503,45.266,29.503z"/>
</g>
<g>
	<path d="M47.489,31.166c-0.063,0-0.128-0.006-0.193-0.019c-0.542-0.106-0.896-0.632-0.789-1.174
		c0.945-4.823,0.492-6.807,0.487-6.827c-0.128-0.533,0.195-1.075,0.726-1.209c0.536-0.136,1.07,0.178,1.211,0.708
		c0.062,0.233,0.574,2.432-0.461,7.712C48.376,30.835,47.958,31.166,47.489,31.166z"/>
</g>
<g>
	<path d="M47.795,21.695c-0.008,0-0.014,0-0.018,0l-0.473-0.009l-0.294-0.372c-1.172-1.485-3.152-4.159-3.245-5.384
		c-0.042-0.55,0.37-1.031,0.921-1.073c0.56-0.042,1.025,0.365,1.072,0.91c0.093,0.517,1.296,2.32,2.479,3.867
		c0.705-0.156,2.176-0.717,3.599-2.733c0.319-0.451,0.942-0.559,1.395-0.24c0.451,0.318,0.559,0.942,0.24,1.394
		C50.964,21.607,48.07,21.695,47.795,21.695z"/>
</g>
<g>
	<path d="M74.29,27.728L74.29,27.728c-0.354,0-0.697-0.077-1.019-0.23c-1.181-0.562-1.683-1.98-1.121-3.161
		c0.546-1.143,2.018-1.669,3.164-1.12c0.568,0.27,1,0.749,1.213,1.346c0.212,0.598,0.178,1.243-0.096,1.815
		C76.04,27.198,75.199,27.728,74.29,27.728z M74.293,24.984c-0.108,0-0.262,0.056-0.337,0.212c-0.088,0.185-0.01,0.407,0.175,0.495
		c0.051,0.024,0.104,0.036,0.159,0.036l0,0c0.114,0,0.262-0.056,0.337-0.212c0.058-0.121,0.034-0.23,0.015-0.284
		c-0.019-0.054-0.068-0.153-0.188-0.21C74.399,24.997,74.347,24.984,74.293,24.984z"/>
</g>
<g>
	<path d="M66.382,36.809c-0.188,0-0.376-0.052-0.545-0.162c-0.463-0.301-0.594-0.921-0.292-1.384c2.339-3.59,3.99-4.717,4.986-5.016
		l1.961-4.119c0.237-0.499,0.832-0.711,1.333-0.473c0.499,0.237,0.711,0.834,0.474,1.333l-2.527,5.307l-0.646-0.132
		c-0.241,0.066-1.551,0.578-3.904,4.192C67.029,36.648,66.709,36.809,66.382,36.809z"/>
</g>
<g>
	<path d="M68.011,39.319c-0.178,0-0.356-0.047-0.52-0.146c-0.472-0.288-0.621-0.903-0.333-1.375
		c2.767-4.541,3.049-6.726,3.052-6.747c0.063-0.544,0.561-0.947,1.1-0.883c0.545,0.059,0.942,0.54,0.89,1.085
		c-0.024,0.257-0.328,2.653-3.334,7.586C68.678,39.149,68.348,39.319,68.011,39.319z"/>
</g>
<g>
	<path d="M73.284,30.066c-1.073,0-1.729-0.247-1.786-0.269l-0.44-0.172l-0.146-0.45c-0.505-1.554-1.638-5.308-1.266-6.607
		c0.15-0.53,0.706-0.839,1.236-0.686c0.528,0.151,0.835,0.701,0.688,1.229c-0.109,0.551,0.444,2.877,1.077,4.919
		c0.759,0.116,2.501,0.128,4.76-1.42c0.456-0.313,1.078-0.196,1.391,0.259c0.312,0.456,0.195,1.078-0.26,1.39
		C76.403,29.722,74.553,30.066,73.284,30.066z"/>
</g>
<g>
	<path d="M76.496,44.214L76.496,44.214c-0.659,0-1.292-0.281-1.734-0.771c-0.859-0.958-0.782-2.437,0.17-3.297
		c0.929-0.835,2.478-0.75,3.3,0.174c0.415,0.458,0.629,1.057,0.597,1.681c-0.032,0.622-0.305,1.194-0.768,1.611
		C77.631,44,77.075,44.214,76.496,44.214z M76.497,41.544c-0.059,0-0.146,0.015-0.226,0.087c-0.136,0.123-0.147,0.336-0.023,0.474
		c0.175,0.195,0.32,0.16,0.474,0.022c0.085-0.076,0.105-0.166,0.109-0.228c0.002-0.052-0.006-0.152-0.087-0.243
		C76.655,41.558,76.552,41.544,76.497,41.544z"/>
</g>
<g>
	<path d="M65.502,49.341c-0.318,0-0.631-0.151-0.825-0.434c-0.313-0.455-0.197-1.078,0.258-1.391
		c3.424-2.354,5.336-2.761,6.351-2.664l3.288-2.969c0.409-0.37,1.042-0.339,1.412,0.072c0.37,0.41,0.338,1.042-0.072,1.413
		l-4.261,3.848l-0.545-0.367c-0.246-0.025-1.612-0.039-5.04,2.316C65.895,49.285,65.697,49.341,65.502,49.341z"/>
</g>
<g>
	<path d="M66.029,52.204c-0.309,0-0.612-0.142-0.809-0.41c-0.325-0.445-0.229-1.071,0.218-1.397
		c4.172-3.049,5.236-4.905,5.247-4.924c0.267-0.479,0.871-0.658,1.354-0.396c0.481,0.262,0.665,0.858,0.408,1.342
		c-0.118,0.223-1.284,2.271-5.829,5.593C66.44,52.141,66.233,52.204,66.029,52.204z"/>
</g>
<g>
	<path d="M76.939,46.347c-3.026,0-4.547-1.418-4.624-1.492l-0.341-0.328l0.036-0.472c0.123-1.587,0.499-5.392,1.319-6.429
		c0.342-0.432,0.971-0.507,1.404-0.164c0.431,0.341,0.506,0.965,0.17,1.398c-0.301,0.458-0.664,2.739-0.853,4.797
		c0.646,0.384,2.197,1.025,4.774,0.479c0.545-0.115,1.071,0.231,1.187,0.771c0.114,0.54-0.23,1.071-0.771,1.186
		C78.396,46.273,77.629,46.347,76.939,46.347z"/>
</g>
<g>
	<path d="M52.068,66.025C52.068,66.025,52.069,66.025,52.068,66.025c-0.183,0-0.365-0.024-0.544-0.071
		c-0.547-0.144-1.006-0.493-1.292-0.982c-0.285-0.491-0.363-1.063-0.218-1.612c0.294-1.106,1.481-1.8,2.595-1.51
		c1.131,0.304,1.807,1.467,1.512,2.596C53.871,65.377,53.028,66.025,52.068,66.025z"/>
</g>
<g>
	<path d="M52.609,63.801c-0.085,0-0.171-0.011-0.257-0.033c-0.534-0.142-0.853-0.689-0.711-1.223l1.268-4.785l0.637,0.01
		c0.211-0.123,1.13-0.807,2.387-3.847c0.211-0.512,0.797-0.752,1.306-0.542c0.511,0.211,0.753,0.796,0.542,1.306
		c-1.3,3.146-2.447,4.392-3.271,4.847l-0.934,3.523C53.456,63.505,53.052,63.801,52.609,63.801z"/>
</g>
<g>
	<path d="M53.674,59.766c-0.513,0-0.947-0.387-0.993-0.906c-0.02-0.215-0.138-2.229,1.556-6.685c0.196-0.517,0.772-0.776,1.29-0.579
		c0.516,0.196,0.775,0.773,0.579,1.29c-1.524,4.013-1.433,5.793-1.432,5.811c0.034,0.546-0.376,1.024-0.922,1.066
		C53.726,59.765,53.7,59.766,53.674,59.766z"/>
</g>
<g>
	<path d="M55.412,66.37c-0.031,0-0.063-0.001-0.095-0.005c-0.544-0.051-0.944-0.528-0.903-1.07c-0.02-0.468-0.764-2.136-1.532-3.603
		c-0.639,0.048-1.925,0.346-3.378,1.801c-0.391,0.391-1.024,0.39-1.415,0.001c-0.391-0.391-0.391-1.024-0.001-1.415
		c2.832-2.833,5.479-2.37,5.592-2.348l0.465,0.088l0.227,0.416c0.806,1.476,2.141,4.117,2.035,5.229
		C56.357,65.982,55.922,66.37,55.412,66.37z"/>
</g>
<g>
	<path d="M57.204,60.795c-0.41,0-0.794-0.254-0.941-0.662c-0.187-0.52,0.083-1.092,0.604-1.279c2.798-1.005,4.329-1.016,5.159-0.756
		l2.836-1.468c0.492-0.256,1.094-0.063,1.348,0.428c0.254,0.49,0.063,1.094-0.428,1.348l-3.979,2.061l-0.409-0.465
		c-0.232-0.06-1.236-0.205-3.851,0.735C57.431,60.777,57.316,60.795,57.204,60.795z"/>
</g>
<g>
	<path d="M57.044,62.961c-0.399,0-0.776-0.24-0.931-0.635c-0.202-0.514,0.051-1.095,0.565-1.296c3.514-1.38,4.621-2.488,4.632-2.5
		c0.381-0.389,1.012-0.407,1.408-0.032c0.397,0.376,0.423,0.996,0.053,1.398c-0.131,0.143-1.399,1.439-5.362,2.995
		C57.289,62.939,57.166,62.961,57.044,62.961z"/>
</g>
<g>
	<path d="M39.233,4.547c-1.187,0-2.161-0.891-2.267-2.072c-0.054-0.605,0.13-1.195,0.52-1.661c0.389-0.466,0.937-0.751,1.541-0.805
		C39.094,0.003,39.165,0,39.235,0c1.184,0,2.156,0.89,2.26,2.071c0.109,1.246-0.813,2.353-2.057,2.467
		C39.367,4.544,39.299,4.547,39.233,4.547z M39.235,2c-0.123,0.01-0.182,0.058-0.214,0.097c-0.033,0.04-0.07,0.106-0.062,0.2
		c0.013,0.143,0.131,0.25,0.275,0.25l0.026-0.001c0.146-0.014,0.256-0.148,0.243-0.299C39.49,2.108,39.373,2,39.235,2z"/>
</g>
<g>
	<path d="M42.58,18.05c-0.457,0-0.869-0.315-0.975-0.779c-0.862-3.808-1.806-4.704-2.004-4.854l-0.644-0.1l-0.494-5.489
		c-0.049-0.55,0.356-1.036,0.906-1.086c0.558-0.042,1.037,0.356,1.086,0.906l0.377,4.19c0.783,0.61,1.854,2.151,2.724,5.992
		c0.122,0.539-0.216,1.074-0.755,1.196C42.728,18.042,42.653,18.05,42.58,18.05z"/>
</g>
<g>
	<path d="M39.783,7.465c-0.272,0-3.167-0.086-5.674-3.639c-0.318-0.451-0.211-1.075,0.24-1.394c0.452-0.318,1.075-0.21,1.394,0.24
		c1.935,2.741,3.984,2.792,4.021,2.792l0,0c0.559,0.014,1.008,0.43,1.018,0.982s-0.43,1.008-0.982,1.018
		C39.796,7.465,39.791,7.465,39.783,7.465z"/>
</g>
<g>
	<path d="M13.664,59.213c-0.315,0-0.631-0.077-0.914-0.222c-0.478-0.247-0.828-0.663-0.989-1.172s-0.114-1.05,0.133-1.523
		c0.487-0.943,1.738-1.347,2.688-0.854c0.974,0.504,1.36,1.71,0.86,2.688C15.088,58.803,14.408,59.213,13.664,59.213z"/>
</g>
<g>
	<path d="M12.447,61.035c-0.53,0-0.972-0.417-0.998-0.952c-0.026-0.552,0.399-1.021,0.951-1.047c1.71-0.082,2.644-0.684,3.073-1.069
		c-0.536-1.452-1.145-2.782-1.406-3.045c-0.443-0.331-0.519-0.945-0.188-1.388c0.331-0.441,0.972-0.521,1.415-0.189
		c0.775,0.579,1.659,2.771,2.263,4.51l0.156,0.447l-0.248,0.404c-0.054,0.088-1.363,2.155-4.97,2.328
		C12.48,61.035,12.463,61.035,12.447,61.035z"/>
</g>
<g>
	<path d="M22.873,91.168c-0.272,0-0.542-0.021-0.809-0.066l0.329-1.973c1.453,0.236,2.893-0.674,3.85-1.483
		c3.542-3,7.127-10.388,7.127-18.703c0-5.872-1.169-10.818-3.475-14.7c-1.177-1.983-2.403-3.432-3.645-4.305
		c-0.773-0.544-2.555-1.204-3.877-1.036c-0.453,0.059-0.792,0.209-1.007,0.448c-0.143,0.16-0.358,0.936-0.271,1.905
		c0.068,0.765,0.289,1.176,0.378,1.245l-1.178,1.616c-1.451-1.056-2.244-2.287-2.358-3.659c-0.082-0.991,0.221-1.854,0.559-2.486
		c-1.534-1.013-1.928-2.668-1.947-2.753l-0.811-3.571l-4.718-0.886l7.552-2.409c0.128-2.522,1.42-3.706,1.58-3.843l2.454-2.103
		l-0.837,3.122c-0.691,2.578,1.271,4.701,2.71,5.859c0.213-1.544,0.73-2.561,1.566-3.085c1.061-0.664,2.105-0.195,2.22-0.14
		l1.357,0.655l-1.131,0.996c-0.299,0.264-0.534,1.507-0.555,2.472c0.368,1.208,1.02,2.641,2.084,2.928
		c0.961,0.261,2.111-0.449,2.697-0.921c1.159-8.915-6.944-12.472-7.294-12.621l0.776-1.843l0.333,0.139
		c2.232,0.931,5.015,2.091,6.544,4.145c0.894-1.994,2.154-2.927,2.232-2.983l3.433-2.48L36.779,32.4
		c-2.395,4.585,1.05,10.232,1.085,10.289c0.265,0.416,1.183,1.517,2.2,1.551c0.733,0.029,1.53-0.519,2.335-1.616l1.611,1.184
		c-1.224,1.667-2.567,2.499-4.028,2.43c-2.287-0.085-3.755-2.394-3.817-2.492c-0.076-0.122-0.9-1.473-1.526-3.429
		c0.237,1.39,0.266,2.933,0.002,4.636l-0.052,0.332l-0.241,0.233c-0.096,0.093-2.389,2.278-4.837,1.627
		c-1.354-0.359-2.409-1.467-3.147-3.3v1.061l-1.481-0.814c-0.041-0.022-0.218-0.122-0.485-0.293c0.21,0.402,0.322,0.822,0.284,1.25
		c-0.069,0.791-0.573,1.407-1.499,1.837c1.569,0.092,3.24,0.729,4.215,1.415c1.495,1.052,2.874,2.661,4.214,4.92
		c2.492,4.195,3.755,9.484,3.755,15.722c0,8.003-3.222,16.322-7.834,20.229C25.981,90.489,24.385,91.168,22.873,91.168z
		 M16.038,41.703l2.247,2.647c0.783,0.921,2.915,0.928,3.731,0.852c0.567-0.193,0.684-0.367,0.685-0.368
		c-0.036-0.418-1.499-1.628-3.005-2.444L16.038,41.703z M19.177,40.257l1.318,0.292c0.209,0.109,0.461,0.247,0.737,0.409
		c-0.27-0.347-0.522-0.721-0.745-1.119L19.177,40.257z"/>
</g>
<g>
	<path d="M14.3,23.594L14.3,23.594c-0.07,0-0.141-0.003-0.212-0.009c-0.648-0.06-1.224-0.364-1.626-0.858
		c-0.394-0.483-0.571-1.089-0.501-1.707c0.143-1.269,1.284-2.208,2.611-2.084c0.639,0.056,1.216,0.36,1.62,0.854
		c0.394,0.483,0.571,1.09,0.5,1.709C16.55,22.694,15.522,23.594,14.3,23.594z M14.381,20.927c-0.241,0-0.414,0.143-0.434,0.318
		c-0.011,0.101,0.029,0.175,0.065,0.219c0.035,0.042,0.113,0.116,0.253,0.129l0.034,0.001l0,0c0.205,0,0.382-0.143,0.404-0.326
		c0.011-0.098-0.028-0.171-0.063-0.214c-0.034-0.042-0.113-0.114-0.252-0.126C14.386,20.927,14.383,20.927,14.381,20.927z"/>
</g>
<g>
	<path d="M26.869,25.995c-0.072,0-0.146-0.008-0.22-0.024c-4.148-0.929-5.777-2.06-6.406-2.878l-4.57-0.417
		c-0.55-0.05-0.955-0.537-0.905-1.087c0.051-0.55,0.536-0.95,1.087-0.905l5.886,0.538l0.091,0.653
		c0.157,0.208,1.108,1.216,5.255,2.146c0.539,0.121,0.878,0.655,0.757,1.194C27.739,25.679,27.326,25.995,26.869,25.995z"/>
</g>
<g>
	<path d="M28.716,23.672c-0.063,0-0.127-0.006-0.191-0.018c-5.241-1.016-7.41-0.543-7.432-0.539
		c-0.535,0.122-1.073-0.207-1.201-0.739c-0.128-0.533,0.192-1.069,0.724-1.203c0.25-0.064,2.614-0.584,8.29,0.517
		c0.542,0.105,0.896,0.63,0.792,1.172C29.604,23.341,29.186,23.672,28.716,23.672z"/>
</g>
<g>
	<path d="M13.152,26.465c-0.521,0-0.96-0.403-0.997-0.931c-0.038-0.549,0.375-1.026,0.923-1.066c0.555-0.076,2.589-1.36,4.331-2.627
		c-0.148-0.733-0.718-2.295-2.898-3.815c-0.453-0.316-0.564-0.939-0.248-1.393c0.315-0.452,0.939-0.563,1.393-0.248
		c3.886,2.71,3.81,5.831,3.804,5.962l-0.019,0.477l-0.381,0.285c-1.307,0.977-4.492,3.26-5.838,3.354
		C13.199,26.464,13.175,26.465,13.152,26.465z"/>
</g>
<g>
	<path d="M20.576,15.655L20.576,15.655c-0.851,0-1.625-0.497-1.973-1.267c-0.489-1.093,0.005-2.4,1.1-2.916
		c1.061-0.509,2.445-0.022,2.924,1.05c0.484,1.081-0.005,2.389-1.091,2.914C21.228,15.582,20.907,15.655,20.576,15.655z
		 M20.661,13.254c-0.033,0-0.066,0.008-0.099,0.024c-0.119,0.056-0.179,0.19-0.135,0.29c0.036,0.08,0.123,0.086,0.148,0.086
		c0.032,0,0.065-0.008,0.097-0.023c0.111-0.054,0.174-0.192,0.129-0.293C20.768,13.262,20.692,13.254,20.661,13.254z"/>
</g>
<g>
	<path d="M21.9,14.124c-0.374,0-0.731-0.21-0.903-0.57c-0.237-0.498-0.026-1.095,0.473-1.333l4.803-2.29l0.402,0.503
		c0.244,0.085,1.437,0.363,4.862-0.754c0.528-0.171,1.09,0.116,1.261,0.641c0.171,0.525-0.115,1.089-0.641,1.261
		c-3.506,1.144-5.298,1.076-6.215,0.724l-3.611,1.722C22.191,14.093,22.044,14.124,21.9,14.124z"/>
</g>
<g>
	<path d="M25.989,12.169c-0.261,0-0.521-0.101-0.716-0.301c-0.382-0.393-0.38-1.017,0.009-1.403
		c0.165-0.163,1.746-1.644,6.585-3.378c0.52-0.186,1.093,0.083,1.279,0.604c0.187,0.52-0.084,1.092-0.604,1.279
		c-4.416,1.583-5.845,2.91-5.859,2.923C26.488,12.077,26.238,12.169,25.989,12.169z"/>
</g>
<g>
	<path d="M21.626,18.183c-0.317,0-0.629-0.15-0.823-0.431c-0.313-0.451-0.202-1.069,0.244-1.385c0.381-0.325,1.31-2.146,2.042-3.84
		c-0.461-0.484-1.577-1.339-3.803-1.502c-0.551-0.041-0.964-0.52-0.924-1.071c0.041-0.551,0.511-0.957,1.071-0.924
		c4.244,0.312,5.625,2.773,5.682,2.878l0.228,0.419l-0.183,0.44c-0.691,1.668-1.996,4.567-2.966,5.238
		C22.021,18.125,21.822,18.183,21.626,18.183z"/>
</g>
<g>
	<path d="M19.311,30.132C19.311,30.132,19.311,30.132,19.311,30.132c-0.459,0-0.904-0.166-1.251-0.467
		c-0.796-0.692-0.882-1.9-0.194-2.695c0.662-0.767,1.933-0.86,2.697-0.191c0.382,0.329,0.616,0.793,0.654,1.302
		c0.037,0.51-0.127,1.004-0.462,1.392C20.392,29.892,19.865,30.132,19.311,30.132z"/>
</g>
<g>
	<path d="M24.606,36.13c-0.277,0-0.552-0.114-0.75-0.337c-1.781-2.013-2.327-3.319-2.405-4.137l-2.186-1.893
		c-0.418-0.361-0.463-0.993-0.102-1.41c0.362-0.418,0.993-0.464,1.41-0.102l3.15,2.727l-0.274,0.54
		c0.038,0.235,0.287,1.123,1.904,2.95c0.366,0.414,0.327,1.045-0.086,1.412C25.079,36.047,24.842,36.13,24.606,36.13z"/>
</g>
<g>
	<path d="M26.5,35.532c-0.267,0-0.532-0.106-0.729-0.315c-2.344-2.497-3.65-3.061-3.663-3.066c-0.504-0.211-0.753-0.79-0.55-1.297
		c0.203-0.507,0.77-0.759,1.278-0.566c0.167,0.064,1.716,0.708,4.394,3.56c0.378,0.403,0.358,1.036-0.044,1.414
		C26.992,35.442,26.746,35.532,26.5,35.532z"/>
</g>
<g>
	<path d="M19.701,31.43c-1.314,0-2.611-0.099-3.171-0.44c-0.472-0.288-0.621-0.903-0.333-1.375c0.282-0.46,0.876-0.612,1.344-0.352
		c0.326,0.121,1.62,0.183,2.96,0.153c0.167-0.49,0.331-1.45-0.155-2.858c-0.18-0.522,0.097-1.091,0.619-1.271
		c0.523-0.181,1.092,0.097,1.271,0.619c1.073,3.112-0.163,4.896-0.308,5.089l-0.284,0.379l-0.473,0.021
		C20.706,31.416,20.202,31.43,19.701,31.43z"/>
</g>
<g>
	<path d="M31.254,19.129c-1.186,0-2.16-0.89-2.266-2.069c-0.054-0.606,0.131-1.197,0.521-1.664c0.39-0.466,0.938-0.751,1.542-0.804
		c0.066-0.006,0.135-0.009,0.204-0.009c1.184,0,2.156,0.889,2.262,2.069c0.11,1.249-0.813,2.355-2.058,2.469
		C31.39,19.126,31.322,19.129,31.254,19.129z M31.256,16.583c-0.122,0.01-0.18,0.058-0.212,0.097
		c-0.027,0.033-0.072,0.102-0.063,0.201c0.012,0.139,0.133,0.249,0.274,0.249l0.027-0.001c0.147-0.013,0.257-0.147,0.244-0.299
		C31.513,16.692,31.395,16.583,31.256,16.583z"/>
</g>
<g>
	<path d="M34.769,29.503c-0.457,0-0.869-0.315-0.975-0.779c-0.861-3.81-1.807-4.704-2.005-4.854l-0.644-0.101l-0.493-5.489
		c-0.049-0.55,0.356-1.036,0.907-1.085c0.55-0.043,1.036,0.357,1.085,0.907l0.376,4.189c0.784,0.61,1.855,2.151,2.725,5.993
		c0.122,0.539-0.216,1.074-0.755,1.196C34.916,29.496,34.842,29.503,34.769,29.503z"/>
</g>
<g>
	<path d="M32.544,31.166c-0.469,0-0.887-0.331-0.98-0.808c-1.034-5.281-0.521-7.479-0.459-7.713c0.142-0.534,0.69-0.852,1.223-0.71
		c0.531,0.141,0.848,0.682,0.713,1.213c-0.013,0.058-0.449,2.05,0.486,6.825c0.106,0.542-0.247,1.067-0.789,1.174
		C32.673,31.16,32.608,31.166,32.544,31.166z"/>
</g>
<g>
	<path d="M32.239,21.695c-0.275,0-3.167-0.087-5.676-3.64c-0.318-0.451-0.211-1.075,0.24-1.394c0.452-0.318,1.075-0.21,1.394,0.24
		c1.42,2.011,2.887,2.574,3.599,2.732c1.187-1.551,2.393-3.36,2.479-3.871c0.089-0.526,0.573-0.925,1.113-0.863
		c0.53,0.065,0.92,0.498,0.88,1.03c-0.093,1.226-2.073,3.899-3.245,5.384l-0.293,0.372l-0.473,0.009
		C32.253,21.695,32.248,21.695,32.239,21.695z"/>
</g>
<g>
	<path d="M5.745,27.728c-0.91,0-1.75-0.53-2.143-1.35c-0.273-0.573-0.307-1.217-0.095-1.815c0.212-0.598,0.644-1.076,1.216-1.347
		c1.133-0.544,2.614-0.022,3.16,1.12c0.563,1.182,0.06,2.6-1.12,3.163C6.441,27.651,6.099,27.728,5.745,27.728z M5.742,24.984
		c-0.054,0-0.107,0.012-0.157,0.036c-0.123,0.059-0.173,0.157-0.192,0.211s-0.043,0.163,0.015,0.284
		c0.11,0.232,0.339,0.251,0.498,0.176c0.184-0.087,0.262-0.31,0.174-0.495C6.004,25.04,5.85,24.984,5.742,24.984z"/>
</g>
<g>
	<path d="M13.651,36.809c-0.327,0-0.647-0.16-0.839-0.455c-2.353-3.614-3.662-4.125-3.902-4.191l-0.647,0.132l-2.528-5.307
		c-0.237-0.499-0.026-1.095,0.473-1.333c0.497-0.237,1.095-0.026,1.333,0.473l1.962,4.12c0.996,0.299,2.648,1.425,4.985,5.016
		c0.301,0.463,0.17,1.082-0.292,1.383C14.027,36.756,13.838,36.809,13.651,36.809z"/>
</g>
<g>
	<path d="M12.024,39.319c-0.337,0-0.667-0.17-0.855-0.479c-3.007-4.933-3.31-7.329-3.334-7.586c-0.053-0.55,0.351-1.038,0.9-1.091
		c0.547-0.047,1.032,0.346,1.09,0.891c0.008,0.061,0.309,2.246,3.052,6.746c0.287,0.472,0.138,1.087-0.333,1.375
		C12.381,39.272,12.201,39.319,12.024,39.319z"/>
</g>
<g>
	<path d="M6.75,30.066c-1.268,0-3.119-0.344-5.252-1.807c-0.456-0.313-0.572-0.935-0.259-1.39c0.313-0.455,0.935-0.571,1.39-0.259
		c2.254,1.546,3.991,1.538,4.76,1.419c0.634-2.045,1.188-4.376,1.076-4.921c-0.108-0.527,0.212-1.076,0.734-1.204
		c0.523-0.127,1.045,0.147,1.192,0.665c0.371,1.299-0.763,5.053-1.267,6.606l-0.146,0.45l-0.441,0.172
		C8.479,29.819,7.823,30.066,6.75,30.066z"/>
</g>
<g>
	<path d="M3.538,44.214c-0.579,0-1.135-0.214-1.564-0.602c-0.462-0.415-0.735-0.987-0.767-1.61
		c-0.032-0.624,0.182-1.223,0.602-1.687c0.815-0.915,2.37-1,3.293-0.171c0.955,0.864,1.031,2.342,0.171,3.298
		C4.829,43.933,4.197,44.214,3.538,44.214z M3.537,41.544c-0.055,0-0.159,0.014-0.242,0.108c-0.086,0.095-0.094,0.195-0.091,0.247
		c0.003,0.062,0.024,0.151,0.108,0.227c0.156,0.142,0.295,0.174,0.474-0.023c0.125-0.139,0.115-0.347-0.025-0.474
		C3.683,41.559,3.596,41.544,3.537,41.544z"/>
</g>
<g>
	<path d="M14.532,49.341c-0.195,0-0.393-0.057-0.565-0.176c-3.428-2.358-4.795-2.345-5.04-2.316l-0.545,0.367l-4.261-3.848
		c-0.41-0.37-0.442-1.002-0.072-1.413c0.37-0.409,1.002-0.442,1.413-0.072l3.287,2.969c1.014-0.097,2.927,0.311,6.351,2.664
		c0.455,0.313,0.57,0.936,0.258,1.391C15.163,49.19,14.85,49.341,14.532,49.341z"/>
</g>
<g>
	<path d="M14.005,52.204c-0.205,0-0.411-0.063-0.589-0.192c-4.544-3.322-5.709-5.371-5.828-5.593
		c-0.258-0.488-0.072-1.093,0.416-1.352c0.487-0.256,1.086-0.074,1.347,0.407c0.029,0.05,1.111,1.9,5.246,4.922
		c0.446,0.326,0.543,0.952,0.217,1.397C14.617,52.062,14.313,52.204,14.005,52.204z"/>
</g>
<g>
	<path d="M3.094,46.347c-0.689,0-1.456-0.074-2.302-0.253c-0.541-0.115-0.885-0.646-0.771-1.186
		c0.114-0.541,0.645-0.888,1.186-0.771c2.573,0.547,4.122-0.092,4.776-0.48c-0.19-2.063-0.554-4.349-0.854-4.799
		c-0.297-0.447-0.209-1.077,0.225-1.392c0.434-0.315,1.021-0.26,1.352,0.162c0.819,1.037,1.195,4.841,1.319,6.428l0.037,0.472
		L7.72,44.855C7.643,44.929,6.12,46.346,3.094,46.347z"/>
</g>
<g>
	<path d="M27.965,66.025c-0.959,0-1.803-0.647-2.05-1.574c-0.297-1.135,0.379-2.299,1.504-2.6c1.148-0.302,2.306,0.401,2.6,1.507
		c0.146,0.55,0.068,1.122-0.218,1.612c-0.285,0.49-0.745,0.84-1.293,0.983C28.332,66,28.148,66.025,27.965,66.025z M27.965,63.78
		c-0.096,0.021-0.135,0.09-0.117,0.159c0.019,0.069,0.09,0.095,0.15,0.081l1.055-0.405l-0.966,0.257
		C28.069,63.808,28.012,63.78,27.965,63.78z"/>
</g>
<g>
	<path d="M27.425,63.801c-0.443,0-0.847-0.296-0.966-0.743l-0.935-3.525c-0.824-0.456-1.969-1.7-3.27-4.846
		c-0.211-0.51,0.032-1.095,0.542-1.306c0.508-0.213,1.095,0.03,1.307,0.542c1.256,3.038,2.173,3.723,2.385,3.847l0.635-0.01
		l1.27,4.784c0.142,0.534-0.177,1.082-0.71,1.224C27.596,63.791,27.51,63.801,27.425,63.801z"/>
</g>
<g>
	<path d="M26.357,59.772c-0.03,0-0.06-0.001-0.09-0.004c-0.546-0.049-0.951-0.528-0.908-1.073c0.003-0.055,0.078-1.839-1.43-5.81
		c-0.196-0.516,0.064-1.094,0.58-1.289c0.514-0.197,1.094,0.063,1.29,0.58c1.692,4.456,1.572,6.47,1.553,6.685
		C27.306,59.38,26.87,59.772,26.357,59.772z"/>
</g>
<g>
	<path d="M24.626,66.382c-0.511,0-0.948-0.399-0.998-0.918c-0.105-1.111,1.229-3.754,2.035-5.229l0.227-0.416l0.465-0.088
		c0.113-0.021,2.764-0.484,5.59,2.349c0.391,0.391,0.39,1.023-0.001,1.414c-0.391,0.39-1.024,0.39-1.414-0.002
		c-1.449-1.45-2.732-1.75-3.379-1.799c-0.772,1.476-1.519,3.151-1.53,3.608c0.052,0.55-0.352,1.025-0.902,1.077
		C24.688,66.381,24.657,66.382,24.626,66.382z"/>
</g>
<g>
	<path d="M22.83,60.795c-0.112,0-0.227-0.019-0.338-0.059c-2.613-0.94-3.615-0.796-3.849-0.735l-0.409,0.465l-3.98-2.061
		c-0.49-0.254-0.682-0.857-0.428-1.348c0.254-0.489,0.857-0.683,1.348-0.428l2.836,1.468c0.831-0.262,2.358-0.251,5.159,0.756
		c0.52,0.188,0.79,0.76,0.603,1.279C23.625,60.542,23.24,60.795,22.83,60.795z"/>
</g>
<g>
	<path d="M22.989,62.961c-0.122,0-0.245-0.022-0.365-0.069c-3.961-1.556-5.229-2.853-5.36-2.995
		c-0.375-0.406-0.348-1.039,0.058-1.413c0.403-0.37,1.029-0.348,1.404,0.048c0.039,0.039,1.162,1.137,4.63,2.499
		c0.514,0.202,0.767,0.782,0.565,1.296C23.766,62.721,23.389,62.961,22.989,62.961z"/>
</g>
<g>
	<path d="M37.455,18.05c-0.073,0-0.147-0.008-0.221-0.024c-0.539-0.122-0.877-0.657-0.755-1.196c1.23-5.448,2.872-6.27,3.52-6.37
		c0.544-0.081,1.057,0.289,1.142,0.835c0.076,0.495-0.223,0.961-0.687,1.107c-0.141,0.097-1.128,0.905-2.023,4.869
		C38.325,17.735,37.912,18.05,37.455,18.05z"/>
</g>
<g>
	<path d="M39.714,7.465c-0.007,0-0.013,0-0.017,0c-0.552-0.01-0.992-0.466-0.982-1.018c0.01-0.548,0.483-0.98,1.005-0.982
		c0.11-0.002,2.117-0.075,4.034-2.792c0.319-0.451,0.942-0.56,1.394-0.24c0.451,0.318,0.56,0.942,0.241,1.394
		C42.883,7.378,39.987,7.465,39.714,7.465z"/>
</g>
<g>
	<path d="M39.633,21.942c-0.961,0-1.752-0.723-1.84-1.682c-0.044-0.494,0.106-0.972,0.422-1.351
		c0.317-0.379,0.763-0.612,1.254-0.656l0.166-0.007c0.948,0,1.755,0.74,1.838,1.685c0.089,1.014-0.662,1.912-1.675,2.003
		L39.633,21.942z"/>
</g>
<g>
	<path d="M41.684,29.083c-0.457,0-0.87-0.315-0.975-0.779c-0.483-2.137-0.996-2.819-1.158-2.99l-0.588-0.092l-0.351-3.915
		c-0.049-0.55,0.357-1.036,0.907-1.085c0.551-0.049,1.037,0.357,1.085,0.907l0.236,2.64c0.61,0.538,1.279,1.705,1.819,4.094
		c0.121,0.539-0.217,1.074-0.755,1.196C41.831,29.075,41.757,29.083,41.684,29.083z"/>
</g>
<g>
	<path d="M39.995,23.885c-0.315,0-2.305-0.102-4.043-2.565c-0.318-0.451-0.211-1.075,0.24-1.394s1.075-0.21,1.394,0.24
		c1.173,1.662,2.369,1.717,2.419,1.719c0.542,0.017,0.985,0.463,0.982,1.006s-0.427,0.984-0.97,0.994
		C40.01,23.885,40.003,23.885,39.995,23.885z"/>
</g>
<g>
	<path d="M38.272,29.083c-0.073,0-0.147-0.008-0.221-0.024c-0.539-0.122-0.877-0.657-0.755-1.196
		c0.792-3.503,1.86-4.379,2.618-4.497c0.547-0.084,1.057,0.289,1.142,0.834c0.073,0.472-0.196,0.917-0.622,1.084
		c-0.118,0.111-0.67,0.73-1.187,3.019C39.142,28.768,38.729,29.083,38.272,29.083z"/>
</g>
<g>
	<path d="M39.962,23.885c-0.008,0-0.016,0-0.022,0c-0.552-0.01-0.992-0.465-0.982-1.018c0.01-0.545,0.455-0.981,0.998-0.982
		c0.082-0.003,1.259-0.081,2.417-1.719c0.317-0.452,0.944-0.559,1.394-0.239c0.451,0.318,0.559,0.942,0.239,1.394
		C42.266,23.783,40.278,23.885,39.962,23.885z"/>
</g>
</svg>
