<?xml version="1.0" encoding="utf-8"?>
<!-- Generator: Adobe Illustrator 15.0.0, SVG Export Plug-In . SVG Version: 6.00 Build 0)  -->
<!DOCTYPE svg PUBLIC "-//W3C//DTD SVG 1.1//EN" "http://www.w3.org/Graphics/SVG/1.1/DTD/svg11.dtd">
<svg version="1.1" id="Layer_1" xmlns="http://www.w3.org/2000/svg" xmlns:xlink="http://www.w3.org/1999/xlink" x="0px" y="0px"
	 width="38.49px" height="39.861px" viewBox="0 0 38.49 39.861" enable-background="new 0 0 38.49 39.861" xml:space="preserve">
<g>
	<g>
		<path d="M23.992,37.899l-0.246-0.969c8.093-2.053,13.744-9.326,13.744-17.686C37.49,9.184,29.305,1,19.244,1
			C9.184,1,1,9.184,1,19.244c0,0.636,0.031,1.263,0.093,1.866l-0.995,0.102C0.033,20.576,0,19.914,0,19.244
			C0,8.633,8.633,0,19.244,0C29.856,0,38.49,8.633,38.49,19.244C38.49,28.063,32.528,35.734,23.992,37.899z"/>
	</g>
	<g>
		<path d="M34.166,15.158C32.334,8.459,26.198,3.78,19.244,3.78c-6.955,0-13.09,4.679-14.92,11.378l-0.965-0.264
			C5.308,7.762,11.84,2.78,19.244,2.78c7.403,0,13.937,4.981,15.887,12.114L34.166,15.158z"/>
	</g>
	<g>
		<path d="M9.203,29.958h-0.5c-4.693,0-8.512-3.819-8.512-8.514c0-4.692,3.818-8.51,8.512-8.51h0.5V29.958z M8.203,13.951
			c-3.91,0.258-7.012,3.521-7.012,7.493c0,3.975,3.102,7.239,7.012,7.497V13.951z"/>
	</g>
	<g>
		<path d="M29.834,29.958h-0.5V12.934h0.5c4.693,0,8.512,3.817,8.512,8.51C38.346,26.138,34.527,29.958,29.834,29.958z
			 M30.334,13.951v14.99c3.909-0.258,7.012-3.522,7.012-7.497C37.346,17.471,34.243,14.209,30.334,13.951z"/>
	</g>
	<g>
		<path d="M22.564,39.861h-6.641c-1.042,0-1.891-0.848-1.891-1.89v-1.313c0-1.042,0.848-1.89,1.891-1.89h6.641
			c1.043,0,1.891,0.848,1.891,1.89v1.313C24.455,39.013,23.607,39.861,22.564,39.861z M15.924,35.768
			c-0.491,0-0.891,0.399-0.891,0.89v1.313c0,0.49,0.399,0.89,0.891,0.89h6.641c0.491,0,0.891-0.399,0.891-0.89v-1.313
			c0-0.49-0.399-0.89-0.891-0.89H15.924z"/>
	</g>
</g>
</svg>
