<?xml version="1.0" encoding="utf-8"?>
<!-- Generator: Adobe Illustrator 15.0.0, SVG Export Plug-In . SVG Version: 6.00 Build 0)  -->
<!DOCTYPE svg PUBLIC "-//W3C//DTD SVG 1.1//EN" "http://www.w3.org/Graphics/SVG/1.1/DTD/svg11.dtd">
<svg version="1.1" id="Layer_1" xmlns="http://www.w3.org/2000/svg" xmlns:xlink="http://www.w3.org/1999/xlink" x="0px" y="0px"
	 width="56.093px" height="68.638px" viewBox="0 0 56.093 68.638" enable-background="new 0 0 56.093 68.638" xml:space="preserve">
<g>
	<path d="M28.141,68.638c-0.563,0-1.063-0.263-1.381-0.678h-0.217l-0.133-0.852c-0.032-0.002-0.218-0.141-0.324-0.222
		c-1.255-0.967-2.707-1.644-4.111-2.297l-0.191-0.09c-0.526-0.245-1.064-0.463-1.603-0.683c-0.863-0.351-1.755-0.714-2.612-1.186
		c-0.931-0.513-1.848-1.091-2.724-1.718c-0.596-0.405-1.208-0.873-1.798-1.378c-3.988-3.406-7.012-8.42-8.516-14.117
		c-0.485-1.835-0.802-3.719-0.942-5.598c-0.176-2.38-0.06-4.724,0.344-6.966l0.08-0.447l0.389-0.233
		c4.572-2.743,13.668-4.447,23.739-4.447c10.071,0,19.167,1.704,23.739,4.447l0.389,0.233l0.081,0.447
		c0.402,2.237,0.519,4.58,0.345,6.964c-0.139,1.876-0.456,3.76-0.943,5.601c-1.729,6.554-5.497,12.207-10.337,15.511
		c-0.874,0.624-1.788,1.201-2.7,1.702c-0.855,0.47-1.747,0.833-2.609,1.184c-0.538,0.22-1.077,0.438-1.604,0.684l-0.185,0.086
		c-1.407,0.655-2.862,1.332-4.049,2.247c-0.164,0.126-0.347,0.266-0.408,0.345c-0.009,0.054-0.021,0.107-0.034,0.16l-0.106,0.707
		l-0.244-0.025C29.155,68.4,28.677,68.638,28.141,68.638z M28.008,65.96h0.264c0.228-0.293,0.507-0.507,0.71-0.662
		c1.426-1.1,2.983-1.824,4.489-2.525l0.185-0.085c0.557-0.26,1.125-0.491,1.694-0.724c0.847-0.344,1.646-0.67,2.4-1.084
		c0.843-0.464,1.69-0.998,2.519-1.589c4.466-3.049,7.939-8.286,9.548-14.382c0.455-1.724,0.753-3.484,0.883-5.236
		c0.149-2.054,0.068-4.073-0.242-6.008c-4.357-2.399-13.022-3.937-22.317-3.937s-17.96,1.537-22.318,3.937
		c-0.311,1.938-0.392,3.957-0.241,6.009c0.131,1.756,0.427,3.517,0.881,5.234c1.401,5.308,4.2,9.963,7.882,13.107
		c0.535,0.457,1.087,0.88,1.643,1.258c0.833,0.596,1.683,1.132,2.544,1.606c0.754,0.415,1.554,0.74,2.401,1.085
		c0.568,0.231,1.137,0.464,1.693,0.723l0.191,0.089c1.503,0.7,3.058,1.424,4.418,2.473C27.477,65.433,27.773,65.659,28.008,65.96z"
		/>
</g>
<g>
	<path d="M0,22.82l2.634-5.048l0.229-0.192l0.001,0.001l0.059-0.051l0.923,1.096l0.47,0.245l-0.459-0.232l0.354,0.42l-0.168-0.191
		l0.163,0.195l-0.402-0.452l0.393,0.46l-0.106,0.093L0,22.82z M2.91,17.542l0.642,0.767L2.91,17.542z"/>
</g>
<g>
	<path d="M53.193,30.117l-0.65-0.359c-1.426-0.788-3.133-1.481-5.072-2.059c-1.163-0.351-2.466-0.676-3.872-0.969
		c-4.577-0.948-9.922-1.449-15.457-1.449s-10.881,0.501-15.459,1.449c-1.401,0.292-2.704,0.618-3.87,0.968
		c-1.951,0.583-3.66,1.274-5.079,2.056l-0.652,0.359L2.55,29.592c-1.5-1.472-2.361-3.609-2.361-5.864
		c0-0.535,0.049-1.074,0.146-1.604c0.041-0.222,0.091-0.438,0.146-0.645c0.014-0.052,0.031-0.109,0.049-0.167l0.992,0.175
		l-0.958-0.285c0.035-0.117,0.07-0.234,0.11-0.348l0.065-0.171c0.07-0.182,0.115-0.299,0.165-0.416l0.097-0.202l0.96,0.312
		l-0.904-0.427c0.043-0.092,0.087-0.184,0.137-0.274c0.03-0.058,0.074-0.131,0.118-0.203c0.07-0.121,0.132-0.227,0.199-0.329
		c0.039-0.061,0.083-0.125,0.127-0.188c0.1-0.142,0.161-0.229,0.225-0.314l0.121-0.148l0.879,0.505l-0.771-0.637
		c0.057-0.069,0.115-0.138,0.175-0.203l0.591-0.584c3.642-3.24,10.797-5.727,18.886-6.585c-0.003-0.103-0.005-0.206-0.005-0.309
		c0-5.897,4.5-10.384,10.699-10.67c1.243-0.057,1.822,0.087,2.076,0.177c1.376,0.414,2.333,1.682,2.333,3.097
		c0,1.388-0.901,2.621-2.243,3.069c-0.158,0.052-0.315,0.093-0.479,0.12c-1.43,0.427-2.387,1.532-2.387,2.763
		c0,0.661,0.265,1.181,0.552,1.552c2.027,0.134,4.013,0.366,5.908,0.69c1.543,0.263,3.063,0.594,4.521,0.984
		c4.66,1.249,8.489,3.087,10.782,5.176l0.132,0.133c1.184,1.117,2.002,2.656,2.313,4.351c0.098,0.533,0.147,1.072,0.147,1.604
		c0,2.26-0.863,4.399-2.367,5.869L53.193,30.117z M28.142,23.281c5.669,0,11.154,0.516,15.863,1.491
		c1.464,0.304,2.823,0.645,4.04,1.011c1.769,0.527,3.365,1.149,4.759,1.852c0.826-1.056,1.289-2.442,1.289-3.906
		c0-0.411-0.038-0.829-0.114-1.243c-0.242-1.321-0.884-2.507-1.807-3.338l-0.133-0.131c-2.075-1.836-5.561-3.474-9.838-4.62
		c-1.396-0.374-2.857-0.691-4.34-0.944c-1.953-0.334-4.008-0.567-6.106-0.692l-0.384-0.022l-0.271-0.275
		c-0.878-0.895-1.362-2.04-1.362-3.225c0-2.151,1.565-4.041,3.896-4.703l0.133-0.028c0.071-0.01,0.139-0.028,0.206-0.05
		c0.521-0.174,0.874-0.645,0.874-1.171c0-0.542-0.381-1.03-0.926-1.187l-0.124-0.044C33.819,2.065,33.568,2,32.972,2
		c-0.133,0-0.28,0.003-0.442,0.011c-5.094,0.235-8.791,3.882-8.791,8.672c0,0.353,0.024,0.705,0.073,1.078l0.137,1.035l-1.04,0.092
		c-7.757,0.689-14.659,2.895-18.279,5.809v0l-1.114,1.083l-0.322,0.446c-0.049,0.077-0.093,0.15-0.136,0.225l-0.102,0.172
		c-0.039,0.071-0.064,0.126-0.09,0.182l-0.136,0.278c-0.024,0.059-0.059,0.152-0.095,0.247l-0.041,0.104
		c-0.062,0.167-0.087,0.252-0.112,0.338l-0.044,0.145c-0.065,0.236-0.104,0.402-0.135,0.571c-0.075,0.408-0.113,0.826-0.113,1.24
		c0,1.46,0.462,2.845,1.286,3.902c1.389-0.698,2.987-1.318,4.763-1.849c1.22-0.367,2.579-0.707,4.037-1.01
		C16.987,23.797,22.473,23.281,28.142,23.281z"/>
</g>
</svg>
