<?xml version="1.0" encoding="utf-8"?>
<!-- Generator: Adobe Illustrator 15.0.0, SVG Export Plug-In . SVG Version: 6.00 Build 0)  -->
<!DOCTYPE svg PUBLIC "-//W3C//DTD SVG 1.1//EN" "http://www.w3.org/Graphics/SVG/1.1/DTD/svg11.dtd">
<svg version="1.1" id="Layer_1" xmlns="http://www.w3.org/2000/svg" xmlns:xlink="http://www.w3.org/1999/xlink" x="0px" y="0px"
	 width="68.218px" height="66.551px" viewBox="0 0 68.218 66.551" enable-background="new 0 0 68.218 66.551" xml:space="preserve">
<polygon points="68.218,32.871 60.821,32.871 64.888,28.806 63.652,27.568 58.349,32.871 50.326,32.871 59.642,23.557 58.405,22.32 
	47.854,32.871 36.208,32.871 52.587,16.504 51.351,15.267 35.057,31.559 35.057,20.478 45.81,9.725 44.572,8.489 35.057,18.005 
	35.057,9.984 40.563,4.478 39.324,3.242 35.057,7.511 35.057,0 33.308,0 33.308,7.657 29.092,3.44 27.856,4.678 33.308,10.131 
	33.308,18.152 23.844,8.689 22.608,9.926 33.308,20.626 33.308,31.719 17.066,15.467 15.829,16.703 31.995,32.871 20.364,32.871 
	10.013,22.521 8.778,23.757 17.892,32.871 9.869,32.871 4.766,27.767 3.528,29.005 7.397,32.871 0,32.871 0,34.621 7.947,34.621 
	3.92,38.646 5.156,39.883 10.419,34.621 18.442,34.621 9.167,43.894 10.405,45.13 20.915,34.621 31.992,34.621 15.947,50.673 
	17.182,51.908 33.308,35.768 33.308,60.387 33.308,66.537 35.057,66.551 35.057,60.533 35.057,35.934 51.234,52.109 52.472,50.873 
	36.21,34.621 47.304,34.621 58.013,45.33 59.248,44.094 49.777,34.621 57.798,34.621 63.259,40.083 64.495,38.847 60.272,34.621 
	68.218,34.621 "/>
</svg>
