<?xml version="1.0" encoding="utf-8"?>
<!-- Generator: Adobe Illustrator 15.0.0, SVG Export Plug-In . SVG Version: 6.00 Build 0)  -->
<!DOCTYPE svg PUBLIC "-//W3C//DTD SVG 1.1//EN" "http://www.w3.org/Graphics/SVG/1.1/DTD/svg11.dtd">
<svg version="1.1" id="Layer_1" xmlns="http://www.w3.org/2000/svg" xmlns:xlink="http://www.w3.org/1999/xlink" x="0px" y="0px"
	 width="74.652px" height="58.645px" viewBox="0 0 74.652 58.645" enable-background="new 0 0 74.652 58.645" xml:space="preserve">
<g>
	<path d="M63.883,58.645H10.769C4.831,58.645,0,53.776,0,47.793V20.291c0-5.969,4.809-10.827,10.728-10.85l1.526-0.051
		c3.114,0,5.941-1.574,7.563-4.211l0.762-1.238l0.079,0.103C22.703,1.489,25.773,0,29.115,0h16.419c3.56,0,6.897,1.74,8.929,4.655
		l0.06,0.097c0.156,0.29,0.33,0.571,0.519,0.84c1.657,2.38,4.381,3.799,7.288,3.799h0.926l0.004,0.051h0.624
		c5.938,0,10.77,4.867,10.77,10.85v27.502C74.652,53.776,69.821,58.645,63.883,58.645z M10.769,11.441
		c-4.835,0-8.769,3.97-8.769,8.85v27.502c0,4.881,3.934,8.852,8.769,8.852h53.114c4.836,0,8.77-3.971,8.77-8.852V20.291
		c0-4.88-3.934-8.85-8.77-8.85h-2.476l-0.007-0.09c-3.206-0.274-6.146-1.955-7.998-4.614c-0.221-0.313-0.427-0.645-0.611-0.983
		C51.131,3.402,48.422,2,45.534,2H29.115c-3.12,0-5.949,1.59-7.567,4.253l-0.759,1.25L20.7,7.388
		c-1.735,2.143-4.202,3.529-6.942,3.901l0.046,0.102l-1.526,0.051H10.769z"/>
</g>
<g>
	<path d="M37.326,52.076c-10.481,0-19.009-8.527-19.009-19.008c0-10.482,8.527-19.01,19.009-19.01c10.482,0,19.01,8.528,19.01,19.01
		C56.336,43.549,47.808,52.076,37.326,52.076z M37.326,16.059c-9.379,0-17.009,7.63-17.009,17.01c0,9.378,7.63,17.008,17.009,17.008
		c9.379,0,17.01-7.63,17.01-17.008C54.336,23.689,46.705,16.059,37.326,16.059z"/>
</g>
<g>
	<path d="M37.326,44.484c-6.294,0-11.415-5.121-11.415-11.416s5.121-11.416,11.415-11.416S48.74,26.773,48.74,33.068
		S43.62,44.484,37.326,44.484z M37.326,23.652c-5.191,0-9.415,4.224-9.415,9.416c0,5.192,4.224,9.416,9.415,9.416
		c5.191,0,9.415-4.224,9.415-9.416C46.74,27.876,42.517,23.652,37.326,23.652z"/>
</g>
</svg>
