<?xml version="1.0" encoding="utf-8"?>
<!-- Generator: Adobe Illustrator 15.0.0, SVG Export Plug-In . SVG Version: 6.00 Build 0)  -->
<!DOCTYPE svg PUBLIC "-//W3C//DTD SVG 1.1//EN" "http://www.w3.org/Graphics/SVG/1.1/DTD/svg11.dtd">
<svg version="1.1" id="Layer_1" xmlns="http://www.w3.org/2000/svg" xmlns:xlink="http://www.w3.org/1999/xlink" x="0px" y="0px"
	 width="25.504px" height="28.698px" viewBox="0 0 25.504 28.698" enable-background="new 0 0 25.504 28.698" xml:space="preserve">
<g>
	<path d="M12.752,28.698c-2.96,0-4.558-7.393-4.558-14.349C8.195,7.393,9.792,0,12.752,0c0.756,0,1.454,0.481,2.074,1.43
		l-0.838,0.547C13.698,1.531,13.248,1,12.752,1C11.07,1,9.195,6.482,9.195,14.35c0,7.866,1.875,13.349,3.558,13.349
		c1.682,0,3.555-5.482,3.555-13.349c0-3.051-0.286-5.933-0.828-8.335l0.975-0.22c0.559,2.473,0.854,5.431,0.854,8.555
		C17.307,21.306,15.71,28.698,12.752,28.698z"/>
</g>
<g>
	<path d="M23.167,22.452l-0.094-0.996c0.481-0.045,1.104-0.185,1.331-0.592c0.309-0.551-0.071-1.861-2.062-3.888
		c-1.878-1.913-4.668-3.948-7.856-5.73c-3.188-1.784-6.382-3.095-8.993-3.693c-2.77-0.634-4.084-0.271-4.392,0.28
		c-0.309,0.552,0.071,1.863,2.06,3.89c1.876,1.912,4.667,3.947,7.856,5.73c2.742,1.532,5.461,2.707,7.862,3.397l-0.275,0.961
		c-2.475-0.711-5.267-1.916-8.075-3.485c-3.271-1.828-6.141-3.925-8.082-5.903c-2.108-2.148-2.876-3.904-2.219-5.078
		c0.656-1.173,2.556-1.438,5.487-0.767c2.702,0.618,5.99,1.966,9.259,3.794c3.27,1.828,6.14,3.924,8.082,5.902
		c2.109,2.148,2.877,3.904,2.221,5.077C24.923,21.983,24.213,22.354,23.167,22.452z"/>
</g>
<g>
	<path d="M2.956,22.481c-1.382,0-2.309-0.379-2.728-1.129c-0.318-0.569-0.303-1.28,0.047-2.114l0.922,0.387
		c-0.224,0.535-0.257,0.952-0.096,1.239c0.308,0.55,1.623,0.913,4.391,0.28c2.613-0.598,5.807-1.909,8.994-3.691
		c3.189-1.783,5.979-3.818,7.856-5.73c1.989-2.027,2.369-3.338,2.061-3.889c-0.308-0.551-1.621-0.916-4.392-0.281
		c-2.612,0.598-5.807,1.909-8.994,3.692c-2.604,1.456-4.947,3.082-6.777,4.704l-0.663-0.748c1.882-1.669,4.286-3.339,6.952-4.829
		c3.269-1.828,6.557-3.175,9.259-3.794c2.938-0.671,4.832-0.405,5.488,0.768c0.656,1.173-0.111,2.929-2.22,5.077
		c-1.942,1.978-4.813,4.074-8.082,5.903c-3.268,1.827-6.557,3.175-9.259,3.793C4.658,22.36,3.734,22.48,2.956,22.481z"/>
</g>
<g>
	<path d="M15.287,5.526c-1.033,0-1.873-0.84-1.873-1.873c0-1.032,0.84-1.872,1.873-1.872s1.873,0.84,1.873,1.872
		C17.16,4.686,16.32,5.526,15.287,5.526z M15.287,2.781c-0.481,0-0.873,0.391-0.873,0.872c0,0.481,0.392,0.873,0.873,0.873
		s0.873-0.392,0.873-0.873C16.16,3.172,15.768,2.781,15.287,2.781z"/>
</g>
<g>
	<path d="M20.963,23.739c-1.033,0-1.873-0.84-1.873-1.873c0-1.031,0.84-1.871,1.873-1.871c1.031,0,1.871,0.84,1.871,1.871
		C22.834,22.899,21.995,23.739,20.963,23.739z M20.963,20.995c-0.481,0-0.873,0.391-0.873,0.871c0,0.481,0.392,0.873,0.873,0.873
		c0.48,0,0.871-0.392,0.871-0.873C21.834,21.386,21.444,20.995,20.963,20.995z"/>
</g>
<g>
	<path d="M2.489,19.511c-1.033,0-1.873-0.839-1.873-1.87c0-1.033,0.84-1.874,1.873-1.874s1.873,0.841,1.873,1.874
		C4.362,18.672,3.521,19.511,2.489,19.511z M2.489,16.767c-0.481,0-0.873,0.392-0.873,0.874c0,0.479,0.392,0.87,0.873,0.87
		s0.873-0.391,0.873-0.87C3.362,17.158,2.97,16.767,2.489,16.767z"/>
</g>
<g>
	<path d="M12.752,16.222c-1.033,0-1.873-0.84-1.873-1.873c0-1.033,0.84-1.873,1.873-1.873c1.031,0,1.871,0.84,1.871,1.873
		C14.624,15.382,13.784,16.222,12.752,16.222z M12.752,13.476c-0.481,0-0.873,0.392-0.873,0.873s0.392,0.873,0.873,0.873
		c0.48,0,0.871-0.392,0.871-0.873S13.233,13.476,12.752,13.476z"/>
</g>
</svg>
