<?xml version="1.0" encoding="utf-8"?>
<!-- Generator: Adobe Illustrator 15.0.0, SVG Export Plug-In . SVG Version: 6.00 Build 0)  -->
<!DOCTYPE svg PUBLIC "-//W3C//DTD SVG 1.1//EN" "http://www.w3.org/Graphics/SVG/1.1/DTD/svg11.dtd">
<svg version="1.1" id="Layer_1" xmlns="http://www.w3.org/2000/svg" xmlns:xlink="http://www.w3.org/1999/xlink" x="0px" y="0px"
	 width="45.547px" height="45.548px" viewBox="0 0 45.547 45.548" enable-background="new 0 0 45.547 45.548" xml:space="preserve">
<path fill="none" stroke="#FFFFFF" stroke-width="1.5" stroke-miterlimit="10" d="M7.199,38.347
	c-2.107-2.104-3.732-4.555-4.836-7.277c-1.072-2.637-1.613-5.428-1.613-8.295c0-2.866,0.541-5.657,1.613-8.297
	c1.104-2.721,2.729-5.168,4.836-7.276c2.105-2.106,4.557-3.734,7.279-4.84c2.635-1.069,5.428-1.611,8.295-1.611
	c2.869,0.002,5.658,0.542,8.295,1.611c2.719,1.105,5.17,2.733,7.277,4.84c2.107,2.108,3.734,4.556,4.838,7.28
	c1.07,2.636,1.615,5.424,1.613,8.293c0.002,2.867-0.543,5.658-1.613,8.295c-1.104,2.721-2.73,5.173-4.838,7.277
	c-2.107,2.109-4.555,3.734-7.277,4.838c-2.639,1.07-5.426,1.613-8.295,1.613c-2.867,0-5.656-0.543-8.295-1.613
	C11.756,42.083,9.305,40.454,7.199,38.347"/>
<path fill="none" stroke="#FFFFFF" stroke-miterlimit="10" d="M9.185,19.371c0-3.641,2.951-6.592,6.59-6.592
	c1.608,0,3.082,0.576,4.226,1.533l16.121,16.162"/>
<path fill="none" stroke="#FFFFFF" stroke-miterlimit="10" d="M9.185,19.178c0,7.504,6.084,13.59,13.588,13.59
	c7.506,0,13.59-6.086,13.59-13.59"/>
<path fill="none" stroke="#FFFFFF" stroke-miterlimit="10" d="M36.362,19.371c0-3.641-2.95-6.592-6.59-6.592
	c-1.615,0-3.095,0.58-4.24,1.543"/>
<line fill="none" stroke="#FFFFFF" stroke-miterlimit="10" x1="25.498" y1="14.449" x2="9.328" y2="30.689"/>
</svg>
