<?xml version="1.0" encoding="utf-8"?>
<!-- Generator: Adobe Illustrator 15.0.0, SVG Export Plug-In . SVG Version: 6.00 Build 0)  -->
<!DOCTYPE svg PUBLIC "-//W3C//DTD SVG 1.1//EN" "http://www.w3.org/Graphics/SVG/1.1/DTD/svg11.dtd">
<svg version="1.1" id="Layer_1" xmlns="http://www.w3.org/2000/svg" xmlns:xlink="http://www.w3.org/1999/xlink" x="0px" y="0px"
	 width="45.547px" height="45.546px" viewBox="0 0 45.547 45.546" enable-background="new 0 0 45.547 45.546" xml:space="preserve">
<path fill="none" stroke="#FFFFFF" stroke-width="1.5" stroke-miterlimit="10" d="M7.199,38.346
	c-2.107-2.106-3.732-4.555-4.836-7.277c-1.072-2.637-1.613-5.428-1.613-8.295c0-2.866,0.541-5.657,1.613-8.297
	c1.104-2.72,2.729-5.169,4.836-7.276c2.104-2.106,4.557-3.735,7.279-4.839c2.635-1.069,5.428-1.611,8.295-1.611
	c2.869,0.002,5.657,0.542,8.295,1.611c2.719,1.104,5.17,2.732,7.276,4.839c2.108,2.107,3.735,4.557,4.838,7.278
	c1.071,2.636,1.616,5.425,1.614,8.295c0.002,2.868-0.543,5.658-1.614,8.295c-1.103,2.721-2.729,5.171-4.838,7.277
	c-2.106,2.107-4.554,3.735-7.276,4.838c-2.64,1.07-5.426,1.614-8.295,1.612c-2.867,0.002-5.656-0.542-8.295-1.612
	C11.756,42.082,9.304,40.452,7.199,38.346"/>
<path fill="none" stroke="#FFFFFF" stroke-miterlimit="10" d="M9.991,20.179c-0.048,1.158,0.648,1.992,0.648,1.992
	c-0.88-0.045-2.362-2.177-2.362-2.177l-0.036,0.1c-0.159,0.869-0.242,1.765-0.242,2.682c0,5.606,3.126,10.487,7.732,12.989
	l0.001-0.022c0-1.251,0.741-3.335,0.741-3.335c0.418-0.418,0.511-1.111,0.511-1.111c0.231-1.157-0.881-1.669-0.881-1.669
	c-1.436-2.359-0.417-3.056-0.417-3.056c0.555-0.604,0.185-0.881,0.185-0.881"/>
<path fill="none" stroke="#FFFFFF" stroke-miterlimit="10" d="M32.546,30.139c0,0-0.094-0.883-0.416-1.297
	c0,0-0.141-0.464-0.141-1.066c0,0,0.231-0.926-1.62-0.557c0,0-2.085,0.556-2.642-2.964c0,0,0.188-1.064,1.39-1.806
	c0,0,0.28-0.231,0.28-0.646c0,0,2.452-0.881,3.334-0.142c0,0,0.602,1.574,2.315,1.206c0,0,1.204-0.141,1.297-0.649
	c0,0,0.836-2.455-0.882-1.157c0,0-0.415,0.416-0.692-0.511c0,0-0.741-1.11-0.696-0.229c0,0-0.092,1.389-1.02-0.464
	c0,0-0.508-0.604-1.62,0.416c0,0-2.176,1.854-2.176,0c0,0-0.048-0.972,1.019-0.787c0,0,0.832-0.185,0.093-1.063
	c0,0,0.139-0.096,1.343-0.28c0,0,0.647-0.462,1.202-1.113c0,0,0.234-0.185,0.742,0.188c0,0,1.497,1.14,2.209-1.297
	c-1.573-2.996-4.143-5.386-7.268-6.728c-0.345,1.069-1.151,3.082-2.489,3.716c0,0-1.62,0.834-2.271,1.576
	c0,0-0.971,1.157-1.713-0.323c0,0-0.554-1.206,0.048-1.716c-0.236-0.847-0.726-2.16-1.617-2.521
	c-0.735-0.302-1.393-0.141-1.877-0.905c-0.023-0.037-0.099-0.206-0.171-0.394c-1.164,0.351-2.273,0.843-3.297,1.454l0.013,0.004
	c-1.944,1.76,0.048,1.714,0.048,1.714c1.805-0.046,0.556,0.833,0.556,0.833c-0.927,0.138-1.529,1.066-1.529,1.066
	c-0.694,1.295,2.038,2.733,2.038,2.733c1.065,0,0.694-1.343,0.694-1.343c0-1.716,0.788-0.651,0.788-0.651
	c0.464,0.651,0.834,0.651,0.834,0.651c0.787-0.326,0.834,0,0.834,0c0.693,1.572,1.529,1.851,1.529,1.851
	c0.556,1.204-1.299,0.786-1.299,0.786c-0.369-0.183-0.369,0.14-0.369,0.14c0.879,1.02-0.604,0.741-0.604,0.741
	c-0.185,0.232-0.649,0.74-0.649,0.74c-0.971,0.418-1.343,0.973-1.343,0.973c-0.186,0.743-0.556,0.834-0.556,0.834
	c-0.046,0.51,0.046,1.206-0.139,1.159c-0.186-0.048-0.602-0.602-0.602-0.602c-0.462-0.742-1.991-0.232-1.991-0.232
	c-0.976,0.463,0.186,1.344,0.186,1.344c0.416,0.138,0.787,0.786,0.787,0.786c1.205,1.482,2.084,1.391,2.084,1.391
	c2.826,0,3.845,1.389,3.845,1.389c0.508,1.204,1.527,1.389,1.527,1.389c2.687,0.417,1.668,1.621,1.668,1.621
	c-0.464,2.225-3.474,3.798-3.474,3.798c-0.232,1.297-3.382,3.012-3.382,3.012l-0.033,0.026c1.859,0.847,3.926,1.315,6.102,1.315
	c3.675,0,7.036-1.342,9.623-3.561C32.288,32.91,32.122,30.597,32.546,30.139z M19.312,13.15c0.659,0.973-0.383,1.321-0.383,1.321
	c-0.626-0.8-1.182-1.007-1.182-1.007c-0.869-0.626,0.105-1.495,0.105-1.495c-0.313-0.416,0-0.728,0-0.728
	c0.45-0.037,1.32,0.692,1.32,0.692c0.139,0.487,0.903,0.833,0.903,0.833C20.492,13.187,19.312,13.15,19.312,13.15z"/>
<path fill="none" stroke="#FFFFFF" stroke-miterlimit="10" d="M20.555,9.924c0.892,0.36,1.381,1.674,1.617,2.521
	c-0.602,0.509-0.048,1.715-0.048,1.715c0.742,1.48,1.713,0.323,1.713,0.323c0.651-0.742,2.271-1.576,2.271-1.576
	c1.338-0.634,2.145-2.646,2.489-3.716c-1.788-0.767-3.756-1.193-5.824-1.193c-1.482,0-2.916,0.22-4.267,0.627
	c0.072,0.188,0.147,0.356,0.171,0.394C19.161,9.783,19.819,9.622,20.555,9.924z"/>
<path fill="none" stroke="#FFFFFF" stroke-miterlimit="10" d="M19.297,25.584c-0.81-0.469-1.864-0.587-2.776-0.587
	c0,0-0.879,0.091-2.084-1.391c0,0-0.371-0.648-0.787-0.786c0,0-1.162-0.881-0.186-1.344c0,0,1.529-0.51,1.991,0.232
	c0,0,0.416,0.554,0.602,0.603c0.185,0.046,0.093-0.65,0.138-1.16c0,0,0.371-0.09,0.557-0.834c0,0,0.372-0.555,1.343-0.973
	c0,0,0.465-0.507,0.649-0.739c0,0,1.482,0.277,0.604-0.742c0,0,0-0.322,0.369-0.14c0,0,1.854,0.418,1.299-0.785
	c0,0-0.836-0.279-1.529-1.853c0,0-0.047-0.325-0.835,0c0,0-0.37,0-0.833-0.649c0,0-0.789-1.065-0.789,0.649
	c0,0,0.372,1.344-0.693,1.344c0,0-2.732-1.438-2.038-2.733c0,0,0.603-0.929,1.529-1.066c0,0,1.249-0.879-0.556-0.833
	c0,0-1.992,0.046-0.048-1.714l-0.013-0.004c-3.585,2.143-6.188,5.759-6.969,10.015l0.035-0.1c0,0,1.483,2.132,2.363,2.177
	c0,0-0.697-0.832-0.648-1.992c-0.011,0.245,1.021,1.361,1.164,1.621c1.09,1.95,3.174,2.39,4.716,3.891c0,0,0.37,0.277-0.185,0.881
	c0,0-1.019,0.696,0.417,3.056c0,0,1.112,0.512,0.88,1.669c0,0-0.091,0.692-0.509,1.111c0,0-0.742,2.083-0.742,3.335l-0.001,0.022
	c0.306,0.167,0.621,0.322,0.94,0.467l0.033-0.026c0,0,3.149-1.715,3.382-3.012c0.037-0.209,1.426-0.942,1.62-1.106"/>
<path fill="none" stroke="#FFFFFF" stroke-miterlimit="10" d="M37.548,22.775c0-2.477-0.608-4.808-1.684-6.856
	c-0.711,2.437-2.209,1.297-2.209,1.297c-0.507-0.372-0.741-0.188-0.741-0.188c-0.555,0.651-1.201,1.113-1.201,1.113
	c-1.205,0.185-1.344,0.28-1.344,0.28c0.739,0.879-0.093,1.063-0.093,1.063c-1.066-0.185-1.019,0.787-1.019,0.787
	c0,1.854,2.176,0,2.176,0c1.112-1.02,1.62-0.416,1.62-0.416c0.928,1.853,1.02,0.464,1.02,0.464
	c-0.045-0.881,0.696,0.229,0.696,0.229c0.277,0.927,0.692,0.511,0.692,0.511c1.718-1.298,0.882,1.157,0.882,1.157
	c-0.093,0.509-1.297,0.649-1.297,0.649c-1.714,0.368-2.315-1.206-2.315-1.206c-0.882-0.739-3.334,0.142-3.334,0.142
	c0,0.415-0.28,0.646-0.28,0.646c-1.202,0.741-1.39,1.806-1.39,1.806c0.557,3.52,2.642,2.964,2.642,2.964
	c1.852-0.369,1.62,0.557,1.62,0.557c0,0.603,0.141,1.066,0.141,1.066c0.322,0.414,0.416,1.297,0.416,1.297
	c-0.424,0.458-0.258,2.771-0.149,3.848C35.549,31.275,37.548,27.257,37.548,22.775z"/>
</svg>
