<?xml version="1.0" encoding="utf-8"?>
<!-- Generator: Adobe Illustrator 15.0.0, SVG Export Plug-In . SVG Version: 6.00 Build 0)  -->
<!DOCTYPE svg PUBLIC "-//W3C//DTD SVG 1.1//EN" "http://www.w3.org/Graphics/SVG/1.1/DTD/svg11.dtd">
<svg version="1.1" id="Layer_1" xmlns="http://www.w3.org/2000/svg" xmlns:xlink="http://www.w3.org/1999/xlink" x="0px" y="0px"
	 width="119.269px" height="119.268px" viewBox="0 0 119.269 119.268" enable-background="new 0 0 119.269 119.268"
	 xml:space="preserve">
<path fill="none" stroke="#FFFFFF" stroke-width="2" stroke-miterlimit="10" d="M1,59.635c0-7.932,1.543-15.607,4.594-22.807
	c2.951-6.979,7.181-13.256,12.582-18.65c5.398-5.398,11.672-9.635,18.65-12.586C44.027,2.547,51.701,1,59.634,1
	c7.929,0.004,15.607,1.547,22.81,4.596c6.978,2.945,13.252,7.184,18.651,12.582c5.396,5.396,9.633,11.672,12.582,18.65
	c3.043,7.199,4.59,14.875,4.592,22.807c0,7.936-1.547,15.611-4.592,22.816c-2.949,6.973-7.182,13.244-12.584,18.646
	c-5.397,5.398-11.668,9.631-18.647,12.586c-7.202,3.041-14.879,4.588-22.81,4.584c-7.937,0.004-15.609-1.543-22.812-4.588
	c-6.976-2.951-13.254-7.184-18.648-12.582c-5.401-5.396-9.633-11.674-12.584-18.65C2.543,75.246,1,67.57,1,59.635"/>
<path fill="none" stroke="#FFFFFF" stroke-width="2" stroke-miterlimit="10" d="M86.191,37.752h-1.55l-0.004-0.051
	c-3.362,0-6.33-1.674-8.106-4.225c-0.211-0.301-0.405-0.615-0.58-0.939c-1.777-2.551-4.744-4.227-8.108-4.227H51.423
	c-3.578,0-6.7,1.9-8.422,4.734l-0.024-0.031c-1.73,2.813-4.852,4.688-8.415,4.688l0.023,0.051h-1.508
	c-5.396,0-9.769,4.41-9.769,9.85v27.502c0,5.441,4.373,9.852,9.769,9.852h53.114c5.396,0,9.77-4.41,9.77-9.852V47.602
	C95.96,42.162,91.586,37.752,86.191,37.752z"/>
<circle fill="none" stroke="#FFFFFF" stroke-width="2" stroke-miterlimit="10" cx="59.635" cy="60.379" r="18.01"/>
<circle fill="none" stroke="#FFFFFF" stroke-width="2" stroke-miterlimit="10" cx="59.634" cy="60.379" r="10.415"/>
</svg>
