<?xml version="1.0" encoding="utf-8"?>
<!-- Generator: Adobe Illustrator 15.0.0, SVG Export Plug-In . SVG Version: 6.00 Build 0)  -->
<!DOCTYPE svg PUBLIC "-//W3C//DTD SVG 1.1//EN" "http://www.w3.org/Graphics/SVG/1.1/DTD/svg11.dtd">
<svg version="1.1" id="Layer_1" xmlns="http://www.w3.org/2000/svg" xmlns:xlink="http://www.w3.org/1999/xlink" x="0px" y="0px"
	 width="119.27px" height="119.267px" viewBox="0 0 119.27 119.267" enable-background="new 0 0 119.27 119.267"
	 xml:space="preserve">
<path fill="none" stroke="#FFFFFF" stroke-width="2" stroke-miterlimit="10" d="M1,59.635c0-7.932,1.543-15.607,4.594-22.807
	c2.951-6.979,7.181-13.257,12.581-18.65c5.399-5.397,11.673-9.635,18.651-12.586C44.027,2.547,51.701,1,59.635,1
	c7.93,0.004,15.607,1.547,22.811,4.596c6.977,2.945,13.252,7.185,18.65,12.582c5.396,5.396,9.631,11.672,12.582,18.65
	c3.043,7.199,4.59,14.875,4.592,22.807c0,7.937-1.547,15.612-4.592,22.815c-2.951,6.973-7.182,13.244-12.584,18.646
	c-5.396,5.398-11.67,9.631-18.646,12.586c-7.203,3.041-14.879,4.588-22.811,4.584c-7.938,0.004-15.61-1.543-22.813-4.588
	c-6.976-2.951-13.254-7.184-18.649-12.582c-5.4-5.396-9.632-11.674-12.583-18.65C2.543,75.247,1,67.571,1,59.635"/>
<path fill="none" stroke="#FFFFFF" stroke-miterlimit="10" d="M53.422,38.406c0.054-0.008-0.085-0.015-0.219-0.021
	C53.277,38.392,53.349,38.395,53.422,38.406z"/>
<path fill="none" stroke="#FFFFFF" stroke-width="2" stroke-miterlimit="10" d="M76.074,60.2l-7.85-20.646
	c-0.306-0.801-1.178-1.243-2.131-1.174c-0.006,0-0.01-0.003-0.016-0.003h-1.775c-0.974,1.562-2.703,2.604-4.677,2.604
	c-1.975,0-3.703-1.043-4.677-2.604h-1.841c-0.928-0.042-1.764,0.395-2.062,1.177L43.195,60.2c-0.389,1.023,0.291,2.231,1.519,2.698
	c1.227,0.467,2.539,0.018,2.927-1.006l5.705-15.005c0.022-0.03,0.046-0.056,0.069-0.087v44.53c0,1.095,1.065,1.979,2.379,1.979
	h0.009h0.008c1.316,0,2.38-0.885,2.38-1.979V66.696h2.888v24.635c0,1.095,1.065,1.979,2.38,1.979h0.008h0.01
	c1.313,0,2.379-0.885,2.379-1.979V46.832c0.037,0.05,0.074,0.103,0.107,0.158l5.666,14.902c0.387,1.023,1.7,1.473,2.928,1.006
	C75.783,62.432,76.465,61.224,76.074,60.2z"/>
</svg>
