<?xml version="1.0" encoding="utf-8"?>
<!-- Generator: Adobe Illustrator 15.0.0, SVG Export Plug-In . SVG Version: 6.00 Build 0)  -->
<!DOCTYPE svg PUBLIC "-//W3C//DTD SVG 1.1//EN" "http://www.w3.org/Graphics/SVG/1.1/DTD/svg11.dtd">
<svg version="1.1" id="Layer_1" xmlns="http://www.w3.org/2000/svg" xmlns:xlink="http://www.w3.org/1999/xlink" x="0px" y="0px"
	 width="45.547px" height="45.545px" viewBox="0 0 45.547 45.545" enable-background="new 0 0 45.547 45.545" xml:space="preserve">
<path fill="none" stroke="#FFFFFF" stroke-width="1.5" stroke-miterlimit="10" d="M7.199,38.346
	c-2.107-2.106-3.734-4.555-4.84-7.276c-1.068-2.638-1.609-5.429-1.609-8.295c0-2.867,0.541-5.658,1.609-8.297
	c1.105-2.721,2.732-5.17,4.84-7.277c2.107-2.106,4.557-3.735,7.277-4.838c2.637-1.071,5.43-1.612,8.297-1.612
	c2.867,0.002,5.658,0.541,8.295,1.612c2.719,1.103,5.17,2.732,7.275,4.838c2.109,2.107,3.736,4.556,4.84,7.279
	c1.07,2.635,1.613,5.424,1.613,8.295c0,2.866-0.543,5.657-1.613,8.295c-1.104,2.72-2.73,5.17-4.84,7.276
	c-2.105,2.107-4.553,3.734-7.277,4.838c-2.637,1.07-5.426,1.613-8.293,1.611c-2.867,0.002-5.656-0.541-8.297-1.611
	C11.756,42.082,9.307,40.451,7.199,38.346"/>
<path fill="none" stroke="#FFFFFF" stroke-miterlimit="10" d="M30.092,25.27c-0.584-1.276-5.824-11.772-7.774-15.666
	c-2.219,4.988-7.094,16.062-7.372,16.783c-0.385,0.998-0.602,2.058-0.602,3.127c0,4.656,3.773,8.429,8.426,8.429
	c4.658,0,8.434-3.772,8.434-8.429C31.203,28.026,30.699,26.607,30.092,25.27z"/>
</svg>
