<?xml version="1.0" encoding="utf-8"?>
<!-- Generator: Adobe Illustrator 15.0.0, SVG Export Plug-In . SVG Version: 6.00 Build 0)  -->
<!DOCTYPE svg PUBLIC "-//W3C//DTD SVG 1.1//EN" "http://www.w3.org/Graphics/SVG/1.1/DTD/svg11.dtd">
<svg version="1.1" id="Layer_1" xmlns="http://www.w3.org/2000/svg" xmlns:xlink="http://www.w3.org/1999/xlink" x="0px" y="0px"
	 width="119.307px" height="119.309px" viewBox="0 0 119.307 119.309" enable-background="new 0 0 119.307 119.309"
	 xml:space="preserve">
<path fill="none" stroke="#FFFFFF" stroke-width="2" stroke-miterlimit="10" d="M47.748,60.24c-2.451,0-4.436,1.986-4.436,4.437
	c0,2.452,1.985,4.439,4.436,4.439c2.453,0,4.439-1.987,4.439-4.439C52.187,62.226,50.201,60.24,47.748,60.24z"/>
<circle fill="none" stroke="#FFFFFF" stroke-width="2" stroke-miterlimit="10" cx="59.773" cy="79.752" r="4.438"/>
<circle fill="none" stroke="#FFFFFF" stroke-width="2" stroke-miterlimit="10" cx="71.116" cy="64.678" r="4.438"/>
<circle fill="none" stroke="#FFFFFF" stroke-width="2" stroke-miterlimit="10" cx="59.654" cy="51.043" r="2.728"/>
<path fill="none" stroke="#FFFFFF" stroke-width="2" stroke-miterlimit="10" d="M77.192,53.663c0,1.506,1.221,2.727,2.729,2.727
	c0.705,0,1.348-0.271,1.832-0.712c-0.159-0.521-0.327-1.038-0.512-1.55c-0.397-1.104-0.858-2.164-1.371-3.19
	C78.384,50.964,77.192,52.174,77.192,53.663z"/>
<path fill="none" stroke="#FFFFFF" stroke-width="2" stroke-miterlimit="10" d="M42.219,53.663c0-1.506-1.219-2.727-2.725-2.727
	c-0.045,0-0.088,0.004-0.13,0.006c-0.514,1.024-0.975,2.086-1.372,3.187c-0.169,0.469-0.326,0.939-0.47,1.416
	c0.496,0.519,1.193,0.846,1.972,0.846C41,56.39,42.219,55.169,42.219,53.663z"/>
<path fill="none" stroke="#FFFFFF" stroke-width="2" stroke-miterlimit="10" d="M81.758,55.678
	c-0.484,0.441-1.129,0.712-1.834,0.712c-1.509,0-2.729-1.221-2.729-2.727c0-1.489,1.195-2.699,2.679-2.724
	c-1.008-2.01-2.228-3.865-3.655-5.537c-1.054-1.232-2.187-2.332-3.399-3.299C70.817,45.14,65.678,47.3,59.651,47.3
	c-6.03,0-11.168-2.16-13.172-5.196c-1.211,0.966-2.346,2.067-3.399,3.298c-1.429,1.673-2.648,3.531-3.656,5.541
	c0.043-0.002,0.086-0.006,0.131-0.006c1.504,0,2.726,1.22,2.726,2.726c0,1.506-1.222,2.727-2.726,2.727
	c-0.777,0-1.477-0.326-1.973-0.846c-0.908,2.957-1.365,6.067-1.365,9.262c0,3.715,0.617,7.308,1.836,10.68
	c1.178,3.264,2.869,6.201,5.027,8.729c2.157,2.526,4.666,4.508,7.455,5.889c2.877,1.428,5.944,2.15,9.116,2.15
	c3.17,0,6.238-0.723,9.115-2.148c2.789-1.383,5.299-3.364,7.453-5.891c2.158-2.529,3.85-5.465,5.026-8.729
	c1.22-3.372,1.839-6.965,1.839-10.68C83.08,61.657,82.637,58.594,81.758,55.678z"/>
<path fill="none" stroke="#FFFFFF" stroke-width="2" stroke-miterlimit="10" d="M67.084,32.472c-0.164-2.26-3.431-4.064-7.435-4.064
	c-4.005,0-7.271,1.804-7.435,4.064c-3.983,1.416-6.637,3.935-6.637,6.809c0,0.994,0.32,1.945,0.901,2.823
	C48.482,45.14,53.621,47.3,59.65,47.3c6.028,0,11.166-2.16,13.17-5.197c0.582-0.879,0.901-1.828,0.901-2.822
	C73.721,36.407,71.066,33.888,67.084,32.472z"/>
<line fill="none" stroke="#FFFFFF" stroke-width="2" stroke-miterlimit="10" x1="53.434" y1="30.369" x2="53.434" y2="26.376"/>
<line fill="none" stroke="#FFFFFF" stroke-width="2" stroke-miterlimit="10" x1="40.814" y1="48.547" x2="40.814" y2="34.718"/>
<line fill="none" stroke="#FFFFFF" stroke-width="2" stroke-miterlimit="10" x1="78.387" y1="48.547" x2="78.387" y2="34.718"/>
<line fill="none" stroke="#FFFFFF" stroke-width="2" stroke-miterlimit="10" x1="40.814" y1="92.931" x2="40.814" y2="80.878"/>
<line fill="none" stroke="#FFFFFF" stroke-width="2" stroke-miterlimit="10" x1="78.387" y1="92.931" x2="78.387" y2="81.306"/>
<line fill="none" stroke="#FFFFFF" stroke-width="2" stroke-miterlimit="10" x1="83.09" y1="63.289" x2="83.09" y2="45.268"/>
<line fill="none" stroke="#FFFFFF" stroke-width="2" stroke-miterlimit="10" x1="36.252" y1="63.289" x2="36.252" y2="45.268"/>
<line fill="none" stroke="#FFFFFF" stroke-width="2" stroke-miterlimit="10" x1="65.838" y1="30.369" x2="65.838" y2="26.376"/>
<line fill="none" stroke="#FFFFFF" stroke-width="2" stroke-miterlimit="10" x1="67.139" y1="32.489" x2="52.223" y2="32.489"/>
<line fill="none" stroke="#FFFFFF" stroke-width="2" stroke-miterlimit="10" x1="59.654" y1="75.238" x2="59.654" y2="53.738"/>
<line fill="none" stroke="#FFFFFF" stroke-width="2" stroke-miterlimit="10" x1="59.654" y1="84.238" x2="59.654" y2="92.957"/>
<path fill="none" stroke="#FFFFFF" stroke-width="2" stroke-miterlimit="10" d="M9.01,89.207
	c-3.997-6.851-6.533-14.258-7.527-22.014c-0.969-7.514-0.478-15.069,1.465-22.449c1.943-7.384,5.226-14.204,9.766-20.27
	C17.4,18.214,23.247,13.011,30.1,9.011c6.851-3.993,14.26-6.531,22.017-7.528c7.511-0.972,15.067-0.474,22.451,1.467
	c7.38,1.942,14.2,5.228,20.266,9.767c6.257,4.684,11.462,10.534,15.461,17.384c4,6.854,6.533,14.263,7.533,22.019
	c0.966,7.51,0.474,15.059-1.47,22.447c-1.94,7.384-5.225,14.201-9.762,20.269c-4.688,6.258-10.539,11.463-17.392,15.457
	c-6.854,4.004-14.259,6.535-22.015,7.535c-7.514,0.968-15.068,0.476-22.45-1.468c-7.382-1.939-14.202-5.228-20.267-9.766
	C18.21,101.912,13.01,96.06,9.01,89.207"/>
</svg>
