<?xml version="1.0" encoding="utf-8"?>
<!-- Generator: Adobe Illustrator 15.0.0, SVG Export Plug-In . SVG Version: 6.00 Build 0)  -->
<!DOCTYPE svg PUBLIC "-//W3C//DTD SVG 1.1//EN" "http://www.w3.org/Graphics/SVG/1.1/DTD/svg11.dtd">
<svg version="1.1" id="Layer_1" xmlns="http://www.w3.org/2000/svg" xmlns:xlink="http://www.w3.org/1999/xlink" x="0px" y="0px"
	 width="20.598px" height="28.042px" viewBox="0 0 20.598 28.042" enable-background="new 0 0 20.598 28.042" xml:space="preserve">
<circle fill="none" stroke="#5d5d5c" stroke-miterlimit="10" cx="5.326" cy="16.014" r="1.856"/>
<circle fill="none" stroke="#5d5d5c" stroke-miterlimit="10" cx="10.35" cy="22.315" r="1.855"/>
<circle fill="none" stroke="#5d5d5c" stroke-miterlimit="10" cx="15.09" cy="16.014" r="1.856"/>
<circle fill="none" stroke="#5d5d5c" stroke-miterlimit="10" cx="10.299" cy="10.313" r="1.14"/>
<path fill="none" stroke="#5d5d5c" stroke-miterlimit="10" d="M17.633,11.409c0,0.629,0.51,1.141,1.137,1.141
	c0.297,0,0.568-0.114,0.768-0.298c-0.064-0.219-0.135-0.435-0.211-0.65c-0.166-0.461-0.357-0.904-0.574-1.333
	C18.133,10.28,17.633,10.786,17.633,11.409z"/>
<path fill="none" stroke="#5d5d5c" stroke-miterlimit="10" d="M3.012,11.409c0-0.63-0.512-1.141-1.139-1.141
	c-0.02,0-0.035,0.002-0.057,0.002c-0.211,0.429-0.406,0.872-0.57,1.332c-0.07,0.196-0.141,0.393-0.199,0.594
	c0.209,0.216,0.5,0.354,0.826,0.354C2.5,12.55,3.012,12.038,3.012,11.409z"/>
<path fill="none" stroke="#5d5d5c" stroke-miterlimit="10" d="M19.541,12.252c-0.201,0.185-0.473,0.298-0.768,0.298
	c-0.627,0-1.139-0.512-1.139-1.141c0-0.623,0.5-1.129,1.117-1.139c-0.42-0.841-0.93-1.617-1.525-2.316
	c-0.441-0.515-0.918-0.974-1.422-1.379c-0.838,1.27-2.986,2.173-5.506,2.173c-2.521,0-4.67-0.903-5.508-2.173
	c-0.506,0.405-0.98,0.864-1.42,1.379c-0.596,0.701-1.107,1.477-1.529,2.317c0.02,0,0.037-0.002,0.055-0.002
	c0.627,0,1.141,0.51,1.141,1.14c0,0.629-0.514,1.141-1.141,1.141c-0.322,0-0.615-0.138-0.822-0.354
	C0.695,13.431,0.5,14.731,0.5,16.067c0,1.553,0.262,3.055,0.77,4.465c0.494,1.364,1.199,2.592,2.102,3.649
	c0.902,1.056,1.951,1.884,3.117,2.463c1.201,0.595,2.486,0.897,3.811,0.897c1.326,0,2.607-0.303,3.809-0.897
	c1.17-0.579,2.217-1.407,3.119-2.463c0.904-1.058,1.609-2.285,2.104-3.649c0.506-1.41,0.766-2.912,0.766-4.465
	C20.094,14.75,19.908,13.469,19.541,12.252z"/>
<path fill="none" stroke="#5d5d5c" stroke-miterlimit="10" d="M13.408,2.55c-0.07-0.945-1.436-1.699-3.109-1.699
	c-1.678,0-3.039,0.754-3.107,1.699C5.523,3.14,4.412,4.195,4.412,5.396c0,0.416,0.139,0.812,0.379,1.179
	c0.838,1.27,2.986,2.173,5.508,2.173c2.52,0,4.668-0.903,5.506-2.173c0.244-0.367,0.379-0.763,0.379-1.179
	C16.184,4.195,15.072,3.14,13.408,2.55z"/>
<line fill="none" stroke="#5d5d5c" stroke-miterlimit="10" x1="7.697" y1="1.67" x2="7.697" y2="0"/>
<line fill="none" stroke="#5d5d5c" stroke-miterlimit="10" x1="2.424" y1="9.271" x2="2.424" y2="3.488"/>
<line fill="none" stroke="#5d5d5c" stroke-miterlimit="10" x1="18.133" y1="9.271" x2="18.133" y2="3.488"/>
<line fill="none" stroke="#5d5d5c" stroke-miterlimit="10" x1="2.424" y1="27.825" x2="2.424" y2="22.788"/>
<line fill="none" stroke="#5d5d5c" stroke-miterlimit="10" x1="18.133" y1="27.825" x2="18.133" y2="22.966"/>
<line fill="none" stroke="#5d5d5c" stroke-miterlimit="10" x1="20.098" y1="15.432" x2="20.098" y2="7.9"/>
<line fill="none" stroke="#5d5d5c" stroke-miterlimit="10" x1="0.518" y1="15.432" x2="0.518" y2="7.9"/>
<line fill="none" stroke="#5d5d5c" stroke-miterlimit="10" x1="12.887" y1="1.67" x2="12.887" y2="0"/>
<line fill="none" stroke="#5d5d5c" stroke-miterlimit="10" x1="13.43" y1="2.557" x2="7.195" y2="2.557"/>
<line fill="none" stroke="#5d5d5c" stroke-miterlimit="10" x1="10.299" y1="20.52" x2="10.299" y2="11.438"/>
<line fill="none" stroke="#5d5d5c" stroke-miterlimit="10" x1="10.299" y1="27.354" x2="10.299" y2="24.27"/>
</svg>
