<?xml version="1.0" encoding="utf-8"?>
<!-- Generator: Adobe Illustrator 15.0.0, SVG Export Plug-In . SVG Version: 6.00 Build 0)  -->
<!DOCTYPE svg PUBLIC "-//W3C//DTD SVG 1.1//EN" "http://www.w3.org/Graphics/SVG/1.1/DTD/svg11.dtd">
<svg version="1.1" id="Layer_1" xmlns="http://www.w3.org/2000/svg" xmlns:xlink="http://www.w3.org/1999/xlink" x="0px" y="0px"
	 width="45.547px" height="45.547px" viewBox="0 0 45.547 45.547" enable-background="new 0 0 45.547 45.547" xml:space="preserve">
<path fill="none" stroke="#FFFFFF" stroke-width="1.5" stroke-miterlimit="10" d="M7.201,38.346
	c-2.107-2.104-3.734-4.555-4.838-7.276c-1.07-2.638-1.613-5.429-1.613-8.295c0-2.867,0.543-5.658,1.613-8.297
	c1.104-2.72,2.73-5.168,4.838-7.277c2.105-2.105,4.557-3.733,7.277-4.838c2.637-1.07,5.43-1.612,8.295-1.612
	c2.871,0.002,5.66,0.542,8.297,1.612c2.719,1.105,5.168,2.732,7.277,4.838c2.107,2.109,3.734,4.557,4.836,7.281
	c1.072,2.635,1.613,5.424,1.613,8.293c0,2.868-0.541,5.657-1.613,8.295c-1.102,2.72-2.729,5.172-4.836,7.276
	c-2.109,2.109-4.557,3.735-7.277,4.84c-2.641,1.068-5.426,1.613-8.297,1.611c-2.865,0.002-5.656-0.543-8.295-1.611
	C11.758,42.082,9.307,40.453,7.201,38.346"/>
<path fill="none" stroke="#FFFFFF" stroke-miterlimit="10" d="M15.318,16.97c-1.488-1.361-3.797-1.321-5.236,0.118
	c-1.482,1.481-1.482,3.88,0,5.361c0.33,0.332,0.705,0.586,1.109,0.768c-0.391,0.183-0.752,0.434-1.072,0.753
	c-1.48,1.479-1.48,3.882,0,5.361c1.439,1.44,3.75,1.479,5.238,0.117l0.002,0.003l6.225-6.223l-0.039-0.037l-2.324-2.326
	l-3.898-3.899L15.318,16.97z"/>
<path fill="none" stroke="#FFFFFF" stroke-miterlimit="10" d="M30.23,29.5c1.488,1.361,3.797,1.322,5.236-0.118
	c1.48-1.481,1.48-3.882,0.002-5.36c-0.332-0.332-0.709-0.587-1.109-0.77c0.387-0.182,0.748-0.432,1.068-0.753
	c1.482-1.48,1.482-3.881,0-5.359c-1.438-1.442-3.748-1.48-5.234-0.12l-0.004-0.003l-6.225,6.224l0.039,0.037l2.326,2.327
	l3.898,3.897L30.23,29.5z"/>
<path fill="none" stroke="#FFFFFF" stroke-miterlimit="10" d="M16.531,15.145l3.9,3.898l2.324,2.325l0.037,0.039l6.227-6.225
	l-0.004-0.004c1.359-1.486,1.32-3.796-0.121-5.236c-1.479-1.481-3.879-1.481-5.359,0c-0.32,0.32-0.568,0.683-0.752,1.072
	c-0.184-0.402-0.441-0.779-0.77-1.109c-1.482-1.481-3.879-1.481-5.363,0c-1.438,1.439-1.477,3.749-0.115,5.237L16.531,15.145z"/>
<line fill="none" stroke="#FFFFFF" stroke-miterlimit="10" x1="22.799" y1="21.486" x2="22.799" y2="36.753"/>
</svg>
