<?xml version="1.0" encoding="utf-8"?>
<!-- Generator: Adobe Illustrator 15.0.0, SVG Export Plug-In . SVG Version: 6.00 Build 0)  -->
<!DOCTYPE svg PUBLIC "-//W3C//DTD SVG 1.1//EN" "http://www.w3.org/Graphics/SVG/1.1/DTD/svg11.dtd">
<svg version="1.1" id="Layer_1" xmlns="http://www.w3.org/2000/svg" xmlns:xlink="http://www.w3.org/1999/xlink" x="0px" y="0px"
	 width="119.307px" height="119.308px" viewBox="0 0 119.307 119.308" enable-background="new 0 0 119.307 119.308"
	 xml:space="preserve">
<polyline fill="#231F20" points="53.939,64.597 48.375,70.159 48.377,70.16 48.379,70.162 53.942,64.599 53.939,64.597 "/>
<polygon fill="none" stroke="#FFFFFF" stroke-miterlimit="10" points="53.939,64.597 48.375,70.159 48.377,70.16 48.379,70.162 
	53.942,64.599 "/>
<polygon fill="#231F20" points="64.125,65.835 69.506,71.217 64.127,65.835 "/>
<polygon fill="none" stroke="#FFFFFF" stroke-miterlimit="10" points="64.125,65.835 69.506,71.217 64.127,65.835 "/>
<polygon fill="#231F20" points="58.852,59.687 58.413,60.124 58.852,60.562 "/>
<polygon fill="none" stroke="#FFFFFF" stroke-miterlimit="10" points="58.852,59.687 58.413,60.124 58.852,60.562 "/>
<polygon fill="#231F20" points="60.601,60.4 60.876,60.125 60.601,59.849 "/>
<polygon fill="none" stroke="#FFFFFF" stroke-miterlimit="10" points="60.601,60.4 60.876,60.125 60.601,59.849 "/>
<polygon fill="#FFFFFF" points="93.762,59.25 86.365,59.25 90.432,55.185 89.196,53.947 83.893,59.25 75.87,59.25 85.186,49.936 
	83.949,48.699 73.398,59.25 61.752,59.25 78.131,42.883 76.895,41.646 60.601,57.938 60.601,46.857 71.354,36.104 70.116,34.868 
	60.601,44.384 60.601,36.363 66.107,30.857 64.868,29.621 60.601,33.89 60.601,26.379 58.852,26.379 58.852,34.036 54.636,29.819 
	53.4,31.057 58.852,36.51 58.852,44.531 49.388,35.068 48.152,36.305 58.852,47.005 58.852,58.098 42.61,41.846 41.373,43.082 
	57.539,59.25 45.908,59.25 35.557,48.9 34.322,50.136 43.436,59.25 35.413,59.25 30.31,54.146 29.072,55.384 32.941,59.25 
	25.544,59.25 25.544,61 33.491,61 29.464,65.025 30.7,66.262 35.963,61 43.986,61 34.711,70.273 35.949,71.509 46.459,61 57.536,61 
	41.491,77.052 42.726,78.287 58.852,62.147 58.852,86.766 58.852,92.916 60.601,92.93 60.601,86.912 60.601,62.313 76.778,78.488 
	78.016,77.251 61.754,61 72.848,61 83.557,71.708 84.792,70.473 75.321,61 83.342,61 88.803,66.462 90.039,65.226 85.816,61 
	93.762,61 "/>
<path fill="none" stroke="#FFFFFF" stroke-width="2" stroke-miterlimit="10" d="M9.009,30.103
	c-3.997,6.85-6.533,14.257-7.527,22.014c-0.968,7.512-0.479,15.068,1.465,22.449c1.943,7.384,5.227,14.203,9.766,20.269
	c4.686,6.261,10.533,11.463,17.387,15.462c6.849,3.995,14.259,6.531,22.015,7.53c7.511,0.97,15.066,0.474,22.451-1.467
	c7.381-1.944,14.201-5.229,20.266-9.769c6.258-4.685,11.463-10.535,15.463-17.384c3.998-6.854,6.53-14.261,7.531-22.019
	c0.967-7.51,0.473-15.06-1.47-22.447c-1.94-7.382-5.224-14.2-9.763-20.267c-4.688-6.259-10.537-11.464-17.391-15.458
	C82.35,5.013,74.945,2.482,67.189,1.481c-7.514-0.968-15.068-0.476-22.45,1.468c-7.382,1.939-14.201,5.227-20.267,9.766
	C18.209,17.398,13.009,23.249,9.009,30.103"/>
</svg>
