<?xml version="1.0" encoding="utf-8"?>
<!-- Generator: Adobe Illustrator 15.0.0, SVG Export Plug-In . SVG Version: 6.00 Build 0)  -->
<!DOCTYPE svg PUBLIC "-//W3C//DTD SVG 1.1//EN" "http://www.w3.org/Graphics/SVG/1.1/DTD/svg11.dtd">
<svg version="1.1" id="Layer_1" xmlns="http://www.w3.org/2000/svg" xmlns:xlink="http://www.w3.org/1999/xlink" x="0px" y="0px"
	 width="45.547px" height="45.547px" viewBox="0 0 45.547 45.547" enable-background="new 0 0 45.547 45.547" xml:space="preserve">
<path fill="none" stroke="#FFFFFF" stroke-width="1.5" stroke-miterlimit="10" d="M7.199,38.346
	c-2.107-2.105-3.732-4.555-4.836-7.276c-1.072-2.638-1.613-5.429-1.613-8.295c0-2.867,0.541-5.658,1.613-8.297
	c1.104-2.72,2.729-5.168,4.836-7.277c2.104-2.105,4.557-3.734,7.279-4.838c2.635-1.07,5.428-1.612,8.295-1.612
	c2.869,0.002,5.657,0.542,8.295,1.612c2.719,1.105,5.17,2.732,7.276,4.838c2.108,2.109,3.735,4.557,4.838,7.28
	c1.071,2.636,1.616,5.425,1.614,8.294c0.002,2.868-0.543,5.657-1.614,8.295c-1.103,2.72-2.729,5.171-4.838,7.276
	c-2.106,2.108-4.554,3.735-7.276,4.84c-2.64,1.068-5.426,1.613-8.295,1.611c-2.867,0.002-5.656-0.543-8.295-1.611
	C11.756,42.082,9.304,40.453,7.199,38.346"/>
<rect x="17.579" y="26.002" transform="matrix(0.7065 -0.7077 0.7077 0.7065 -12.7607 21.2354)" fill="#FFFFFF" width="3.287" height="0.002"/>
<polygon fill="#FFFFFF" points="24.643,25.357 26.895,27.607 26.895,27.605 "/>
<polygon fill="#FFFFFF" points="22.439,22.787 22.255,22.971 22.439,23.154 "/>
<polygon fill="#FFFFFF" points="23.172,23.084 23.285,22.971 23.172,22.855 "/>
<polygon fill="#FFFFFF" points="37.035,22.605 33.941,22.605 35.642,20.905 35.125,20.388 32.906,22.605 29.555,22.605 
	33.449,18.711 32.931,18.194 28.519,22.605 23.65,22.605 30.5,15.761 29.982,15.245 23.172,22.055 23.172,17.424 27.666,12.927 
	27.148,12.412 23.172,16.389 23.172,13.037 25.474,10.735 24.955,10.217 23.172,12.002 23.172,8.862 22.439,8.862 22.439,12.064 
	20.678,10.301 20.158,10.817 22.439,13.098 22.439,16.452 18.482,12.495 17.967,13.012 22.439,17.487 22.439,22.124 15.646,15.329 
	15.133,15.846 21.889,22.605 17.027,22.605 12.701,18.278 12.183,18.793 15.996,22.605 12.639,22.605 10.508,20.471 9.99,20.988 
	11.607,22.605 8.514,22.605 8.514,23.336 11.836,23.336 10.152,25.018 10.67,25.536 12.871,23.336 16.224,23.336 12.349,27.213 
	12.865,27.73 17.26,23.336 21.889,23.336 15.181,30.047 15.695,30.564 22.439,23.816 22.439,34.107 22.439,36.68 23.172,36.686 
	23.172,34.169 23.172,23.884 29.931,30.646 30.453,30.131 23.652,23.336 28.289,23.336 32.765,27.813 33.283,27.297 29.326,23.336 
	32.68,23.336 34.963,25.62 35.476,25.104 33.711,23.336 37.035,23.336 "/>
</svg>
