<?xml version="1.0" encoding="utf-8"?>
<!-- Generator: Adobe Illustrator 15.0.0, SVG Export Plug-In . SVG Version: 6.00 Build 0)  -->
<!DOCTYPE svg PUBLIC "-//W3C//DTD SVG 1.1//EN" "http://www.w3.org/Graphics/SVG/1.1/DTD/svg11.dtd">
<svg version="1.1" id="Layer_1" xmlns="http://www.w3.org/2000/svg" xmlns:xlink="http://www.w3.org/1999/xlink" x="0px" y="0px"
	 width="45.547px" height="45.547px" viewBox="0 0 45.547 45.547" enable-background="new 0 0 45.547 45.547" xml:space="preserve">
<path fill="none" stroke="#FFFFFF" stroke-miterlimit="10" d="M21.609,37.082c0.365,0.164,0.74,0.25,1.125,0.25
	c0.014,0,0.027,0,0.039-0.002c-0.385-0.004-0.76-0.096-1.117-0.264C21.641,37.071,21.623,37.078,21.609,37.082z"/>
<path fill="none" stroke="#FFFFFF" stroke-miterlimit="10" d="M22.773,12.564c-0.012,0-0.025-0.002-0.039-0.002
	c-0.385,0-0.76,0.087-1.125,0.251c0.014,0.005,0.031,0.011,0.047,0.015C22.014,12.661,22.389,12.569,22.773,12.564z"/>
<path fill="none" stroke="#FFFFFF" stroke-miterlimit="10" d="M27.68,12.562c-0.377,0-0.754,0.024-1.123,0.071
	c4.272,0.659,7.604,5.921,7.604,12.315c0,6.394-3.332,11.655-7.604,12.313c0.369,0.047,0.746,0.071,1.123,0.071
	c5.824,0,10.545-5.544,10.545-12.385C38.225,18.108,33.504,12.562,27.68,12.562z"/>
<path fill="none" stroke="#FFFFFF" stroke-miterlimit="10" d="M26.557,12.633c-0.299-0.047-0.604-0.071-0.906-0.071
	c-0.588,0-1.162,0.087-1.713,0.251c0.191,0.086,0.379,0.196,0.563,0.323c2.266,1.585,3.908,6.272,3.908,11.811
	S26.766,35.174,24.5,36.758c-0.184,0.129-0.371,0.238-0.563,0.324c0.551,0.164,1.125,0.25,1.713,0.25
	c0.302,0,0.607-0.022,0.906-0.07c4.272-0.658,7.604-5.92,7.604-12.314C34.161,18.554,30.829,13.292,26.557,12.633z"/>
<path fill="none" stroke="#FFFFFF" stroke-miterlimit="10" d="M23.938,12.813c-0.363-0.164-0.74-0.251-1.125-0.251
	c-0.017,0-0.025,0.002-0.039,0.002c0.383,0.005,0.756,0.097,1.115,0.264C23.906,12.824,23.919,12.818,23.938,12.813z"/>
<path fill="none" stroke="#FFFFFF" stroke-miterlimit="10" d="M22.773,37.33c0.014,0.002,0.022,0.002,0.039,0.002
	c0.385,0,0.762-0.086,1.125-0.25c-0.019-0.004-0.031-0.01-0.049-0.016C23.529,37.234,23.156,37.326,22.773,37.33z"/>
<path fill="none" stroke="#FFFFFF" stroke-miterlimit="10" d="M24.451,36.738c-0.185,0.131-0.369,0.24-0.562,0.328
	c0.017,0.006,0.03,0.012,0.048,0.017c0.191-0.086,0.379-0.196,0.563-0.324C24.482,36.753,24.467,36.745,24.451,36.738z"/>
<path fill="none" stroke="#FFFFFF" stroke-miterlimit="10" d="M21.096,36.738c-0.019,0.007-0.033,0.015-0.051,0.021
	c0.186,0.128,0.373,0.238,0.564,0.324c0.014-0.005,0.031-0.011,0.047-0.017C21.465,36.979,21.275,36.869,21.096,36.738z"/>
<path fill="none" stroke="#FFFFFF" stroke-miterlimit="10" d="M21.096,13.157c0.18-0.13,0.369-0.239,0.561-0.329
	c-0.016-0.004-0.033-0.01-0.047-0.015c-0.191,0.086-0.379,0.197-0.564,0.323C21.063,13.144,21.077,13.151,21.096,13.157z"/>
<path fill="none" stroke="#FFFFFF" stroke-miterlimit="10" d="M11.385,24.947c0-6.394,3.33-11.654,7.604-12.313
	c-0.371-0.047-0.743-0.072-1.126-0.072c-5.822,0-10.54,5.546-10.54,12.386c0,6.842,4.718,12.386,10.54,12.386
	c0.383,0,0.755-0.024,1.126-0.071C14.715,36.603,11.385,31.343,11.385,24.947z"/>
<path fill="none" stroke="#FFFFFF" stroke-miterlimit="10" d="M17.137,24.947c0-5.539,1.643-10.227,3.908-11.812
	c0.186-0.126,0.373-0.237,0.564-0.323c-0.555-0.164-1.127-0.251-1.711-0.251c-0.309,0-0.612,0.025-0.908,0.072
	c-4.275,0.659-7.605,5.92-7.605,12.313c0,6.396,3.33,11.655,7.605,12.314c0.296,0.047,0.6,0.071,0.908,0.071
	c0.584,0,1.156-0.086,1.711-0.25c-0.191-0.086-0.379-0.196-0.564-0.324C18.779,35.174,17.137,30.486,17.137,24.947z"/>
<rect x="22.065" y="8.216" fill="#231F20" width="1.056" height="4.318"/>
<rect x="22.065" y="8.216" fill="none" stroke="#FFFFFF" stroke-miterlimit="10" width="1.056" height="4.318"/>
<path fill="none" stroke="#FFFFFF" stroke-width="1.5" stroke-miterlimit="10" d="M7.199,38.346
	c-2.107-2.105-3.734-4.555-4.84-7.276c-1.068-2.638-1.609-5.429-1.609-8.295c0-2.867,0.541-5.658,1.609-8.297
	c1.105-2.72,2.732-5.168,4.84-7.277c2.106-2.105,4.557-3.734,7.277-4.838c2.637-1.07,5.43-1.612,8.297-1.612
	c2.866,0.002,5.657,0.542,8.295,1.612c2.719,1.105,5.17,2.732,7.275,4.838c2.109,2.109,3.736,4.557,4.839,7.28
	c1.071,2.636,1.614,5.425,1.614,8.294c0,2.868-0.543,5.657-1.614,8.295c-1.103,2.72-2.729,5.171-4.839,7.276
	c-2.105,2.108-4.553,3.735-7.277,4.84c-2.638,1.068-5.427,1.613-8.293,1.611c-2.867,0.002-5.656-0.543-8.297-1.611
	C11.756,42.082,9.306,40.453,7.199,38.346"/>
</svg>
