<?xml version="1.0" encoding="utf-8"?>
<!-- Generator: Adobe Illustrator 15.0.0, SVG Export Plug-In . SVG Version: 6.00 Build 0)  -->
<!DOCTYPE svg PUBLIC "-//W3C//DTD SVG 1.1//EN" "http://www.w3.org/Graphics/SVG/1.1/DTD/svg11.dtd">
<svg version="1.1" id="Layer_1" xmlns="http://www.w3.org/2000/svg" xmlns:xlink="http://www.w3.org/1999/xlink" x="0px" y="0px"
	 width="45.547px" height="45.547px" viewBox="0 0 45.547 45.547" enable-background="new 0 0 45.547 45.547" xml:space="preserve">
<path fill="none" stroke="#FFFFFF" stroke-width="1.5" stroke-miterlimit="10" d="M7.199,38.346
	c-2.107-2.105-3.732-4.555-4.836-7.277c-1.072-2.637-1.613-5.428-1.613-8.295c0-2.866,0.541-5.657,1.613-8.297
	c1.104-2.72,2.729-5.168,4.836-7.276c2.105-2.105,4.557-3.733,7.279-4.839c2.635-1.069,5.428-1.611,8.295-1.611
	c2.869,0.002,5.658,0.542,8.295,1.611c2.719,1.105,5.17,2.733,7.277,4.839c2.107,2.108,3.734,4.557,4.838,7.28
	c1.07,2.636,1.615,5.424,1.613,8.293c0.002,2.868-0.543,5.658-1.613,8.295c-1.104,2.721-2.73,5.172-4.838,7.277
	c-2.107,2.109-4.555,3.735-7.277,4.839c-2.639,1.069-5.426,1.613-8.295,1.612c-2.867,0.001-5.656-0.543-8.295-1.612
	C11.756,42.082,9.305,40.453,7.199,38.346"/>
<path fill="#FFFFFF" d="M15.167,34.613c0.003,0,0.1-0.126,0.895,0.091c2.563,0.701,5.546,1.366,8.536,0.373
	c0.058-0.018,0.099-0.067,0.11-0.125c0.037-0.195-0.294-0.551-0.296-0.554c-0.172-0.143-0.379-0.171-0.563-0.197l-0.088-0.011
	c-0.468-0.072-0.913-0.189-1.383-0.313l-0.095-0.026c-1.532-0.4-2.889-1.037-4.267-1.998c-0.203-0.219-0.385-0.527-0.328-0.625
	c0.01-0.016,0.103-0.143,0.744,0.006c0.184,0.098,1.658,0.806,4.939,0.001c0.056-0.023,0.591-0.168,0.641-0.521
	c0.033-0.22-0.123-0.434-0.479-0.656l-0.039-0.016c-0.028-0.005-2.771-0.588-3.689-1.853c-0.076-0.103-0.207-0.353-0.136-0.474
	c0.06-0.101,0.288-0.136,0.633-0.093c0.106,0.007,2.622,0.148,3.14-0.836c0.031-0.037,0.091-0.125,0.072-0.259
	c-0.033-0.248-0.299-0.494-0.807-0.752c-0.004-0.002-0.24-0.154-0.455-0.39c-0.197-0.038-0.388-0.096-0.566-0.174
	c-0.4-0.172-0.75-0.439-1.023-0.776c0.025,0.285,0.156,0.558,0.279,0.813c0.093,0.188,0.179,0.365,0.225,0.541
	c0.069,0.259,0.042,0.469-0.076,0.609c-0.121,0.145-0.345,0.208-0.624,0.181c-0.625-0.062-1.118-0.378-1.64-0.715
	c-0.137-0.089-0.275-0.178-0.416-0.264c-0.434-0.259-0.744-0.316-0.947-0.175c-0.269,0.185-0.194,0.621-0.184,0.672
	c0.364,1.732,2.156,3.509,2.222,3.569c0.384,0.507-0.249,0.603-0.649,0.536c-0.422-0.073-0.814-0.307-1.189-0.504
	c-0.772-0.411-1.521-0.871-2.19-1.434c-0.238-0.201-0.466-0.421-0.693-0.676l-0.02-0.02c-0.169-0.188-0.448-0.504-0.783-0.384
	c-0.405,0.14-0.202,0.805-0.116,1.09l0.012,0.04c0.81,2.74,3.861,5.008,4.102,5.184c0.205,0.228,0.219,0.334,0.206,0.355
	c-0.035,0.063-0.306,0.074-0.54,0.029c-4.179-1.414-6.385-4.064-6.415-4.1c-0.659-0.66-0.874-0.675-1.007-0.594
	c-0.176,0.107-0.101,0.398-0.076,0.475c0.121,0.577,0.378,1.188,0.708,1.787c1.948,2.674,4.773,4.672,8.048,5.565
	c-1.224-0.525-2.642-1.231-3.466-1.978C15.257,34.869,15.14,34.661,15.167,34.613"/>
<path fill="#FFFFFF" d="M16.173,10.464c0.042,0.243-0.652,0.842-0.881,1.04c-0.07,0.061-0.122,0.106-0.15,0.134
	c-1.351,1.332-2.97,3.161-3.521,5.501c-0.104,0.439-0.126,1.004,0.156,1.146c0.272,0.139,0.582-0.219,0.688-0.341
	c0.604-0.759,1.171-1.375,1.731-1.887c0.764-0.702,1.532-1.239,2.349-1.645c0.039-0.02,0.084-0.043,0.134-0.069
	c0.326-0.171,1.008-0.527,1.251-0.261c0.272,0.297-0.345,0.911-0.608,1.174l-0.086,0.085c-0.864,0.887-1.396,1.717-1.722,2.694
	c-0.005,0.014-0.43,1.409-0.001,1.709c0.15,0.104,0.355,0.054,0.609-0.151c0.264-0.209,0.52-0.452,0.768-0.688
	c0.614-0.582,1.252-1.182,2.055-1.387c0.323-0.08,0.593-0.033,0.741,0.131c0.145,0.159,0.162,0.419,0.052,0.73
	c-0.085,0.23-0.192,0.451-0.295,0.664c-0.213,0.441-0.434,0.898-0.448,1.461c-0.011,0.393,0.077,0.646,0.263,0.775
	c0.303,0.211,0.764,0.025,1.212-0.151c0.06-0.024,0.12-0.047,0.179-0.07c0.182-0.229,0.401-0.427,0.649-0.586
	c0.259-0.169,0.549-0.294,0.862-0.363c-0.223-0.106-0.461-0.151-0.696-0.197c-0.334-0.061-0.647-0.12-0.902-0.345
	c-0.117-0.105-0.167-0.216-0.153-0.339c0.054-0.399,0.705-0.92,1.943-1.548l0.075-0.04c0.267-0.137,0.595-0.415,0.641-0.748
	c0.02-0.144-0.006-0.36-0.243-0.583c-0.617-0.576-1.588-0.379-2.293-0.232c-0.313,0.064-0.623,0.153-0.923,0.24
	c-0.436,0.125-0.883,0.251-1.332,0.305c-0.169,0.021-0.314-0.007-0.354-0.064c-0.028-0.039-0.014-0.117,0.038-0.216
	c0.303-0.574,0.889-1.035,1.478-1.449c0.591-0.412,1.275-0.768,2.091-1.084c0.383-0.148,0.804-0.284,1.248-0.407
	c0.241-0.063,0.499-0.349,0.474-0.612c-0.07-0.834-1.516-0.742-2.059-0.708l-0.043,0.003c-1.24,0.077-2.468,0.403-3.676,0.723
	c-0.473,0.126-0.965,0.268-1.457,0.42c-0.334,0.091-0.457,0.046-0.478,0.012c-0.048-0.087,0.106-0.407,0.469-0.731
	c1.836-1.644,3.392-2.171,5.04-2.732c0.5-0.17,1.018-0.346,1.554-0.557l0.064-0.024c0.287-0.106,0.599-0.239,0.69-0.452
	c0.036-0.08,0.036-0.164,0.002-0.246c-0.105-0.255-0.367-0.381-0.679-0.442c-3.656,0.024-7.001,1.385-9.567,3.616
	c1.782-1.167,2.841-1.264,3.002-1.27C16.167,10.426,16.172,10.453,16.173,10.464"/>
<path fill="#FFFFFF" d="M8.485,22.74c0.136-0.546,0.263-0.563,0.263-0.564c0.027-0.004,0.094,0.067,0.122,0.12
	c0.105,0.378,0.213,0.755,0.322,1.134c0.029,0.1,0.059,0.195,0.088,0.293c0.322,1.092,0.627,2.026,1.015,2.943
	c0.6,1.412,1.343,2.496,2.277,3.313c0.434,0.379,0.64,0.392,0.739,0.367c0.024-0.008,0.043-0.018,0.056-0.024
	c0.179-0.095,0.147-0.349,0.137-0.433c-0.059-0.451-0.195-0.886-0.33-1.309c-0.033-0.105-0.066-0.21-0.1-0.316
	c-0.14-0.461-0.266-0.879-0.377-1.299c-0.299-1.13-0.631-2.808-0.049-4.344c0.051-0.133,0.109-0.202,0.147-0.212
	c0.019-0.004,0.041,0.004,0.069,0.027c0.158,0.124,0.235,0.342,0.311,0.555l0.028,0.077c0.05,0.133,0.095,0.266,0.144,0.4
	c0.066,0.186,0.132,0.371,0.201,0.557c0.131,0.355,0.272,0.698,0.416,1.023c0.322,0.715,0.739,1.531,1.387,2.165
	c0.221,0.216,0.602,0.488,0.943,0.535c0.192,0.028,0.303-0.042,0.361-0.107c0.195-0.21,0.1-0.64,0.041-0.899l-0.019-0.084
	c-0.236-1.087-0.505-2.317-0.266-3.421c0.063-0.292,0.17-0.502,0.278-0.565c0.042-0.023,0.084-0.026,0.133-0.008
	c0.327,0.112,0.607,0.586,0.812,0.932l0.097,0.163c0.378,0.62,0.804,1.324,1.628,1.498c0.182,0.039,0.337,0.014,0.462-0.081
	c0.288-0.216,0.326-0.736,0.361-1.196c0.009-0.123,0.018-0.243,0.029-0.349c0.014-0.109,0.033-0.201,0.063-0.264
	c0.093-0.201,0.207-0.345,0.338-0.444c0,0.015,0,0.028,0.002,0.042c0.023,0.236,0.088,0.462,0.184,0.666
	c0.018,0.041,0.038,0.078,0.058,0.116c0.213,0.401,0.547,0.724,0.949,0.921c0.032,0.017,0.069,0.031,0.104,0.045
	c0.216,0.094,0.448,0.153,0.691,0.17c0.064,0.006,0.129,0.008,0.195,0.008c0.061-0.002,0.122-0.005,0.184-0.013
	c0.269-0.026,0.519-0.105,0.747-0.221c0.055-0.028,0.107-0.059,0.158-0.091c0.209-0.129,0.395-0.289,0.548-0.479
	c0.032-0.041,0.063-0.086,0.093-0.131c0.24,0.018,0.488-0.069,0.745-0.253c0.034-0.021,0.065-0.04,0.1-0.068
	c0.157-0.127,0.31-0.313,0.468-0.511c0.027-0.034,0.056-0.074,0.086-0.115c0.004-0.007,0.008-0.013,0.014-0.019
	c0.368-0.54,0.818-0.876,1.163-0.106c0.227,0.507,0.263,1.066,0.269,1.615c0.004,0.433-0.099,1.024,0.177,1.395
	c0.027,0.034,0.056,0.065,0.091,0.089c0.119,0.086,0.274,0.098,0.459,0.028c0.777-0.29,1.244-1.055,1.632-1.954l0.103,0.137
	c0,0,0.402,0.6,0.756,0.111c0,0,0.008-0.01,0.018-0.028c0.093-0.153,0.097-0.366,0.081-0.551c-0.017-0.252-0.099-0.595-0.311-1.039
	c-0.017-0.071-0.03-0.142-0.038-0.208c0.027-0.071,0.055-0.143,0.08-0.207c0.054-0.129,0.103-0.199,0.144-0.238
	c0.022-0.004,0.043-0.011,0.071-0.011c0.023,0,0.048,0.009,0.071,0.021c0.142,0.124,0.319,0.503,0.436,0.861
	c0,0,0.189,0.359,0.454,0.349c0.09-0.003,0.186-0.046,0.285-0.157c0.265-0.295,0.146-0.909,0.07-1.26
	c-0.18-0.813-0.589-1.669-1.041-2.363c-0.36-0.554-0.956-1.263-1.652-1.363c-0.192-0.03-0.302,0.041-0.359,0.104
	c-0.195,0.211-0.101,0.642-0.044,0.9l0.019,0.085c0.254,1.144,0.396,2.326,0.247,3.495c-0.039,0.314-0.083,0.648-0.205,0.942
	c-0.071,0.165-0.256,0.56-0.499,0.462c-0.144-0.061-0.242-0.482-0.298-0.617c-0.183-0.435-0.272-0.901-0.436-1.341
	c-0.269-0.715-0.694-1.373-1.49-1.541c-0.183-0.038-0.336-0.011-0.46,0.082c-0.29,0.218-0.33,0.735-0.36,1.194
	c-0.006,0.056-0.01,0.105-0.014,0.155c-0.015,0.189-0.036,0.357-0.077,0.451c-0.001,0.002-0.002,0.006-0.003,0.008
	c-0.007,0.014-0.013,0.026-0.021,0.037c-0.103,0.203-0.223,0.347-0.363,0.438c0.015-0.148,0.021-0.299,0.005-0.452
	c-0.022-0.213-0.077-0.415-0.155-0.602c-0.018-0.044-0.038-0.086-0.059-0.129c-0.202-0.405-0.523-0.735-0.918-0.945
	c-0.043-0.022-0.09-0.044-0.138-0.064c-0.218-0.096-0.455-0.159-0.698-0.178c-0.074-0.006-0.148-0.007-0.223-0.007
	c-0.059,0.001-0.117,0.003-0.176,0.01c-0.268,0.028-0.518,0.107-0.746,0.222c-0.07,0.035-0.137,0.075-0.202,0.117
	c-0.2,0.13-0.377,0.292-0.522,0.479c-0.039,0.049-0.073,0.101-0.109,0.152c-0.24,0.002-0.49,0.104-0.746,0.303
	c-0.011,0.007-0.02,0.013-0.032,0.021c-0.157,0.127-0.309,0.314-0.468,0.512c-0.251,0.307-0.534,0.656-0.767,0.634
	c-0.136-0.015-0.274-0.154-0.415-0.417c-0.255-0.482-0.384-1.081-0.393-1.827c0-0.049,0.002-0.112,0.004-0.186
	c0.017-0.367,0.037-0.87-0.228-1.063c-0.121-0.086-0.274-0.097-0.459-0.027c-1.097,0.408-1.676,1.992-2.098,3.146
	c-0.08,0.215-0.153,0.417-0.223,0.591c-0.085,0.211-0.165,0.279-0.208,0.275c-0.201-0.02-0.524-0.819-0.615-1.29
	c-0.238-1.246-0.035-2.595,0.193-3.738c0.07-0.22,0.272-0.957-0.019-1.144c-0.213-0.14-0.515,0.086-0.71,0.257
	c-0.075,0.049-1.868,1.262-2.656,6.039c-0.066,0.338-0.158,0.429-0.198,0.432c-0.098,0.003-0.314-0.276-0.45-0.745
	c-0.042-0.146-0.078-0.293-0.109-0.439c-0.471-2.112,0.007-4.27,0.488-5.945c0.011-0.035,0.032-0.094,0.061-0.172
	c0.225-0.622,0.444-1.305,0.218-1.583c-0.052-0.063-0.153-0.135-0.334-0.108l-0.021,0.003l-0.02,0.01
	c-0.041,0.023-0.538,0.304-1.208,1.203c-0.964,1.958-1.506,4.16-1.506,6.486c0,1.32,0.176,2.598,0.5,3.815
	C8.169,24.426,8.375,23.178,8.485,22.74 M21.692,21.91c0.123-0.156,0.274-0.282,0.455-0.373c0.148-0.075,0.306-0.122,0.467-0.139
	c0.085-0.008,0.167-0.008,0.249-0.002c0.186,0.014,0.361,0.065,0.523,0.151c0.275,0.146,0.494,0.386,0.613,0.673
	c0.049,0.122,0.083,0.25,0.096,0.377c0.015,0.139,0.008,0.273-0.019,0.404c-0.044,0.213-0.136,0.412-0.272,0.581
	c-0.116,0.147-0.271,0.271-0.443,0.357c-0.146,0.076-0.305,0.121-0.467,0.14c-0.042,0.004-0.086,0.006-0.129,0.006
	c-0.036,0-0.072-0.001-0.107-0.003c-0.172-0.014-0.34-0.059-0.498-0.136c-0.277-0.137-0.502-0.367-0.629-0.648
	c-0.063-0.135-0.101-0.275-0.117-0.42c-0.004-0.036-0.006-0.074-0.006-0.111C21.4,22.46,21.502,22.155,21.692,21.91"/>
<path fill="#FFFFFF" d="M37.063,23.116c-0.025,0.108-0.099,0.541-0.266,0.547c-0.138,0.005-0.172-0.293-0.202-0.392
	c-0.11-0.393-0.202-0.791-0.339-1.176c0-0.01-0.004-0.021-0.009-0.033c-0.313-1.062-0.614-1.974-0.993-2.87
	c-0.598-1.412-1.343-2.497-2.276-3.314c-0.546-0.475-0.733-0.374-0.796-0.343c-0.182,0.098-0.147,0.35-0.138,0.433
	c0.06,0.452,0.196,0.886,0.331,1.308c0.033,0.105,0.066,0.213,0.1,0.317c0.141,0.463,0.266,0.879,0.378,1.3
	c0.294,1.118,0.62,2.772,0.063,4.294c-0.241,0.66-0.425,1.319-0.739,1.957c-0.187,0.38-0.393,0.749-0.616,1.108
	c-0.211,0.339-0.475,0.645-0.59,1.035C30.899,27.53,30.802,28,31.062,28.17c0.216,0.141,0.517-0.085,0.712-0.257
	c0.05-0.032,0.824-0.56,1.576-2.233c0.672-1.327,1.168-1.292,1.168-1.292c0.897,0.143,0.744,1.626,0.744,1.626l0.012-0.045
	c-0.127,0.938-0.35,1.823-0.573,2.604c-0.011,0.035-0.032,0.094-0.063,0.173c-0.224,0.619-0.442,1.304-0.218,1.58
	c0.283,0.346,0.949-0.064,1.152-0.326l0.207-0.269c1.108-2.068,1.736-4.431,1.736-6.937c0-1.506-0.227-2.96-0.648-4.331
	C37.429,21.139,37.184,22.631,37.063,23.116 M35.284,23.711c-0.307-0.472-0.68-0.585-1.111-0.33l-0.146,0.087l0.04-0.167
	c0.112-0.465,0.212-0.95,0.291-1.438c0.063-0.318,0.158-0.491,0.271-0.492c0.164,0,0.392,0.35,0.519,0.799
	c0.136,0.471,0.224,0.961,0.271,1.497l0.024,0.286L35.284,23.711z"/>
<path fill="#FFFFFF" d="M29.926,10.245c0.177,0.128,0.586,0.426,0.493,0.618c-0.028,0.061-0.207,0.165-1.284-0.12
	c-0.068-0.018-0.121-0.033-0.156-0.039c-1.59-0.345-3.391-0.734-5.222-0.693c-0.741,0.017-2.493,0.108-2.8,0.597
	c-0.064,0.102-0.072,0.217-0.019,0.333c0.165,0.361,0.712,0.459,1.073,0.525l0.108,0.019c1.471,0.284,2.791,0.569,4.013,1.187
	c0.357,0.183,1.708,1.021,1.741,1.498c0.002,0.052-0.007,0.116-0.108,0.188c-0.157,0.105-0.379,0.05-0.59-0.007
	c-0.084-0.02-0.165-0.043-0.238-0.054c-2.267-0.362-3.292-0.364-4.77-0.002c-0.172,0.037-0.56,0.179-0.637,0.473
	c-0.034,0.132-0.018,0.255,0.049,0.367c0.191,0.315,0.74,0.442,1.142,0.537c0.096,0.021,0.179,0.042,0.24,0.06
	c0.799,0.253,1.409,0.523,1.922,0.85c0.386,0.249,0.655,0.488,0.851,0.758c0.075,0.103,0.207,0.353,0.135,0.472
	c-0.059,0.103-0.286,0.137-0.631,0.094c-0.811-0.05-1.98-0.054-2.806,0.47c-0.222,0.144-0.335,0.309-0.339,0.498
	c-0.008,0.352,0.365,0.658,0.729,0.913c0.146,0.101,0.269,0.2,0.375,0.301c0.229,0.037,0.45,0.101,0.66,0.194
	c0.398,0.179,0.746,0.454,1.016,0.796c-0.019-0.301-0.124-0.567-0.174-0.677c-0.045-0.101-0.114-0.211-0.189-0.33
	c-0.292-0.465-0.477-0.814-0.17-1.06c0.228-0.183,0.67-0.159,1.279,0.074c0.41,0.156,0.791,0.395,1.159,0.625
	c0.116,0.073,0.232,0.146,0.351,0.215c0.435,0.263,0.745,0.32,0.947,0.179c0.268-0.188,0.193-0.623,0.184-0.675
	c-0.364-1.73-2.156-3.507-2.22-3.569c-0.124-0.164-0.175-0.297-0.136-0.363c0.074-0.131,0.454-0.156,0.672-0.135
	c0.465,0.115,0.941,0.296,1.411,0.537c0.765,0.392,1.464,0.85,2.082,1.365c0.237,0.198,0.464,0.42,0.694,0.674l0.016,0.02
	c0.168,0.188,0.446,0.498,0.786,0.384c0.403-0.138,0.2-0.805,0.114-1.088l-0.012-0.042c-0.129-0.435-0.315-0.866-0.57-1.32
	c-0.718-1.275-1.803-2.495-3.224-3.627c-0.373-0.296-0.515-0.521-0.496-0.584c0.003-0.017,0.041-0.048,0.157-0.062
	c0.869-0.119,1.811,0.442,2.569,0.896l0.164,0.1c1.491,0.883,2.854,1.936,4.049,3.13c0.658,0.658,0.872,0.675,1.005,0.594
	c0.177-0.109,0.1-0.401,0.076-0.474c-0.107-0.514-0.322-1.051-0.598-1.586c-1.783-2.506-4.327-4.436-7.294-5.443
	c0.837,0.387,1.649,0.835,2.355,1.365L29.926,10.245z"/>
<path fill="#FFFFFF" d="M29.369,35.064c-0.044-0.242,0.652-0.844,0.881-1.039c0.071-0.063,0.122-0.107,0.15-0.135
	c1.349-1.333,2.969-3.162,3.521-5.5c0.104-0.442,0.126-1.006-0.155-1.147c-0.273-0.139-0.582,0.221-0.686,0.341
	c-2.948,3.686-5.077,3.875-5.116,3.881c-0.436,0.09-0.493,0.007-0.494,0.005c-0.044-0.084,0.197-0.431,0.507-0.723
	c0.779-0.911,1.635-2.013,2.051-3.256c0.005-0.013,0.431-1.409,0.002-1.707c-0.149-0.107-0.356-0.056-0.608,0.148
	c-0.264,0.211-0.519,0.454-0.769,0.688c-0.614,0.582-1.254,1.183-2.055,1.387c-0.322,0.081-0.593,0.035-0.74-0.13
	c-0.146-0.16-0.163-0.419-0.052-0.732c0.085-0.23,0.19-0.45,0.294-0.663c0.214-0.441,0.435-0.898,0.448-1.461
	c0.011-0.392-0.076-0.645-0.262-0.773c-0.303-0.213-0.765-0.028-1.212,0.149c-0.1,0.039-0.195,0.076-0.287,0.11
	c-0.18,0.204-0.39,0.385-0.625,0.529c-0.268,0.162-0.563,0.281-0.883,0.345c0.079,0.051,0.166,0.099,0.259,0.143
	c0.187,0.084,0.433,0.139,0.672,0.189c0.38,0.082,0.812,0.175,0.894,0.389c0.049,0.127-0.016,0.313-0.188,0.558
	c-0.342,0.477-1.166,0.901-1.714,1.181l-0.084,0.044c-0.268,0.138-0.596,0.416-0.643,0.748c-0.02,0.145,0.008,0.363,0.244,0.584
	c0.725,0.677,2.113,0.298,3.338-0.035c0.502-0.137,0.976-0.264,1.321-0.294c0.193-0.015,0.263,0.021,0.274,0.047
	c0.06,0.138-0.298,0.634-0.78,1.083c-1.244,1.156-2.925,1.787-4.135,2.116c-0.046,0.025-0.459,0.23-0.449,0.569
	c0.008,0.261,0.251,0.486,0.747,0.688l0.021,0.007c0.075,0.014,1.87,0.326,6.472-1.098c0.334-0.092,0.457-0.049,0.476-0.013
	c0.049,0.089-0.106,0.408-0.467,0.73c-1.836,1.643-3.393,2.173-5.04,2.734c-0.501,0.169-1.019,0.346-1.554,0.556l-0.064,0.025
	c-0.288,0.106-0.601,0.239-0.693,0.451c-0.032,0.08-0.034,0.165-0.002,0.246c0.252,0.615,1.617,0.449,2.115,0.423
	c0.048-0.003,0.094-0.007,0.142-0.011c3.183-0.361,6.062-1.738,8.302-3.797c-1.967,1.366-3.143,1.473-3.312,1.48
	C29.375,35.101,29.371,35.074,29.369,35.064"/>
</svg>
