<?xml version="1.0" encoding="utf-8"?>
<!-- Generator: Adobe Illustrator 15.0.0, SVG Export Plug-In . SVG Version: 6.00 Build 0)  -->
<!DOCTYPE svg PUBLIC "-//W3C//DTD SVG 1.1//EN" "http://www.w3.org/Graphics/SVG/1.1/DTD/svg11.dtd">
<svg version="1.1" id="Layer_1" xmlns="http://www.w3.org/2000/svg" xmlns:xlink="http://www.w3.org/1999/xlink" x="0px" y="0px"
	 width="45.547px" height="45.547px" viewBox="0 0 45.547 45.547" enable-background="new 0 0 45.547 45.547" xml:space="preserve">
<path fill="none" stroke="#FFFFFF" stroke-width="1.5" stroke-miterlimit="10" d="M7.199,38.346
	c-2.107-2.106-3.732-4.555-4.836-7.277c-1.072-2.637-1.613-5.428-1.613-8.295c0-2.866,0.541-5.657,1.613-8.297
	c1.104-2.72,2.729-5.168,4.836-7.276c2.104-2.105,4.557-3.734,7.279-4.839c2.635-1.069,5.428-1.611,8.295-1.611
	c2.869,0.002,5.657,0.542,8.295,1.611c2.719,1.105,5.17,2.732,7.276,4.839c2.108,2.108,3.735,4.557,4.838,7.279
	c1.071,2.637,1.616,5.425,1.614,8.294c0.002,2.868-0.543,5.658-1.614,8.295c-1.103,2.721-2.729,5.171-4.838,7.277
	c-2.106,2.108-4.554,3.735-7.276,4.839c-2.64,1.069-5.426,1.613-8.295,1.612c-2.867,0.001-5.656-0.543-8.295-1.612
	C11.756,42.082,9.304,40.453,7.199,38.346"/>
<text transform="matrix(1 0 0 1 12.3486 20.6338)"><tspan x="0" y="0" fill="#FFFFFF" font-family="'DINAlternate-Bold'" font-size="10.0858">a</tspan><tspan x="5.305" y="0" fill="#FFFFFF" font-family="'DINAlternate-Bold'" font-size="10.0858">b</tspan><tspan x="11.478" y="0" fill="#FFFFFF" font-family="'DINAlternate-Bold'" font-size="10.0858">c</tspan></text>
<text transform="matrix(1 0 0 1 12.3486 30.8105)"><tspan x="0" y="0" fill="#FFFFFF" font-family="'DINAlternate-Bold'" font-size="10.0858" letter-spacing="1">xy</tspan><tspan x="11.457" y="0" fill="#FFFFFF" font-family="'DINAlternate-Bold'" font-size="10.0858">z</tspan></text>
</svg>
