<?xml version="1.0" encoding="utf-8"?>
<!-- Generator: Adobe Illustrator 15.0.0, SVG Export Plug-In . SVG Version: 6.00 Build 0)  -->
<!DOCTYPE svg PUBLIC "-//W3C//DTD SVG 1.1//EN" "http://www.w3.org/Graphics/SVG/1.1/DTD/svg11.dtd">
<svg version="1.1" id="Layer_1" xmlns="http://www.w3.org/2000/svg" xmlns:xlink="http://www.w3.org/1999/xlink" x="0px" y="0px"
	 width="45.547px" height="45.547px" viewBox="0 0 45.547 45.547" enable-background="new 0 0 45.547 45.547" xml:space="preserve">
<path fill="none" stroke="#FFFFFF" stroke-width="1.5" stroke-miterlimit="10" d="M7.199,38.346
	c-2.107-2.107-3.734-4.555-4.84-7.277c-1.068-2.637-1.609-5.428-1.609-8.295c0-2.866,0.541-5.657,1.609-8.297
	c1.105-2.721,2.732-5.168,4.84-7.276c2.106-2.106,4.557-3.735,7.277-4.839c2.637-1.07,5.43-1.611,8.297-1.611
	c2.866,0.002,5.657,0.541,8.295,1.611c2.719,1.105,5.17,2.732,7.275,4.839c2.109,2.108,3.736,4.556,4.839,7.278
	c1.071,2.638,1.614,5.426,1.614,8.295c0,2.867-0.543,5.658-1.614,8.295c-1.103,2.721-2.729,5.17-4.839,7.277
	c-2.105,2.107-4.553,3.734-7.277,4.838c-2.638,1.07-5.427,1.613-8.293,1.613c-2.867,0-5.656-0.543-8.297-1.613
	C11.756,42.082,9.306,40.453,7.199,38.346"/>
<path fill="none" stroke="#FFFFFF" stroke-miterlimit="10" d="M32.779,15.659h-0.584l-0.002-0.02c-1.269,0-2.385-0.629-3.056-1.59
	c-0.079-0.113-0.151-0.232-0.218-0.355c-0.67-0.959-1.787-1.592-3.055-1.592h-6.187c-1.347,0-2.522,0.717-3.173,1.783l-0.01-0.012
	c-0.651,1.061-1.828,1.766-3.17,1.766l0.01,0.02h-0.568c-2.033,0-3.682,1.662-3.682,3.711v10.363c0,2.049,1.648,3.711,3.682,3.711
	h20.012c2.031,0,3.68-1.662,3.68-3.711V19.37C36.459,17.321,34.811,15.659,32.779,15.659z"/>
<circle fill="none" stroke="#FFFFFF" stroke-miterlimit="10" cx="22.772" cy="24.185" r="6.786"/>
<circle fill="none" stroke="#FFFFFF" stroke-miterlimit="10" cx="22.772" cy="24.185" r="3.925"/>
</svg>
