<?xml version="1.0" encoding="utf-8"?>
<!-- Generator: Adobe Illustrator 15.0.0, SVG Export Plug-In . SVG Version: 6.00 Build 0)  -->
<!DOCTYPE svg PUBLIC "-//W3C//DTD SVG 1.1//EN" "http://www.w3.org/Graphics/SVG/1.1/DTD/svg11.dtd">
<svg version="1.1" id="Layer_1" xmlns="http://www.w3.org/2000/svg" xmlns:xlink="http://www.w3.org/1999/xlink" x="0px" y="0px"
	 width="45.547px" height="45.546px" viewBox="0 0 45.547 45.546" enable-background="new 0 0 45.547 45.546" xml:space="preserve">
<path fill="none" stroke="#FFFFFF" stroke-width="1.5" stroke-miterlimit="10" d="M7.201,38.346
	c-2.107-2.106-3.734-4.555-4.838-7.277c-1.07-2.637-1.613-5.428-1.613-8.295c0-2.866,0.543-5.657,1.613-8.297
	c1.104-2.72,2.73-5.169,4.838-7.276c2.104-2.106,4.557-3.735,7.277-4.839c2.637-1.069,5.43-1.611,8.295-1.611
	c2.871,0.002,5.659,0.542,8.297,1.611c2.719,1.104,5.168,2.732,7.276,4.839c2.108,2.107,3.735,4.557,4.836,7.278
	c1.073,2.636,1.614,5.425,1.614,8.295c0,2.868-0.541,5.658-1.614,8.295c-1.101,2.721-2.728,5.171-4.836,7.277
	c-2.108,2.107-4.556,3.735-7.276,4.838c-2.641,1.07-5.426,1.614-8.297,1.612c-2.865,0.002-5.656-0.542-8.295-1.612
	C11.758,42.082,9.306,40.452,7.201,38.346"/>
<path fill="none" stroke="#FFFFFF" stroke-miterlimit="10" d="M8.291,20.05l-0.036,0.1c-0.159,0.869-0.242,1.765-0.242,2.682
	c0,5.606,3.126,10.488,7.732,12.99l0.001-0.023"/>
<path fill="none" stroke="#FFFFFF" stroke-miterlimit="10" d="M35.878,15.975c-1.573-2.996-4.142-5.386-7.267-6.728 M16.719,36.261
	l-0.033,0.026c1.859,0.847,3.926,1.315,6.102,1.315c3.675,0,7.035-1.342,9.623-3.561 M18.691,9.074
	c-0.023-0.037-0.099-0.206-0.171-0.394c-1.164,0.351-2.273,0.843-3.297,1.455l0.013,0.003"/>
<path fill="none" stroke="#FFFFFF" stroke-miterlimit="10" d="M28.611,9.247c-1.788-0.767-3.756-1.193-5.824-1.193
	c-1.482,0-2.916,0.22-4.267,0.627c0.072,0.188,0.147,0.356,0.171,0.394"/>
<path fill="none" stroke="#FFFFFF" stroke-miterlimit="10" d="M15.746,35.798l-0.001,0.021c0.306,0.168,0.621,0.323,0.939,0.468
	l0.034-0.026"/>
<path fill="none" stroke="#FFFFFF" stroke-miterlimit="10" d="M15.236,10.139l-0.013-0.004c-3.585,2.143-6.188,5.759-6.969,10.015
	l0.036-0.1"/>
<path fill="none" stroke="#FFFFFF" stroke-miterlimit="10" d="M32.41,34.042c3.152-2.711,5.149-6.729,5.149-11.211
	c0-2.477-0.606-4.808-1.681-6.856"/>
<circle fill="none" stroke="#FFFFFF" stroke-miterlimit="10" cx="13.339" cy="25.437" r="1.752"/>
<circle fill="none" stroke="#FFFFFF" stroke-miterlimit="10" cx="31.912" cy="27.059" r="1.752"/>
<circle fill="none" stroke="#FFFFFF" stroke-miterlimit="10" cx="31.912" cy="18.445" r="1.752"/>
<polyline fill="none" stroke="#FFFFFF" stroke-miterlimit="10" points="30.098,18.624 24.581,18.624 24.581,7.942 "/>
<polyline fill="none" stroke="#FFFFFF" stroke-miterlimit="10" points="18.461,37.302 18.461,25.521 14.924,25.521 "/>
<polyline fill="none" stroke="#FFFFFF" stroke-miterlimit="10" points="20.697,37.302 20.697,20.986 7.985,20.986 "/>
<polyline fill="none" stroke="#FFFFFF" stroke-miterlimit="10" points="22.622,37.302 22.622,17.508 15.861,17.508 "/>
<polyline fill="none" stroke="#FFFFFF" stroke-miterlimit="10" points="24.581,37.302 24.581,27.073 29.951,27.073 "/>
</svg>
