<?xml version="1.0" encoding="utf-8"?>
<!-- Generator: Adobe Illustrator 19.2.0, SVG Export Plug-In . SVG Version: 6.00 Build 0)  -->
<svg version="1.1" id="Layer_1" xmlns="http://www.w3.org/2000/svg" xmlns:xlink="http://www.w3.org/1999/xlink" x="0px" y="0px"
	 viewBox="0 0 119 119" style="enable-background:new 0 0 119 119;" xml:space="preserve">
<style type="text/css">
	.st0{fill:none;stroke:#FFFFFF;stroke-width:1.5;stroke-miterlimit:10;}
	.st1{fill:none;stroke:#FFFFFF;stroke-width:2;stroke-miterlimit:10;}
</style>
<g>
	<g>
		<g>
			<path class="st0" d="M41.5,99.2c6.8,0,12.4-10.5,12.4-23.4c0-12.9-5.5-23.4-12.4-23.4"/>
			<path class="st0" d="M77.5,99.2c-6.8,0-12.4-10.5-12.4-23.4c0-12.9,5.5-23.4,12.4-23.4"/>
		</g>
		<path class="st0" d="M65.2,72.4c0.5,0.1,1,0.1,1.5,0.1c3.3,0,6.1-1.9,7.4-4.6c0.8,0.1,1.7,0.2,2.5,0.2c8.3,0,15-6.7,15-15
			c0-4.4-1.9-8.3-4.9-11.1c0.7-1.2,1.1-2.7,1.1-4.2c0-4.6-3.7-8.3-8.3-8.3c-0.9,0-1.7,0.1-2.5,0.4c-3.2-6.5-9.8-11-17.5-11
			c0,0,0,0,0,0c0,0,0,0,0,0c-7.7,0-14.4,4.5-17.5,11c-0.8-0.3-1.7-0.4-2.5-0.4c-4.6,0-8.3,3.7-8.3,8.3c0,1.5,0.4,3,1.1,4.2
			c-3,2.7-4.9,6.7-4.9,11.1c0,8.3,6.7,15,15,15c0.9,0,1.7-0.1,2.5-0.2c1.4,2.7,4.2,4.6,7.4,4.6c0.5,0,1,0,1.4-0.1"/>
		<g>
			<g>
				<path class="st0" d="M59.5,48.8c5.7,0,10.6-3.1,13.3-7.7c-2.6-4.6-7.6-7.7-13.3-7.7c-5.7,0-10.6,3.1-13.3,7.7
					C48.9,45.7,53.8,48.8,59.5,48.8z"/>
			</g>
			<circle class="st0" cx="59.5" cy="41.1" r="7.7"/>
			<g>
				<path class="st0" d="M62.9,37.4c-0.4,0.3-0.8,0.5-1.4,0.5c-1.1,0-1.9-0.8-2-1.9c0,0,0,0-0.1,0c-2.8,0-5.1,2.3-5.1,5.1
					c0,2.8,2.3,5.1,5.1,5.1s5.1-2.3,5.1-5.1C64.6,39.6,64,38.3,62.9,37.4z"/>
				<path class="st0" d="M62.9,37.4c0.4-0.4,0.6-0.9,0.6-1.5c0-1.1-0.9-2-2-2c-1.1,0-2,0.9-2,2c0,0,0,0.1,0,0.1"/>
				<path class="st0" d="M59.6,36c0.1,1,0.9,1.9,2,1.9c0.5,0,1-0.2,1.4-0.5"/>
			</g>
		</g>
	</g>
	<path class="st1" d="M1.2,59.5c0-7.9,1.5-15.5,4.6-22.7c2.9-6.9,7.1-13.2,12.5-18.5C23.7,13,29.9,8.7,36.8,5.8
		c7.2-3,14.8-4.6,22.7-4.6c7.9,0,15.5,1.5,22.7,4.6c6.9,2.9,13.2,7.1,18.5,12.5c5.4,5.4,9.6,11.6,12.5,18.5c3,7.2,4.6,14.8,4.6,22.7
		c0,7.9-1.5,15.5-4.6,22.7c-2.9,6.9-7.1,13.2-12.5,18.5c-5.4,5.4-11.6,9.6-18.5,12.5c-7.2,3-14.8,4.6-22.7,4.6
		c-7.9,0-15.5-1.5-22.7-4.6c-6.9-2.9-13.2-7.1-18.5-12.5c-5.4-5.4-9.6-11.6-12.5-18.5C2.8,75,1.2,67.4,1.2,59.5"/>
</g>
</svg>
