<?xml version="1.0" encoding="utf-8"?>
<!-- Generator: Adobe Illustrator 15.0.0, SVG Export Plug-In . SVG Version: 6.00 Build 0)  -->
<!DOCTYPE svg PUBLIC "-//W3C//DTD SVG 1.1//EN" "http://www.w3.org/Graphics/SVG/1.1/DTD/svg11.dtd">
<svg version="1.1" id="Layer_1" xmlns="http://www.w3.org/2000/svg" xmlns:xlink="http://www.w3.org/1999/xlink" x="0px" y="0px"
	 width="119.268px" height="119.27px" viewBox="0 0 119.268 119.27" enable-background="new 0 0 119.268 119.27"
	 xml:space="preserve">
<path fill="none" stroke="#FFFFFF" stroke-width="2" stroke-miterlimit="10" d="M59.635,26.68c-1.527,3.115-3.051,6.234-4.584,9.347
	c-3.723,7.528-7.604,14.981-11.299,22.52c-1.029,2.098-2,4.227-2.84,6.406c-0.922,2.385-1.439,4.918-1.439,7.477
	c0,11.136,9.027,20.16,20.16,20.16c11.137,0,20.164-9.024,20.164-20.16c0-3.559-1.203-6.944-2.658-10.147
	c-1.625-3.567-3.383-7.07-5.152-10.565c-1.881-3.713-3.738-7.435-5.568-11.174c-1.912-3.906-3.822-7.812-5.734-11.718
	C60.577,28.601,59.514,26.928,59.635,26.68z"/>
<path fill="none" stroke="#FFFFFF" stroke-width="2" stroke-miterlimit="10" d="M59.637,118.27c-7.934,0-15.607-1.543-22.809-4.592
	c-6.976-2.951-13.255-7.182-18.65-12.582c-5.398-5.398-9.633-11.673-12.584-18.65C2.549,75.244,1,67.57,1,59.636
	c0.004-7.931,1.549-15.607,4.594-22.81c2.949-6.977,7.186-13.252,12.584-18.653c5.398-5.395,11.674-9.631,18.65-12.58
	C44.03,2.549,51.703,1.002,59.637,1c7.934,0,15.609,1.546,22.813,4.593c6.975,2.949,13.244,7.182,18.648,12.583
	c5.396,5.398,9.631,11.67,12.584,18.648c3.043,7.203,4.59,14.879,4.586,22.81c0.004,7.938-1.543,15.61-4.588,22.813
	c-2.951,6.976-7.186,13.252-12.582,18.648c-5.396,5.4-11.674,9.631-18.65,12.584C75.247,116.727,67.571,118.27,59.637,118.27z"/>
</svg>
