<?xml version="1.0" encoding="utf-8"?>
<!-- Generator: Adobe Illustrator 15.0.0, SVG Export Plug-In . SVG Version: 6.00 Build 0)  -->
<!DOCTYPE svg PUBLIC "-//W3C//DTD SVG 1.1//EN" "http://www.w3.org/Graphics/SVG/1.1/DTD/svg11.dtd">
<svg version="1.1" id="Layer_1" xmlns="http://www.w3.org/2000/svg" xmlns:xlink="http://www.w3.org/1999/xlink" x="0px" y="0px"
	 width="45.547px" height="45.547px" viewBox="0 0 45.547 45.547" enable-background="new 0 0 45.547 45.547" xml:space="preserve">
<polygon fill="none" stroke="#FFFFFF" stroke-miterlimit="10" points="36.518,31.785 30.531,24.994 34.086,24.994 28.4,18.536 
	31.277,18.536 22.801,8.912 14.324,18.536 17.172,18.536 11.482,24.994 15.01,24.994 9.027,31.785 "/>
<line fill="none" stroke="#FFFFFF" stroke-miterlimit="10" x1="22.773" y1="9.296" x2="22.773" y2="36.636"/>
<path fill="none" stroke="#FFFFFF" stroke-width="1.5" stroke-miterlimit="10" d="M7.201,38.346
	c-2.107-2.105-3.734-4.555-4.838-7.276c-1.07-2.638-1.613-5.429-1.613-8.295c0-2.867,0.543-5.658,1.613-8.297
	c1.104-2.72,2.73-5.168,4.838-7.277c2.104-2.105,4.557-3.734,7.277-4.838c2.637-1.07,5.43-1.612,8.295-1.612
	c2.871,0.002,5.659,0.542,8.297,1.612c2.719,1.105,5.168,2.732,7.276,4.838c2.108,2.109,3.735,4.557,4.836,7.28
	c1.073,2.636,1.614,5.425,1.614,8.294c0,2.868-0.541,5.657-1.614,8.295c-1.101,2.72-2.728,5.171-4.836,7.276
	c-2.108,2.108-4.556,3.735-7.276,4.84c-2.641,1.068-5.426,1.613-8.297,1.611c-2.865,0.002-5.656-0.543-8.295-1.611
	C11.758,42.082,9.306,40.453,7.201,38.346"/>
</svg>
