<?xml version="1.0" encoding="utf-8"?>
<!-- Generator: Adobe Illustrator 15.0.0, SVG Export Plug-In . SVG Version: 6.00 Build 0)  -->
<!DOCTYPE svg PUBLIC "-//W3C//DTD SVG 1.1//EN" "http://www.w3.org/Graphics/SVG/1.1/DTD/svg11.dtd">
<svg version="1.1" id="Layer_1" xmlns="http://www.w3.org/2000/svg" xmlns:xlink="http://www.w3.org/1999/xlink" x="0px" y="0px"
	 width="119.307px" height="119.308px" viewBox="0 0 119.307 119.308" enable-background="new 0 0 119.307 119.308"
	 xml:space="preserve">
<path fill="none" stroke="#FFFFFF" stroke-width="2" stroke-miterlimit="10" d="M30.379,59.859l18.287,18.287l10.899,10.9
	l0.178,0.178L88.93,60.038l-0.014-0.014c6.379-6.976,6.196-17.805-0.556-24.557c-6.942-6.94-18.196-6.94-25.138,0
	c-1.5,1.5-2.677,3.205-3.528,5.023c-0.857-1.884-2.058-3.651-3.609-5.2c-6.941-6.941-18.197-6.941-25.139,0
	c-6.751,6.752-6.934,17.58-0.552,24.554L30.379,59.859z"/>
<path fill="none" stroke="#FFFFFF" stroke-width="2" stroke-miterlimit="10" d="M9.01,30.103c-3.997,6.85-6.533,14.258-7.527,22.013
	c-0.969,7.514-0.478,15.069,1.465,22.448c1.943,7.385,5.226,14.205,9.766,20.271c4.686,6.261,10.533,11.463,17.386,15.463
	c6.851,3.993,14.26,6.531,22.017,7.528c7.511,0.972,15.067,0.474,22.451-1.467c7.38-1.942,14.2-5.229,20.266-9.768
	c6.257-4.684,11.462-10.533,15.461-17.384c4-6.854,6.533-14.263,7.533-22.019c0.966-7.51,0.474-15.06-1.47-22.447
	c-1.94-7.383-5.225-14.201-9.762-20.269c-4.688-6.257-10.539-11.462-17.392-15.456C82.35,5.013,74.946,2.481,67.19,1.481
	c-7.514-0.968-15.068-0.476-22.45,1.467c-7.382,1.94-14.202,5.228-20.267,9.766C18.21,17.396,13.01,23.249,9.01,30.103"/>
</svg>
