<?xml version="1.0" encoding="utf-8"?>
<!-- Generator: Adobe Illustrator 15.0.0, SVG Export Plug-In . SVG Version: 6.00 Build 0)  -->
<!DOCTYPE svg PUBLIC "-//W3C//DTD SVG 1.1//EN" "http://www.w3.org/Graphics/SVG/1.1/DTD/svg11.dtd">
<svg version="1.1" id="Layer_1" xmlns="http://www.w3.org/2000/svg" xmlns:xlink="http://www.w3.org/1999/xlink" x="0px" y="0px"
	 width="28.521px" height="27.825px" viewBox="0 0 28.521 27.825" enable-background="new 0 0 28.521 27.825" xml:space="preserve">
<path fill="#5d5d5c" d="M28.521,13.744h-3.095l1.702-1.701l-0.52-0.518l-2.215,2.219h-3.355l3.896-3.895l-0.518-0.517l-4.412,4.412
	H17.27c-0.031-0.282-0.1-0.554-0.214-0.816c-0.103-0.248-0.241-0.478-0.407-0.688l5.338-5.339l-0.52-0.517l-5.338,5.337
	c-0.211-0.166-0.441-0.304-0.688-0.41c-0.248-0.106-0.516-0.172-0.785-0.207V8.562l4.498-4.496l-0.519-0.517l-3.979,3.979V4.175
	l2.303-2.303l-0.518-0.516l-1.785,1.785V0h-0.73v3.202l-1.764-1.764l-0.518,0.518l2.281,2.281V7.59L9.967,3.633L9.451,4.151
	l4.475,4.472v2.471c-0.291,0.033-0.576,0.104-0.846,0.217c-0.25,0.106-0.479,0.245-0.692,0.41L7.135,6.467L6.619,6.985l5.254,5.254
	c-0.164,0.211-0.303,0.44-0.408,0.689c-0.113,0.261-0.184,0.533-0.215,0.816H8.511L4.188,9.416l-0.52,0.517l3.813,3.811H4.125
	L1.994,11.61l-0.52,0.517l1.617,1.617H0v0.732h3.322l-1.685,1.683l0.519,0.515l2.199-2.198h3.355l-3.877,3.875l0.516,0.518
	l4.396-4.393h2.504c0.031,0.28,0.102,0.553,0.215,0.814c0.105,0.249,0.24,0.478,0.408,0.688l-5.207,5.207l0.515,0.518l5.207-5.207
	c0.214,0.167,0.442,0.305,0.692,0.411c0.27,0.112,0.551,0.187,0.846,0.218v2.7l-4.311,4.31l0.518,0.517l3.793-3.793v3.354
	l-2.117,2.116l0.516,0.518l1.602-1.599v2.572l0.73,0.006v-2.519l1.623,1.623l0.514-0.519l-2.137-2.137V20.92l3.812,3.815
	l0.521-0.519l-4.332-4.33v-2.77c0.27-0.036,0.533-0.104,0.785-0.21c0.248-0.106,0.479-0.244,0.688-0.411l5.293,5.29l0.518-0.517
	l-5.291-5.291c0.166-0.211,0.305-0.439,0.407-0.688c0.114-0.261,0.183-0.535,0.214-0.814h2.508l4.475,4.476l0.52-0.517l-3.961-3.959
	h3.354l2.283,2.282l0.518-0.516l-1.766-1.766h3.322V13.744z M16.531,14.476c-0.027,0.181-0.074,0.359-0.146,0.529
	c-0.068,0.161-0.16,0.311-0.262,0.45c-0.072,0.098-0.148,0.196-0.233,0.284c-0.088,0.088-0.185,0.16-0.284,0.233
	c-0.141,0.102-0.287,0.191-0.451,0.261c-0.158,0.067-0.326,0.114-0.498,0.144c-0.129,0.024-0.262,0.036-0.396,0.036h-0.003
	c-0.109,0-0.223-0.01-0.332-0.026c-0.193-0.027-0.381-0.078-0.561-0.154c-0.162-0.068-0.312-0.158-0.451-0.26
	c-0.098-0.073-0.196-0.146-0.285-0.234c-0.084-0.087-0.159-0.186-0.232-0.283c-0.102-0.14-0.191-0.289-0.261-0.45
	c-0.071-0.17-0.118-0.348-0.147-0.529c-0.019-0.12-0.031-0.243-0.031-0.366c0-0.125,0.013-0.246,0.031-0.366
	c0.029-0.183,0.076-0.361,0.147-0.531c0.069-0.16,0.159-0.31,0.261-0.45c0.073-0.099,0.148-0.195,0.234-0.282
	c0.087-0.088,0.186-0.164,0.283-0.234c0.14-0.103,0.289-0.194,0.451-0.261c0.18-0.077,0.367-0.126,0.561-0.154
	c0.109-0.017,0.223-0.027,0.334-0.027c0.135,0,0.268,0.014,0.396,0.036c0.172,0.03,0.34,0.077,0.5,0.146
	c0.162,0.066,0.309,0.157,0.449,0.26c0.1,0.07,0.196,0.146,0.284,0.234c0.085,0.087,0.161,0.183,0.233,0.282
	c0.102,0.141,0.193,0.29,0.262,0.45c0.072,0.171,0.119,0.349,0.146,0.531c0.02,0.12,0.031,0.241,0.031,0.366
	C16.563,14.233,16.551,14.356,16.531,14.476"/>
</svg>
