<?xml version="1.0" encoding="utf-8"?>
<!-- Generator: Adobe Illustrator 15.0.0, SVG Export Plug-In . SVG Version: 6.00 Build 0)  -->
<!DOCTYPE svg PUBLIC "-//W3C//DTD SVG 1.1//EN" "http://www.w3.org/Graphics/SVG/1.1/DTD/svg11.dtd">
<svg version="1.1" id="Layer_1" xmlns="http://www.w3.org/2000/svg" xmlns:xlink="http://www.w3.org/1999/xlink" x="0px" y="0px"
	 width="45.547px" height="45.547px" viewBox="0 0 45.547 45.547" enable-background="new 0 0 45.547 45.547" xml:space="preserve">
<path fill="#FFFFFF" d="M36.63,23.15v-0.751H25.895l0.541-0.526l-0.381-0.056l5.273-2.189l-0.287-0.696l-6.438,2.674l-0.111-0.016
	l8.347-8.347l-0.532-0.532l-8.468,8.465l-0.043,0.108l-0.019-0.043l0.062-0.065l2.759-6.675l-0.695-0.288l-2.547,6.173l-0.201-0.411
	V8.919H22.4v11.056l-0.209,0.419l-2.563-6.173l-0.694,0.289l2.768,6.658l-8.457-8.457l-0.532,0.532l8.347,8.347l-0.123,0.018
	L14.5,18.953l-0.286,0.694l5.265,2.173l-0.361,0.053l0.541,0.526H8.918v0.751H20.43l0.139,0.135l-6.346,2.636l0.289,0.695
	l6.385-2.653l-0.035,0.195l-8.149,8.146l0.532,0.532l7.396-7.396l-0.127,0.73l0.578-0.303l-2.139,5.179l0.695,0.287l2.479-6.013
	L22.4,25.18v11.448h0.754V25.18l0.275,0.147l2.493,6.001l0.692-0.289l-2.145-5.164l0.566,0.297l-0.127-0.73l7.396,7.396l0.532-0.53
	l-8.147-8.148l-0.035-0.2l6.395,2.638l0.284-0.695l-6.347-2.618l0.133-0.132H36.63z M24.814,22.399l-0.582,0.57l-0.188,0.181
	l-0.185,0.179l-0.063,0.063l0.038,0.227l0.156,0.9l0.047,0.277l-0.018-0.009l-0.865-0.456l-0.18-0.093l-0.197-0.106l-0.199,0.106
	L22.4,24.332l-0.859,0.452l-0.027,0.013l0.049-0.277l0.154-0.897l0.036-0.229l-0.062-0.063l-0.187-0.179l-0.183-0.179l-0.586-0.572
	l-0.004-0.002l0.103-0.016l0.89-0.128l0.401-0.059l0.017-0.002l0.035-0.07l0.159-0.32l0.063-0.128l0.174-0.357l0.201-0.404
	l0.197,0.4l0.182,0.361l0.06,0.128l0.159,0.318l0.031,0.072l0.017,0.002l0.405,0.059l0.877,0.126l0.115,0.018L24.814,22.399z"/>
<path fill="#FFFFFF" d="M17.744,11.995c0.576,0,1.049-0.471,1.049-1.049c0-0.579-0.473-1.049-1.049-1.049
	c-0.58,0-1.051,0.47-1.051,1.049C16.693,11.524,17.164,11.995,17.744,11.995 M17.744,10.6c0.188,0,0.344,0.154,0.344,0.346
	c0,0.189-0.155,0.343-0.344,0.343c-0.191,0-0.348-0.154-0.348-0.343C17.396,10.754,17.553,10.6,17.744,10.6"/>
<path fill="#FFFFFF" d="M27.602,11.995c0.578,0,1.049-0.471,1.049-1.049c0-0.579-0.471-1.049-1.049-1.049
	c-0.576,0-1.047,0.47-1.047,1.049C26.555,11.524,27.025,11.995,27.602,11.995 M27.602,10.6c0.19,0,0.346,0.154,0.346,0.346
	c0,0.189-0.155,0.343-0.346,0.343c-0.191,0-0.344-0.154-0.344-0.343C27.258,10.754,27.41,10.6,27.602,10.6"/>
<path fill="#FFFFFF" d="M17.814,34.044c-0.619,0-1.121,0.502-1.121,1.12c0,0.617,0.502,1.119,1.121,1.119
	c0.615,0,1.119-0.502,1.119-1.119C18.934,34.546,18.43,34.044,17.814,34.044 M17.814,35.531c-0.203,0-0.371-0.166-0.371-0.367
	c0-0.203,0.168-0.368,0.371-0.368s0.367,0.165,0.367,0.368C18.182,35.365,18.018,35.531,17.814,35.531"/>
<path fill="#FFFFFF" d="M27.797,34.044c-0.615,0-1.117,0.502-1.117,1.12c0,0.617,0.502,1.119,1.117,1.119
	c0.617,0,1.119-0.502,1.119-1.119C28.916,34.546,28.414,34.044,27.797,34.044 M27.797,35.531c-0.203,0-0.367-0.166-0.367-0.367
	c0-0.203,0.164-0.368,0.367-0.368c0.205,0,0.369,0.165,0.369,0.368C28.166,35.365,28.002,35.531,27.797,35.531"/>
<path fill="#FFFFFF" d="M10.406,26.637c-0.619,0-1.119,0.501-1.119,1.119c0,0.617,0.5,1.119,1.119,1.119
	c0.617,0,1.119-0.502,1.119-1.119C11.525,27.138,11.023,26.637,10.406,26.637 M10.406,28.123c-0.203,0-0.367-0.166-0.367-0.367
	c0-0.202,0.164-0.367,0.367-0.367s0.369,0.165,0.369,0.367C10.775,27.957,10.609,28.123,10.406,28.123"/>
<path fill="#FFFFFF" d="M10.406,18.893c0.617,0,1.119-0.504,1.119-1.121c0-0.617-0.502-1.119-1.119-1.119
	c-0.619,0-1.119,0.502-1.119,1.119C9.287,18.389,9.787,18.893,10.406,18.893 M10.406,17.405c0.203,0,0.369,0.165,0.369,0.367
	c0,0.203-0.166,0.367-0.369,0.367s-0.367-0.164-0.367-0.367C10.039,17.57,10.203,17.405,10.406,17.405"/>
<path fill="#FFFFFF" d="M35.205,26.637c-0.619,0-1.119,0.501-1.119,1.119c0,0.617,0.5,1.119,1.119,1.119
	c0.615,0,1.121-0.502,1.121-1.119C36.326,27.138,35.82,26.637,35.205,26.637 M35.205,28.123c-0.203,0-0.367-0.166-0.367-0.367
	c0-0.202,0.164-0.367,0.367-0.367s0.369,0.165,0.369,0.367C35.574,27.957,35.408,28.123,35.205,28.123"/>
<path fill="#FFFFFF" d="M35.205,18.893c0.615,0,1.121-0.504,1.121-1.121c0-0.617-0.506-1.119-1.121-1.119
	c-0.619,0-1.119,0.502-1.119,1.119C34.086,18.389,34.586,18.893,35.205,18.893 M35.205,17.405c0.203,0,0.369,0.165,0.369,0.367
	c0,0.203-0.166,0.367-0.369,0.367s-0.367-0.164-0.367-0.367C34.838,17.57,35.002,17.405,35.205,17.405"/>
<path fill="none" stroke="#FFFFFF" stroke-width="1.5" stroke-miterlimit="10" d="M7.199,38.346
	c-2.107-2.105-3.734-4.555-4.84-7.276c-1.068-2.638-1.609-5.429-1.609-8.295c0-2.867,0.541-5.658,1.609-8.297
	c1.105-2.72,2.732-5.168,4.84-7.277c2.106-2.105,4.557-3.733,7.277-4.838c2.637-1.07,5.43-1.612,8.297-1.612
	c2.866,0.002,5.657,0.542,8.295,1.612c2.719,1.105,5.17,2.733,7.275,4.838c2.109,2.109,3.736,4.557,4.839,7.281
	c1.071,2.635,1.614,5.424,1.614,8.293c0,2.868-0.543,5.657-1.614,8.295c-1.103,2.72-2.729,5.171-4.839,7.276
	c-2.105,2.109-4.553,3.735-7.277,4.84c-2.638,1.068-5.427,1.613-8.293,1.611c-2.867,0.002-5.656-0.543-8.297-1.611
	C11.756,42.082,9.306,40.453,7.199,38.346"/>
</svg>
