<?xml version="1.0" encoding="utf-8"?>
<!-- Generator: Adobe Illustrator 15.0.0, SVG Export Plug-In . SVG Version: 6.00 Build 0)  -->
<!DOCTYPE svg PUBLIC "-//W3C//DTD SVG 1.1//EN" "http://www.w3.org/Graphics/SVG/1.1/DTD/svg11.dtd">
<svg version="1.1" id="Layer_1" xmlns="http://www.w3.org/2000/svg" xmlns:xlink="http://www.w3.org/1999/xlink" x="0px" y="0px"
	 width="27.712px" height="27.709px" viewBox="0 0 27.712 27.709" enable-background="new 0 0 27.712 27.709" xml:space="preserve">
<path fill="#5d5d5c" d="M27.712,14.231V13.48H16.977l0.541-0.526l-0.381-0.056l5.273-2.189l-0.287-0.696l-6.438,2.674l-0.111-0.016
	l8.347-8.347l-0.532-0.532l-8.468,8.465l-0.043,0.108l-0.019-0.043l0.062-0.065l2.759-6.675l-0.695-0.288l-2.547,6.173l-0.201-0.411
	V0h-0.754v11.056l-0.209,0.419L10.71,5.302l-0.694,0.289l2.768,6.658L4.326,3.792L3.794,4.324l8.347,8.347l-0.123,0.018
	l-6.436-2.655l-0.286,0.694l5.265,2.173l-0.361,0.053l0.541,0.526H0v0.751h11.512l0.139,0.135l-6.346,2.636l0.289,0.695l6.385-2.653
	l-0.035,0.195l-8.149,8.146l0.532,0.532l7.396-7.396l-0.127,0.73l0.578-0.303l-2.139,5.179l0.695,0.287l2.479-6.013l0.272-0.143
	v11.448h0.754V16.261l0.275,0.147l2.493,6.001l0.692-0.289l-2.145-5.164l0.566,0.297l-0.127-0.73l7.396,7.396l0.532-0.53
	l-8.147-8.148l-0.035-0.2l6.395,2.638l0.284-0.695l-6.347-2.618l0.133-0.132H27.712z M15.896,13.48l-0.582,0.57l-0.188,0.181
	l-0.185,0.179l-0.063,0.063l0.038,0.227l0.156,0.9l0.047,0.277l-0.018-0.009l-0.865-0.456l-0.18-0.093l-0.197-0.106L13.66,15.32
	l-0.178,0.093l-0.859,0.452l-0.027,0.013l0.049-0.277l0.154-0.897l0.036-0.229l-0.062-0.063l-0.187-0.179l-0.183-0.179l-0.586-0.572
	l-0.004-0.002l0.103-0.016l0.89-0.128l0.401-0.059l0.017-0.002l0.035-0.07l0.159-0.32l0.063-0.128l0.174-0.357l0.201-0.404
	l0.197,0.4l0.182,0.361l0.06,0.128l0.159,0.318l0.031,0.072l0.017,0.002l0.405,0.059l0.877,0.126l0.115,0.018L15.896,13.48z"/>
<path fill="#5d5d5c" d="M8.826,3.076c0.576,0,1.049-0.471,1.049-1.049c0-0.579-0.473-1.049-1.049-1.049
	c-0.58,0-1.051,0.47-1.051,1.049C7.775,2.605,8.246,3.076,8.826,3.076 M8.826,1.681c0.188,0,0.344,0.154,0.344,0.346
	c0,0.189-0.155,0.343-0.344,0.343c-0.191,0-0.348-0.154-0.348-0.343C8.479,1.835,8.635,1.681,8.826,1.681"/>
<path fill="#5d5d5c" d="M18.684,3.076c0.578,0,1.049-0.471,1.049-1.049c0-0.579-0.471-1.049-1.049-1.049
	c-0.576,0-1.047,0.47-1.047,1.049C17.637,2.605,18.107,3.076,18.684,3.076 M18.684,1.681c0.19,0,0.346,0.154,0.346,0.346
	c0,0.189-0.155,0.343-0.346,0.343c-0.191,0-0.344-0.154-0.344-0.343C18.34,1.835,18.492,1.681,18.684,1.681"/>
<path fill="#5d5d5c" d="M8.896,25.125c-0.619,0-1.121,0.502-1.121,1.12c0,0.617,0.502,1.119,1.121,1.119
	c0.615,0,1.119-0.502,1.119-1.119C10.016,25.627,9.512,25.125,8.896,25.125 M8.896,26.612c-0.203,0-0.371-0.166-0.371-0.367
	c0-0.203,0.168-0.368,0.371-0.368s0.367,0.165,0.367,0.368C9.264,26.446,9.1,26.612,8.896,26.612"/>
<path fill="#5d5d5c" d="M18.879,25.125c-0.615,0-1.117,0.502-1.117,1.12c0,0.617,0.502,1.119,1.117,1.119
	c0.617,0,1.119-0.502,1.119-1.119C19.998,25.627,19.496,25.125,18.879,25.125 M18.879,26.612c-0.203,0-0.367-0.166-0.367-0.367
	c0-0.203,0.164-0.368,0.367-0.368c0.205,0,0.369,0.165,0.369,0.368C19.248,26.446,19.084,26.612,18.879,26.612"/>
<path fill="#5d5d5c" d="M1.488,17.718c-0.619,0-1.119,0.501-1.119,1.119c0,0.617,0.5,1.119,1.119,1.119
	c0.617,0,1.119-0.502,1.119-1.119C2.607,18.219,2.105,17.718,1.488,17.718 M1.488,19.204c-0.203,0-0.367-0.166-0.367-0.367
	c0-0.202,0.164-0.367,0.367-0.367s0.369,0.165,0.369,0.367C1.857,19.038,1.691,19.204,1.488,19.204"/>
<path fill="#5d5d5c" d="M1.488,9.974c0.617,0,1.119-0.504,1.119-1.121c0-0.617-0.502-1.119-1.119-1.119
	c-0.619,0-1.119,0.502-1.119,1.119C0.369,9.47,0.869,9.974,1.488,9.974 M1.488,8.486c0.203,0,0.369,0.165,0.369,0.367
	c0,0.203-0.166,0.367-0.369,0.367S1.121,9.056,1.121,8.853C1.121,8.651,1.285,8.486,1.488,8.486"/>
<path fill="#5d5d5c" d="M26.287,17.718c-0.619,0-1.119,0.501-1.119,1.119c0,0.617,0.5,1.119,1.119,1.119
	c0.615,0,1.121-0.502,1.121-1.119C27.408,18.219,26.902,17.718,26.287,17.718 M26.287,19.204c-0.203,0-0.367-0.166-0.367-0.367
	c0-0.202,0.164-0.367,0.367-0.367s0.369,0.165,0.369,0.367C26.656,19.038,26.49,19.204,26.287,19.204"/>
<path fill="#5d5d5c" d="M26.287,9.974c0.615,0,1.121-0.504,1.121-1.121c0-0.617-0.506-1.119-1.121-1.119
	c-0.619,0-1.119,0.502-1.119,1.119C25.168,9.47,25.668,9.974,26.287,9.974 M26.287,8.486c0.203,0,0.369,0.165,0.369,0.367
	c0,0.203-0.166,0.367-0.369,0.367S25.92,9.056,25.92,8.853C25.92,8.651,26.084,8.486,26.287,8.486"/>
</svg>
