<?xml version="1.0" encoding="utf-8"?>
<!-- Generator: Adobe Illustrator 15.0.0, SVG Export Plug-In . SVG Version: 6.00 Build 0)  -->
<!DOCTYPE svg PUBLIC "-//W3C//DTD SVG 1.1//EN" "http://www.w3.org/Graphics/SVG/1.1/DTD/svg11.dtd">
<svg version="1.1" id="Layer_1" xmlns="http://www.w3.org/2000/svg" xmlns:xlink="http://www.w3.org/1999/xlink" x="0px" y="0px"
	 width="45.547px" height="45.547px" viewBox="0 0 45.547 45.547" enable-background="new 0 0 45.547 45.547" xml:space="preserve">
<path fill="none" stroke="#FFFFFF" stroke-width="1.5" stroke-miterlimit="10" d="M7.201,38.346
	c-2.107-2.105-3.734-4.555-4.838-7.276c-1.07-2.638-1.613-5.429-1.613-8.295c0-2.867,0.543-5.658,1.613-8.297
	c1.104-2.72,2.73-5.169,4.838-7.277c2.105-2.106,4.557-3.735,7.277-4.838c2.637-1.07,5.43-1.612,8.295-1.612
	c2.871,0.002,5.66,0.542,8.297,1.612c2.719,1.104,5.168,2.732,7.277,4.838c2.107,2.108,3.734,4.557,4.836,7.279
	c1.072,2.636,1.613,5.425,1.613,8.295c0,2.868-0.541,5.657-1.613,8.295c-1.102,2.72-2.729,5.171-4.836,7.276
	c-2.109,2.107-4.557,3.735-7.277,4.838c-2.641,1.07-5.426,1.615-8.297,1.613c-2.865,0.002-5.656-0.543-8.295-1.613
	C11.758,42.082,9.307,40.452,7.201,38.346"/>
<circle fill="none" stroke="#FFFFFF" stroke-miterlimit="10" cx="17.801" cy="24.875" r="1.856"/>
<circle fill="none" stroke="#FFFFFF" stroke-miterlimit="10" cx="22.824" cy="31.176" r="1.855"/>
<circle fill="none" stroke="#FFFFFF" stroke-miterlimit="10" cx="27.564" cy="24.875" r="1.856"/>
<circle fill="none" stroke="#FFFFFF" stroke-miterlimit="10" cx="22.773" cy="19.174" r="1.14"/>
<path fill="none" stroke="#FFFFFF" stroke-miterlimit="10" d="M30.107,20.27c0,0.629,0.51,1.141,1.137,1.141
	c0.297,0,0.568-0.114,0.768-0.298c-0.064-0.219-0.135-0.435-0.211-0.65c-0.166-0.461-0.357-0.904-0.574-1.333
	C30.607,19.141,30.107,19.647,30.107,20.27z"/>
<path fill="none" stroke="#FFFFFF" stroke-miterlimit="10" d="M15.486,20.27c0-0.63-0.512-1.141-1.139-1.141
	c-0.02,0-0.035,0.002-0.057,0.002c-0.211,0.429-0.406,0.872-0.57,1.332c-0.07,0.196-0.141,0.393-0.199,0.594
	c0.209,0.216,0.5,0.354,0.826,0.354C14.975,21.411,15.486,20.899,15.486,20.27z"/>
<path fill="none" stroke="#FFFFFF" stroke-miterlimit="10" d="M32.016,21.113c-0.201,0.185-0.473,0.298-0.768,0.298
	c-0.627,0-1.139-0.512-1.139-1.141c0-0.623,0.5-1.129,1.117-1.139c-0.42-0.841-0.93-1.617-1.525-2.316
	c-0.441-0.515-0.918-0.974-1.422-1.379c-0.838,1.27-2.986,2.173-5.506,2.173c-2.521,0-4.67-0.903-5.508-2.173
	c-0.506,0.405-0.98,0.864-1.42,1.379c-0.596,0.701-1.107,1.477-1.529,2.317c0.02,0,0.037-0.002,0.055-0.002
	c0.627,0,1.141,0.51,1.141,1.14c0,0.629-0.514,1.141-1.141,1.141c-0.322,0-0.615-0.138-0.822-0.354
	c-0.379,1.235-0.574,2.535-0.574,3.871c0,1.553,0.262,3.055,0.77,4.465c0.494,1.364,1.199,2.592,2.102,3.649
	c0.902,1.056,1.951,1.884,3.117,2.463c1.201,0.595,2.486,0.897,3.811,0.897c1.326,0,2.607-0.303,3.809-0.897
	c1.17-0.579,2.217-1.407,3.119-2.463c0.904-1.058,1.609-2.285,2.104-3.649c0.506-1.41,0.766-2.912,0.766-4.465
	C32.568,23.611,32.383,22.33,32.016,21.113z"/>
<path fill="none" stroke="#FFFFFF" stroke-miterlimit="10" d="M25.883,11.411c-0.07-0.945-1.436-1.699-3.109-1.699
	c-1.678,0-3.039,0.754-3.107,1.699c-1.668,0.59-2.779,1.645-2.779,2.846c0,0.416,0.139,0.812,0.379,1.179
	c0.838,1.27,2.986,2.173,5.508,2.173c2.52,0,4.668-0.903,5.506-2.173c0.244-0.367,0.379-0.763,0.379-1.179
	C28.658,13.056,27.547,12.001,25.883,11.411z"/>
<line fill="none" stroke="#FFFFFF" stroke-miterlimit="10" x1="20.172" y1="10.531" x2="20.172" y2="8.861"/>
<line fill="none" stroke="#FFFFFF" stroke-miterlimit="10" x1="14.898" y1="18.131" x2="14.898" y2="12.349"/>
<line fill="none" stroke="#FFFFFF" stroke-miterlimit="10" x1="30.607" y1="18.131" x2="30.607" y2="12.349"/>
<line fill="none" stroke="#FFFFFF" stroke-miterlimit="10" x1="14.898" y1="36.686" x2="14.898" y2="31.648"/>
<line fill="none" stroke="#FFFFFF" stroke-miterlimit="10" x1="30.607" y1="36.686" x2="30.607" y2="31.827"/>
<line fill="none" stroke="#FFFFFF" stroke-miterlimit="10" x1="32.572" y1="24.293" x2="32.572" y2="16.761"/>
<line fill="none" stroke="#FFFFFF" stroke-miterlimit="10" x1="12.992" y1="24.293" x2="12.992" y2="16.761"/>
<line fill="none" stroke="#FFFFFF" stroke-miterlimit="10" x1="25.361" y1="10.531" x2="25.361" y2="8.861"/>
<line fill="none" stroke="#FFFFFF" stroke-miterlimit="10" x1="25.904" y1="11.417" x2="19.67" y2="11.417"/>
<line fill="none" stroke="#FFFFFF" stroke-miterlimit="10" x1="22.773" y1="29.381" x2="22.773" y2="20.298"/>
<line fill="none" stroke="#FFFFFF" stroke-miterlimit="10" x1="22.773" y1="36.215" x2="22.773" y2="33.131"/>
</svg>
