<?xml version="1.0" encoding="utf-8"?>
<!-- Generator: Adobe Illustrator 15.0.0, SVG Export Plug-In . SVG Version: 6.00 Build 0)  -->
<!DOCTYPE svg PUBLIC "-//W3C//DTD SVG 1.1//EN" "http://www.w3.org/Graphics/SVG/1.1/DTD/svg11.dtd">
<svg version="1.1" id="Layer_1" xmlns="http://www.w3.org/2000/svg" xmlns:xlink="http://www.w3.org/1999/xlink" x="0px" y="0px"
	 width="119.31px" height="119.308px" viewBox="0 0 119.31 119.308" enable-background="new 0 0 119.31 119.308"
	 xml:space="preserve">
<path fill="none" stroke="#FFFFFF" stroke-width="2" stroke-miterlimit="10" d="M83.228,36.191
	c-0.011-0.027-0.019-0.056-0.026-0.084c-1.897-0.68-3.884-1.042-5.922-1.042c-2.283-0.001-4.503,0.431-6.6,1.282
	c-0.448,0.182-0.878,0.393-1.307,0.608c-1.646,0.83-3.156,1.913-4.487,3.244c-1.677,1.676-2.972,3.625-3.851,5.793
	c-0.852,2.095-1.282,4.316-1.283,6.599c-0.001,0.266,0.026,0.529,0.039,0.793c0.769,0.016,1.518,0.164,2.227,0.453
	c0.772,0.312,1.467,0.774,2.065,1.372l0.019,0.015c0.015,0.016,0.026,0.033,0.043,0.049"/>
<path fill="none" stroke="#FFFFFF" stroke-width="2" stroke-miterlimit="10" d="M64.146,55.273c0.573,0.587,1.021,1.265,1.328,2.018
	c0.286,0.708,0.436,1.459,0.45,2.227c0.267,0.012,0.526,0.038,0.791,0.037c2.285,0.001,4.507-0.43,6.603-1.282
	c2.168-0.877,4.117-2.173,5.793-3.85c1.332-1.332,2.412-2.841,3.243-4.488c0.216-0.428,0.427-0.857,0.605-1.305
	c0.854-2.099,1.287-4.32,1.284-6.601c0-2.008-0.356-3.965-1.016-5.838"/>
<path fill="none" stroke="#FFFFFF" stroke-width="2" stroke-miterlimit="10" d="M61.034,73.317
	c-0.852-2.098-1.282-4.319-1.281-6.602c0-0.265,0.025-0.527,0.037-0.791c-0.042,0-0.083,0.004-0.125,0.006v27.356V65.931h-0.011
	c-0.046,0-0.089-0.006-0.134-0.006c0.01,0.264,0.037,0.524,0.037,0.79c0,2.283-0.431,4.505-1.283,6.603
	c-0.876,2.166-2.174,4.115-3.849,5.793c-1.332,1.33-2.84,2.41-4.489,3.242c0.156,0.517,0.332,1.026,0.535,1.528
	c0.879,2.166,2.174,4.115,3.85,5.793c1.555,1.554,3.354,2.765,5.335,3.634c1.979-0.869,3.775-2.08,5.332-3.635
	c1.676-1.677,2.973-3.626,3.849-5.792c0.204-0.502,0.38-1.012,0.537-1.528c-1.649-0.832-3.157-1.912-4.487-3.242
	C63.208,77.431,61.912,75.483,61.034,73.317z"/>
<path fill="none" stroke="#FFFFFF" stroke-width="2" stroke-miterlimit="10" d="M52.46,59.755h0.221
	c-0.03-0.002-0.059-0.004-0.088-0.004C52.549,59.751,52.505,59.754,52.46,59.755z"/>
<path fill="none" stroke="#FFFFFF" stroke-width="2" stroke-miterlimit="10" d="M36.192,83.226c1.872,0.662,3.828,1.017,5.838,1.017
	c2.282,0,4.502-0.433,6.601-1.283c0.447-0.179,0.878-0.39,1.305-0.606c1.649-0.832,3.156-1.911,4.488-3.242
	c1.676-1.678,2.974-3.626,3.85-5.792c0.852-2.099,1.283-4.321,1.283-6.603c0-0.267-0.027-0.527-0.037-0.791
	c-0.771-0.015-1.522-0.166-2.232-0.453c-0.75-0.304-1.428-0.754-2.016-1.326"/>
<path fill="none" stroke="#FFFFFF" stroke-width="2" stroke-miterlimit="10" d="M55.272,64.146c-0.014-0.017-0.031-0.03-0.047-0.045
	l-0.016-0.017c-0.597-0.6-1.061-1.292-1.374-2.065c-0.287-0.711-0.437-1.459-0.452-2.229c-0.234-0.01-0.466-0.03-0.703-0.034h-0.221
	c-2.236,0.017-4.412,0.445-6.466,1.278c-2.167,0.878-4.118,2.174-5.795,3.851c-1.33,1.332-2.41,2.842-3.243,4.489
	c-0.216,0.427-0.425,0.856-0.605,1.306c-0.853,2.096-1.285,4.317-1.285,6.601c-0.001,2.039,0.363,4.024,1.045,5.92L36.108,83.2
	c0.027,0.01,0.056,0.016,0.084,0.025"/>
<path fill="none" stroke="#FFFFFF" stroke-width="2" stroke-miterlimit="10" d="M93.197,59.755H66.836
	c2.24,0.014,4.422,0.441,6.481,1.277c2.168,0.878,4.116,2.174,5.793,3.852c1.332,1.332,2.411,2.843,3.243,4.488
	c0.516-0.154,1.027-0.332,1.527-0.535c2.168-0.879,4.116-2.174,5.793-3.852c1.556-1.554,2.767-3.354,3.635-5.33
	c-0.869-1.98-2.079-3.779-3.633-5.335c-1.679-1.676-3.629-2.971-5.795-3.849c-0.502-0.204-1.011-0.381-1.527-0.536
	c-0.831,1.646-1.911,3.156-3.243,4.488c-1.677,1.677-3.625,2.973-5.793,3.85c-2.097,0.851-4.318,1.283-6.601,1.282
	c-0.267,0.001-0.526-0.026-0.791-0.037c0,0.046,0.006,0.09,0.004,0.137c0,0.034-0.002,0.067-0.004,0.1h0.711
	c0.028-0.001,0.054-0.004,0.082-0.004c0.039,0,0.078,0.003,0.117,0.004"/>
<path fill="none" stroke="#FFFFFF" stroke-width="2" stroke-miterlimit="10" d="M66.637,59.755h-0.71v0.033
	C66.162,59.778,66.398,59.759,66.637,59.755z"/>
<path fill="none" stroke="#FFFFFF" stroke-width="2" stroke-miterlimit="10" d="M66.718,59.751c-0.026,0-0.054,0.003-0.081,0.004
	h0.198C66.796,59.754,66.757,59.751,66.718,59.751z"/>
<path fill="none" stroke="#FFFFFF" stroke-width="2" stroke-miterlimit="10" d="M83.134,83.22c0.021-0.006,0.044-0.012,0.065-0.02
	c0.011-0.027,0.019-0.052,0.027-0.076c0.663-1.876,1.018-3.834,1.018-5.845c0-2.284-0.43-4.503-1.285-6.603
	c-0.18-0.446-0.389-0.877-0.605-1.305c-0.832-1.646-1.91-3.156-3.242-4.488c-1.678-1.678-3.625-2.974-5.793-3.851
	c-2.062-0.836-4.242-1.264-6.483-1.278h-0.198c-0.238,0.004-0.475,0.024-0.71,0.033c-0.019,0.771-0.166,1.521-0.455,2.231
	c-0.305,0.754-0.754,1.431-1.329,2.021l-0.058,0.062c-0.013,0.012-0.026,0.021-0.037,0.032"/>
<path fill="none" stroke="#FFFFFF" stroke-width="2" stroke-miterlimit="10" d="M64.048,64.134c-0.59,0.58-1.271,1.033-2.028,1.338
	c-0.71,0.287-1.459,0.437-2.229,0.453c-0.012,0.265-0.037,0.525-0.037,0.791c-0.001,2.281,0.43,4.504,1.28,6.603
	c0.879,2.166,2.175,4.113,3.853,5.792c1.33,1.331,2.84,2.411,4.488,3.243c0.428,0.216,0.858,0.426,1.304,0.604
	c2.1,0.854,4.32,1.285,6.602,1.283c2.015,0,3.976-0.355,5.854-1.021"/>
<path fill="none" stroke="#FFFFFF" stroke-width="2" stroke-miterlimit="10" d="M52.681,59.755c0.236,0.004,0.469,0.023,0.703,0.033
	c0-0.012-0.001-0.022-0.002-0.033H52.681z"/>
<path fill="none" stroke="#FFFFFF" stroke-width="2" stroke-miterlimit="10" d="M45.993,61.032c2.055-0.833,4.23-1.261,6.467-1.276
	H26.132H52.46c0.045-0.001,0.089-0.004,0.133-0.004c0.029,0,0.058,0.002,0.087,0.004h0.702c-0.002-0.035-0.004-0.069-0.004-0.101
	c0.001-0.047,0.005-0.091,0.006-0.136c-0.265,0.011-0.526,0.037-0.791,0.037c-2.283,0-4.504-0.431-6.602-1.283
	c-2.166-0.877-4.116-2.173-5.793-3.849c-1.331-1.332-2.412-2.84-3.243-4.489c-0.515,0.157-1.024,0.332-1.526,0.536
	c-2.166,0.876-4.118,2.174-5.793,3.85c-1.555,1.556-2.767,3.355-3.638,5.334c0.872,1.98,2.083,3.776,3.638,5.331
	c1.675,1.679,3.627,2.976,5.793,3.851c0.501,0.204,1.011,0.382,1.526,0.537c0.833-1.648,1.913-3.156,3.243-4.488
	C41.875,63.207,43.826,61.911,45.993,61.032z"/>
<path fill="none" stroke="#FFFFFF" stroke-width="2" stroke-miterlimit="10" d="M58.274,45.991c0.852,2.097,1.281,4.317,1.283,6.601
	c0,0.265-0.027,0.528-0.037,0.791c0.043,0,0.089-0.004,0.134-0.004h0.011V26.222v27.157c0.042,0,0.083,0.004,0.127,0.006
	c-0.014-0.265-0.04-0.528-0.039-0.793c0-2.284,0.43-4.504,1.281-6.6c0.879-2.168,2.177-4.117,3.851-5.793
	c1.332-1.331,2.842-2.414,4.49-3.244c-0.158-0.516-0.332-1.026-0.537-1.526c-0.877-2.168-2.172-4.119-3.85-5.794
	c-1.557-1.553-3.355-2.766-5.334-3.635c-1.979,0.868-3.776,2.08-5.333,3.635c-1.676,1.675-2.971,3.625-3.85,5.794
	c-0.204,0.502-0.38,1.012-0.535,1.526c1.647,0.832,3.155,1.912,4.488,3.244C56.101,41.875,57.397,43.824,58.274,45.991z"/>
<path fill="none" stroke="#FFFFFF" stroke-width="2" stroke-miterlimit="10" d="M55.173,55.261c0.013-0.013,0.022-0.025,0.034-0.037
	l0.062-0.057c0.59-0.577,1.267-1.023,2.021-1.33c0.709-0.291,1.459-0.438,2.231-0.455c0.009-0.263,0.037-0.525,0.037-0.791
	c-0.002-2.283-0.432-4.504-1.283-6.601c-0.877-2.167-2.174-4.116-3.85-5.792c-1.333-1.332-2.842-2.412-4.488-3.244
	c-0.428-0.216-0.859-0.425-1.306-0.607c-2.097-0.852-4.319-1.283-6.601-1.282c-2.037-0.001-4.025,0.362-5.921,1.044
	c-0.008,0.021-0.014,0.045-0.022,0.066"/>
<path fill="none" stroke="#FFFFFF" stroke-width="2" stroke-miterlimit="10" d="M36.087,36.175
	c-0.664,1.877-1.021,3.838-1.021,5.854c-0.001,2.281,0.431,4.501,1.283,6.601c0.181,0.447,0.39,0.877,0.606,1.305
	c0.831,1.648,1.912,3.156,3.243,4.488c1.677,1.677,3.627,2.973,5.793,3.85c2.098,0.851,4.32,1.283,6.602,1.283
	c0.265,0,0.526-0.027,0.791-0.037c0.015-0.77,0.164-1.521,0.453-2.23c0.307-0.757,0.758-1.437,1.336-2.028"/>
<path fill="none" stroke="#FFFFFF" stroke-width="2" stroke-miterlimit="10" d="M89.207,9.011
	c-6.854-3.998-14.258-6.533-22.016-7.529C59.68,0.514,52.124,1.003,44.743,2.949C37.359,4.89,30.54,8.174,24.475,12.714
	c-6.26,4.685-11.465,10.532-15.464,17.385c-3.994,6.851-6.529,14.26-7.53,22.016c-0.969,7.511-0.472,15.068,1.468,22.453
	c1.944,7.381,5.229,14.202,9.768,20.265c4.685,6.258,10.534,11.463,17.385,15.463c6.852,3.998,14.26,6.531,22.018,7.53
	c7.51,0.97,15.06,0.474,22.448-1.468c7.381-1.942,14.201-5.225,20.267-9.764c6.261-4.688,11.464-10.537,15.458-17.391
	c4.004-6.853,6.535-14.258,7.536-22.014c0.967-7.514,0.474-15.068-1.47-22.449c-1.938-7.384-5.228-14.202-9.764-20.268
	C101.911,18.211,96.061,13.01,89.207,9.011z"/>
</svg>
